<svg xmlns="http://www.w3.org/2000/svg" viewBox="0 0 117.72 117.72">
  <defs>
    <style>
      .cls-1 {
        fill: #f5cb14;
      }
    </style>
  </defs>
  <title>house-greyjoy</title>
  <g id="Layer_2" data-name="Layer 2">
    <g id="Layer_1-2" data-name="Layer 1">
      <g>
        <rect width="117.72" height="117.72"/>
        <g>
          <path d="M69.6,57.08a1.51,1.51,0,0,1,.07-.37,1.37,1.37,0,0,0,.12-1,.43.43,0,0,1,.09-.42A.63.63,0,0,0,70,55a2.68,2.68,0,0,0,0-.4c0-.08,0-.2-.07-.24s-.09-.21-.07-.33a2.62,2.62,0,0,0,.07-.62,1.94,1.94,0,0,0-.37-1.11.4.4,0,0,1-.1-.15,1.41,1.41,0,0,0-.35-.52,3.12,3.12,0,0,0-1.84-1,5.2,5.2,0,0,0-1.35-.21,4.53,4.53,0,0,0-2.29.62A6.73,6.73,0,0,0,62.5,52c-.26.24-.51.48-.79.71a.81.81,0,0,0-.26.42,8.09,8.09,0,0,0-.32,1.46,4.2,4.2,0,0,1-.14.59,1.16,1.16,0,0,0,0,.19l.38-.17c.47-.2.94-.41,1.43-.59s.85-.26,1.28-.4A6.26,6.26,0,0,1,66,54a.58.58,0,0,1,.49.22.84.84,0,0,0,.66.32.93.93,0,0,1,.83.59,1.18,1.18,0,0,0,.38.53.81.81,0,0,1,.12.14.25.25,0,0,1-.38.06,12.83,12.83,0,0,0-1.92-.57.37.37,0,0,0-.18,0c-.37,0-.75,0-1.12.11a1.09,1.09,0,0,0-.78.55l.16.22a1.39,1.39,0,0,1-.42.59.45.45,0,0,0-.16.27c-.09.46-.19.92-.29,1.37a2.35,2.35,0,0,1-.11.35l.22.31a.51.51,0,0,0-.21.67,4.44,4.44,0,0,1,.1,1.21,7.78,7.78,0,0,0,.14,1.17,5.88,5.88,0,0,1,.1,1.18,18,18,0,0,0,.21,2.54,18.73,18.73,0,0,1,.18,2,3.28,3.28,0,0,0,.1.69c0,.24.09.48.13.72a.73.73,0,0,1-.06.5.51.51,0,0,0-.06.27A16.89,16.89,0,0,1,64,72.32c-.07.65-.07,1.3-.12,2,0,.46-.12.92-.18,1.38a.58.58,0,0,0,.11.4c.25.39.47.8.73,1.19a3.51,3.51,0,0,0,1.29,1.22,1.83,1.83,0,0,1,.3.27.88.88,0,0,1-.6.22,6.65,6.65,0,0,0-.78.08,2,2,0,0,0-1.37.84.9.9,0,0,1,.1.12.32.32,0,0,1-.07.39.26.26,0,0,1-.35,0,1.12,1.12,0,0,0-.38-.11,2.27,2.27,0,0,0-.13,1.25.05.05,0,0,0,0,0c.34.3.35.74.49,1.13,0,.06,0,.13.07.2l.1,0c.32-.07.39,0,.37.34s0,.34.31.51a2.78,2.78,0,0,0,1.29.3,5.3,5.3,0,0,1,1.42.27,1.17,1.17,0,0,1-.18.26A2.42,2.42,0,0,0,65.7,86a5.1,5.1,0,0,0,0,1.46,1.68,1.68,0,0,0,.65,1.09q.5.42,1,.81c.23.16.48.3.74.45a2.56,2.56,0,0,1-1,.32l-1,.21c-.15.19-.09.52-.42.52l-.21-.29a.81.81,0,0,0-.48.59c0,.24-.11.4-.39.39a2.13,2.13,0,0,0,.16,1.11c.16,0,.24,0,.34.15s.45.49.68.73.15.2.07.32a.25.25,0,0,1-.33.07,4.78,4.78,0,0,0-1.88-.28c-.32,0-.65,0-1,0a4.47,4.47,0,0,0-1.15.14.67.67,0,0,0-.3.13,3.66,3.66,0,0,0-1.07,1.45c-.15.38-.15.38-.37.56,0,.45-.19.74-.77,1a.54.54,0,0,0,0,.43,1.23,1.23,0,0,1,.09.8c0,.1,0,.2-.05.3-.06.39-.13.46-.53.54l-.28-.58c0-.42,0-.88,0-1.34,0,0,0-.13,0-.15-.24-.17-.29-.47-.48-.68a9.87,9.87,0,0,1-.72-1,1.9,1.9,0,0,0-.63-.69.53.53,0,0,1-.11-.14,3.58,3.58,0,0,0-1.28-.83,2.9,2.9,0,0,0-.51,0l-.37,0a.54.54,0,0,1-.58-.26c-.63.25-1.24.63-1.93.29,0,0,0-.08,0-.09a1.85,1.85,0,0,0,.4-.33.51.51,0,0,1,.39-.21,4.06,4.06,0,0,1,.36-.36.41.41,0,0,0,.2-.41A1.78,1.78,0,0,0,52,90.78a7.47,7.47,0,0,0-1.71-.63L50,90.07s0-.08,0-.09c.37-.35.77-.69,1.13-1.06a1.66,1.66,0,0,0,.57-1.41c0-.07,0-.14,0-.21s0-.38.31-.42c0-.16-.07-.3-.11-.45s-.11-.47-.17-.7a1.55,1.55,0,0,0,0-.21c-.07-.22-.1-.24-.34-.25,0,0,0,0-.1,0,0-.23,0-.49-.22-.66a.54.54,0,0,1,.45-.16,9.27,9.27,0,0,0,2-.28,1.14,1.14,0,0,0,1-1.08c0-.07,0-.14,0-.21a1.1,1.1,0,0,0,.09-.38c0-.11-.13-.2-.21-.31a1.22,1.22,0,0,1,.17-.08l.19,0a1.4,1.4,0,0,1,0-.45,1.48,1.48,0,0,1,.28-.35l.06-.31c-.14,0-.17-.14-.16-.29s0-.34-.31-.42a.48.48,0,0,1-.19-.09c-.25-.15-.51-.29-.75-.45a3.48,3.48,0,0,0-1.67-.6L51.73,79l.45-.57c.35-.41.69-.82,1-1.22a.41.41,0,0,0,0-.54.55.55,0,0,0,.38-.47.57.57,0,0,1,.12-.21c.08-.09.19-.14.15-.3s.1-.16.16-.25a.76.76,0,0,1-.24-.79,1.15,1.15,0,0,0-.16-.9.72.72,0,0,1-.09-.37c0-.53-.06-1-.1-1.58a2.92,2.92,0,0,0-.13-.46,1.17,1.17,0,0,0-.06-.2.2.2,0,0,1,.16-.3l.2-.07a3.94,3.94,0,0,0-.14-.49c-.13-.36-.12-.42.13-.7-.19-.16-.19-.16-.11-.39a1.13,1.13,0,0,0,.06-.32,2.32,2.32,0,0,0-.07-1,.34.34,0,0,1,.06-.37A.61.61,0,0,0,53.7,67V65.22a1.55,1.55,0,0,0,0-.37.47.47,0,0,1,.27-.62l-.27-.29c.08-.16.27-.16.42-.25a2.22,2.22,0,0,1-.06-.46,7,7,0,0,1,.09-1.12c0-.22.08-.41-.18-.56l.32-.34a5.18,5.18,0,0,0,0-1.24c0-.28-.06-.56-.07-.84a.53.53,0,0,1,.09-.21L54,58.74c0-.17.09-.34.15-.51A1.51,1.51,0,0,0,54,57a2.72,2.72,0,0,0-.78-.84.48.48,0,0,1-.18-.26.3.3,0,0,0-.19-.25,3.08,3.08,0,0,0-2.41-.26c-.18.06-.37.13-.36.39,0,0-.11.13-.16.13s-.2-.06-.21-.11a1.56,1.56,0,0,1,0-.48c0-.05.08-.11.13-.14L50,55c-.1-.39,0-.55.43-.49l.16,0a5.28,5.28,0,0,1,.41-.41.36.36,0,0,1,.23-.11,13.09,13.09,0,0,1,1.66.09,7.9,7.9,0,0,1,1.59.41c.52.18,1,.44,1.53.67l.45.19.25-.53-.34-.13c0-.19,0-.37,0-.55a5.16,5.16,0,0,0-.12-1.3.68.68,0,0,0-.12-.22s-.06,0-.06-.07c-.07-.28-.33-.37-.53-.51a12.82,12.82,0,0,0-2-1.08,13.2,13.2,0,0,0-1.36-.53,3.78,3.78,0,0,0-.84-.14,5.1,5.1,0,0,0-.78,0,1.54,1.54,0,0,0-1,.45c-.22.21-.43.43-.64.65a.68.68,0,0,0-.14.23.86.86,0,0,1-.52.55c-.06,0-.14.09-.16.15A13.65,13.65,0,0,0,47.76,54a7.39,7.39,0,0,0,0,1.33c0,.36,0,.71.05,1.07a9.43,9.43,0,0,0,.07,1.06,3.49,3.49,0,0,0,.29.86c.32.69.66,1.37,1,2a11.46,11.46,0,0,1,.9,2c0,.08.08.15.11.22s.16.37.23.56.21.59.32.88a8.6,8.6,0,0,1,.49,2.5,16.05,16.05,0,0,1,0,1.7A7.64,7.64,0,0,1,50.57,71a1.41,1.41,0,0,0-.08.31,1.11,1.11,0,0,1-.07.16,6.07,6.07,0,0,1-.55.87c-.2.2-.35.44-.56.64a9.69,9.69,0,0,1-2.87,1.79,3.87,3.87,0,0,1-1.2.27A10.29,10.29,0,0,1,43,75c-.31,0-.62-.11-.93-.17l-.38-.09a.78.78,0,0,1-.69-.51.79.79,0,0,0-.32-.36c-.46-.33-.93-.65-1.36-1a5.22,5.22,0,0,1-1.46-2c-.2-.49-.41-1-.58-1.47a5.59,5.59,0,0,1-.15-.71c0-.19-.08-.38-.11-.57-.06-.36-.14-.72-.17-1.08-.06-.75-.11-1.49-.15-2.24a4.21,4.21,0,0,1,.15-1.27,5.85,5.85,0,0,0,0-.6c.06-.47.12-1,.2-1.41s.14-.63.21-.95a.07.07,0,0,0,0-.06c-.13-.25.05-.46.11-.68.28-1,.58-1.92.83-2.89a5.79,5.79,0,0,0,.29-1.48.79.79,0,0,1,.08-.26c.12-.27.24-.54.35-.81s.24-.53.35-.8c0-.12.06-.25.1-.38s.08-.22.13-.34l.53-1.19a1.63,1.63,0,0,1,.09-.19c.4-.7.65-1.48,1.05-2.19.2-.35.36-.72.55-1.11l-.2,0-1.2.31a1.88,1.88,0,0,1-.33.05l-1.58.07-.55,0a10.84,10.84,0,0,1-2.66-.28,1.78,1.78,0,0,1-1.1-.62l-.21.18h-.09a1.67,1.67,0,0,1-.75-.69c-.18-.26-.39-.51-.59-.77s-.22-.31-.32-.47,0-.21.1-.23a.68.68,0,0,1,.35,0,1.36,1.36,0,0,1,.38.3,1.71,1.71,0,0,0,.67.46l.77.29a1.07,1.07,0,0,0,.91,0l.38-.15A.41.41,0,0,0,36,47a7.34,7.34,0,0,1,.84-.21c.32,0,.42.31.66.48A1.05,1.05,0,0,1,39,46.93a4.9,4.9,0,0,1,.47-.38c.29-.2.42-.18.66.07l.12.1,0-.16a.46.46,0,0,1,.48-.42c.2,0,.4,0,.6,0s.21,0,.26,0a2.07,2.07,0,0,1,.88-.31l.08,0a1,1,0,0,0,0-.17,2.29,2.29,0,0,1,.19-1.36,7.76,7.76,0,0,0,.56-1.89,4.42,4.42,0,0,1,.25-.78,2.78,2.78,0,0,1,.12-.26,2,2,0,0,0-.16-.14c-.72-.57-1.46-1.13-2.17-1.71a5.5,5.5,0,0,1-1.15-1.21c-.24-.37-.54-.71-.81-1.06l-1-1.31-.24-.28a.76.76,0,0,1-.27-.57L37.66,35a.39.39,0,0,1,0-.06,1.2,1.2,0,0,0-.22-.89,9.45,9.45,0,0,1-.81-2.19,5.24,5.24,0,0,1-.13-1.81.34.34,0,0,1,.15-.3,4.87,4.87,0,0,1,1,2.3l.16,0a.37.37,0,0,1,.37.31c0,.12.09.25.12.37a1.51,1.51,0,0,1,0,.3,1.09,1.09,0,0,1-.05.26c.59.34.6.36.44,1.22.18.06.35.13.54.18a.62.62,0,0,1,.55.68c0,.13,0,.26,0,.38.25.1.49.18.72.29a.63.63,0,0,1,.37.58,2.26,2.26,0,0,0,.12.52h.5c.37,0,.53.16.55.53a2.53,2.53,0,0,0,0,.27l.63.11a.57.57,0,0,1,.55.58c0,.22.16.33.38.44,0-.13,0-.23,0-.33s0-.26,0-.39a2.12,2.12,0,0,0,.06-.44c0-.57-.05-1.14-.13-1.7s-.28-1.18-.36-1.78a5,5,0,0,0-.64-1.76c-.07-.14-.13-.29-.2-.44a6.54,6.54,0,0,0-2.5-2.95c-.43-.28-.86-.57-1.31-.83a3,3,0,0,0-.7-.28,13.79,13.79,0,0,0-2.69-.47c-.44,0-.88-.07-1.31-.06a9.46,9.46,0,0,0-1.18.13,2.73,2.73,0,0,0-1.11.47,2.68,2.68,0,0,1-1,.46,3.15,3.15,0,0,0-.76.32,6,6,0,0,0-.54.33c-.89.55-1.78,1.09-2.65,1.67-.38.24-.7.55-1.06.82s-.73.5-1.1.76a.74.74,0,0,0-.13.12c-.13.1-.24.22-.37.31-.55.39-1.1.76-1.64,1.16a5.08,5.08,0,0,1-1.28.63c-.59.21-1.19.41-1.77.64a5,5,0,0,1-2.28.25,7.88,7.88,0,0,1-2.35-.59,8.84,8.84,0,0,1-1.19-.6,4.24,4.24,0,0,1-1-.94,4.14,4.14,0,0,1-.73-1.25c-.19-.45-.41-.89-.57-1.35a6.12,6.12,0,0,1-.3-2.09,6.75,6.75,0,0,1,.23-1.55c0-.11,0-.22,0-.33a.36.36,0,0,1,0-.18c.18-.41.37-.83.56-1.24a1.47,1.47,0,0,1,.1-.22l.42-.66c.06-.1.17-.16.21-.26a3.3,3.3,0,0,1,.77-.93,6.26,6.26,0,0,0,.41-.49,4.27,4.27,0,0,1,2.07-1.39l1.15-.36c1-.32,2.07-.65,3.11-1,.3-.09.61-.17.92-.23a.83.83,0,0,0,.48-.29c.05-.06.09-.13.15-.19.18-.22.33-.39.69-.28.52.15,1.08.19,1.61.3.88.19,1.74.41,2.62.59s1.85.35,2.78.53c.5.1,1,.23,1.52.31s1.3.2,2,.25,1.19,0,1.79,0l.09,0a.16.16,0,0,1-.07.23l-.66.38s-.13.07-.15.13a.7.7,0,0,1-.43.36,1.83,1.83,0,0,1-1,.11,2.91,2.91,0,0,1,0,.32.36.36,0,0,1-.28.35,1.47,1.47,0,0,1-1,0,.44.44,0,0,0-.34,0l-.24.14a1,1,0,0,1-.82.06l-.19-.05-.12.44a1.37,1.37,0,0,1-.36,0,1.47,1.47,0,0,0-1.37.13.85.85,0,0,1-1,0,.93.93,0,0,1-.85.4c-.37,0-.56-.31-.88-.44a1.53,1.53,0,0,1-1.26.16.43.43,0,0,1-.4-.36c0-.18-.28-.29-.53-.26a2.34,2.34,0,0,0-.26,0s0,0,0,0a2.48,2.48,0,0,0-.47-.93.18.18,0,0,0-.08-.09,3.52,3.52,0,0,0-1.41-.63,5.07,5.07,0,0,0-1.69.1,4.29,4.29,0,0,0-1.33.5c-.73.44-1.48.85-2.21,1.28a4.36,4.36,0,0,0-1.13,1,3.59,3.59,0,0,0-.52.86c-.17.35-.29.73-.44,1.09a5.09,5.09,0,0,0-.28,2.81,4.54,4.54,0,0,0,.21.69,11.24,11.24,0,0,0,.62,1.71,3.42,3.42,0,0,0,.33.51,4.51,4.51,0,0,0,2.61,1.67,4.4,4.4,0,0,0,2.66-.13,8.22,8.22,0,0,0,2-1.1c.74-.53,1.51-1,2.27-1.51l.18-.12c.88-.63,1.75-1.25,2.62-1.89a3.64,3.64,0,0,0,.56-.55.77.77,0,0,1,.45-.28,1.14,1.14,0,0,0,.26-.09c.83-.41,1.65-.84,2.47-1.25.35-.17.71-.31,1.05-.48a4.52,4.52,0,0,1,1-.43,6.54,6.54,0,0,0,.86-.17,5.83,5.83,0,0,1,1.86-.14,17.77,17.77,0,0,1,5.43,1.17,8,8,0,0,1,.85.39c.11.06.2.12.2.28a.37.37,0,0,0,.1.21c.19.2.39.39.57.59s.56.67.85,1a4.59,4.59,0,0,1,.73,1.12c.15.3.25.62.38.92.21.47.44.94.64,1.41s.43,1,.61,1.46a3.56,3.56,0,0,1,.17.8,1,1,0,0,0,.26.6.45.45,0,0,1,.1.33c0,.64,0,1.28,0,1.92s.08,1,.12,1.54a5,5,0,0,1,.84.23c.29.12.33.46.48.71.25-.05.48-.12.72-.16a.87.87,0,0,1,.36,0,.34.34,0,0,1,.28.32,1.1,1.1,0,0,0,0,.18.45.45,0,0,0,.49.36h.3a.56.56,0,0,1,.61.31.77.77,0,0,0,.86.51,1,1,0,0,1,.43.11.57.57,0,0,1,.43.56.88.88,0,0,0,.64.86,1.9,1.9,0,0,0,.4.14c-.19-.2-.29-.47-.57-.57a.24.24,0,0,1-.16-.29c0-.05,0-.11,0-.16a2.07,2.07,0,0,0-.39-1.63s0-.07-.05-.08c-.29-.12-.26-.36-.22-.61a.67.67,0,0,0-.18-.53.7.7,0,0,1-.14-.38.73.73,0,0,0-.17-.47c-.18-.2-.17-.2,0-.43a3.53,3.53,0,0,1-.35-1.24c-.13-.5-.31-1-.49-1.47a5.65,5.65,0,0,1-.44-1.73,8.72,8.72,0,0,0-.3-2.09,5.47,5.47,0,0,1-.13-.81,1.59,1.59,0,0,0-.08-.39c-.35-.67-.72-1.33-1.08-2a2.76,2.76,0,0,1-.18-.39,2.7,2.7,0,0,0-.51-1,.86.86,0,0,1-.18-.34c-.09-.25-.15-.51-.25-.75a1.79,1.79,0,0,0-.27-.44c-.21-.22-.44-.42-.66-.62a2.63,2.63,0,0,1-.68-.84.65.65,0,0,0-.22-.25,4.12,4.12,0,0,0-1.24-.62,1,1,0,0,1-.31-.13.4.4,0,0,1-.14-.24c0-.12.11-.16.22-.18a2,2,0,0,0,.41-.09.64.64,0,0,1,.78.15l.14.12a2,2,0,0,1,1-.16c.26,0,.31,0,.39.29s.1.39.15.6a2,2,0,0,1,.35,0,1.66,1.66,0,0,1,.55.15.67.67,0,0,1,.36.66,1.73,1.73,0,0,0,0,.33c.18.06.35.13.53.18.36.1.36.11.34.47a.3.3,0,0,0,0,.16,2.16,2.16,0,0,0,.25.27,1.08,1.08,0,0,1,.41,1.27c.3.19.66.33.82.68a1.61,1.61,0,0,1,0,1c.18.23.37.46.54.7a1,1,0,0,1,.12.29l-.22.21c-.17.16-.18.18,0,.37s.25.26.37.4a1.4,1.4,0,0,1,.22.32.27.27,0,0,1-.07.35c-.09.07-.12.21-.18.32l.39.27a.67.67,0,0,1,.32.62c0,.19.06.4-.09.58a.23.23,0,0,0,.07.2c.32.14.37.46.45.73a1.22,1.22,0,0,1,0,.8.89.89,0,0,1,.1,1.35l.36.18a.8.8,0,0,1,.32,1.3l-.06.09.21.06c.38,0,.48.23.48.71,0,.24-.06.48-.09.72a1,1,0,0,1,.65.91c0,.06,0,.13,0,.2a2.59,2.59,0,0,1-.09.35c.06.08.16.19.24.31a2.26,2.26,0,0,1,.17.35c.1.21.18.42.29.62A.82.82,0,0,0,54.5,42a4.37,4.37,0,0,1-.32-2c0-.14,0-.28,0-.42,0-.33,0-.33.26-.6a2.07,2.07,0,0,0-.18-.8.41.41,0,0,1,0-.27,12.44,12.44,0,0,1,.19-2,8.54,8.54,0,0,0,.14-1.42,8.67,8.67,0,0,1,.24-1.62,7.46,7.46,0,0,0,.1-.81c0-.51.05-1,.07-1.52,0-.16.06-.31-.08-.46a.21.21,0,0,1,0-.21.49.49,0,0,0,.11-.42.78.78,0,0,1,.13-.55.63.63,0,0,0,.1-.28c0-.34.1-.68.14-1a2,2,0,0,0,0-.25c0-.29,0-.58,0-.87a3,3,0,0,1,.06-.51c0-.4.12-.8.15-1.21a1,1,0,0,0-.19-.72,1.23,1.23,0,0,1-.22-.46.72.72,0,0,1,0-.41,1.87,1.87,0,0,0-.14-1.5c-.28-.6-.55-1.22-.84-1.85a1,1,0,0,1,.19-.08,2.28,2.28,0,0,1,.9.11.28.28,0,0,1,.22.3.45.45,0,0,0,.24.42c.16.11.31.23.46.35a.5.5,0,0,1,.21.45.34.34,0,0,0,.19.35.82.82,0,0,1,.1,1.23A1.48,1.48,0,0,1,57,24.37a1.46,1.46,0,0,1,.27,1.26c0,.15-.11.19-.24.21a1.61,1.61,0,0,1,.07.94,1.8,1.8,0,0,1-.15.5.5.5,0,0,0,0,.49.89.89,0,0,1-.07,1l-.06.11c0,.05,0,.1.07.14a1.25,1.25,0,0,1,0,1.45.57.57,0,0,0,0,.65.62.62,0,0,1,0,.64l-.3.54a1.51,1.51,0,0,1,.2.8c0,.33-.26.49-.5.67a1.45,1.45,0,0,1-.05,1.61c.15.23.38.42.37.74a1,1,0,0,1-.27.8c.41.55.66,1.12.07,1.7a1.07,1.07,0,0,1,0,1.55c.17.18.34.36.5.55a.47.47,0,0,1,0,.62c-.1.13-.17.27-.27.43l.4.21a.49.49,0,0,1,.27.61.81.81,0,0,1-.41.59c.12.07.24.12.35.19a.49.49,0,0,1,.19.73c-.06.11-.14.22-.22.35.17.13.4.22.44.46a4.91,4.91,0,0,1,.09.67.79.79,0,0,1-.31.59c.21.34.3.74.56,1.1,0-.08.05-.11,0-.13a7.71,7.71,0,0,1,.34-2.34,3.88,3.88,0,0,0,.2-1.59.38.38,0,0,1,0-.15s0-.05,0,0c.15.46.3.94.44,1.42a.49.49,0,0,1,0,.21,7.33,7.33,0,0,0,.27,1.8,5.89,5.89,0,0,1,.16,1.27l.83-1.67-.23-.24a.79.79,0,0,1-.06-1.14,1,1,0,0,0,.23-.67c0-.4,0-.65.55-1a.6.6,0,0,1-.24-.71.94.94,0,0,1,.59-.56L60.88,41a1.13,1.13,0,0,1-.12-.21c-.09-.29-.07-.54.28-.61a3.46,3.46,0,0,0,.38-.13,1.67,1.67,0,0,1-.19-.12c-.08-.07-.19-.15-.21-.24a.83.83,0,0,1,.13-.89,1,1,0,0,1,.1-.11.32.32,0,0,0,0-.46,5.38,5.38,0,0,1-.24-.55.51.51,0,0,1,.14-.63l.34-.29a2.36,2.36,0,0,0-.37-.23.39.39,0,0,1-.23-.52,1.38,1.38,0,0,0,.08-.29.38.38,0,0,1,.17-.27c.19-.12.2-.23.08-.43a3.79,3.79,0,0,0-.25-.35.58.58,0,0,1,0-.75c.23-.31.24-.48,0-.76a.51.51,0,0,1,0-.65.87.87,0,0,1,.11-.18.3.3,0,0,0,0-.34c-.07-.17-.15-.35-.21-.53a.48.48,0,0,1,.2-.61c.33-.24.38-.39.27-.81a1.41,1.41,0,0,1-.13-.43.92.92,0,0,0-.35-.8,1.37,1.37,0,0,1-.33-1.05,1.7,1.7,0,0,1,.21-.46c-.48-.58-.52-.95-.1-1.46l-.18-.23c-.08-.1-.2-.18-.17-.33a.93.93,0,0,1,.25-.55l.07-.06c.29-.23.3-.23.16-.57,0-.09-.07-.19-.12-.28a.35.35,0,0,0-.14-.13c-.16-.1-.19-.15-.12-.31s0-.08.06-.1a1,1,0,0,0,.27-.9.75.75,0,0,1,.44-.77.27.27,0,0,0,.16-.31,2.64,2.64,0,0,1,0-.28.46.46,0,0,1,.22-.38l.69-.49a.78.78,0,0,1,0-.14.34.34,0,0,1,.18-.38c.11,0,.15,0,.29.21.1,0,.2,0,.3,0s.25.16.14.31a2.71,2.71,0,0,0-.42,1.16,2.64,2.64,0,0,1-.12.4,4.06,4.06,0,0,0-.3,1.76,4.88,4.88,0,0,1-.11,1.2,3,3,0,0,0,.07,1.5,2.22,2.22,0,0,1,0,.45c0,.37.07.73.1,1.09,0,.68.13,1.35.15,2A3.93,3.93,0,0,0,62.76,31c.09.25.11.53.21.77a3.1,3.1,0,0,1,.2.85,5.49,5.49,0,0,1,0,.58c0,.34,0,.68,0,1,0,.1,0,.2,0,.3,0,.61-.07,1.21-.09,1.82a1.18,1.18,0,0,0,.2.69.52.52,0,0,1,.06.37c-.07.43-.19.86-.22,1.29,0,.66-.06,1.34-.07,2a3.13,3.13,0,0,0,.1.6c0,.14,0,.25-.1.34A.36.36,0,0,0,63,42c0,.17,0,.34,0,.5l.07,0c.12-.2.25-.39.37-.6a5.54,5.54,0,0,0,.3-.53.61.61,0,0,0,.08-.48,1.09,1.09,0,0,1,.49-1.16c.15-.1.23-.19.18-.39a1,1,0,0,1,0-.45.85.85,0,0,1,.75-.8c0-.4-.29-.74-.11-1.15l.35,0a1,1,0,0,0-.1-.68.24.24,0,0,1,0-.28,2.14,2.14,0,0,0,.1-.22c.11-.29.11-.29.41-.43,0-.09,0-.19,0-.29a1.56,1.56,0,0,1,.09-1,.38.38,0,0,1,.33-.27l.18-.07c-.1-.16-.24-.26-.25-.47a.89.89,0,0,1,.3-.67l.35-.3c.13-.11.15-.19,0-.29s-.2-.42-.25-.63a.31.31,0,0,1,.17-.34c.13-.09.27-.17.4-.27s.24-.23.13-.48a.63.63,0,0,1,.16-.72.48.48,0,0,0,.18-.33,7.55,7.55,0,0,1,.19-.79.75.75,0,0,1,.45-.54,1.79,1.79,0,0,0,.22-.13c0-.07,0-.14-.09-.2a.47.47,0,0,1,0-.46c.07-.15.14-.3.2-.45s.15-.33.44-.35h.17a1.16,1.16,0,0,1,0-.71.38.38,0,0,1,.16-.24.91.91,0,0,1,.33-.15.39.39,0,0,0,.3-.21.78.78,0,0,1,.22-.26.38.38,0,0,0,.22-.41.27.27,0,0,1,.28-.27,1.17,1.17,0,0,0,.82-.41,2.14,2.14,0,0,1,1.29-.56c.09,0,.17-.06.26-.07a6.51,6.51,0,0,1,.77-.13.51.51,0,0,1,.47.27,6.54,6.54,0,0,1-.94.57c-.19.11-.39.21-.59.31a.36.36,0,0,0-.26.34.45.45,0,0,1-.22.35.85.85,0,0,0-.25.25A3.66,3.66,0,0,1,70.91,26a.2.2,0,0,1,0,.31,2.76,2.76,0,0,0-.61.9c.06.34-.24.51-.36.77s-.3.75-.45,1.13c-.07.18.06.3.17.45l-.43.5c0,.05-.1.08-.12.14-.16.37-.31.74-.44,1.12s-.13.55-.21.83a5.34,5.34,0,0,0-.19,1.38,2,2,0,0,1,0,.48c-.06.35-.12.7-.2,1a3.46,3.46,0,0,1-.19.54l0,.08L67.29,37c-.06.2-.13.4-.21.65a.26.26,0,0,1-.06.4.47.47,0,0,0-.09.28c0,.27,0,.54,0,.83a.85.85,0,0,0-.38.41c-.06.17-.12.31,0,.48a.17.17,0,0,1,0,.24,2,2,0,0,0-.39.85.26.26,0,0,0,0,.15c.08.19,0,.29-.17.37a1,1,0,0,0-.38.46,2.19,2.19,0,0,1-.17.29A4.82,4.82,0,0,0,64.75,44c.12-.07.2-.1.27-.15l.82-.72a.36.36,0,0,0,.13-.29,1,1,0,0,1,.76-1c.12,0,.24,0,.36-.08a.36.36,0,0,1,.48.22,1.28,1.28,0,0,1,.56-.81,1,1,0,0,1,.85-.16c.45-.5.86-1,1.67-.91a.87.87,0,0,1,.86-.53,2.13,2.13,0,0,0,.4-.1c0-.29.1-.58.12-.87a24.74,24.74,0,0,0,.15-2.85c.14-.54.09-1.11.28-1.64a5.8,5.8,0,0,0,.13-.6,2.59,2.59,0,0,1,.11-.37c.16-.38.34-.76.5-1.14s.27-.63.41-.94a3.06,3.06,0,0,1,.29-.57A7.48,7.48,0,0,1,75,29a1.64,1.64,0,0,0,.27-.32,2.51,2.51,0,0,1,.19-.24c.48-.39,1-.79,1.44-1.17.29-.21.61-.37.9-.57a11.86,11.86,0,0,1,2-1,3.56,3.56,0,0,1,.91-.22,16.77,16.77,0,0,1,3.47,0,11.57,11.57,0,0,1,3,.73,3.63,3.63,0,0,1,1,.51,19.68,19.68,0,0,0,2.23,1.27l.94.62a11.4,11.4,0,0,1,1.07.75,22.77,22.77,0,0,0,3,2.11c.51.31,1,.68,1.48,1a6.28,6.28,0,0,0,2.87.83c.2,0,.4,0,.6,0a1,1,0,0,0,.42-.08c.73-.34,1.46-.7,2.19-1.06a2,2,0,0,0,.34-.25c.17-.16.33-.32.49-.49a1.14,1.14,0,0,0,.18-.25l.57-1.14a1.83,1.83,0,0,0,.18-.73c0-.44,0-.87.1-1.3a3.81,3.81,0,0,0-.33-2,5.85,5.85,0,0,1-.3-.83,1.36,1.36,0,0,0-.49-.75.53.53,0,0,1-.27-.56c0-.06-.07-.13-.11-.19s0,0-.05,0a18.3,18.3,0,0,1-1.81-1.07,15.87,15.87,0,0,0-2-1.16A4.67,4.67,0,0,0,98,21a.65.65,0,0,0-.24,0,5.67,5.67,0,0,0-1.91.76,1.55,1.55,0,0,0-.3.41,3.54,3.54,0,0,0-.23.53.6.6,0,0,1-.49.4l-.12,0a1.18,1.18,0,0,0-.8.39.62.62,0,0,1-.38.15,3.7,3.7,0,0,1-.66-.07c-.07,0-.12-.1-.2-.17-.47.37-1,.64-1.56.19-.55.36-1,.14-1.36-.41l-.07,0a1.11,1.11,0,0,1-1.29.23.28.28,0,0,1-.21-.27.33.33,0,0,0-.11-.22,1.94,1.94,0,0,1,0,.24.28.28,0,0,1-.36.26,1.21,1.21,0,0,1-1-.78c-.24,0-.48.06-.71.12a1.12,1.12,0,0,0-.3.2.64.64,0,0,1-.3-.74,1.46,1.46,0,0,0-.64.12,1.57,1.57,0,0,1-.29.08c-.3,0-.4,0-.52-.32,0,0,0-.07,0-.11a.57.57,0,0,0-.47-.48.57.57,0,0,1-.39-.32c-.1-.2,0-.31.2-.29l1.61.14A5,5,0,0,0,86.67,21c.65-.16,1.31-.31,1.94-.53a8,8,0,0,1,.93-.18c.66-.15,1.31-.32,1.95-.49l3.7-1a1.29,1.29,0,0,1,1,0,1,1,0,0,0,.33.67.58.58,0,0,0,.32.13c.42,0,.83.06,1.24.14a14.6,14.6,0,0,1,2.6.75q.76.3,1.5.66a4.83,4.83,0,0,1,.58.43,1.12,1.12,0,0,0,.22.16,6.59,6.59,0,0,1,1.46,1,3.31,3.31,0,0,1,.65.75c.43.8.81,1.61,1.21,2.42a14.6,14.6,0,0,1,.36,1.59,7,7,0,0,0,.09.91,5.83,5.83,0,0,1-.16,2.08,1.87,1.87,0,0,1-.24.52,8.58,8.58,0,0,1-1.13,1.73,9,9,0,0,1-.8.69c-.28.25-.54.54-.82.8a.83.83,0,0,1-.27.19,5.1,5.1,0,0,1-.69.24,12.39,12.39,0,0,1-2.17.41,6.4,6.4,0,0,1-2.54-.18c-.6-.2-1.18-.49-1.77-.74a10.91,10.91,0,0,1-2.62-1.57c-.25-.2-.51-.38-.77-.55a6.54,6.54,0,0,0-.6-.28l-.28-.13a.23.23,0,0,1-.15-.29.53.53,0,0,0-.27-.56c-.28-.19-.54-.39-.81-.59l-.15-.11c-.73-.37-1.4-.87-2.17-1.17s-1.67-.67-2.51-1a8.37,8.37,0,0,0-1.92-.44,6.88,6.88,0,0,0-1.11-.14,9.48,9.48,0,0,0-2.31.34c-.34.08-.7.12-1,.21a1.54,1.54,0,0,0-.48.24c-.26.17-.51.37-.76.56a9.29,9.29,0,0,0-.95.7,12.16,12.16,0,0,0-.9,1,7,7,0,0,0-1,1.58c-.13.28-.3.53-.43.8a4.35,4.35,0,0,0-.25.59c-.13.38-.24.75-.34,1.13a1.86,1.86,0,0,0,0,.34,3.27,3.27,0,0,1-.09.56A4.72,4.72,0,0,0,74,36.77c0,.46,0,.91-.06,1.37v.3l.53.29.15-.36c.21-.56.24-.58.82-.69,0-.54.42-.73.89-.83l.44-.07A1.4,1.4,0,0,1,78,35.52c0-.15,0-.27,0-.4l0-.3a.26.26,0,0,1,.17-.29,1.17,1.17,0,0,0,.55-.3,1.44,1.44,0,0,0,.12-.61.71.71,0,0,1,.38-.55l.28-.16c-.2-.6.19-.93.59-1.26l-.15-.34c-.09-.23-.06-.32.14-.47l.27-.2a.79.79,0,0,0,.36-.54.62.62,0,0,1,.32-.47,2,2,0,0,1,.11.38,3.72,3.72,0,0,1,0,1.41c-.08.29-.11.6-.17.9a3.48,3.48,0,0,1-.38,1.11,5,5,0,0,0-.43,1,8.39,8.39,0,0,1-1,2,2.74,2.74,0,0,1-.32.36c-.3.3-.6.58-.89.88a20.69,20.69,0,0,1-2.13,1.95c-.25.19-.47.41-.71.62s-.38.3-.58.43-.19.12-.15.26a.13.13,0,0,1,0,.09c-.21.15-.09.34-.06.52.07.35.14.7.22,1s.2.69.3,1a4.21,4.21,0,0,1,.16.61,4.65,4.65,0,0,0,.22.91c.05.16.12.28.3.31a.74.74,0,0,1,.47.36,1.36,1.36,0,0,0,.22.25,6.45,6.45,0,0,1,.67-.16c.28,0,.38,0,.46.3s.14.2.24.13a.56.56,0,0,1,.62,0,1.91,1.91,0,0,0,.47.12c.21,0,.42,0,.63,0a.93.93,0,0,1,.91.55l.11-.17a.69.69,0,0,1,.17-.17,1.37,1.37,0,0,1,.8-.1c.2,0,.27.21.37.38.2-.19.2-.47.32-.67l1,.23.06-.06c0-.47.1-.53.56-.61.19,0,.41,0,.54-.22,0,0,0,0,.07-.05.34-.19.43-.18.66.12l.46-.14a1.36,1.36,0,0,1-.19.69,1.07,1.07,0,0,1-.79.61c-.13,0-.21.07-.21.21s-.07.15-.16.2l-1.14.57-.88.46a.73.73,0,0,1-.5.09,3.1,3.1,0,0,0-.43,0L77,48.14h-.13c-.29,0-.29,0-.4-.26h-.53a3.18,3.18,0,0,0,.27.84,6.28,6.28,0,0,1,.43.81,4.48,4.48,0,0,1,.16.52c.21.56.4,1.12.64,1.67.15.34.36.65.54,1a5.52,5.52,0,0,1,.26.55c.28.84.53,1.68.83,2.51.51,1.41.83,2.87,1.21,4.31.14.53.3,1,.4,1.59a9.59,9.59,0,0,1,.19,1.51c0,1,.06,2,0,3a3.55,3.55,0,0,1-.2,1c-.16.58-.38,1.15-.51,1.75-.09.4-.21.79-.32,1.19a4.6,4.6,0,0,1-.64,1.27c-.21.31-.42.62-.62.94a4.92,4.92,0,0,1-1.3,1.35,10.06,10.06,0,0,1-2.19,1.12A4.17,4.17,0,0,1,73,75c-.56-.1-1.12-.2-1.68-.33a6.47,6.47,0,0,1-2.17-1,3.78,3.78,0,0,1-.49-.49L68.47,73a3.32,3.32,0,0,1-.38-.46c-.31-.5-.59-1-.88-1.5a1.32,1.32,0,0,0-.12-.2,3.12,3.12,0,0,1-.6-1.12,4.28,4.28,0,0,1-.15-.87,16.42,16.42,0,0,1-.17-1.72,2.56,2.56,0,0,1,.12-1.31,1.63,1.63,0,0,0,.1-.59,3.06,3.06,0,0,1,.4-1.18,8.59,8.59,0,0,0,.32-1.13c-.13-.28.07-.46.18-.68a1.14,1.14,0,0,0,.13-.3,2.49,2.49,0,0,1,.42-.94,2.71,2.71,0,0,0,.26-.51c.12-.26.24-.51.34-.78.17-.44.31-.9.52-1.33A5,5,0,0,1,69.6,57.08ZM24.71,23.71a1.14,1.14,0,0,1,.6.32,1,1,0,0,0,1.05,0l.07-.36a4.68,4.68,0,0,0,.53.24.68.68,0,0,0,.55-.09l.52-.25c-.5,0-.93.13-1.35-.07A14,14,0,0,0,29,23.09c-.13.22-.36.28-.57.41l.84.17c.13-.35.13-.36,0-.64a3.74,3.74,0,0,1,1-.22c-.06.36-.43.27-.6.48a1.1,1.1,0,0,0,1.11-.22c-.2-.14-.23-.28-.05-.37a3.46,3.46,0,0,1,.7-.26.55.55,0,0,1,.48.1c-.3.17-.69.05-.93.33a.37.37,0,0,0,.36.21A3,3,0,0,0,32,23c.27-.05.3-.22.12-.43l-.22-.27c.34,0,.61.14.89,0,0-.2,0-.2.11-.23s.25,0,.32-.07a1.46,1.46,0,0,1,.69-.29L34,21.7a5.92,5.92,0,0,0-.92-.08,11.07,11.07,0,0,1-2.74-.35c-.4-.1-.8-.19-1.21-.27s-.86-.13-1.29-.2l-.66-.14-2.43-.55c-.78-.19-1.55-.4-2.33-.6a.82.82,0,0,0-.9.34.36.36,0,0,1-.07.1,1.06,1.06,0,0,1-.74.47,9.22,9.22,0,0,0-1,.28l-1.83.55-1.52.43a.72.72,0,0,0-.2.09l-1,.59-.26.1.15-.24a7,7,0,0,0-1,.67,2,2,0,0,0-.3.34,3.08,3.08,0,0,1-.37.44c-.43.39-.67.93-1.06,1.36a2,2,0,0,0-.22.46l-.15.27c-.08.17-.18.34-.25.52a8.18,8.18,0,0,0-.34,1.38,6.66,6.66,0,0,0-.14,2,4.07,4.07,0,0,0,.4,1.68c.24.46.46.94.68,1.42a3.94,3.94,0,0,0,1.81,1.86,8.27,8.27,0,0,0,2,.75,3.71,3.71,0,0,0,1.9.11h.15a7.55,7.55,0,0,0,2.32-.68,4,4,0,0,1,.45-.16A5,5,0,0,0,22.28,34l1.65-1.16c.16-.11.31-.25.47-.38l.24-.18c.44-.32.9-.6,1.3-1,.62-.53,1.33-.94,2-1.41l.29-.17L29,29.3c.23-.14.46-.3.7-.42a5.58,5.58,0,0,1,1-.45A2.92,2.92,0,0,0,31.6,28,3.15,3.15,0,0,1,33,27.46,8.88,8.88,0,0,1,35,27.4a16.79,16.79,0,0,1,2.82.48,3.09,3.09,0,0,1,1,.43q.51.35,1,.66a6.86,6.86,0,0,1,1.91,1.77,1.29,1.29,0,0,1,.09.16c.06.11.11.23.18.34s.18.27.25.41c.19.37.38.74.55,1.12a4.45,4.45,0,0,1,.43,1.17c.06.45.13.9.22,1.34a10.08,10.08,0,0,1,.25,1.19c.06.63.07,1.28.08,1.91a2.31,2.31,0,0,0,.16.83,1.28,1.28,0,0,1,.06.33c0,.4,0,.81-.07,1.21a2.62,2.62,0,0,1-.11.8,6.81,6.81,0,0,0-.34,1.17c-.08.37-.2.74-.31,1.11s-.26.68-.37,1a1.61,1.61,0,0,0,0,.87,7.34,7.34,0,0,1,1.57-.55.43.43,0,0,0,.05-.13,4.07,4.07,0,0,1,.42-1.29,3,3,0,0,0,.29-1.14,2.29,2.29,0,0,1,.23-1.15,1,1,0,0,0,.11-.65,8.65,8.65,0,0,1,0-.88c0-.31,0-.63,0-.94a17.68,17.68,0,0,1-.06-2.52,1,1,0,0,0-.13-.61,1.34,1.34,0,0,1-.11-.37,5.15,5.15,0,0,0-.16-.8c-.31-.76-.65-1.51-1-2.26-.11-.25-.21-.51-.31-.76s-.17-.41-.26-.61A8.52,8.52,0,0,0,42,29a10.58,10.58,0,0,1-1.07-1.24.45.45,0,0,0-.19-.14c-.26-.12-.52-.25-.78-.34-.57-.19-1.14-.36-1.72-.52a13.67,13.67,0,0,0-2.89-.56c-.6,0-1.2,0-1.8,0a1.51,1.51,0,0,0-.36.06c-.32.07-.65.16-1,.22a2.61,2.61,0,0,0-.86.27c-.26.15-.52.27-.79.4L29,27.94c-.58.27-1.16.54-1.74.79a1.15,1.15,0,0,0-.41.3,3.45,3.45,0,0,1-.55.53l-2.63,1.91-.18.12-2.38,1.58a7.89,7.89,0,0,1-1.47.89,4.93,4.93,0,0,1-1.8.42,6,6,0,0,1-2-.44,4.33,4.33,0,0,1-1.63-1,3.19,3.19,0,0,1-.39-.5,4.14,4.14,0,0,1-.38-.55,10.88,10.88,0,0,1-.64-1.76,3,3,0,0,1-.22-.76,4.4,4.4,0,0,1,.12-2.1c0-.06,0-.14,0-.21s.07-.23.1-.35a8.48,8.48,0,0,0,.55-1.35,1.24,1.24,0,0,1,.35-.59,10,10,0,0,1,1.13-1,15.12,15.12,0,0,0,1.55-1l.08,0c.32-.17.64-.34.95-.53a5.1,5.1,0,0,1,2.08-.64,3.49,3.49,0,0,1,2.62.76c.07,0,.18.16.17.23,0,.29.19.47.22.73l.26,0a.54.54,0,0,1,.63.38.35.35,0,0,0,.18.18,1.78,1.78,0,0,0,1,.06c.1,0,.17-.07.17-.19Zm23.81,17.7h0a.73.73,0,0,1-.32-.55.3.3,0,0,0-.35-.3,1,1,0,0,0-.24,0l-.77.17c-.15-.56-.43-.92-1-.9v.31a4.8,4.8,0,0,1,.83.38c-.08.16-.18.12-.29.07a1.5,1.5,0,0,0-.55-.21,1.76,1.76,0,0,1-.2,1.35l.09.08a1.89,1.89,0,0,1,.74.46.25.25,0,0,0,.28.08.45.45,0,0,1,.41.14,1.22,1.22,0,0,1,.24.27.72.72,0,0,0,.47.31,1.21,1.21,0,0,1,.94.57,4.89,4.89,0,0,1,.68.16,7.82,7.82,0,0,1,.81.43.41.41,0,0,1,.18.23c0,.15.14.2.26.27a3.61,3.61,0,0,1,.6.35c.3.25.58.53.87.81h.34l0,.22s0,0,.06,0a2,2,0,0,1,.89.41.49.49,0,0,1,.12.13l.57.76.15.19a1.59,1.59,0,0,1-.86-.75.61.61,0,0,0-.21-.24,2.3,2.3,0,0,0-.57-.21c-.5-.12-1-.22-1.52-.31a.44.44,0,0,1-.38-.3.8.8,0,0,0-1-.56.29.29,0,0,0-.3.25c.2.16.2.15.45.13s.39,0,.6,0c0,.21-.15.2-.26.17a1.48,1.48,0,0,0-.54-.08.66.66,0,0,1-.5-.12c-.28-.13-.56-.25-.84-.35a2.7,2.7,0,0,0-.41,0,.56.56,0,0,1-1,.37c.21-.16.49,0,.71-.14a1.8,1.8,0,0,0-.83-.31,1,1,0,0,0-.47.08c-.15,0-.1.22-.13.34a.57.57,0,0,1-.15.26.21.21,0,0,1-.33,0l.3-.16a1.37,1.37,0,0,0-.56-.38.34.34,0,0,0-.3,0,.77.77,0,0,1-.3.19c-.09,0-.16.13-.28.24.26.07.49,0,.65.21A.89.89,0,0,1,45,46a1.73,1.73,0,0,0-.84.1,3.27,3.27,0,0,1-.7.18c-.2,0-.41,0-.46-.21h-.36a2.15,2.15,0,0,0-.75.09.36.36,0,0,0-.32.39.51.51,0,0,0,.4-.13.58.58,0,0,1,.64-.12c0,.14-.07.22-.21.2a.71.71,0,0,0-.55.2.71.71,0,0,1-.73.06c0-.24.23-.12.28-.25a1.06,1.06,0,0,0-.95-.11l-.07.39.41-.19a1.22,1.22,0,0,1-1.36.48L40,47c-.24-.34-.37-.37-.66-.16a1.42,1.42,0,0,0-.32.37.8.8,0,0,1-.77.34.22.22,0,0,1,.2-.23l.36-.09a.9.9,0,0,0-.83-.08.39.39,0,0,0-.19.17.42.42,0,0,1-.44.29c-.33-.48-.49-.76-1.35-.24a1.18,1.18,0,0,1-.25-.19.3.3,0,0,0-.45-.08,1.17,1.17,0,0,1-1,0c-.26-.1-.52-.19-.77-.3a1.71,1.71,0,0,1-.72-.5,2.28,2.28,0,0,0-.22-.22.13.13,0,0,0,0,.11l.74.93a1.14,1.14,0,0,0,.6.52l.22-.28a2,2,0,0,1,.16.19,1.23,1.23,0,0,0,.75.48,9.77,9.77,0,0,0,2.22.34,15.47,15.47,0,0,0,3.84-.28,8,8,0,0,0,.83-.26.89.89,0,0,1,.53-.06,3.39,3.39,0,0,0-.3.19.52.52,0,0,0-.15.18l-.36.9a12.71,12.71,0,0,0-.87,1.87.14.14,0,0,1,0,.06,5,5,0,0,0-.55,1.11c-.15.31-.32.61-.48.92a2.71,2.71,0,0,0-.13.3c-.09.27-.17.54-.26.8A7,7,0,0,0,39,55.17c-.11.66-.35,1.29-.5,1.94a28.39,28.39,0,0,0-.86,3.29,10.92,10.92,0,0,1-.31,1.51,6.69,6.69,0,0,0-.17,1.66,1.27,1.27,0,0,1-.08.48.85.85,0,0,0-.1.49L37.07,66a18.39,18.39,0,0,0,.42,3,7.29,7.29,0,0,0,.28.94l.15.36a8.29,8.29,0,0,0,.75,1.56,7.46,7.46,0,0,0,2.18,2,1,1,0,0,1,.44.41.24.24,0,0,0,.11.09,6.87,6.87,0,0,0,1.84.5,15.15,15.15,0,0,0,2.43,0,3.42,3.42,0,0,0,1.06-.25,9.62,9.62,0,0,0,1.92-1.16,2.47,2.47,0,0,0,.4-.45c.14-.18.25-.39.4-.57a7.09,7.09,0,0,0,.7-1A8.12,8.12,0,0,0,51,67.78a7.35,7.35,0,0,0,0-1.24,15,15,0,0,0-.49-2.47,3.56,3.56,0,0,1-.32-1.1.37.37,0,0,0-.07-.16,2.43,2.43,0,0,1-.29-.49A11.22,11.22,0,0,0,49.26,61c-.22-.46-.43-.93-.65-1.4a2.19,2.19,0,0,0-.29-.57,2.15,2.15,0,0,1-.41-.7,3.31,3.31,0,0,1-.28-.8,8.22,8.22,0,0,1-.07-1.12c0-.49,0-1-.08-1.49a3.76,3.76,0,0,1,.1-1.53A4.46,4.46,0,0,1,48,52.05a.4.4,0,0,1,.48-.24c0-.32.22-.46.39-.64a3.32,3.32,0,0,1,1-.8,2.5,2.5,0,0,1,1-.28,5.12,5.12,0,0,1,.78.06,3.36,3.36,0,0,1,.84.15,7.92,7.92,0,0,1,1.3.5c.45.25.93.44,1.4.67.2.1.39.23.63.38a2.49,2.49,0,0,0-.49-.88c-.22-.29-.43-.59-.64-.88a.78.78,0,0,1-.09-.21,7.69,7.69,0,0,1,.62.67,7.25,7.25,0,0,1,1.22,1.7,1.7,1.7,0,0,1,.1.37,5.43,5.43,0,0,1,.11,1.84l0,0,.09,0c.26.09.27.14.15.37-.24.46-.24.46.1.91l-.22.22a1.32,1.32,0,0,0-.79-.57.91.91,0,0,1-.14-.07c-.48-.21-1-.44-1.45-.63a6,6,0,0,0-2.55-.46,2.1,2.1,0,0,1-.43-.05.35.35,0,0,0-.42.21.37.37,0,0,1-.42.26l-.29,0a.26.26,0,0,1-.1.39l-.2.13c-.11.07-.12.15,0,.27a2.88,2.88,0,0,1,1.27-.38,3.46,3.46,0,0,1,1.82.38.45.45,0,0,1,.25.24.52.52,0,0,0,.24.36l.46.4c.06.06.15.13.15.19s.06.18.12.26a1.47,1.47,0,0,1,.22,1.3c-.05.15-.08.29-.12.43.29.24.29.24.07.5a8.14,8.14,0,0,1,.13,2.15l-.33.19c.31.12.25.31.2.52s-.06.43-.09.64a2.24,2.24,0,0,0,.07,1,.91.91,0,0,1,0,.21c-.12.22-.3,0-.45.09l.24.32-.09.07c-.25.14-.26.16-.21.43s0,.24,0,.36A12.56,12.56,0,0,1,54,67a.81.81,0,0,1-.12.4.41.41,0,0,0-.07.3,3.37,3.37,0,0,1,0,1.61l.22.22c-.32.19-.29.43-.18.7s.14.43.22.68l-.46.09a3.39,3.39,0,0,1,.17.51c.06.47.11,1,.13,1.42a1.46,1.46,0,0,0,.22,1c0,.07.08.21,0,.25-.18.22-.08.47-.08.7a.49.49,0,0,0,.2.46.56.56,0,0,1,.11.19l-.23.14,0,.24-.24.15a1.38,1.38,0,0,1,.16.23c.12.33.23.67.35,1l.12.33c-.12,0-.23,0-.26,0-.17-.26-.45-.48-.39-.86,0-.1,0-.21,0-.31l0,.07-.35.19a.53.53,0,0,1-.11.51l-1,1.23-.4.5a5.27,5.27,0,0,1,2.48,1c0-.24,0-.44-.06-.64a3.79,3.79,0,0,1-.05-.58c0-.18-.18-.37,0-.61.12.25.24.45.33.67a.42.42,0,0,1,0,.27,1.49,1.49,0,0,0,0,.63.24.24,0,0,0,.17.26c.19.06.23.18.21.37s-.07.43.17.56c0,0,.07.14.08.22s0,.21,0,.34l-.22,0c-.22,0-.27,0-.24.26a1.21,1.21,0,0,0,0,.18c.06.26.06.26-.18.42l.11.2a1,1,0,0,0-.16.42,1.43,1.43,0,0,1-1,1.31,8.24,8.24,0,0,1-.89.19l-1.33.22c0,.16.06.33.1.51.22-.08.31.06.36.22a5.21,5.21,0,0,1,.1.57l.09.37c.05.17.12.34.17.52a.17.17,0,0,1-.11.22L52,87.1c0,.14,0,.27,0,.4a1.1,1.1,0,0,1-.09.59,2.14,2.14,0,0,1-.77,1,3.26,3.26,0,0,0-.33.31c-.17.17-.33.35-.47.5l1.63.61a2.47,2.47,0,0,1,1,.72,1.37,1.37,0,0,1,.28.5,6,6,0,0,1,.11.76l-.28.2a.31.31,0,0,0-.21.33c0,.14-.09.2-.21.22l-.27,0,0,0-.37.28a1.27,1.27,0,0,0,.84,0l.7-.3c.15-.07.31-.09.41.06a.36.36,0,0,0,.36.15,3.09,3.09,0,0,0,.43,0,1.43,1.43,0,0,1,1.19.32c.22.17.47.31.67.44,0,.09.07.19.13.23a2.46,2.46,0,0,1,.62.7c.24.36.51.7.77,1a1.7,1.7,0,0,1,.42.86,12.06,12.06,0,0,1,0,1.34l.23.36c.05-.31.1-.59.15-.88a.65.65,0,0,0,0-.24,5.05,5.05,0,0,1,0-1.6s0-.06.1-.13v.86a.63.63,0,0,0,.47-.69.22.22,0,0,1,.11-.22c.08-.06.2-.14.22-.23a3.17,3.17,0,0,1,.82-1.36,1.47,1.47,0,0,1,.69-.54,5.6,5.6,0,0,1,1.07-.2,17.18,17.18,0,0,1,1.76,0,9,9,0,0,1,1,.11l.32.06L65,93l-.28.07a2.1,2.1,0,0,1-.33-1.35,1.62,1.62,0,0,0,0-.3l.38-.08a1.26,1.26,0,0,1,.39-.64.66.66,0,0,1,.69-.18c0-.27.22-.27.4-.3L67.6,90l.05,0c-.5-.39-1-.77-1.5-1.18a1.61,1.61,0,0,1-.64-1c0-.26-.08-.52-.11-.78a2.61,2.61,0,0,1,.32-1.73,9.83,9.83,0,0,1,.56-.81l-.18,0a5.08,5.08,0,0,0-1.45-.2,2.85,2.85,0,0,1-1.17-.39.28.28,0,0,1-.16-.35,1.44,1.44,0,0,0,0-.36c-.38.11-.43.08-.53-.29a5.07,5.07,0,0,0-.13-.56c0-.14,0-.3-.19-.39a1.51,1.51,0,0,0-.32,1c0,.17-.09.23-.29.2,0-.26,0-.52.09-.78,0,0,0-.06.07-.09a.92.92,0,0,0,.23-.73,1.89,1.89,0,0,1,.58-1.6s.1,0,.15,0l0,0c-.07.11-.14.22-.21.35l.45,0L63.09,80a2.45,2.45,0,0,1,1.1-.87,4.25,4.25,0,0,1,1.31-.27l.27,0,0-.07a5.18,5.18,0,0,1-2.12-2.32,1.67,1.67,0,0,0-.09.42c0,.18-.1.22-.3.2,0-.18,0-.35.07-.52a1.75,1.75,0,0,0,.07-.44,3.86,3.86,0,0,1,.09-1c.05-.35.1-.7.13-1.06,0-.67.08-1.35.13-2,0-.39.06-.79.08-1.18,0-.22,0-.45,0-.67a1.43,1.43,0,0,1,.09-.41.78.78,0,0,0,0-.73.48.48,0,0,1-.07-.23c0-.45-.08-.9-.12-1.35s-.11-1-.16-1.48c0-.31,0-.63-.08-.94a7.69,7.69,0,0,1-.11-1.27c0-.42,0-.85-.09-1.27a13,13,0,0,1-.18-1.54A9.83,9.83,0,0,0,63,59.85a1.53,1.53,0,0,1,0-.42,1.69,1.69,0,0,1,.19-.38.34.34,0,0,1-.08-.5.36.36,0,0,0,0-.11c.08-.42.17-.83.25-1.25a1,1,0,0,1,.48-.74c.06,0,.09-.12.14-.18-.23-.25-.22-.28,0-.51a1.57,1.57,0,0,1,.88-.5c.42-.07.85-.1,1.27-.13a1.76,1.76,0,0,1,.45.07l1.18.29a.85.85,0,0,0-.78-.78,1.29,1.29,0,0,1-.78-.36.47.47,0,0,0-.29-.14,6.41,6.41,0,0,0-1.24.08,16.94,16.94,0,0,0-2.78.88c-.3.13-.59.29-.87.43a.73.73,0,0,1,0,.27.83.83,0,0,0,.13.61q.13.23.3.45c.26.38.56.75.8,1.15a.91.91,0,0,1-.13,1.15c-.17.2-.28.22-.49.06a.6.6,0,0,1-.22-.28A4,4,0,0,0,61,58a1.9,1.9,0,0,1-.26-1,3.44,3.44,0,0,0,0-.91,1.51,1.51,0,0,1,0-.6c.09-.56.21-1.11.32-1.66,0-.14.08-.28.11-.41a7.79,7.79,0,0,0,.2-.8,3.47,3.47,0,0,1,.42-1.14,7.32,7.32,0,0,1,1.57-1.85.88.88,0,0,1-.1.22l-.64.81a.85.85,0,0,0-.14.19,7.89,7.89,0,0,1-.65,1.13,2,2,0,0,0-.17.46l.06,0,.5-.47c.21-.21.4-.43.61-.64A4.83,4.83,0,0,1,66,50.15a4.61,4.61,0,0,1,2.45.59,2.79,2.79,0,0,1,1.16,1.17,2.2,2.2,0,0,0,.15.26,2.4,2.4,0,0,1,.34,1.31,3.17,3.17,0,0,1-.11.57.35.35,0,0,1,.18.35,1.25,1.25,0,0,0,.06.83c0,.1,0,.2-.15.2a.34.34,0,0,0-.14,0,1.74,1.74,0,0,1-.15,1.27c.16.36.15.4-.13.65a.57.57,0,0,0-.13.21c-.11.26-.22.52-.32.78-.3.76-.59,1.53-.89,2.29a.92.92,0,0,1-.17.29,3.82,3.82,0,0,0-.65,1.62,6.76,6.76,0,0,1-.5,1.58,2.94,2.94,0,0,0-.33,1,3,3,0,0,1-.13.84,1.82,1.82,0,0,0-.1.79,5,5,0,0,0,.07.54c0,.51.06,1,.11,1.52a2.4,2.4,0,0,0,.12.71,4.29,4.29,0,0,0,.56,1.11,7.17,7.17,0,0,1,.46.75l.74,1.25.08.09a2.06,2.06,0,0,1,.61.67s.06,0,.09.07a8.3,8.3,0,0,0,2.21,1,9.53,9.53,0,0,0,2.49.35,2.83,2.83,0,0,0,1-.14c.4-.17.81-.34,1.2-.52A5.12,5.12,0,0,0,77.83,73s.13-.14.11-.16,0-.15.1-.21a1.16,1.16,0,0,0,.2-.18c.32-.45.64-.89.94-1.35a6.18,6.18,0,0,0,.75-2.16c0-.14.07-.28.11-.42.13-.41.27-.82.39-1.24a3.71,3.71,0,0,0,.2-1,35.65,35.65,0,0,0-.18-4.5,1.53,1.53,0,0,0-.07-.29,2.85,2.85,0,0,1-.12-.31c-.17-.64-.33-1.27-.49-1.91s-.36-1.5-.6-2.24c-.34-1.09-.73-2.17-1.11-3.25a6.26,6.26,0,0,0-.53-1.25,11,11,0,0,1-1-2.2,5.77,5.77,0,0,0-.41-1.07,3.14,3.14,0,0,1-.49-1.2,1.08,1.08,0,0,0-.06-.19,2.11,2.11,0,0,0-1.81.2q.12.24.21.45c.09.2.19.4.27.61s.08.29.14.43c.16.39.34.76.49,1.15.23.62.45,1.26.67,1.89.15.42.27.85.42,1.27.22.61.46,1.21.67,1.82s.36,1.23.58,1.83.51,1.21.76,1.82a.55.55,0,0,1,.07.32,1.23,1.23,0,0,0,.09.74,3.35,3.35,0,0,1,.19,1c0,.22,0,.45.07.67l.21,2.08c0,.29,0,.59,0,.88a5,5,0,0,1,0,.67c-.05.49-.13,1-.2,1.48a2,2,0,0,1-.06.23,10.29,10.29,0,0,0-.29,1.09,1.2,1.2,0,0,1-.39.75.4.4,0,0,0-.14.26.69.69,0,0,1-.24.61s0,.06,0,.08a4.33,4.33,0,0,1-1.23,1.29,4.83,4.83,0,0,1-3.26.84h0a6.75,6.75,0,0,1-1.85-.58,9.17,9.17,0,0,1-.83-.55A2.86,2.86,0,0,1,69,69.43c-.1-.57-.22-1.13-.29-1.71a4.17,4.17,0,0,1,0-.93c0-.3.14-.6.16-.9a5.78,5.78,0,0,1,.29-1.42c.17-.47.38-.92.57-1.38l1.54-3.54a3.39,3.39,0,0,0,.15-.61,10,10,0,0,1,.34-1.1,5.56,5.56,0,0,0,.41-1.43c0-.64.06-1.27.08-1.91a14.17,14.17,0,0,0-.14-2.06,3,3,0,0,0-.27-1L71.06,50a.6.6,0,0,0-.19-.23c-.11-.1-.25-.17-.35-.28a3.83,3.83,0,0,0-1.11-.84l-.73-.36a2.08,2.08,0,0,0-.94-.24,13.39,13.39,0,0,0-1.55.06,2.46,2.46,0,0,0-.85.2,5.69,5.69,0,0,0-.85.52,2.74,2.74,0,0,1-.87.44,2,2,0,0,1,.11-.19c.42-.33.81-.67,1.25-1s.88-.51,1.32-.75a1.76,1.76,0,0,1,1-.28A.44.44,0,0,0,67.5,47a1.6,1.6,0,0,1,1-.3l2,0c.51,0,1,0,1.52.06s.9.15,1.38.24c0,.12.14.19.32.19a2.66,2.66,0,0,1,.39.07,7.16,7.16,0,0,0,2.21.37.21.21,0,0,1,.24.18,1.52,1.52,0,0,1,.06.2,1.86,1.86,0,0,1,.28,0c.47,0,.94,0,1.4.06,1,0,2,.12,3,.16a1.06,1.06,0,0,0,.47-.08c.41-.19.8-.4,1.2-.6l.56-.3c.16-.08.34-.14.33-.38,0,0,.08-.08.13-.1s.18,0,.26-.08a.86.86,0,0,0,.53-.71l-1.13.52.15-.37-.61.11a.32.32,0,0,0-.24.32c0,.09,0,.19,0,.34l-1.08-.24c0,.13-.11.28-.18.49l1-.16a1.06,1.06,0,0,1-1.13.26c-.17.07-.31.22-.54.21,0-.31.32-.18.37-.4-.06,0-.13-.15-.21-.17a1.16,1.16,0,0,0-.92.19l.09.33H80c-.15-.39-.24-.47-.6-.53l-.27,0c-.22,0-.45,0-.67-.05a.94.94,0,0,1-.4-.13c-.33-.19-.35-.19-.67,0a.89.89,0,0,1-.37.11.11.11,0,0,1-.09-.19c.14-.12.07-.27.13-.42a1.07,1.07,0,0,0-.93.18l.56.18,0,.07c-.36.14-.62-.18-.9-.23a1.11,1.11,0,0,0-.1-.45.7.7,0,0,0-.41-.23.47.47,0,0,0-.58.32c.35.12.35.12.39.23-.33,0-.85-.08-.86-.22l.18-.1c0-.28-.2-.43-.56-.51a.7.7,0,0,0-.82.3c.11,0,.35,0,.25.25l-.44-.05c0-.09,0-.16,0-.21,0-.21-.12-.42-.35-.48a1.08,1.08,0,0,0-.77,0,1.31,1.31,0,0,0-.23.2c.06,0,.09.06.11.06h.49c.13,0,.22,0,.2.18a1.54,1.54,0,0,1-1.45-.25l.35,0,.08-.27a.6.6,0,0,0-.61-.13,1.1,1.1,0,0,0-.85.67,5.23,5.23,0,0,1-1.25-.08,3.84,3.84,0,0,1,.59-.11c.2,0,.42,0,.62-.08a.38.38,0,0,0-.42-.23,2.09,2.09,0,0,0-1,.26l-.28.15a.31.31,0,0,0-.34-.31,1.06,1.06,0,0,0-.87.34l.13.24a6.61,6.61,0,0,1-1.06.31,1.43,1.43,0,0,0-.78.37,3.19,3.19,0,0,1-1.15.61.49.49,0,0,1-.44,0c0-.06.06-.12.1-.17l.57-.62a3.89,3.89,0,0,1,.47-.44,2,2,0,0,1,.83-.36,1.5,1.5,0,0,0,.88-.55,1.51,1.51,0,0,1,.28-.22l.89-.6a10.82,10.82,0,0,1,1.08-.67,5.68,5.68,0,0,0,1.48-.88,1.48,1.48,0,0,1,.21-.13.3.3,0,0,1,.34,0c.14.09.22,0,.3-.09a2.7,2.7,0,0,1,.31-.28l.61-.34.24-.16a4.41,4.41,0,0,1-.19-1.77l-.54.08a.37.37,0,0,0-.15,0l-.39.28c-.12.09,0,.2,0,.31a.23.23,0,0,1-.15.26.66.66,0,0,1-.2,0,1,1,0,0,1,0-.18c0-.06.09-.1.19-.2a3,3,0,0,0-.37,0,1.27,1.27,0,0,0-.72.38c-.15.15-.41.24-.38.56a2.64,2.64,0,0,0-.38,0,1.27,1.27,0,0,0-.44.08,2.15,2.15,0,0,0-.46.35,1,1,0,0,0-.18.33c-.08.21-.14.23-.32.1s-.13-.1-.18-.09a2.73,2.73,0,0,0-.69.2,1,1,0,0,0-.48.69c.52,0,.52,0,.56.17a.57.57,0,0,1-.18,0,.76.76,0,0,0-.65.29,4.2,4.2,0,0,1-1.09.83.71.71,0,0,0-.25.24.22.22,0,0,1-.32.06l.15-.29a5.27,5.27,0,0,0,.22-.49c.09-.23.14-.48.24-.69a3.77,3.77,0,0,1,1.07-1.59s0,0,0,0a1.89,1.89,0,0,1,.43-1.3,1.8,1.8,0,0,1,0-.55.67.67,0,0,1,.34-.48c.05,0,.08-.11.09-.17s0-.27,0-.4a1.46,1.46,0,0,1,0-.42,1.8,1.8,0,0,1,.22-.37c-.13-.13-.09-.25,0-.39a1,1,0,0,0,.11-.29c.16-.47.31-1,.47-1.43a.25.25,0,0,1,0-.09,1.12,1.12,0,0,0,.22-.58c.08-.37.14-.74.21-1.11a1.23,1.23,0,0,0,0-.33,4.8,4.8,0,0,1,.17-1.51,4.32,4.32,0,0,1,.45-1.44.08.08,0,0,0,0-.05,1.7,1.7,0,0,1,.51-.85l.13-.13a1.29,1.29,0,0,1-.08-.52,11.54,11.54,0,0,1,.44-1.16c.12-.26.41-.44.36-.78.22-.32.34-.71.7-.94-.1-.1-.13-.18,0-.26l.15-.1a3.06,3.06,0,0,0,1-1c.08-.14.13-.29.3-.36a.24.24,0,0,0,.09-.18c0-.27.19-.38.4-.49l1.22-.68A.91.91,0,0,0,74,23a1.06,1.06,0,0,0-1.07.27,1.61,1.61,0,0,1-.34.24.19.19,0,0,1-.26,0l.39-.23a1.82,1.82,0,0,0-1.17.56c.2.08.28-.23.49,0-.07.06-.12.14-.18.16a6.21,6.21,0,0,1-.62.14c-.12,0-.24,0-.36,0s-.26.11-.25.34a.25.25,0,0,1-.13.25l-.18.16s0,.05,0,.07l.28.07-.19.11-.56.16c-.16,0-.36.09-.41.27a1.26,1.26,0,0,0,0,.51c0,.08.11.15.17.23s-.15.22-.33.13a.28.28,0,0,0-.4.15c-.08.21-.17.41-.25.62a.29.29,0,0,0,.11.39l.51-.84a3.93,3.93,0,0,1-1.09,1.88l.42-.7c-.27.11-.42.23-.48.46a2,2,0,0,0-.15.82l.19-.07.16,0a.61.61,0,0,1-.19.2c-.13.09-.27.18-.39.28a.53.53,0,0,0-.16.72c.11.25.1.33-.11.5s-.28.17-.4.28a.43.43,0,0,0-.17.26,2.35,2.35,0,0,0,.09.53l.28-.32c.08.13,0,.21,0,.29s-.08.15-.07.21a.33.33,0,0,1-.16.39,2.44,2.44,0,0,0-.29.27.73.73,0,0,0-.24.69l.26.08c0,.29,0,.34-.24.39a.43.43,0,0,0-.34.34,1.73,1.73,0,0,0,0,.93,2.52,2.52,0,0,1,.06.35c-.3,0-.39.19-.45.41a2.49,2.49,0,0,1-.11.27,4.19,4.19,0,0,1,.15.52c.07.42,0,.44-.38.49l-.08,0a1.5,1.5,0,0,0,0,.3,3.19,3.19,0,0,0,.13.44,1,1,0,0,1-.19.86c-.3-.11,0-.29-.1-.44a1,1,0,0,0-.45,1l.3.24c-.35.12-.35.12-.35.45v.12a.42.42,0,0,1-.2.35c-.3-.19.12-.35,0-.52a1.05,1.05,0,0,0-.46.92L64,41l.18-.21A5.64,5.64,0,0,1,63,43l0,.17c-.1.12-.31,0-.34.22l.21.23a.6.6,0,0,0-.31.53,1.66,1.66,0,0,1-.13.44c-.13-.19-.12-.19-.1-.33.06-.3.11-.6.14-.9s.06-.33.25-.35a1.28,1.28,0,0,1-.07-.3c0-.23,0-.45,0-.67a.47.47,0,0,1,.19-.43c.13-.09.11-.18.09-.31a5.18,5.18,0,0,1-.12-.88c0-.48,0-1,.06-1.46a9.53,9.53,0,0,1,.17-1.07,5.17,5.17,0,0,0,.11-.54.43.43,0,0,0-.08-.3.52.52,0,0,1-.2-.42,9.83,9.83,0,0,1,.06-2,4.58,4.58,0,0,0,0-.64c0-.34,0-.69-.06-1,0-.14,0-.28,0-.42a2.62,2.62,0,0,0-.19-.73c-.09-.25-.11-.52-.2-.76a3.55,3.55,0,0,1-.19-1.29,6.38,6.38,0,0,0-.07-.87c0-.26-.08-.52-.09-.79,0-.56,0-1.13-.08-1.7a.65.65,0,0,0,0-.2A2.87,2.87,0,0,1,62,24.63a3.81,3.81,0,0,0,.12-1.26,3.69,3.69,0,0,1,.26-1.61c.06-.2.12-.41.17-.61a2.62,2.62,0,0,1,.39-1S63,20,63,20a1.7,1.7,0,0,1-.32,0,1.51,1.51,0,0,1-.26-.19l.07.46c-.23.16-.47.31-.7.48a.49.49,0,0,0-.07.76l.26-.3a.58.58,0,0,1-.26.59c-.13.09-.22,0-.31-.07a.71.71,0,0,0-.38.72,1.12,1.12,0,0,1-.3,1s0,0,0,0c.13.27.28.53.39.8s.11.32-.13.48a.8.8,0,0,0-.35.51.28.28,0,0,0,.13.36c.11,0,.22.11.22.26-.42.55-.44,1,0,1.31a1.64,1.64,0,0,1,.21-1.09,2.1,2.1,0,0,1,0,.5,1.51,1.51,0,0,0,0,.3c0,.23.06.47.1.75L61,27.51a.38.38,0,0,0-.18.37,1.51,1.51,0,0,0,.62,1.24c0,.29.08.5.12.72s.07.42.11.62a.39.39,0,0,1-.17.4l-.2.14a.31.31,0,0,0-.13.38,2.44,2.44,0,0,0,.45.82,1.08,1.08,0,0,1,.19.37s-.06.1-.09.16-.11-.06-.13-.11a.59.59,0,0,1,0-.2c-.29.3-.31.44-.16.75s.19.34.27.51a1.06,1.06,0,0,1,.09.35c0,.14-.07.21-.21.25,0-.15,0-.29,0-.43a.93.93,0,0,0-.22.29.41.41,0,0,0,0,.48,3.76,3.76,0,0,1,.32.55c.11.2.11.3-.08.4s-.27.45-.33.71l.19.09a1.18,1.18,0,0,1,.19.11c.16.12.18.22.07.38a1.6,1.6,0,0,1-.25.27.49.49,0,0,0-.14.65c.13.26.23.54.35.81-.27.33-.68.6-.49,1.13a2.25,2.25,0,0,1,.21.12.36.36,0,0,1,.19.35c0,.15-.17.15-.28.19s-.32.07-.43.23a1.93,1.93,0,0,0,.7,1.16,3.86,3.86,0,0,0-.54.33c-.34.27-.32.59,0,.8l.21-.3.06,0,0,.28a2.51,2.51,0,0,0,0,.31.36.36,0,0,0-.47.11,2.69,2.69,0,0,0-.2.27.93.93,0,0,0-.11.59c0,.16.15.19.23.29a.68.68,0,0,1,.17.28,1.55,1.55,0,0,1-.13,1c-.12.24-.24.49-.35.74a4.42,4.42,0,0,1-.39.82,3.11,3.11,0,0,0-.41.91,7.38,7.38,0,0,1-.29.73l0,0c-.3.17-.3.48-.34.76-.18,0-.27-.06-.34-.21s-.2-.37-.27-.57a5.81,5.81,0,0,1-.32-.88,3,3,0,0,0-.41-1s0,0,0,0l-.23.1c-.13-.12,0-.2,0-.3a.78.78,0,0,0,0-.37,5.75,5.75,0,0,0-.36-.8,1.29,1.29,0,0,1-.16-.79,8,8,0,0,1,.51,1.06.59.59,0,0,0,.08-.11,1.28,1.28,0,0,0,0-1c0-.07-.13-.12-.21-.15s-.24,0-.35-.07-.25-.13-.25-.41l.17.13c.13.14.19.14.31,0a2.26,2.26,0,0,0,.16-.26c.16-.31.08-.52-.26-.64l-.41-.15.45-.65c.11-.17.11-.23-.05-.35a7.92,7.92,0,0,0-.71-.47.34.34,0,0,1-.17-.38c.21,0,.23.16.37.24a1,1,0,0,0,.34-.64.87.87,0,0,0-.66-.67l-.22-.06a.57.57,0,0,0-.08-.54c-.1-.16-.08-.21.07-.28.07.21.15.42.23.65a.47.47,0,0,0,.33-.48c0-.14,0-.29,0-.43a.61.61,0,0,0-.34-.53,1,1,0,0,1-.27-.18.66.66,0,0,1-.09-.19c.27-.11.26.17.41.22a.74.74,0,0,0,.31-.66,1.25,1.25,0,0,0-.21-.65.22.22,0,0,0-.28-.11c-.2,0-.3-.07-.25-.28a.83.83,0,0,1,.09-.2l.23.13a.69.69,0,0,0,.12-1c-.09.08-.16.24-.31.09,0-.16,0-.31,0-.46s-.12-.29.06-.43c.05.1.1.19.16.33A1.31,1.31,0,0,0,56,33.7l-.11-.15c-.11-.23-.08-.33.16-.51.19.14-.12.4.12.54a.66.66,0,0,0,.38-.73l-.21-.1a1.44,1.44,0,0,0-.17-.48c-.1-.18-.1-.25.09-.33a.46.46,0,0,0,.27-.4.9.9,0,0,0-.14-.64,2.1,2.1,0,0,1-.21-.39.54.54,0,0,1,.13-.53h.07l0,.56a1.25,1.25,0,0,0,.38-.69.93.93,0,0,0-.21-.62l-.15.52c-.18-.15-.2-.17-.17-.3a1.08,1.08,0,0,1,.29-.65.85.85,0,0,0,.19-1.08,3.61,3.61,0,0,1-.24-.62.87.87,0,0,1,0-.36.19.19,0,0,1,.14-.12c.11,0,.1.1.09.18s-.08.19,0,.27c.18-.58.19-1,0-1.17,0,.24-.06.48-.36.6l.14-.74.47-.11a2.81,2.81,0,0,0,0-1,2.08,2.08,0,0,0-.25.23c-.09.14-.17.11-.23.05a4.79,4.79,0,0,0,0-.51c0-.12,0-.2.13-.24l.14-.06a1.52,1.52,0,0,0-.1-.85c-.05-.14-.22-.25-.33-.37a.31.31,0,0,1-.09-.36l.23.25.09-.05a.81.81,0,0,0-.19-1,.42.42,0,0,1-.24-.44.38.38,0,0,0-.17-.37l-.31-.25a1.48,1.48,0,0,1-.3-.25,1.52,1.52,0,0,1-.13-.41h-.69c.31.71.61,1.38.9,2.06a1.24,1.24,0,0,1,0,1.14.46.46,0,0,0,0,.41c.09.18.2.35.29.54a1.18,1.18,0,0,1,.12.36,3.2,3.2,0,0,1-.19,1.41,2.53,2.53,0,0,0-.06,1.28,1.39,1.39,0,0,1,0,.45,9.32,9.32,0,0,1-.15,1.06.84.84,0,0,1-.13.33.39.39,0,0,0-.08.34.62.62,0,0,1-.2.67c.18.13,0,.26.06.39A10.84,10.84,0,0,1,55,32c0,.29-.06.58-.09.87-.06.58-.18,1.14-.19,1.73s-.08,1.06-.13,1.6-.09,1-.12,1.54a1.74,1.74,0,0,0,.06.45c.08.33.16.67.24,1-.28.2-.3.22-.31.4a11.62,11.62,0,0,0,0,1.18A4.78,4.78,0,0,0,54.72,42,5,5,0,0,1,55,43.72c0,.05,0,.11,0,.16H54.9a2.88,2.88,0,0,1-.13-.31c0-.08,0-.18-.07-.26a8.92,8.92,0,0,0-1-1.92,1.43,1.43,0,0,1-.19-.37.31.31,0,0,1,0-.09l.11.05.14,0c-.06-.37,0-.74-.35-1-.24.08-.24.08-.44,0A3.73,3.73,0,0,0,53,38.6c-.67-.2-.77-.44-.76-.89l.28.27c.24-.46.1-.84-.35-.95a2,2,0,0,1,0,.24,1.61,1.61,0,0,1,0,.22l-.06,0c0-.09-.11-.17-.16-.27s-.08-.22-.13-.33-.1-.22.07-.41c0,0,.07-.06.06-.1a3.29,3.29,0,0,0,0-.63.56.56,0,0,0-.22-.27,1.53,1.53,0,0,1-.41-.63s0-.12,0-.22c.12.2.21.36.31.51a.47.47,0,0,0,0-.32c-.09-.27,0-.6-.39-.74A.11.11,0,0,1,51.3,34c0-.15-.1-.21-.18-.3a.28.28,0,0,1-.09-.37c.1,0,.11.21.25.14a.78.78,0,0,0-.35-.89,2.08,2.08,0,0,1-.32-.27.45.45,0,0,1,0-.64l.12.28c.17-.12.21-.16.16-.29a1.21,1.21,0,0,0-.18-.28c-.13-.16-.26-.33-.4-.49a.22.22,0,0,1,0-.34c.09-.09.19-.16.3-.26-.12-.18-.2-.34-.31-.48s-.25-.32-.38-.48a.26.26,0,0,1,0-.27.85.85,0,0,0-.34-1,4.1,4.1,0,0,0-.55-.3,0,0,0,0,1,0,0,.27.27,0,0,1,0-.12.88.88,0,0,0-.24-1c-.12-.13-.25-.25-.37-.37a.36.36,0,0,1-.1-.3c0-.24,0-.29-.22-.35l-.65-.16c-.22,0-.27-.11-.31-.32l.28.1a.64.64,0,0,0-.17-.72.78.78,0,0,0-.58-.22h-.52a2.74,2.74,0,0,0,0-.43c-.09-.47-.1-.47-.57-.47-.22,0-.45,0-.61.18a.15.15,0,0,1-.24,0l-.18-.17c-.3-.26-.54-.26-.9,0l.38.15a4.14,4.14,0,0,1,1.33.66.75.75,0,0,1,.23.27,3,3,0,0,0,.82.95,2.29,2.29,0,0,1,.85,1.15,2.25,2.25,0,0,0,.53,1.11,1.11,1.11,0,0,1,.22.4,8.36,8.36,0,0,0,.76,1.49c.15.29.28.6.42.9,0,.08.08.16.12.25a2.46,2.46,0,0,1,.14.38c.08.4.15.8.22,1.2a6,6,0,0,1,.2,1.35,3.87,3.87,0,0,0,.09.9,9.36,9.36,0,0,0,.57,1.77c.09.2.14.42.21.63a6.23,6.23,0,0,0,.51,1.68l-.24.15a1.77,1.77,0,0,0,.13.17.47.47,0,0,1,.14.53.26.26,0,0,0,.1.34.55.55,0,0,1,.22.5v.42c.36.21.42.6.59.91a1.76,1.76,0,0,1,.11,1.09h.23a1.12,1.12,0,0,0,.45.86c.11.1.2.23.3.34s.25.29.39.42.26.23,0,.5a.36.36,0,0,0,0,.09l.09.11.09.15c-.26.09-.43,0-.42-.24a.34.34,0,0,0-.1-.33,3.18,3.18,0,0,0-1-.76,1.33,1.33,0,0,1-.7-.47c0-.08-.18-.11-.28-.15s-.31-.12-.36-.32c.2-.09.29.19.47.12,0-.45,0-.56-.44-.7a1.66,1.66,0,0,0-.59-.1c-.25,0-.43-.06-.53-.31a1.22,1.22,0,0,0-.16-.26.54.54,0,0,0-.49-.25A4,4,0,0,1,48.52,41.41Zm16.82,6.72.19,0a8.13,8.13,0,0,1,2.2-.26l.39,0a3.68,3.68,0,0,1,1.33.49,4.24,4.24,0,0,1,1,.6,6.87,6.87,0,0,1,1.34,1.64,5.87,5.87,0,0,1,.73,2.79c0,.58,0,1.16,0,1.74a5.79,5.79,0,0,1-.35,2.21,8.53,8.53,0,0,0-.42,1.2,16,16,0,0,1-.49,1.53c-.44,1.24-1,2.41-1.54,3.61a5.93,5.93,0,0,0-.54,1.92c0,.38-.14.74-.21,1.1a3.07,3.07,0,0,0,0,1.17c.09.47.2.94.28,1.41A2.91,2.91,0,0,0,70.3,71a5.19,5.19,0,0,0,2.59,1.14,1.74,1.74,0,0,0,.51,0c.37,0,.74-.12,1.11-.19l.56-.14a3.57,3.57,0,0,0,.92-.45,2.31,2.31,0,0,0,.74-.61,2.09,2.09,0,0,0,.51-.81,1.33,1.33,0,0,1,.39-.75.5.5,0,0,0,.12-.21c.06-.18.09-.36.15-.53a7.45,7.45,0,0,0,.4-1.74c0-.48.11-1,.13-1.45a8.36,8.36,0,0,0,0-1c0-.12,0-.24,0-.36-.06-.63-.14-1.25-.16-1.88a8,8,0,0,0-.13-1c-.07-.39-.15-.78-.23-1.16a2.86,2.86,0,0,0-.09-.51c-.19-.5-.4-1-.59-1.5s-.29-.75-.41-1.14-.24-.84-.38-1.25c-.22-.62-.46-1.23-.69-1.85l-.75-2c-.06-.19-.11-.37-.18-.55A16.46,16.46,0,0,1,74,49a2.39,2.39,0,0,0-.13-.28c-.09-.17-.18-.34-.26-.51s-.17-.42-.24-.63-.25-.54-.63-.51a.86.86,0,0,1-.27,0c-.34,0-.68-.1-1-.13s-.55,0-.83,0a20.87,20.87,0,0,0-2.37.09,1.08,1.08,0,0,0-.61.22.83.83,0,0,1-.46.14,1.62,1.62,0,0,0-.53.11c-.4.16-.79.36-1.19.54ZM83.49,21.27s0,.06,0,.06l.14.07a19.57,19.57,0,0,0,3.1.88c1,.19,2.08.33,3.12.5.45.07.9.16,1.36.19.84.05,1.68.08,2.52.08a9.81,9.81,0,0,0,1.2-.14.25.25,0,0,0,.23-.18c0-.11.08-.22.13-.33a2.5,2.5,0,0,1,1.17-1.23,3.83,3.83,0,0,1,1.11-.32,3.51,3.51,0,0,1,2,.32c.36.16.71.32,1,.5a3,3,0,0,1,1.31.93l.08,0,1,.61a3.71,3.71,0,0,0,.49.24c.1.05.18.13.15.24-.07.28.11.43.3.58a1,1,0,0,1,.36.54,8.24,8.24,0,0,0,.38,1,3.42,3.42,0,0,1,.38,1.52c0,.55-.09,1.09-.11,1.64a2.8,2.8,0,0,1-.37,1.3.37.37,0,0,0-.05.11,4.84,4.84,0,0,1-1.41,1.88,1.12,1.12,0,0,0-.18.2.94.94,0,0,1-.53.39l-1.38.48a2.54,2.54,0,0,1-1.13.15l-.51,0a6.69,6.69,0,0,1-2.86-.88c-.5-.29-.95-.66-1.45-.95a31.6,31.6,0,0,1-2.73-1.89c-.6-.43-1.21-.87-1.85-1.27s-1.22-.73-1.84-1.08a17,17,0,0,0-1.58-.83,10,10,0,0,0-2.85-.74,17,17,0,0,0-2.67-.11,4.37,4.37,0,0,0-1.82.31c-.32.16-.69.24-1,.39a10.43,10.43,0,0,0-1.09.6,11.41,11.41,0,0,0-1.09.72c-.39.29-.76.62-1.13.93a.76.76,0,0,0-.11.14l-.24.35a7.9,7.9,0,0,0-.5.68,10.33,10.33,0,0,0-.91,1.62c-.14.37-.31.74-.47,1.12a2.21,2.21,0,0,1-.12.27,3.12,3.12,0,0,0-.37,1.06c-.06.31-.16.61-.2.92a7.38,7.38,0,0,0-.14,1.69s0,0,0,.06c-.07,1.17-.24,2.34-.23,3.52a4.8,4.8,0,0,0,.07.93,8.89,8.89,0,0,1,.13,1,3.92,3.92,0,0,0,.27,1.66s0,.12,0,.18c.1.41.2.82.31,1.22,0,0,.06,0,.08,0a1.41,1.41,0,0,1,1.27.23.41.41,0,0,0,.44,0c-.11-.51-.18-1-.33-1.49a13.4,13.4,0,0,1-.44-1.62c0-.28-.12-.55-.18-.83a8.1,8.1,0,0,1-.2-1,13.58,13.58,0,0,1,0-2.47,14.35,14.35,0,0,0,.07-1.61,3.75,3.75,0,0,1,.16-1.1,3.31,3.31,0,0,0,.1-.63,2.68,2.68,0,0,1,0-.3L74.47,33a3.52,3.52,0,0,1,.17-.39c.28-.52.57-1,.83-1.54a3.8,3.8,0,0,1,.54-.77,4.43,4.43,0,0,1,1.5-1.45l.07-.05c.38-.29.75-.59,1.14-.86a2.1,2.1,0,0,1,.64-.26c.3-.09.61-.15.92-.23a10.74,10.74,0,0,1,2-.33,12.23,12.23,0,0,1,2.84.3,5.5,5.5,0,0,1,.88.25c.72.28,1.42.61,2.14.86a20.52,20.52,0,0,1,2.59,1.35,1.78,1.78,0,0,1,.27.21,5.66,5.66,0,0,0,.56.4.69.69,0,0,1,.39.85,3.49,3.49,0,0,1,.34.15,8.13,8.13,0,0,1,.82.45c.39.26.75.56,1.14.82a9,9,0,0,0,1.19.73c.71.36,1.45.68,2.19,1a2.31,2.31,0,0,0,.84.31c.16,0,.31,0,.46,0a7.89,7.89,0,0,0,1.88,0c.54-.1,1.07-.21,1.61-.3a1.56,1.56,0,0,0,.74-.33L104.74,33a1.67,1.67,0,0,0,.33-.32,6.85,6.85,0,0,0,1.28-2.32,4.7,4.7,0,0,0,.17-1.63c0-.37-.09-.74-.11-1.11a5.36,5.36,0,0,0-.43-1.73q-.28-.69-.63-1.35t-.66-1.2a1.43,1.43,0,0,0-.35-.42c-.43-.33-.88-.65-1.32-1-.19-.13-.41-.22-.61-.34s-.42-.28-.65-.39-.61-.26-.92-.4a14.93,14.93,0,0,0-3.2-1,10.36,10.36,0,0,0-1.12-.1.32.32,0,0,1-.27-.16l-.16-.26c-.21-.43-.24-.44-.72-.39l-.18,0-3.32.88-2.44.64c-.23.06-.46.08-.69.14l-2.23.59a5.44,5.44,0,0,1-2,.12C84.2,21.31,83.84,21.29,83.49,21.27ZM72.7,45c0-.19-.08-.34-.12-.48a5.09,5.09,0,0,0-.33-1.07.13.13,0,0,1,0-.06c0-.39,0-.79-.08-1.18,0-.09,0-.18,0-.31a3,3,0,0,0-1.11.75.19.19,0,0,1-.29.07.26.26,0,0,0-.33,0,3.16,3.16,0,0,0-.27.2,4.11,4.11,0,0,1-1,.6,4,4,0,0,0-.67.3c-.59.35-1.17.72-1.75,1.09a.53.53,0,0,0-.14.12,2,2,0,0,1-1.25.79,2,2,0,0,0-1.29,1,5.06,5.06,0,0,0,.51-.24c.22-.15.41-.32.63-.47a2,2,0,0,1,.46-.23c.33-.1.66-.16,1-.24a1,1,0,0,1,1.56-.43,1.43,1.43,0,0,1,1.67-.11,2.77,2.77,0,0,1,.29-.22,1.42,1.42,0,0,1,.36-.16,1.73,1.73,0,0,1,.6,0c.18,0,.25.22.29.42A1.22,1.22,0,0,1,72.7,45ZM38.08,33.52s0,.06,0,.08,0,0,0,.08a1.66,1.66,0,0,1-.48-1c.28.1.19.46.49.53a2,2,0,0,0,0-.33c0-.1-.07-.19-.09-.29-.08-.4-.16-.44-.53-.3,0,0,0,0-.06,0a5.15,5.15,0,0,0-.68-2.08c0,.14,0,.2,0,.27a7.06,7.06,0,0,0,.45,2.19c.18.48.37.95.55,1.42a3.61,3.61,0,0,1,.17.46c0,.15,0,.32.21.41s0,.07,0,.11a.48.48,0,0,0,.19.37,2,2,0,0,1,.47.74.51.51,0,0,0,.12.2c.2.22.41.43.6.65.33.39.68.76,1,1.16a4.91,4.91,0,0,0,.85.91c.7.58,1.42,1.14,2.14,1.71a1,1,0,0,0,.23.14c0-.51,0-1,.06-1.46a2.12,2.12,0,0,0-.31-.14,4,4,0,0,1-1.51-.82l-.82-.73a.52.52,0,0,1-.06-.13c.34.2.64.45,1,.66a3.54,3.54,0,0,0,1,.57c0-.41-.1-.59-.43-.67l-.24,0-.48-.07a1.7,1.7,0,0,1,0-.21c0-.49-.11-.6-.6-.58a2,2,0,0,1-1.46-.7c-.07-.06-.16-.14-.07-.28a3.16,3.16,0,0,0,.91.59c.06-.46,0-.58-.36-.76a4.45,4.45,0,0,0-.51-.19l-.29-.07c.23-.56.09-1.07-.62-1.09.36.62.36.62.29.84a2.05,2.05,0,0,0-.71-.92l.12-.43C38.64,33.92,38.51,33.67,38.08,33.52Zm36.18,7c.19-.13.34-.23.47-.34s.51-.5.78-.73c.44-.38.89-.74,1.33-1.11.14-.13.25-.29.39-.43l.46-.43c.23-.22.42-.47.66-.67a4,4,0,0,0,1-1.35c.31-.61.57-1.25.85-1.88a3.08,3.08,0,0,1,.21-.53,2.06,2.06,0,0,0,.27-.79c.06-.34.09-.69.18-1a3.39,3.39,0,0,0,.1-1.14,1.28,1.28,0,0,0,0-.27h-.06a3,3,0,0,0-.06.32c0,.26-.08.52-.13.78s-.12.53-.19.79a5.61,5.61,0,0,1-.3.93,9.22,9.22,0,0,1-.65,1.09,2.23,2.23,0,0,1-1.06.88,3.82,3.82,0,0,0-.36.17,1.5,1.5,0,0,0,.07.6c.29,0,.23-.38.47-.47a1.17,1.17,0,0,1-.27.61c-.16.19-.32.37-.46.57a1.82,1.82,0,0,1-.65.67,2.51,2.51,0,0,0-.37.3,1.13,1.13,0,0,0-.37-.06,2.39,2.39,0,0,0-.57.19.71.71,0,0,0-.31.31c0,.08,0,.22,0,.33-.25,0-.53,0-.73.2a2.59,2.59,0,0,0-.34.73c.37-.09.53-.46.95-.5l-.41.4a2.81,2.81,0,0,1-1,.52.23.23,0,0,0-.17.3C74.13,39.85,74.18,40.16,74.26,40.55ZM46.14,45.32c.25-.13.46-.38.77-.31s.54.16.83.25c.16-.24.43-.23.71-.16l.28.11.55.24c.18-.14.31-.31.46-.34a.87.87,0,0,1,1.16.55c0,.09.1.2.18.22.23.08.47.11.76.18-.06-.09-.08-.13-.11-.15A4.17,4.17,0,0,0,50.46,45a.34.34,0,0,1-.19-.2.47.47,0,0,0-.27-.31c-.2-.11-.4-.24-.61-.33a3.75,3.75,0,0,0-.55-.15c-.1,0-.22-.05-.27-.11a1.34,1.34,0,0,0-.93-.52.69.69,0,0,1-.44-.29,1.61,1.61,0,0,0-.24-.28.47.47,0,0,0-.32-.13.53.53,0,0,1-.5-.21,1.32,1.32,0,0,0-.61-.36c0,.3,0,.57-.07.84a2.65,2.65,0,0,1-.14.62c-.14.39-.32.78-.46,1.18a2.49,2.49,0,0,0-.09.46c.25.07.25.07.42,0a.57.57,0,0,1,.69,0Zm12.7-1h-.06c-.09.63-.35,1.21-.41,1.85a12.57,12.57,0,0,0,0,1.94.33.33,0,0,0,0,.14l.38.86a1.62,1.62,0,0,0,.37-1,3,3,0,0,1,0-.42,3,3,0,0,0,0-1.15,7.29,7.29,0,0,1-.28-1.91A1.47,1.47,0,0,0,58.84,44.33Zm2.94,14.86a.52.52,0,0,0,.27-.45,1.71,1.71,0,0,0-.27-1.16c-.13-.2-.28-.4-.42-.59s-.21-.23-.38-.13A1.78,1.78,0,0,0,61.21,58a3.88,3.88,0,0,1,.51,1.09Zm-1.35-14.7a2.53,2.53,0,0,1-.18.37c-.32.48-.29.66.18,1a2,2,0,0,0,.32-.76C60.81,44.74,60.8,44.7,60.43,44.49Zm28-21.67c0,.19,0,.36.15.43a1.3,1.3,0,0,0,.89.07.35.35,0,0,0,.26-.31Zm-1.45-.24,0,.07a1.22,1.22,0,0,0,.9.6l.21-.5ZM90,23a1,1,0,0,0,.76.56c.28,0,.38-.06.41-.37Zm1.35.4c.54.33,1,.27,1.27-.13l-1.2-.07c0,.05,0,.07,0,.1ZM77,36.77a2.46,2.46,0,0,0,1-1C77.46,35.81,77,36.34,77,36.77ZM79.66,33c.38-.37.49-.65.37-1A.75.75,0,0,0,79.66,33ZM79,34.11l.48-.58a.24.24,0,0,0,0-.37A.82.82,0,0,0,79,34.11Zm7.62-11.6-1-.21a.44.44,0,0,0,.19.46C86,22.49,86.31,22.7,86.59,22.51Zm-2.54-.69c.25.53.53.61.87.31Zm-3.89,9.71a1,1,0,0,0,.34-.75l-.28.22C80,31.19,80,31.23,80.16,31.53ZM93,23.31c.51.22.8.2.94,0ZM74.49,38.91a.83.83,0,0,0-.56-.22c0,.14.06.25.1.39Zm10.16,6.88A.54.54,0,0,0,84,46s0,.08.06.13Z"/>
          <path class="cls-1" d="M65.87,41.49s0,0,0,0Z"/>
          <path class="cls-1" d="M53.89,76.42v.09l0,0Z"/>
          <path class="cls-1" d="M83.73,46.42l.15-.37-.61.11a.32.32,0,0,0-.24.32c0,.09,0,.19,0,.34l-1.08-.24-.18.49,1-.16a1.06,1.06,0,0,1-1.13.26c-.17.07-.31.22-.54.21,0-.31.32-.18.37-.4-.06,0-.13-.15-.21-.17a1.16,1.16,0,0,0-.92.19l.09.33H80c-.15-.39-.24-.47-.6-.53l-.27,0c-.22,0-.45,0-.67-.05a.94.94,0,0,1-.4-.13c-.33-.19-.35-.19-.67,0a.89.89,0,0,1-.37.11.11.11,0,0,1-.09-.19c.14-.12.07-.27.13-.42a1.07,1.07,0,0,0-.93.18l.56.18,0,.07c-.36.14-.62-.18-.9-.23a1.11,1.11,0,0,0-.1-.45.7.7,0,0,0-.41-.23.47.47,0,0,0-.58.32c.35.12.35.12.39.23-.33,0-.85-.08-.86-.22l.18-.1c0-.28-.2-.43-.56-.51a.7.7,0,0,0-.82.3c.11,0,.35,0,.25.25l-.44-.05c0-.09,0-.16,0-.21,0-.21-.12-.42-.35-.48a1.08,1.08,0,0,0-.77,0,1.31,1.31,0,0,0-.23.2c.06,0,.09.06.11.06h.49c.13,0,.22,0,.2.18a1.54,1.54,0,0,1-1.45-.25l.35,0,.08-.27a.6.6,0,0,0-.61-.13,1.1,1.1,0,0,0-.85.67,5.23,5.23,0,0,1-1.25-.08,3.84,3.84,0,0,1,.59-.11c.2,0,.42,0,.62-.08a.38.38,0,0,0-.42-.23,2.09,2.09,0,0,0-1,.26l-.28.15a.31.31,0,0,0-.34-.31,1.06,1.06,0,0,0-.87.34l.13.24a6.61,6.61,0,0,1-1.06.31,1.43,1.43,0,0,0-.78.37,3.19,3.19,0,0,1-1.15.61.49.49,0,0,1-.44,0c0-.06.06-.12.1-.17l.57-.62a3.89,3.89,0,0,1,.47-.44,2,2,0,0,1,.83-.36,1.5,1.5,0,0,0,.88-.55,1.51,1.51,0,0,1,.28-.22l.89-.6a10.82,10.82,0,0,1,1.08-.67,5.68,5.68,0,0,0,1.48-.88,1.48,1.48,0,0,1,.21-.13.3.3,0,0,1,.34,0c.14.09.22,0,.3-.09a2.7,2.7,0,0,1,.31-.28l.61-.34.24-.16a4.41,4.41,0,0,1-.19-1.77l-.54.08a.37.37,0,0,0-.15,0l-.39.28c-.12.09,0,.2,0,.31a.23.23,0,0,1-.15.26.66.66,0,0,1-.2,0,1,1,0,0,1,0-.18c0-.06.09-.1.19-.2a3,3,0,0,0-.37,0,1.27,1.27,0,0,0-.72.38c-.15.15-.41.24-.38.56a2.64,2.64,0,0,0-.38,0,1.27,1.27,0,0,0-.44.08,2.15,2.15,0,0,0-.46.35,1,1,0,0,0-.18.33c-.08.21-.14.23-.32.1s-.13-.1-.18-.09a2.73,2.73,0,0,0-.69.2,1,1,0,0,0-.48.69c.52,0,.52,0,.56.17a.57.57,0,0,1-.18,0,.76.76,0,0,0-.65.29,4.2,4.2,0,0,1-1.09.83.71.71,0,0,0-.25.24.22.22,0,0,1-.32.06l.15-.29a5.27,5.27,0,0,0,.22-.49c.09-.23.14-.48.24-.69a3.68,3.68,0,0,1,1.07-1.59,1.88,1.88,0,0,1,.43-1.29,1.8,1.8,0,0,1,0-.55.67.67,0,0,1,.34-.48c.05,0,.08-.11.09-.17s0-.27,0-.4a1.46,1.46,0,0,1,0-.42,1.8,1.8,0,0,1,.22-.37c-.13-.13-.09-.25,0-.39a1,1,0,0,0,.11-.29c.16-.47.31-1,.47-1.43a.25.25,0,0,1,0-.09,1.12,1.12,0,0,0,.22-.58c.08-.37.14-.74.21-1.11a1.23,1.23,0,0,0,0-.33,4.8,4.8,0,0,1,.17-1.51,4.32,4.32,0,0,1,.45-1.44.08.08,0,0,0,0-.05,1.7,1.7,0,0,1,.51-.85l.13-.13a1.29,1.29,0,0,1-.08-.52,11.54,11.54,0,0,1,.44-1.16c.12-.26.41-.44.36-.78.22-.32.34-.71.7-.94-.1-.1-.13-.18,0-.26l.15-.1a3.06,3.06,0,0,0,1-1c.08-.14.13-.29.3-.36a.24.24,0,0,0,.09-.18c0-.27.19-.38.4-.49l1.22-.68A.91.91,0,0,0,74,23a1.06,1.06,0,0,0-1.07.27,1.61,1.61,0,0,1-.34.24.19.19,0,0,1-.26,0l.39-.23a1.82,1.82,0,0,0-1.17.56c.2.08.28-.23.49,0-.07.06-.12.14-.18.16a6.21,6.21,0,0,1-.62.14c-.12,0-.24,0-.36,0s-.26.11-.25.34a.25.25,0,0,1-.13.25l-.18.16s0,.05,0,.07l.28.07-.19.11-.56.16c-.16,0-.36.09-.41.27a1.26,1.26,0,0,0,0,.51c0,.08.11.15.17.23s-.15.22-.33.13a.28.28,0,0,0-.4.15c-.08.21-.17.41-.25.62a.29.29,0,0,0,.11.39c.18-.29.35-.56.51-.84a3.93,3.93,0,0,1-1.09,1.88l.42-.7c-.27.11-.42.23-.48.46a2,2,0,0,0-.15.82l.19-.07.16,0a.61.61,0,0,1-.19.2c-.13.09-.27.18-.39.28a.53.53,0,0,0-.16.72c.11.25.1.33-.11.5s-.28.17-.4.28a.43.43,0,0,0-.17.26,2.35,2.35,0,0,0,.09.53l.28-.32c.08.13,0,.21,0,.29s-.08.15-.07.21a.33.33,0,0,1-.16.39,2.44,2.44,0,0,0-.29.27.73.73,0,0,0-.24.69l.26.08c0,.29,0,.34-.24.39a.43.43,0,0,0-.34.34,1.73,1.73,0,0,0,0,.93,2.52,2.52,0,0,1,.06.35c-.3,0-.39.19-.45.41a2.49,2.49,0,0,1-.11.27,4.19,4.19,0,0,1,.15.52c.07.42,0,.44-.38.49l-.08,0a1.5,1.5,0,0,0,0,.3,3.19,3.19,0,0,0,.13.44,1,1,0,0,1-.19.86c-.3-.11,0-.29-.1-.44a1,1,0,0,0-.45,1l.3.24c-.35.12-.35.12-.35.45v.12a.42.42,0,0,1-.2.35c-.3-.19.12-.35,0-.52a1.05,1.05,0,0,0-.46.92L64,41l.18-.21A5.64,5.64,0,0,1,63,43l0,.17c-.1.12-.31,0-.34.22l.21.23a.6.6,0,0,0-.31.53,1.66,1.66,0,0,1-.13.44c-.13-.19-.12-.19-.1-.33.06-.3.11-.6.14-.9s.06-.33.25-.35a1.28,1.28,0,0,1-.07-.3c0-.23,0-.45,0-.67a.47.47,0,0,1,.19-.43c.13-.09.11-.18.09-.31a5.18,5.18,0,0,1-.12-.88c0-.48,0-1,.06-1.46a9.53,9.53,0,0,1,.17-1.07,5.17,5.17,0,0,0,.11-.54.43.43,0,0,0-.08-.3.52.52,0,0,1-.2-.42,9.83,9.83,0,0,1,.06-2,4.58,4.58,0,0,0,0-.64c0-.34,0-.69-.06-1,0-.14,0-.28,0-.42a2.62,2.62,0,0,0-.19-.73c-.09-.25-.11-.52-.2-.76a3.55,3.55,0,0,1-.19-1.29,6.38,6.38,0,0,0-.07-.87c0-.26-.08-.52-.09-.79,0-.56,0-1.13-.08-1.7a.65.65,0,0,0,0-.2A2.87,2.87,0,0,1,62,24.63a3.81,3.81,0,0,0,.12-1.26,3.69,3.69,0,0,1,.26-1.61c.06-.2.12-.41.17-.61a2.62,2.62,0,0,1,.39-1S63,20,63,20a1.7,1.7,0,0,1-.32,0,1.51,1.51,0,0,1-.26-.19c0,.18.05.32.07.46-.23.16-.47.31-.7.48a.49.49,0,0,0-.07.76l.26-.3a.58.58,0,0,1-.26.59c-.13.09-.22,0-.31-.07a.71.71,0,0,0-.38.72,1.12,1.12,0,0,1-.3,1s0,0,0,0c.13.27.28.53.39.8s.11.32-.13.48a.8.8,0,0,0-.35.51.28.28,0,0,0,.13.36c.11,0,.22.11.22.26-.42.55-.44,1,0,1.31a1.64,1.64,0,0,1,.21-1.09,2.1,2.1,0,0,1,0,.5,1.51,1.51,0,0,0,0,.3c0,.23.06.47.1.75L61,27.51a.38.38,0,0,0-.18.37,1.51,1.51,0,0,0,.62,1.24c0,.29.08.5.12.72s.07.42.11.62a.39.39,0,0,1-.17.4l-.2.14a.31.31,0,0,0-.13.38,2.44,2.44,0,0,0,.45.82,1.08,1.08,0,0,1,.19.37s-.06.1-.09.16-.11-.06-.13-.11a.59.59,0,0,1,0-.2c-.29.3-.31.44-.16.75s.19.34.27.51a1.06,1.06,0,0,1,.09.35c0,.14-.07.21-.21.25,0-.15,0-.29,0-.43a.93.93,0,0,0-.22.29.41.41,0,0,0,0,.48,3.76,3.76,0,0,1,.32.55c.11.2.11.3-.08.4s-.27.45-.33.71l.19.09a1.18,1.18,0,0,1,.19.11c.16.12.18.22.07.38a1.6,1.6,0,0,1-.25.27.49.49,0,0,0-.14.65c.13.26.23.54.35.81-.27.33-.68.6-.49,1.13a2.25,2.25,0,0,1,.21.12.36.36,0,0,1,.19.35c0,.15-.17.15-.28.19s-.32.07-.43.23a1.93,1.93,0,0,0,.7,1.16,3.86,3.86,0,0,0-.54.33c-.34.27-.32.59,0,.8l.21-.3.06,0,0,.28a2.51,2.51,0,0,0,0,.31.36.36,0,0,0-.47.11,2.69,2.69,0,0,0-.2.27.93.93,0,0,0-.11.59c0,.16.15.19.23.29a.68.68,0,0,1,.17.28,1.55,1.55,0,0,1-.13,1c-.12.24-.24.49-.35.74a4.42,4.42,0,0,1-.39.82,3.11,3.11,0,0,0-.41.91,7.38,7.38,0,0,1-.29.73l0,0c-.3.17-.3.48-.34.76-.18,0-.27-.06-.34-.21s-.2-.37-.27-.57a5.81,5.81,0,0,1-.32-.88,3,3,0,0,0-.41-1s0,0,0,0l-.23.1c-.13-.12,0-.2,0-.3a.78.78,0,0,0,0-.37,5.75,5.75,0,0,0-.36-.8,1.29,1.29,0,0,1-.16-.79,8,8,0,0,1,.51,1.06.59.59,0,0,0,.08-.11,1.28,1.28,0,0,0,0-1c0-.07-.13-.12-.21-.15s-.24,0-.35-.07-.25-.13-.25-.41l.17.13c.13.14.19.14.31,0a2.26,2.26,0,0,0,.16-.26c.16-.31.08-.52-.26-.64l-.41-.15.45-.65c.11-.17.11-.23-.05-.35a7.92,7.92,0,0,0-.71-.47.34.34,0,0,1-.17-.38c.21,0,.23.16.37.24a1,1,0,0,0,.34-.64.87.87,0,0,0-.66-.67l-.22-.06a.57.57,0,0,0-.08-.54c-.1-.16-.08-.21.07-.28.07.21.15.42.23.65a.47.47,0,0,0,.33-.48c0-.14,0-.29,0-.43a.61.61,0,0,0-.34-.53,1,1,0,0,1-.27-.18.66.66,0,0,1-.09-.19c.27-.11.26.17.41.22a.74.74,0,0,0,.31-.66,1.25,1.25,0,0,0-.21-.65.22.22,0,0,0-.28-.11c-.2,0-.3-.07-.25-.28a.83.83,0,0,1,.09-.2l.23.13a.69.69,0,0,0,.12-1c-.09.08-.16.24-.31.09,0-.16,0-.31,0-.46s-.12-.29.06-.43c.05.1.1.19.16.33A1.31,1.31,0,0,0,56,33.7l-.11-.15c-.11-.23-.08-.33.16-.51.19.14-.12.4.12.54a.66.66,0,0,0,.38-.73l-.21-.1a1.44,1.44,0,0,0-.17-.48c-.1-.18-.1-.25.09-.33a.46.46,0,0,0,.27-.4.9.9,0,0,0-.14-.64,2.1,2.1,0,0,1-.21-.39.54.54,0,0,1,.13-.53h.07l0,.56a1.25,1.25,0,0,0,.38-.69.93.93,0,0,0-.21-.62l-.15.52c-.18-.15-.2-.17-.17-.3a1.08,1.08,0,0,1,.29-.65.85.85,0,0,0,.19-1.08,3.61,3.61,0,0,1-.24-.62.87.87,0,0,1,0-.36.19.19,0,0,1,.14-.12c.11,0,.1.1.09.18s-.08.19,0,.27c.18-.58.19-1,0-1.17,0,.24-.06.48-.36.6l.14-.74.47-.11a2.81,2.81,0,0,0,0-1,2.08,2.08,0,0,0-.25.23c-.09.14-.17.11-.23.05a4.79,4.79,0,0,0,0-.51c0-.12,0-.2.13-.24l.14-.06a1.52,1.52,0,0,0-.1-.85c-.05-.14-.22-.25-.33-.37a.31.31,0,0,1-.09-.36l.23.25.09-.05a.81.81,0,0,0-.19-1,.42.42,0,0,1-.24-.44.38.38,0,0,0-.17-.37l-.31-.25a1.48,1.48,0,0,1-.3-.25,1.52,1.52,0,0,1-.13-.41h-.69c.31.71.61,1.38.9,2.06a1.24,1.24,0,0,1,0,1.14.46.46,0,0,0,0,.41c.09.18.2.35.29.54a1.18,1.18,0,0,1,.12.36,3.2,3.2,0,0,1-.19,1.41,2.53,2.53,0,0,0-.06,1.28,1.39,1.39,0,0,1,0,.45,9.32,9.32,0,0,1-.15,1.06.84.84,0,0,1-.13.33.39.39,0,0,0-.08.34.62.62,0,0,1-.2.67c.18.13,0,.26.06.39A10.84,10.84,0,0,1,55,32c0,.29-.06.58-.09.87-.06.58-.18,1.14-.19,1.73s-.08,1.06-.13,1.6-.09,1-.12,1.54a1.74,1.74,0,0,0,.06.45c.08.33.16.67.24,1-.28.2-.3.22-.31.4a11.62,11.62,0,0,0,0,1.18A4.78,4.78,0,0,0,54.72,42,5,5,0,0,1,55,43.72c0,.05,0,.11,0,.16H54.9a2.88,2.88,0,0,1-.13-.31c0-.08,0-.18-.07-.26a8.92,8.92,0,0,0-1-1.92,1.43,1.43,0,0,1-.19-.37.31.31,0,0,1,0-.09l.11.05.14,0c-.06-.37,0-.74-.35-1-.24.08-.24.08-.44,0A3.73,3.73,0,0,0,53,38.6c-.67-.2-.77-.44-.76-.89l.28.27c.24-.46.1-.84-.35-.95a2,2,0,0,1,0,.24,1.61,1.61,0,0,1,0,.22l-.06,0c0-.09-.11-.17-.16-.27s-.08-.22-.13-.33-.1-.22.07-.41c0,0,.07-.06.06-.1a3.29,3.29,0,0,0,0-.63.56.56,0,0,0-.22-.27,1.53,1.53,0,0,1-.41-.63s0-.12,0-.22c.12.2.21.36.31.51a.47.47,0,0,0,0-.32c-.09-.27,0-.6-.39-.74A.11.11,0,0,1,51.3,34c0-.15-.1-.21-.18-.3a.28.28,0,0,1-.09-.37c.1,0,.11.21.25.14a.78.78,0,0,0-.35-.89,2.08,2.08,0,0,1-.32-.27.45.45,0,0,1,0-.64l.12.28c.17-.12.21-.16.16-.29a1.21,1.21,0,0,0-.18-.28c-.13-.16-.26-.33-.4-.49a.22.22,0,0,1,0-.34c.09-.09.19-.16.3-.26-.12-.18-.2-.34-.31-.48s-.25-.32-.38-.48a.26.26,0,0,1,0-.27.85.85,0,0,0-.34-1,4.1,4.1,0,0,0-.55-.3,0,0,0,0,1,0,0,.27.27,0,0,1,0-.12.88.88,0,0,0-.24-1c-.12-.13-.25-.25-.37-.37a.36.36,0,0,1-.1-.3c0-.24,0-.29-.22-.35l-.65-.16c-.22,0-.27-.11-.31-.32l.28.1a.64.64,0,0,0-.17-.72.78.78,0,0,0-.58-.22h-.52a2.74,2.74,0,0,0,0-.43c-.09-.47-.1-.47-.57-.47-.22,0-.45,0-.61.18a.15.15,0,0,1-.24,0l-.18-.17c-.3-.26-.54-.26-.9,0l.38.15a4.14,4.14,0,0,1,1.33.66.75.75,0,0,1,.23.27,3,3,0,0,0,.82.95,2.29,2.29,0,0,1,.85,1.15,2.25,2.25,0,0,0,.53,1.11,1.11,1.11,0,0,1,.22.4,8.36,8.36,0,0,0,.76,1.49c.15.29.28.6.42.9,0,.08.08.16.12.25a2.46,2.46,0,0,1,.14.38c.08.4.15.8.22,1.2a6,6,0,0,1,.2,1.35,3.87,3.87,0,0,0,.09.9,9.36,9.36,0,0,0,.57,1.77c.09.2.14.42.21.63a6.23,6.23,0,0,0,.51,1.68l-.24.15a1.77,1.77,0,0,0,.13.17.47.47,0,0,1,.14.53.26.26,0,0,0,.1.34.55.55,0,0,1,.22.5v.42c.36.21.42.6.59.91a1.76,1.76,0,0,1,.11,1.09h.23a1.12,1.12,0,0,0,.45.86c.11.1.2.23.3.34s.25.29.39.42.26.23,0,.5a.36.36,0,0,0,0,.09l.09.11.09.15c-.26.09-.43,0-.42-.24a.34.34,0,0,0-.1-.33,3.18,3.18,0,0,0-1-.76,1.33,1.33,0,0,1-.7-.47c0-.08-.18-.11-.28-.15s-.31-.12-.36-.32c.2-.09.29.19.47.12,0-.45,0-.56-.44-.7a1.66,1.66,0,0,0-.59-.1c-.25,0-.43-.06-.53-.31a1.22,1.22,0,0,0-.16-.26.54.54,0,0,0-.49-.25,4,4,0,0,1-.6,0,1.71,1.71,0,0,1,.2.18c.09.09.09.19-.06.27-.17-.38-.66-.34-.92-.71a1.13,1.13,0,0,1,.2,0l.59.23a.72.72,0,0,1-.33-.55.31.31,0,0,0-.35-.3,1,1,0,0,0-.24,0l-.77.17c-.15-.56-.43-.92-1-.9v.31a4.8,4.8,0,0,1,.83.38c-.08.16-.18.12-.29.07a1.5,1.5,0,0,0-.55-.21,1.76,1.76,0,0,1-.2,1.35l.09.08a1.89,1.89,0,0,1,.74.46.25.25,0,0,0,.28.08.45.45,0,0,1,.41.14,1.22,1.22,0,0,1,.24.27.72.72,0,0,0,.47.31,1.21,1.21,0,0,1,.94.57,4.89,4.89,0,0,1,.68.16,7.82,7.82,0,0,1,.81.43.41.41,0,0,1,.18.23c0,.15.14.2.26.27a3.61,3.61,0,0,1,.6.35c.3.25.58.53.87.81h.34l0,.22s0,0,.06,0a2,2,0,0,1,.89.41.49.49,0,0,1,.12.13l.57.76.15.19a1.59,1.59,0,0,1-.86-.75.61.61,0,0,0-.21-.24,2.3,2.3,0,0,0-.57-.21c-.5-.12-1-.22-1.52-.31a.44.44,0,0,1-.38-.3.8.8,0,0,0-1-.56.29.29,0,0,0-.3.25c.2.16.2.15.45.13s.39,0,.6,0c0,.21-.15.2-.26.17a1.48,1.48,0,0,0-.54-.08.66.66,0,0,1-.5-.12c-.28-.13-.56-.25-.84-.35a2.7,2.7,0,0,0-.41,0,.56.56,0,0,1-1,.37c.21-.16.49,0,.71-.14a1.8,1.8,0,0,0-.83-.31,1,1,0,0,0-.47.08c-.15,0-.1.22-.13.34a.57.57,0,0,1-.15.26.21.21,0,0,1-.33,0l.3-.16a1.37,1.37,0,0,0-.56-.38.34.34,0,0,0-.3,0,.77.77,0,0,1-.3.19c-.09,0-.16.13-.28.24.26.07.49,0,.65.21A.89.89,0,0,1,45,46a1.73,1.73,0,0,0-.84.1,3.27,3.27,0,0,1-.7.18c-.2,0-.41,0-.46-.21h-.36a2.15,2.15,0,0,0-.75.09.36.36,0,0,0-.32.39.51.51,0,0,0,.4-.13.58.58,0,0,1,.64-.12c0,.14-.07.22-.21.2a.71.71,0,0,0-.55.2.71.71,0,0,1-.73.06c0-.24.23-.12.28-.25a1.06,1.06,0,0,0-.95-.11l-.07.39.41-.19a1.22,1.22,0,0,1-1.36.48L40,47c-.24-.34-.37-.37-.66-.16a1.42,1.42,0,0,0-.32.37.8.8,0,0,1-.77.34.22.22,0,0,1,.2-.23l.36-.09a.9.9,0,0,0-.83-.08.39.39,0,0,0-.19.17.42.42,0,0,1-.44.29c-.33-.48-.49-.76-1.35-.24a1.18,1.18,0,0,1-.25-.19.3.3,0,0,0-.45-.08,1.17,1.17,0,0,1-1,0c-.26-.1-.52-.19-.77-.3a1.71,1.71,0,0,1-.72-.5,2.28,2.28,0,0,0-.22-.22.13.13,0,0,0,0,.11l.74.93a1.2,1.2,0,0,0,.6.53l.22-.29a2,2,0,0,1,.16.19,1.23,1.23,0,0,0,.75.48,9.77,9.77,0,0,0,2.22.34,15.47,15.47,0,0,0,3.84-.28,8,8,0,0,0,.83-.26.89.89,0,0,1,.53-.06,3.39,3.39,0,0,0-.3.19.52.52,0,0,0-.15.18l-.36.9a12.71,12.71,0,0,0-.87,1.87.14.14,0,0,1,0,.06,5,5,0,0,0-.55,1.11c-.15.31-.32.61-.48.92a2.71,2.71,0,0,0-.13.3c-.09.27-.17.54-.26.8A7,7,0,0,0,39,55.17c-.11.66-.35,1.29-.5,1.94a28.39,28.39,0,0,0-.86,3.29,10.92,10.92,0,0,1-.31,1.51,6.69,6.69,0,0,0-.17,1.66,1.27,1.27,0,0,1-.08.48.85.85,0,0,0-.1.49L37.07,66a18.39,18.39,0,0,0,.42,3,7.29,7.29,0,0,0,.28.94l.15.36a8.29,8.29,0,0,0,.75,1.56,7.46,7.46,0,0,0,2.18,2,1,1,0,0,1,.44.41.24.24,0,0,0,.11.09,6.87,6.87,0,0,0,1.84.5,15.15,15.15,0,0,0,2.43,0,3.42,3.42,0,0,0,1.06-.25,9.62,9.62,0,0,0,1.92-1.16,2.47,2.47,0,0,0,.4-.45c.14-.18.25-.39.4-.57a7.09,7.09,0,0,0,.7-1A8.12,8.12,0,0,0,51,67.78a7.35,7.35,0,0,0,0-1.24,15,15,0,0,0-.49-2.47,3.56,3.56,0,0,1-.32-1.1.37.37,0,0,0-.07-.16,2.43,2.43,0,0,1-.29-.49A11.22,11.22,0,0,0,49.26,61c-.22-.46-.43-.93-.65-1.4a2.19,2.19,0,0,0-.29-.57,2.15,2.15,0,0,1-.41-.7,2.93,2.93,0,0,1-.28-.8,8.22,8.22,0,0,1-.07-1.12c0-.49,0-1-.08-1.49a3.76,3.76,0,0,1,.1-1.53A4.46,4.46,0,0,1,48,52.05a.4.4,0,0,1,.48-.24c0-.32.22-.46.39-.64a3.32,3.32,0,0,1,1-.8,2.5,2.5,0,0,1,1-.28,5.12,5.12,0,0,1,.78.06,3.36,3.36,0,0,1,.84.15,7.92,7.92,0,0,1,1.3.5c.45.25.93.44,1.4.67.2.1.39.23.63.38a2.49,2.49,0,0,0-.49-.88c-.22-.29-.43-.59-.64-.88a.78.78,0,0,1-.09-.21,7.69,7.69,0,0,1,.62.67,7.25,7.25,0,0,1,1.22,1.7,1.7,1.7,0,0,1,.1.37,5.43,5.43,0,0,1,.11,1.84l0,0,.09,0c.26.09.27.14.15.37-.24.46-.24.46.1.91-.06.06-.12.13-.22.22a1.32,1.32,0,0,0-.79-.57.91.91,0,0,1-.14-.07c-.48-.21-1-.44-1.45-.63a6,6,0,0,0-2.55-.46,2.1,2.1,0,0,1-.43-.05.35.35,0,0,0-.42.21.37.37,0,0,1-.42.26l-.29,0a.26.26,0,0,1-.1.39l-.2.13c-.11.07-.12.15,0,.27a2.88,2.88,0,0,1,1.27-.38,3.46,3.46,0,0,1,1.82.38.45.45,0,0,1,.25.24.52.52,0,0,0,.24.36l.46.4c.06.06.15.13.15.19s.06.18.12.26a1.47,1.47,0,0,1,.22,1.3c-.05.15-.08.29-.12.43.29.24.29.24.07.5a8.14,8.14,0,0,1,.13,2.15l-.33.19c.31.12.25.31.2.52s-.06.43-.09.64a2.24,2.24,0,0,0,.07,1,.91.91,0,0,1,0,.21c-.12.22-.3,0-.45.09l.24.32-.09.07c-.25.14-.26.16-.21.43s0,.24,0,.36A12.56,12.56,0,0,1,54,67a.81.81,0,0,1-.12.4.41.41,0,0,0-.07.3,3.37,3.37,0,0,1,0,1.61l.22.22c-.32.19-.29.43-.18.7s.14.43.22.68l-.46.09a3.39,3.39,0,0,1,.17.51c.06.47.11,1,.13,1.42a1.46,1.46,0,0,0,.22,1c0,.07.08.21,0,.25-.18.22-.08.47-.08.7a.49.49,0,0,0,.2.46.56.56,0,0,1,.11.19l-.23.14,0,.24-.24.15a1.38,1.38,0,0,1,.16.23c.12.33.23.67.35,1l.12.33c-.12,0-.23,0-.26,0-.17-.26-.45-.48-.39-.86a1.61,1.61,0,0,0,0-.22l-.31.17a.53.53,0,0,1-.11.51l-1,1.23-.4.5a5.27,5.27,0,0,1,2.48,1c0-.24,0-.44-.06-.64a3.79,3.79,0,0,1-.05-.58c0-.18-.18-.37,0-.61.12.25.24.45.33.67a.42.42,0,0,1,0,.27,1.67,1.67,0,0,0,0,.63.26.26,0,0,0,.18.26c.19.06.23.18.21.37s-.07.43.17.56c0,0,.07.14.08.22s0,.21,0,.34l-.22,0c-.22,0-.27,0-.24.26a1.21,1.21,0,0,0,0,.18c.06.26.06.26-.18.42l.11.2a1,1,0,0,0-.16.42,1.43,1.43,0,0,1-1,1.31,8.24,8.24,0,0,1-.89.19l-1.33.22c0,.16.06.33.1.51.22-.08.31.06.36.22a5.21,5.21,0,0,1,.1.57l.09.37c.05.17.12.34.17.52a.17.17,0,0,1-.11.22L52,87.1c0,.14,0,.27,0,.4a1.1,1.1,0,0,1-.09.59,2.14,2.14,0,0,1-.77,1,3.26,3.26,0,0,0-.33.31c-.17.17-.33.35-.47.5l1.63.61a2.47,2.47,0,0,1,1,.72,1.37,1.37,0,0,1,.28.5,6,6,0,0,1,.11.76l-.28.2a.31.31,0,0,0-.21.33c0,.14-.09.2-.21.22l-.27,0,0,0-.37.28a1.27,1.27,0,0,0,.84,0l.7-.3c.15-.07.31-.09.41.06a.36.36,0,0,0,.36.15,3.09,3.09,0,0,0,.43,0,1.43,1.43,0,0,1,1.19.32c.22.17.47.31.67.44,0,.09.07.19.13.23a2.46,2.46,0,0,1,.62.7c.24.36.51.7.77,1a1.7,1.7,0,0,1,.42.86,12.06,12.06,0,0,1,0,1.34l.23.36c.05-.31.1-.59.15-.88a.65.65,0,0,0,0-.24,5.05,5.05,0,0,1,0-1.6s0-.06.1-.13v.86a.63.63,0,0,0,.47-.69.22.22,0,0,1,.11-.22c.08-.06.2-.14.22-.23a3.17,3.17,0,0,1,.82-1.36,1.47,1.47,0,0,1,.69-.54,5.6,5.6,0,0,1,1.07-.2,17.18,17.18,0,0,1,1.76,0,9,9,0,0,1,1,.11l.32.06L65,93l-.28.07a2.1,2.1,0,0,1-.33-1.35,1.62,1.62,0,0,0,0-.3l.38-.08a1.26,1.26,0,0,1,.39-.64.66.66,0,0,1,.69-.18c0-.27.22-.27.4-.3L67.6,90l.05,0c-.5-.39-1-.77-1.5-1.18a1.61,1.61,0,0,1-.64-1c0-.26-.08-.52-.11-.78a2.61,2.61,0,0,1,.32-1.73,9.83,9.83,0,0,1,.56-.81l-.18,0a5.08,5.08,0,0,0-1.45-.2,2.85,2.85,0,0,1-1.17-.39.28.28,0,0,1-.16-.35,1.44,1.44,0,0,0,0-.36c-.38.11-.43.08-.53-.29a5.07,5.07,0,0,0-.13-.56c0-.14,0-.3-.19-.39a1.51,1.51,0,0,0-.32,1c0,.17-.09.23-.29.2,0-.26,0-.52.09-.78,0,0,0-.06.07-.09a.92.92,0,0,0,.23-.73,1.89,1.89,0,0,1,.58-1.6s.1,0,.15,0l0,0c-.07.11-.14.22-.21.35l.45,0L63.09,80a2.45,2.45,0,0,1,1.1-.87,4.25,4.25,0,0,1,1.31-.27l.27,0,0-.07a5.18,5.18,0,0,1-2.12-2.32,1.67,1.67,0,0,0-.09.42c0,.18-.1.22-.3.2,0-.18,0-.35.07-.52a1.39,1.39,0,0,0,.07-.44,3.86,3.86,0,0,1,.09-1c.05-.35.1-.7.13-1.06,0-.67.08-1.35.13-2,0-.39.06-.79.08-1.18,0-.22,0-.45,0-.67a1.43,1.43,0,0,1,.09-.41.78.78,0,0,0,0-.73.48.48,0,0,1-.07-.23c0-.45-.08-.9-.12-1.35s-.11-1-.16-1.48c0-.31,0-.63-.08-.94a7.69,7.69,0,0,1-.11-1.27c0-.42,0-.85-.09-1.27a13,13,0,0,1-.18-1.54A9.83,9.83,0,0,0,63,59.85a1.53,1.53,0,0,1,0-.42,1.69,1.69,0,0,1,.19-.38.34.34,0,0,1-.08-.5.36.36,0,0,0,0-.11c.08-.42.17-.83.25-1.25a1,1,0,0,1,.48-.74c.06,0,.09-.12.14-.18-.23-.25-.22-.28,0-.51a1.57,1.57,0,0,1,.88-.5c.42-.07.85-.1,1.27-.13a1.76,1.76,0,0,1,.45.07l1.18.29a.85.85,0,0,0-.78-.78,1.29,1.29,0,0,1-.78-.36.47.47,0,0,0-.29-.14,6.41,6.41,0,0,0-1.24.08,16.94,16.94,0,0,0-2.78.88c-.3.13-.59.29-.87.43a.73.73,0,0,1,0,.27.83.83,0,0,0,.13.61q.13.23.3.45c.26.38.56.75.8,1.15a.91.91,0,0,1-.13,1.15c-.17.2-.28.22-.49.06a.6.6,0,0,1-.22-.28A4,4,0,0,0,61,58a1.9,1.9,0,0,1-.26-1,3.44,3.44,0,0,0,0-.91,1.51,1.51,0,0,1,0-.6c.09-.56.21-1.11.32-1.66,0-.14.08-.28.11-.41a7.79,7.79,0,0,0,.2-.8,3.47,3.47,0,0,1,.42-1.14,7.32,7.32,0,0,1,1.57-1.85.88.88,0,0,1-.1.22l-.64.81a.85.85,0,0,0-.14.19,7.89,7.89,0,0,1-.65,1.13,2,2,0,0,0-.17.46l.06,0,.5-.47c.21-.21.4-.43.61-.64A4.83,4.83,0,0,1,66,50.15a4.61,4.61,0,0,1,2.45.59,2.79,2.79,0,0,1,1.16,1.17,2.2,2.2,0,0,0,.15.26,2.4,2.4,0,0,1,.34,1.31,3.17,3.17,0,0,1-.11.57.35.35,0,0,1,.18.35,1.25,1.25,0,0,0,.06.83c0,.1,0,.2-.15.2a.34.34,0,0,0-.14,0,1.74,1.74,0,0,1-.15,1.27c.16.36.15.4-.13.65a.57.57,0,0,0-.13.21c-.11.26-.22.52-.32.78-.3.76-.59,1.53-.89,2.29a.92.92,0,0,1-.17.29,3.82,3.82,0,0,0-.65,1.62,6.76,6.76,0,0,1-.5,1.58,2.94,2.94,0,0,0-.33,1,3,3,0,0,1-.13.84,1.82,1.82,0,0,0-.1.79,5,5,0,0,0,.07.54c0,.51.06,1,.11,1.52a2.4,2.4,0,0,0,.12.71,4.29,4.29,0,0,0,.56,1.11,7.17,7.17,0,0,1,.46.75l.74,1.25.08.09a2.06,2.06,0,0,1,.61.67s.06,0,.09.07a8.3,8.3,0,0,0,2.21,1,9.53,9.53,0,0,0,2.49.35,2.83,2.83,0,0,0,1-.14c.4-.17.81-.34,1.2-.52A5.12,5.12,0,0,0,77.83,73s.13-.14.11-.16,0-.15.1-.21a1.16,1.16,0,0,0,.2-.18c.32-.45.64-.89.94-1.35a6.18,6.18,0,0,0,.75-2.16c0-.14.07-.28.11-.42.13-.41.27-.82.39-1.24a3.71,3.71,0,0,0,.2-1,35.65,35.65,0,0,0-.18-4.5,1.53,1.53,0,0,0-.07-.29,2.85,2.85,0,0,1-.12-.31c-.17-.64-.33-1.27-.49-1.91s-.36-1.5-.6-2.24c-.34-1.09-.73-2.17-1.11-3.25a6.26,6.26,0,0,0-.53-1.25,11,11,0,0,1-1-2.2,5.77,5.77,0,0,0-.41-1.07,3.14,3.14,0,0,1-.49-1.2,1.08,1.08,0,0,0-.06-.19,2.11,2.11,0,0,0-1.81.2q.12.24.21.45c.09.2.19.4.27.61s.08.29.14.43c.16.39.34.76.49,1.15.23.62.45,1.26.67,1.89.15.42.27.85.42,1.27.22.61.46,1.21.67,1.82s.36,1.23.58,1.83.51,1.21.76,1.82a.55.55,0,0,1,.07.32,1.23,1.23,0,0,0,.09.74,3.35,3.35,0,0,1,.19,1c0,.22,0,.45.07.67l.21,2.08c0,.29,0,.59,0,.88a5,5,0,0,1,0,.67c-.05.49-.13,1-.2,1.48a2,2,0,0,1-.06.23,10.29,10.29,0,0,0-.29,1.09,1.17,1.17,0,0,1-.39.75.4.4,0,0,0-.14.26.69.69,0,0,1-.24.61s0,.06,0,.08a4.33,4.33,0,0,1-1.23,1.29,4.83,4.83,0,0,1-3.26.84h0a6.75,6.75,0,0,1-1.85-.58,9.17,9.17,0,0,1-.83-.55A2.86,2.86,0,0,1,69,69.43c-.1-.57-.22-1.13-.29-1.71a4.17,4.17,0,0,1,0-.93c0-.3.14-.6.16-.9a5.78,5.78,0,0,1,.29-1.42c.17-.47.38-.92.57-1.38l1.54-3.54a3.39,3.39,0,0,0,.15-.61,10,10,0,0,1,.34-1.1,5.56,5.56,0,0,0,.41-1.43c0-.64.06-1.27.08-1.91a14.17,14.17,0,0,0-.14-2.06,3,3,0,0,0-.27-1L71.06,50a.6.6,0,0,0-.19-.23c-.11-.1-.25-.17-.35-.28a3.83,3.83,0,0,0-1.11-.84l-.73-.36a2.08,2.08,0,0,0-.94-.24,13.39,13.39,0,0,0-1.55.06,2.46,2.46,0,0,0-.85.2,5.69,5.69,0,0,0-.85.52,2.74,2.74,0,0,1-.87.44,2,2,0,0,1,.11-.19c.42-.33.81-.67,1.25-1s.88-.51,1.32-.75a1.76,1.76,0,0,1,1-.28A.44.44,0,0,0,67.5,47a1.6,1.6,0,0,1,1-.3l2,0c.51,0,1,0,1.52.06s.9.15,1.38.24c0,.12.14.19.32.19a2.66,2.66,0,0,1,.39.07,7.16,7.16,0,0,0,2.21.37.21.21,0,0,1,.24.18,1.52,1.52,0,0,1,.06.2,1.86,1.86,0,0,1,.28,0c.47,0,.94,0,1.4.06,1,0,2,.12,3,.16a1.06,1.06,0,0,0,.47-.08c.41-.19.8-.4,1.2-.6l.56-.3c.16-.08.34-.14.33-.38,0,0,.08-.08.13-.1s.18,0,.26-.08a.86.86,0,0,0,.53-.71ZM68,42.05a4.76,4.76,0,0,1,.47-.31c.05,0,.12,0,.18,0s0,.12-.06.15-.33.29-.6.22C68,42.08,68,42.05,68,42.05Zm3.29-17.73,0,0a3.92,3.92,0,0,0-.32.25c-.09.08-.17.17-.25.25l0-.05A.88.88,0,0,1,71.28,24.32Zm-1,.95c.14.14.06.23,0,.28a.72.72,0,0,0-.31.4c0,.06,0,.06-.2,0C69.67,25.6,70.05,25.52,70.23,25.27ZM67.32,31h.09a1.22,1.22,0,0,1,0,.27s-.07.07-.08.06-.09-.06-.08-.09A1.83,1.83,0,0,1,67.32,31Zm-6.13-7a.61.61,0,0,1,0-.54C61.3,23.56,61.31,23.65,61.19,24Zm.13,4,.06.55C61.17,28.43,61.17,28.36,61.32,28Zm.24-5.37c-.1.15-.21.29-.33.44-.14-.31.19-.39.21-.61h.08C61.54,22.54,61.58,22.61,61.56,22.64ZM45.75,23.92c-.18-.11-.34-.24-.53-.37.23-.12.52,0,.76.3C45.93,23.94,45.85,24,45.75,23.92Zm.76.57c.27,0,.28,0,.37.25C46.69,24.78,46.63,24.63,46.51,24.49Zm1.43,1.72-.28-.49a.35.35,0,0,1,.41.21c.08.16.17.31.26.46C48.15,26.46,48,26.41,47.94,26.21Zm1.36,2.66a.53.53,0,0,1-.06-.52l.26.47C49.44,28.91,49.37,29,49.3,28.87ZM50,30.19c-.27-.18-.16-.5-.31-.71A.57.57,0,0,1,50,30.19ZM52.62,39c0-.13-.09-.25-.11-.39.29.11.3.42.46.63C52.78,39.24,52.66,39.19,52.62,39Zm-3.26,3.22a.29.29,0,0,1-.23-.29l.62.24C49.62,42.31,49.48,42.24,49.36,42.21Zm-.57,3.37c-.17.23-.24.24-.58.14C48.37,45.52,48.57,45.59,48.79,45.58Zm5,3.83a10.66,10.66,0,0,0-1.56-1A2,2,0,0,0,51,48.07l-.94.06a1.85,1.85,0,0,0-.89.3,1.43,1.43,0,0,1-.95.35c-.06.31-.27.4-.52.46a.72.72,0,0,0-.48.39,10.45,10.45,0,0,1-.61.87,3.61,3.61,0,0,0-.75,1.37c-.06.28-.19.53-.26.81a3.55,3.55,0,0,0-.12.65c0,.43-.07.87-.11,1.3a.25.25,0,0,1,0,.15.77.77,0,0,0,.06.75,5.44,5.44,0,0,1,.33,1.26,7.89,7.89,0,0,1,.22,1.68,4,4,0,0,0,.37,1.31c.11.29.24.58.36.87a.42.42,0,0,1,0,.15,4.87,4.87,0,0,0,.52,1.44,22.57,22.57,0,0,0,1.2,2.35,3.11,3.11,0,0,1,.44,1.19,3.42,3.42,0,0,0,.13.62,7.31,7.31,0,0,1,.12,2.09,2.43,2.43,0,0,1-.29,1.13,1.09,1.09,0,0,1-.14.23c-.53.62-1,1.24-1.59,1.85a2.73,2.73,0,0,1-1.8.85A6,6,0,0,1,43,72.43a4.11,4.11,0,0,1-2-1.12,2.21,2.21,0,0,1-.45-.75c-.23-.59-.48-1.18-.77-1.75a2,2,0,0,1-.27-1.07,2.74,2.74,0,0,0-.19-1,5.8,5.8,0,0,1-.2-.92,17.62,17.62,0,0,1-.09-2.3,19.31,19.31,0,0,1,.34-2.84,3.57,3.57,0,0,1,.21-.6c.14-.35.3-.71.44-1.06A.54.54,0,0,0,40,58.8a2.48,2.48,0,0,1,.17-.85c.13-.4.2-.81.3-1.21a1.38,1.38,0,0,1,.08-.29,6.86,6.86,0,0,0,.48-1.66,8,8,0,0,1,.71-2.19c.13-.23.22-.48.33-.71s.13-.18.19-.28a3.88,3.88,0,0,0,.22-.46c.11-.31.21-.63.32-.95a6.61,6.61,0,0,1,.28-.74c.11-.24.24-.46.37-.69a1.1,1.1,0,0,0,.19-.75,2.39,2.39,0,0,0-1.06-.21c0-.14.09-.15.17-.16l.84-.13a.65.65,0,0,0,.55-.32c.1-.17.16-.15.37-.1a1.45,1.45,0,0,0,.51,0c.35-.06.71-.16,1.06-.25a2.93,2.93,0,0,1,1.35.08,2,2,0,0,0,1.17-.06,2.08,2.08,0,0,1,1.05,0,4.61,4.61,0,0,1,1.6.55c.17.1.32.22.48.32.48.28,1,.57,1.45.84a1.88,1.88,0,0,1,.89.91A.31.31,0,0,1,53.82,49.41Zm1.51-4.81a1.24,1.24,0,0,1,0,.33.17.17,0,0,1-.11.11s-.1,0-.12-.07a1.87,1.87,0,0,1-.07-.22c0-.15,0-.3,0-.45C55.09,44.3,55.33,44.47,55.33,44.6Zm-.14,4.34-.68-.85c.26,0,.41.09.83.65Zm.08-1.29c-.35-.61-.69-1.23-1.05-1.88a4.66,4.66,0,0,1,1.13,2A.5.5,0,0,1,55.27,47.65Zm.79-.23a1.35,1.35,0,0,1-.28-.2,2.89,2.89,0,0,1-.54-1.33c0-.21-.08-.42-.12-.67.07,0,.14,0,.16.07a1.67,1.67,0,0,1,.21.5A3.55,3.55,0,0,0,56,47.2l0,.1S56.07,47.32,56.06,47.42Zm-.28,10c0-.06.08-.13.12-.2h0l0,0h0l.72-1.14a1.31,1.31,0,0,1,.13,1.47,14.92,14.92,0,0,0-.93,1.77.91.91,0,0,1-.1.13c-.35-.14-.37-.46-.43-.75A1.05,1.05,0,0,1,55.78,57.47Zm-.46,3.37a0,0,0,0,1,0,0c0,.1,0,.26-.18.23s-.06-.17,0-.27a1.84,1.84,0,0,1,.3-.72,3.2,3.2,0,0,0,.17-.48.5.5,0,0,1,0,.54A1.52,1.52,0,0,0,55.32,60.84ZM55.1,82.06l.26-.2-.15-.2a.28.28,0,0,1,.4.13s0,.1,0,.11a1,1,0,0,1-.47.22Zm.48,1.76c-.07-.39-.35-.76-.12-1.19.26-.09.36,0,.34.25a1.34,1.34,0,0,0,.05.35c.09.3.15.61.21.92s0,.2-.22.24A2.64,2.64,0,0,1,55.58,83.82Zm.81,1.41c0,.1,0,.1-.2.16-.08-.22-.15-.42-.23-.61s0-.17.12-.21A.67.67,0,0,1,56.39,85.23Zm.23,1.44c-.07,0-.16-.06-.19-.11a.54.54,0,0,1,.12-.53,3.25,3.25,0,0,1,.13.46C56.69,86.54,56.64,86.61,56.62,86.67Zm.18,1.1c-.19-.26.05-.54-.07-.79.17-.06.25,0,.27.14a3.84,3.84,0,0,1,0,.48C57,87.74,56.9,87.76,56.8,87.77Zm.67,2.55a1.24,1.24,0,0,1-.17-.63,1.13,1.13,0,0,0-.1-.54A2.09,2.09,0,0,1,57,88.07s0-.06.08-.12c.12.24.23.44.32.64a.32.32,0,0,1,0,.23c-.14.23,0,.37.17.47a.27.27,0,0,1,.14.27,3.08,3.08,0,0,0,.34,1.19c.16.31.1.4-.29.47C57.68,90.93,57.58,90.62,57.47,90.32Zm.47,1s0,0,.06,0a.46.46,0,0,1,.14.47c0,.12,0,.14-.23.19Zm.21.68c.2.16.12.4.17.6,0,0-.1.09-.17.15C57.91,92.41,57.92,92.24,58.15,92Zm.35,4.54c0-.29,0-.29.18-.39C58.8,96.52,58.77,96.58,58.5,96.58Zm-.08-.84.07-.13a.85.85,0,0,0,.09-.14l-.26-.06.16-.19a.81.81,0,0,0-.1-.18,1.63,1.63,0,0,1-.28-1.37.55.55,0,0,0-.08-.54A.35.35,0,0,1,58,93a.64.64,0,0,1,.48.44.39.39,0,0,1,0,.21,2.75,2.75,0,0,0,.09,1.07,4.15,4.15,0,0,0,.24.73C58.63,95.72,58.63,95.72,58.42,95.74Zm5.16-18.45c-.13.36-.24.66-.33,1s-.1.41-.17.61-.1.43-.38.44A3.28,3.28,0,0,1,63.58,77.29ZM59.4,94.15a2.73,2.73,0,0,0-.06.5,1.48,1.48,0,0,1-.2.59c0,.05-.11.06-.24.13a9.78,9.78,0,0,0,.2-1.63C59.39,93.79,59.47,93.88,59.4,94.15ZM59.56,93c0,.12,0,.24-.06.36a.22.22,0,0,1-.29.18,1,1,0,0,1,.09-.71l-.11-.21.07,0A.39.39,0,0,1,59.56,93Zm.81-3.88a4.15,4.15,0,0,0-.09.78c0,.12-.08.24-.12.36L60,91a5.12,5.12,0,0,0-.14,1.35c0,.18-.05.27-.26.27a1.76,1.76,0,0,1,.11-1.75,1.53,1.53,0,0,0,.1-1.35l.28-.11c.06-.18.21-.37,0-.55a.33.33,0,0,1,.42-.07A3.06,3.06,0,0,1,60.37,89.08Zm1.38-5.93c.24.07.24.07.34.27-.06.13-.12.25-.17.37s-.06.15-.27.07a.33.33,0,0,0-.1-.45Zm-.85,3.11s.07-.07.11-.11a.3.3,0,0,0,.05-.38.29.29,0,0,1,0-.31q.23-.58.42-1.17c0-.06,0-.14,0-.22.18-.06.18-.06.34.1-.07.18-.15.35-.22.53s-.13.4-.21.6a1.48,1.48,0,0,0-.13.63c0,.15-.13.3-.21.45a.16.16,0,0,1-.11,0A.12.12,0,0,1,60.9,86.26Zm-.25.38c0-.14,0-.21.2-.19a1.48,1.48,0,0,1,0,1.37c-.2.46-.37.67-.67.76,0-.18.08-.32.13-.45s.21-.49.27-.74A3.73,3.73,0,0,0,60.65,86.64Zm.17-42.39c-.13-.19-.09-.29.23-.59A.69.69,0,0,1,60.82,44.25Zm.77,3.32a.78.78,0,0,0-.14.51c0,.05-.06.1-.12.13.06-.28-.1-.61.24-.87C61.58,47.45,61.62,47.54,61.59,47.57ZM63,46.25a4.74,4.74,0,0,0,.77-1,1.42,1.42,0,0,1-.86,1.23A.81.81,0,0,1,63,46.25Zm-1.17.93c-.12-.07-.15-.15-.1-.24a1.65,1.65,0,0,0,.12-1l0,0A1.22,1.22,0,0,1,61.84,47.18Zm0-7.25a.76.76,0,0,1,0-.57,3,3,0,0,0,.06-1.5.68.68,0,0,1,.08-.52c0,.1.08.14.08.19,0,.41.06.82.07,1.23A4.68,4.68,0,0,1,61.82,39.93Zm.42,5.56a2,2,0,0,1,0,.23h-.08c-.14-.23,0-.49-.06-.74s.1-.23.24-.32c0,.07.07.14,0,.16C62.2,45,62.25,45.26,62.24,45.49Zm.18,1.64c.09-.15.15-.35.41-.32l-.47.9C62.25,47.59,62.26,47.42,62.42,47.13ZM63,48l-.49.74a1.16,1.16,0,0,1,.47-.85S63,48,63,48Zm.22-.3c-.07-.17.06-.28.11-.42C63.37,47.52,63.37,47.54,63.17,47.73ZM78.24,47a.7.7,0,0,1-.45-.23H78a4.38,4.38,0,0,0,.51,0,.63.63,0,0,1,.53.28Z"/>
          <path d="M55.78,57.49s0,0,0,0,0,0,0,0A1.51,1.51,0,0,0,55.66,59a7.89,7.89,0,0,0,1-2.16c-.21,0-.26.16-.37.23a1.56,1.56,0,0,1-.34.18c0,.07-.13.14-.12.2h0Z"/>
          <polygon class="cls-1" points="65.87 41.49 65.86 41.49 65.86 41.49 65.86 41.5 65.87 41.49"/>
          <path class="cls-1" d="M83.49,21.27c.35,0,.71,0,1.05.08a5.44,5.44,0,0,0,2-.12l2.23-.59c.23-.06.46-.08.69-.14l2.44-.64L95.19,19l.18,0c.48-.05.51,0,.72.39l.16.26a.32.32,0,0,0,.27.16,10.36,10.36,0,0,1,1.12.1,14.93,14.93,0,0,1,3.2,1c.31.14.62.25.92.4s.43.26.65.39.42.21.61.34c.44.32.89.64,1.32,1a1.43,1.43,0,0,1,.35.42q.36.59.66,1.2t.63,1.35a5.36,5.36,0,0,1,.43,1.73c0,.37.07.74.11,1.11a4.7,4.7,0,0,1-.17,1.63,6.85,6.85,0,0,1-1.28,2.32,1.67,1.67,0,0,1-.33.32l-1.55,1.22a1.56,1.56,0,0,1-.74.33c-.54.09-1.07.2-1.61.3a7.89,7.89,0,0,1-1.88,0c-.15,0-.3,0-.46,0a2.31,2.31,0,0,1-.84-.31c-.74-.31-1.48-.63-2.19-1a9,9,0,0,1-1.19-.73c-.39-.26-.75-.56-1.14-.82a8.13,8.13,0,0,0-.82-.45,3.49,3.49,0,0,0-.34-.15.69.69,0,0,0-.39-.85,5.66,5.66,0,0,1-.56-.4,1.78,1.78,0,0,0-.27-.21,20.52,20.52,0,0,0-2.59-1.35c-.72-.25-1.42-.58-2.14-.86a5.5,5.5,0,0,0-.88-.25,12.23,12.23,0,0,0-2.84-.3,10.74,10.74,0,0,0-2,.33c-.31.08-.62.14-.92.23a2.1,2.1,0,0,0-.64.26c-.39.27-.76.57-1.14.86l-.07.05A4.43,4.43,0,0,0,76,30.33a3.8,3.8,0,0,0-.54.77c-.26.52-.55,1-.83,1.54a3.52,3.52,0,0,0-.17.39l-.42,1.36a2.68,2.68,0,0,0,0,.3,3.31,3.31,0,0,1-.1.63,3.75,3.75,0,0,0-.16,1.1A14.35,14.35,0,0,1,73.67,38a13.58,13.58,0,0,0,0,2.47,8.1,8.1,0,0,0,.2,1c.06.28.13.55.18.83a13.4,13.4,0,0,0,.44,1.62c.15.47.22,1,.33,1.49a.41.41,0,0,1-.44,0,1.41,1.41,0,0,0-1.27-.23s0,0-.08,0c-.11-.4-.21-.81-.31-1.22,0-.06,0-.13,0-.18a3.92,3.92,0,0,1-.27-1.66,8.89,8.89,0,0,0-.13-1,4.8,4.8,0,0,1-.07-.93c0-1.18.16-2.35.23-3.52,0,0,0,0,0-.06a7.38,7.38,0,0,1,.14-1.69c0-.31.14-.61.2-.92a3.12,3.12,0,0,1,.37-1.06,2.21,2.21,0,0,0,.12-.27c.16-.38.33-.75.47-1.12a10.33,10.33,0,0,1,.91-1.62,7.9,7.9,0,0,1,.5-.68l.24-.35a.76.76,0,0,1,.11-.14c.37-.31.74-.64,1.13-.93a11.41,11.41,0,0,1,1.09-.72,10.43,10.43,0,0,1,1.09-.6c.32-.15.69-.23,1-.39a4.37,4.37,0,0,1,1.82-.31,17,17,0,0,1,2.67.11,10,10,0,0,1,2.85.74,17,17,0,0,1,1.58.83c.62.35,1.25.69,1.84,1.08s1.25.84,1.85,1.27a31.6,31.6,0,0,0,2.73,1.89c.5.29.95.66,1.45.95a6.69,6.69,0,0,0,2.86.88l.51,0a2.54,2.54,0,0,0,1.13-.15l1.38-.48a.94.94,0,0,0,.53-.39,1.12,1.12,0,0,1,.18-.2,4.84,4.84,0,0,0,1.41-1.88.37.37,0,0,1,.05-.11,2.8,2.8,0,0,0,.37-1.3c0-.55.11-1.09.11-1.64a3.42,3.42,0,0,0-.38-1.52,8.24,8.24,0,0,1-.38-1,1,1,0,0,0-.36-.54c-.19-.15-.37-.3-.3-.58,0-.11,0-.19-.15-.24a3.71,3.71,0,0,1-.49-.24l-1-.61-.08,0a3,3,0,0,0-1.31-.93c-.34-.18-.69-.34-1-.5a3.51,3.51,0,0,0-2-.32,3.83,3.83,0,0,0-1.11.32,2.5,2.5,0,0,0-1.17,1.23c0,.11-.09.22-.13.33a.25.25,0,0,1-.23.18,9.81,9.81,0,0,1-1.2.14c-.84,0-1.68,0-2.52-.08-.46,0-.91-.12-1.36-.19-1-.17-2.09-.31-3.12-.5a19.57,19.57,0,0,1-3.1-.88l-.14-.07S83.5,21.3,83.49,21.27Z"/>
          <path class="cls-1" d="M24.72,23.7c0,.12-.07.16-.17.19a1.78,1.78,0,0,1-1-.06.35.35,0,0,1-.18-.18.54.54,0,0,0-.63-.38l-.26,0c0-.26-.27-.44-.22-.73,0-.07-.1-.18-.17-.23a3.49,3.49,0,0,0-2.62-.76,5.1,5.1,0,0,0-2.08.64c-.31.19-.63.36-.95.53l-.08,0a15.12,15.12,0,0,1-1.55,1,10,10,0,0,0-1.13,1,1.24,1.24,0,0,0-.35.59,8.48,8.48,0,0,1-.55,1.35c0,.12-.07.24-.1.35s0,.15,0,.21a4.4,4.4,0,0,0-.12,2.1,3,3,0,0,0,.22.76A10.88,10.88,0,0,0,13.36,32a4.14,4.14,0,0,0,.38.55,3.19,3.19,0,0,0,.39.5,4.33,4.33,0,0,0,1.63,1,6,6,0,0,0,2,.44,4.93,4.93,0,0,0,1.8-.42,7.89,7.89,0,0,0,1.47-.89l2.38-1.58.18-.12,2.63-1.91a3.45,3.45,0,0,0,.55-.53,1.15,1.15,0,0,1,.41-.3c.58-.25,1.16-.52,1.74-.79l1.61-.78c.27-.13.53-.25.79-.4a2.61,2.61,0,0,1,.86-.27c.33-.06.66-.15,1-.22a1.51,1.51,0,0,1,.36-.06c.6,0,1.2,0,1.8,0a13.67,13.67,0,0,1,2.89.56c.58.16,1.15.33,1.72.52.26.09.52.22.78.34a.45.45,0,0,1,.19.14A10.58,10.58,0,0,0,42,29a8.52,8.52,0,0,1,1.48,2c.09.2.18.4.26.61s.2.51.31.76c.32.75.66,1.5,1,2.26a5.15,5.15,0,0,1,.16.8,1.34,1.34,0,0,0,.11.37,1,1,0,0,1,.13.61A17.68,17.68,0,0,0,45.49,39c0,.31,0,.63,0,.94a8.65,8.65,0,0,0,0,.88,1,1,0,0,1-.11.65,2.29,2.29,0,0,0-.23,1.15,3,3,0,0,1-.29,1.14,4.07,4.07,0,0,0-.42,1.29.43.43,0,0,1-.05.13,7.34,7.34,0,0,0-1.57.55,1.61,1.61,0,0,1,0-.87c.11-.35.26-.69.37-1s.23-.74.31-1.11a6.81,6.81,0,0,1,.34-1.17,2.62,2.62,0,0,0,.11-.8c0-.4,0-.81.07-1.21a1.28,1.28,0,0,0-.06-.33,2.31,2.31,0,0,1-.16-.83c0-.63,0-1.28-.08-1.91a10.08,10.08,0,0,0-.25-1.19c-.09-.44-.16-.89-.22-1.34a4.45,4.45,0,0,0-.43-1.17c-.17-.38-.36-.75-.55-1.12-.07-.14-.17-.27-.25-.41s-.12-.23-.18-.34a1.29,1.29,0,0,0-.09-.16A6.86,6.86,0,0,0,39.88,29q-.51-.31-1-.66a3.09,3.09,0,0,0-1-.43A16.79,16.79,0,0,0,35,27.4a8.88,8.88,0,0,0-2.06.06A3.15,3.15,0,0,0,31.6,28a2.92,2.92,0,0,1-.92.45,5.58,5.58,0,0,0-1,.45c-.24.12-.47.28-.7.42l-.76.44-.29.17c-.66.47-1.37.88-2,1.41-.4.35-.86.63-1.3,1l-.24.18c-.16.13-.31.27-.47.38L22.28,34a5,5,0,0,1-1.41.63,4,4,0,0,0-.45.16,7.55,7.55,0,0,1-2.32.68H18a3.71,3.71,0,0,1-1.9-.11,8.27,8.27,0,0,1-2-.75,3.94,3.94,0,0,1-1.81-1.86c-.22-.48-.44-1-.68-1.42a4.07,4.07,0,0,1-.4-1.68,6.66,6.66,0,0,1,.14-2,8.18,8.18,0,0,1,.34-1.38c.07-.18.17-.35.25-.52l.15-.27a2,2,0,0,1,.22-.46c.39-.43.63-1,1.06-1.36a3.08,3.08,0,0,0,.37-.44,2,2,0,0,1,.3-.34,7,7,0,0,1,1-.67l-.15.24.26-.1,1-.59a.72.72,0,0,1,.2-.09l1.52-.43,1.83-.55a9.22,9.22,0,0,1,1-.28,1.06,1.06,0,0,0,.74-.47.36.36,0,0,0,.07-.1.82.82,0,0,1,.9-.34c.78.2,1.55.41,2.33.6l2.43.55.66.14c.43.07.86.12,1.29.2s.81.17,1.21.27a11.07,11.07,0,0,0,2.74.35,5.92,5.92,0,0,1,.92.08l-.15.06a1.46,1.46,0,0,0-.69.29c-.07.06-.21.05-.32.07s-.15,0-.11.23c-.28.11-.55-.07-.89,0l.22.27c.18.21.15.38-.12.43a3,3,0,0,1-.67.06.37.37,0,0,1-.36-.21c.24-.28.63-.16.93-.33a.55.55,0,0,0-.48-.1,3.46,3.46,0,0,0-.7.26c-.18.09-.15.23.05.37a1.1,1.1,0,0,1-1.11.22c.17-.21.54-.12.6-.48a3.74,3.74,0,0,0-1,.22c.11.28.11.29,0,.64l-.84-.17c.21-.13.44-.19.57-.41a14,14,0,0,1-2.31.43c.42.2.85,0,1.35.07l-.52.25a.68.68,0,0,1-.55.09,4.68,4.68,0,0,1-.53-.24l-.07.36a1,1,0,0,1-1.05,0,1.14,1.14,0,0,0-.6-.32c0-.05,0-.11,0-.14a.5.5,0,0,0-.56.06Zm1.19-.05a.43.43,0,0,0-.47-.18c-.14,0-.32,0-.4.18Z"/>
          <path class="cls-1" d="M38.08,33.52c.43.15.56.4.44.8l-.12.43a2.05,2.05,0,0,1,.71.92c.07-.22.07-.22-.29-.84.71,0,.85.53.62,1.09l.29.07a4.45,4.45,0,0,1,.51.19c.37.18.42.3.36.76a3.16,3.16,0,0,1-.91-.59c-.09.14,0,.22.07.28a2,2,0,0,0,1.46.7c.49,0,.59.09.6.58a1.7,1.7,0,0,0,0,.21l.48.07.24,0c.33.08.45.26.43.67a3.54,3.54,0,0,1-1-.57c-.32-.21-.62-.46-1-.66a.52.52,0,0,0,.06.13l.82.73a4,4,0,0,0,1.51.82,2.12,2.12,0,0,1,.31.14c0,.48,0,.95-.06,1.46a1,1,0,0,1-.23-.14c-.72-.57-1.44-1.13-2.14-1.71a4.91,4.91,0,0,1-.85-.91c-.3-.4-.65-.77-1-1.16-.19-.22-.4-.43-.6-.65a.51.51,0,0,1-.12-.2,2,2,0,0,0-.47-.74.48.48,0,0,1-.19-.37s0-.1,0-.11-.17-.26-.21-.41a3.61,3.61,0,0,0-.17-.46c-.18-.47-.37-.94-.55-1.42a7.06,7.06,0,0,1-.45-2.19c0-.07,0-.13,0-.27a5.15,5.15,0,0,1,.68,2.08s0,0,.06,0c.37-.14.45-.1.53.3,0,.1.08.19.09.29a2,2,0,0,1,0,.33c-.3-.07-.21-.43-.49-.53a1.66,1.66,0,0,0,.48,1s0-.06,0-.08S38.08,33.56,38.08,33.52Z"/>
          <path class="cls-1" d="M74.26,40.55c-.08-.39-.13-.7-.2-1a.23.23,0,0,1,.17-.3,2.81,2.81,0,0,0,1-.52l.41-.4c-.42,0-.58.41-.95.5a2.59,2.59,0,0,1,.34-.73c.2-.24.48-.15.73-.2,0-.11-.09-.25,0-.33a.71.71,0,0,1,.31-.31,2.39,2.39,0,0,1,.57-.19,1.13,1.13,0,0,1,.37.06,2.51,2.51,0,0,1,.37-.3,1.82,1.82,0,0,0,.65-.67c.14-.2.3-.38.46-.57a1.17,1.17,0,0,0,.27-.61c-.24.09-.18.43-.47.47a1.5,1.5,0,0,1-.07-.6,3.82,3.82,0,0,1,.36-.17,2.23,2.23,0,0,0,1.06-.88,9.22,9.22,0,0,0,.65-1.09,5.61,5.61,0,0,0,.3-.93c.07-.26.13-.53.19-.79s.08-.52.13-.78a3,3,0,0,1,.06-.32h.06a1.28,1.28,0,0,1,0,.27,3.39,3.39,0,0,1-.1,1.14c-.09.33-.12.68-.18,1a2.06,2.06,0,0,1-.27.79,3.08,3.08,0,0,0-.21.53c-.28.63-.54,1.27-.85,1.88a4,4,0,0,1-1,1.35c-.24.2-.43.45-.66.67l-.46.43c-.14.14-.25.3-.39.43-.44.37-.89.73-1.33,1.11-.27.23-.51.49-.78.73S74.45,40.42,74.26,40.55Z"/>
          <path class="cls-1" d="M58.84,44.33a1.47,1.47,0,0,1,0,.29,7.29,7.29,0,0,0,.28,1.91,3,3,0,0,1,0,1.15,3,3,0,0,0,0,.42,1.62,1.62,0,0,1-.37,1l-.38-.86a.33.33,0,0,1,0-.14,12.57,12.57,0,0,1,0-1.94c.06-.64.32-1.22.41-1.85Z"/>
          <path d="M61.78,59.19l-.06-.07A3.88,3.88,0,0,0,61.21,58,1.78,1.78,0,0,1,61,56.86c.17-.1.28,0,.38.13s.29.39.42.59a1.71,1.71,0,0,1,.27,1.16A.52.52,0,0,1,61.78,59.19Z"/>
          <path class="cls-1" d="M60.43,44.49c.37.21.38.25.32.62a2,2,0,0,1-.32.76c-.47-.35-.5-.53-.18-1A2.53,2.53,0,0,0,60.43,44.49Z"/>
          <path class="cls-1" d="M88.39,22.82l1.3.19a.35.35,0,0,1-.26.31,1.3,1.3,0,0,1-.89-.07C88.38,23.18,88.43,23,88.39,22.82Z"/>
          <path class="cls-1" d="M86.94,22.58l1.08.17-.21.5a1.22,1.22,0,0,1-.9-.6Z"/>
          <path class="cls-1" d="M90,23l1.17.19c0,.31-.13.41-.41.37A1,1,0,0,1,90,23Z"/>
          <path class="cls-1" d="M91.32,23.43l0-.1s0,0,0-.1l1.2.07C92.36,23.7,91.86,23.76,91.32,23.43Z"/>
          <path class="cls-1" d="M77,36.77c-.06-.43.45-1,1-1A2.46,2.46,0,0,1,77,36.77Z"/>
          <path class="cls-1" d="M79.66,33A.75.75,0,0,1,80,32C80.15,32.36,80,32.64,79.66,33Z"/>
          <path class="cls-1" d="M79,34.11a.82.82,0,0,1,.47-1,.24.24,0,0,1,0,.37Z"/>
          <path class="cls-1" d="M86.59,22.51c-.28.19-.6,0-.78.25a.44.44,0,0,1-.19-.46Z"/>
          <path class="cls-1" d="M84.05,21.82l.87.31C84.58,22.43,84.3,22.35,84.05,21.82Z"/>
          <path class="cls-1" d="M80.16,31.53c-.2-.3-.19-.34.06-.53l.28-.22A1,1,0,0,1,80.16,31.53Z"/>
          <path class="cls-1" d="M93,23.31H94C93.83,23.51,93.54,23.53,93,23.31Z"/>
          <path class="cls-1" d="M74.49,38.91l-.46.17c0-.14-.07-.25-.1-.39A.83.83,0,0,1,74.49,38.91Z"/>
          <path class="cls-1" d="M84.65,45.79l-.58.29S84,46,84,46A.54.54,0,0,1,84.65,45.79Z"/>
          <path d="M43.66,48a2.39,2.39,0,0,0-1.06-.21c0-.14.09-.15.17-.16l.84-.13a.65.65,0,0,0,.55-.32c.1-.17.16-.15.37-.1a1.45,1.45,0,0,0,.51,0c.35-.06.71-.16,1.06-.25a2.93,2.93,0,0,1,1.35.08,2,2,0,0,0,1.17-.06,2.08,2.08,0,0,1,1.05,0,4.61,4.61,0,0,1,1.6.55c.17.1.32.22.48.32.48.28,1,.57,1.45.84a1.88,1.88,0,0,1,.89.91.31.31,0,0,1-.27-.09,10.66,10.66,0,0,0-1.56-1A2,2,0,0,0,51,48.07l-.94.06a1.85,1.85,0,0,0-.89.3,1.43,1.43,0,0,1-.95.35c-.06.31-.27.4-.52.46a.72.72,0,0,0-.48.39,10.45,10.45,0,0,1-.61.87,3.61,3.61,0,0,0-.75,1.37c-.06.28-.19.53-.26.81a3.55,3.55,0,0,0-.12.65c0,.43-.07.87-.11,1.3a.25.25,0,0,1,0,.15.77.77,0,0,0,.06.75,5.44,5.44,0,0,1,.33,1.26,7.89,7.89,0,0,1,.22,1.68,4,4,0,0,0,.37,1.31c.11.29.24.58.36.87a.42.42,0,0,1,0,.15,4.87,4.87,0,0,0,.52,1.44,22.57,22.57,0,0,0,1.2,2.35,3.11,3.11,0,0,1,.44,1.19,3.42,3.42,0,0,0,.13.62,7.31,7.31,0,0,1,.12,2.09,2.43,2.43,0,0,1-.29,1.13,1.09,1.09,0,0,1-.14.23c-.53.62-1,1.24-1.59,1.85a2.73,2.73,0,0,1-1.8.85A6,6,0,0,1,43,72.43a4.11,4.11,0,0,1-2-1.12,2.21,2.21,0,0,1-.45-.75c-.23-.59-.48-1.18-.77-1.75a2,2,0,0,1-.27-1.07,2.74,2.74,0,0,0-.19-1,5.8,5.8,0,0,1-.2-.92,17.62,17.62,0,0,1-.09-2.3,19.31,19.31,0,0,1,.34-2.84,3.57,3.57,0,0,1,.21-.6c.14-.35.3-.71.44-1.06A.54.54,0,0,0,40,58.8a2.48,2.48,0,0,1,.17-.85c.13-.4.2-.81.3-1.21a1.38,1.38,0,0,1,.08-.29,6.86,6.86,0,0,0,.48-1.66,8,8,0,0,1,.71-2.19c.13-.23.22-.48.33-.71s.13-.18.19-.28a3.88,3.88,0,0,0,.22-.46c.11-.31.21-.63.32-.95a6.61,6.61,0,0,1,.28-.74c.11-.24.24-.46.37-.69A1.1,1.1,0,0,0,43.66,48Zm.65-.7a1.82,1.82,0,0,0-.33.76,2.27,2.27,0,0,1-.42,1.07,1.66,1.66,0,0,0-.18.38c-.09.21-.17.43-.24.65s-.23.68-.34,1a3.49,3.49,0,0,1-.2.44c-.19.33-.41.64-.59,1a7.19,7.19,0,0,0-.66,2,7.62,7.62,0,0,1-.51,1.81,1.17,1.17,0,0,0-.09.32,6,6,0,0,1-.39,1.44.92.92,0,0,0,0,.29,1.06,1.06,0,0,1-.21.77.45.45,0,0,0-.06.14c-.09.22-.18.45-.26.68a3.18,3.18,0,0,0-.19.57c-.11.6-.21,1.2-.27,1.81s-.08,1.21-.08,1.81c0,.42.08.83.08,1.24a3.73,3.73,0,0,0,.18,1.05,2.88,2.88,0,0,1,.23,1.12A2.11,2.11,0,0,0,40,68.73c.29.58.55,1.17.79,1.78a1.57,1.57,0,0,0,.38.63,4,4,0,0,0,2,1,6.26,6.26,0,0,0,2.24.12,2.7,2.7,0,0,0,1.72-.83c.48-.51.93-1.06,1.39-1.61a1.59,1.59,0,0,0,.36-.79c0-.31,0-.63,0-.94a7.2,7.2,0,0,0-.14-1.67,1.35,1.35,0,0,0-.24-.58.76.76,0,0,1-.18-.56.45.45,0,0,0,0-.23c-.28-.54-.57-1.07-.84-1.62s-.61-1.23-.86-1.87-.41-1.25-.65-1.86a3.34,3.34,0,0,1-.35-1.35,4,4,0,0,0-.12-1.14A8.61,8.61,0,0,0,45,55.33a.49.49,0,0,1,0-.27c0-.31.11-.61.15-.92a9,9,0,0,1,.2-1.54c.07-.24.17-.47.23-.7a4,4,0,0,1,.79-1.39,8.63,8.63,0,0,0,.57-.82,1,1,0,0,1,.39-.41l.52-.23a.57.57,0,0,1,.61-.42.74.74,0,0,0,.41-.16A2.69,2.69,0,0,1,50.06,48l1.13-.07.24,0s-.06-.08-.08-.09a6,6,0,0,0-2-.77,1.25,1.25,0,0,0-.69.05,2.22,2.22,0,0,1-1.37.09,3,3,0,0,0-1.59,0A2.08,2.08,0,0,1,44.31,47.32Z"/>
          <path d="M55.66,59a7.89,7.89,0,0,0,1-2.16c-.21,0-.26.16-.37.23a1.23,1.23,0,0,1-.36.19l.75-1.18a1.31,1.31,0,0,1,.13,1.47,14.92,14.92,0,0,0-.93,1.77.91.91,0,0,1-.1.13c-.35-.14-.37-.46-.43-.75a1,1,0,0,1,.5-1.26A1.52,1.52,0,0,0,55.66,59Z"/>
          <path d="M59.55,92.59a1.76,1.76,0,0,1,.11-1.75,1.53,1.53,0,0,0,.1-1.35l.28-.11c.06-.18.21-.37,0-.55a.33.33,0,0,1,.42-.07,3.06,3.06,0,0,1-.05.32,4.15,4.15,0,0,0-.09.78c0,.12-.08.24-.12.36L60,91a5.12,5.12,0,0,0-.14,1.35C59.81,92.5,59.76,92.59,59.55,92.59Z"/>
          <path d="M57.07,88c.12.24.23.44.32.64a.32.32,0,0,1,0,.23c-.14.23,0,.37.17.47a.27.27,0,0,1,.14.27,3.08,3.08,0,0,0,.34,1.19c.16.31.1.4-.29.47-.1-.29-.2-.6-.31-.9a1.24,1.24,0,0,1-.17-.63,1.13,1.13,0,0,0-.1-.54A2.09,2.09,0,0,1,57,88.07S57,88,57.07,88Z"/>
          <path d="M58.83,95.46c-.2.26-.2.26-.41.28l.07-.13a.85.85,0,0,0,.09-.14l-.26-.06.16-.19a.81.81,0,0,0-.1-.18,1.63,1.63,0,0,1-.28-1.37.55.55,0,0,0-.08-.54A.35.35,0,0,1,58,93a.64.64,0,0,1,.48.44.39.39,0,0,1,0,.21,2.75,2.75,0,0,0,.09,1.07A4.15,4.15,0,0,0,58.83,95.46Z"/>
          <path d="M60.2,88.58c0-.18.08-.32.13-.45s.21-.49.27-.74a3.73,3.73,0,0,0,0-.75c0-.14,0-.21.2-.19a1.48,1.48,0,0,1,0,1.37C60.67,88.28,60.5,88.49,60.2,88.58Z"/>
          <path d="M55.84,84.39a2.64,2.64,0,0,1-.26-.57c-.07-.39-.35-.76-.12-1.19.26-.09.36,0,.34.25a1.34,1.34,0,0,0,.05.35c.09.3.15.61.21.92S56.05,84.35,55.84,84.39Z"/>
          <path d="M61.46,84.07c.18-.06.18-.06.34.1-.07.18-.15.35-.22.53s-.13.4-.21.6a1.48,1.48,0,0,0-.13.63c0,.15-.13.3-.21.45a.16.16,0,0,1-.11,0,.12.12,0,0,1,0-.1s.07-.07.11-.11a.3.3,0,0,0,.05-.38.29.29,0,0,1,0-.31q.23-.58.42-1.17C61.5,84.23,61.46,84.15,61.46,84.07Z"/>
          <path d="M56.06,47.42a1.35,1.35,0,0,1-.28-.2,2.89,2.89,0,0,1-.54-1.33c0-.21-.08-.42-.12-.67.07,0,.14,0,.16.07a1.67,1.67,0,0,1,.21.5A3.55,3.55,0,0,0,56,47.2l0,.1S56.07,47.32,56.06,47.42Z"/>
          <path d="M63.58,77.29c-.13.36-.24.66-.33,1s-.1.41-.17.61-.1.43-.38.44A3.28,3.28,0,0,1,63.58,77.29Z"/>
          <path d="M59.1,93.74c.29.05.37.14.3.41a2.73,2.73,0,0,0-.06.5,1.48,1.48,0,0,1-.2.59c0,.05-.11.06-.24.13A9.78,9.78,0,0,0,59.1,93.74Z"/>
          <path d="M61.91,37.34c0,.1.08.14.08.19,0,.41.06.82.07,1.23a4.68,4.68,0,0,1-.24,1.17.76.76,0,0,1,0-.57,3,3,0,0,0,.06-1.5A.68.68,0,0,1,61.91,37.34Z"/>
          <path d="M55.35,47.77a.5.5,0,0,1-.08-.12c-.35-.61-.69-1.23-1.05-1.88A4.66,4.66,0,0,1,55.35,47.77Z"/>
          <path d="M55.56,59.63a.5.5,0,0,1,0,.54,1.52,1.52,0,0,0-.25.67,0,0,0,0,1,0,0c0,.1,0,.26-.18.23s-.06-.17,0-.27a1.84,1.84,0,0,1,.3-.72A3.2,3.2,0,0,0,55.56,59.63Z"/>
          <path d="M59.21,93.5a1,1,0,0,1,.09-.71l-.11-.21.07,0a.39.39,0,0,1,.3.42c0,.12,0,.24-.06.36A.22.22,0,0,1,59.21,93.5Z"/>
          <path d="M63.78,45.24a1.42,1.42,0,0,1-.86,1.23.81.81,0,0,1,.09-.22A4.74,4.74,0,0,0,63.78,45.24Z"/>
          <path d="M61.65,83.86a.33.33,0,0,0-.1-.45l.2-.26c.24.07.24.07.34.27-.06.13-.12.25-.17.37S61.86,83.94,61.65,83.86Z"/>
          <path d="M55.34,48.74l-.15.2-.68-.85C54.77,48.07,54.92,48.18,55.34,48.74Z"/>
          <path d="M56.19,85.39c-.08-.22-.15-.42-.23-.61s0-.17.12-.21a.67.67,0,0,1,.31.66C56.38,85.33,56.37,85.33,56.19,85.39Z"/>
          <path d="M55,44.3c.14,0,.38.17.38.3a1.24,1.24,0,0,1,0,.33.17.17,0,0,1-.11.11s-.1,0-.12-.07a1.87,1.87,0,0,1-.07-.22C55,44.6,55,44.45,55,44.3Z"/>
          <path d="M79,47.11l-.8-.09a.7.7,0,0,1-.45-.23H78a4.38,4.38,0,0,0,.51,0A.63.63,0,0,1,79,47.11Z"/>
          <path d="M61.84,47.18c-.12-.07-.15-.15-.1-.24a1.65,1.65,0,0,0,.12-1l0,0A1.22,1.22,0,0,1,61.84,47.18Z"/>
          <path d="M56.8,87.77c-.19-.26.05-.54-.07-.79.17-.06.25,0,.27.14a3.84,3.84,0,0,1,0,.48C57,87.74,56.9,87.76,56.8,87.77Z"/>
          <path d="M47.66,25.72a.35.35,0,0,1,.41.21c.08.16.17.31.25.46-.17.07-.28,0-.38-.18Z"/>
          <path d="M62.14,45.72c-.14-.23,0-.49-.06-.74s.1-.23.24-.32c0,.07.07.14,0,.16-.17.2-.12.44-.13.67a2,2,0,0,1,0,.23Z"/>
          <path d="M48.52,41.41a1.71,1.71,0,0,1,.2.18c.09.09.09.19-.06.27-.17-.38-.66-.34-.92-.71a1.13,1.13,0,0,1,.2,0l.59.23Z"/>
          <path d="M58.15,92.79c-.24-.38-.23-.55,0-.75.2.16.12.4.17.6C58.33,92.67,58.22,92.73,58.15,92.79Z"/>
          <path d="M62.36,47.71c-.11-.12-.1-.29.06-.58s.15-.35.41-.32Z"/>
          <path d="M70.23,25.27c.14.14.06.23,0,.28a.72.72,0,0,0-.31.4c0,.06,0,.06-.2,0C69.67,25.6,70.05,25.52,70.23,25.27Z"/>
          <path d="M45.22,23.55c.23-.12.52,0,.76.3,0,.09-.13.14-.23.07S45.41,23.68,45.22,23.55Z"/>
          <path d="M68,42.13c0-.05,0-.08,0-.08a4.76,4.76,0,0,1,.47-.31c.05,0,.12,0,.18,0s0,.12-.06.15S68.25,42.2,68,42.13Z"/>
          <path d="M55.1,82.06l.26-.2-.15-.2a.28.28,0,0,1,.4.13s0,.1,0,.11a1,1,0,0,1-.47.22Z"/>
          <path d="M53,39.23c-.19,0-.31,0-.35-.24s-.09-.25-.11-.39C52.8,38.71,52.81,39,53,39.23Z"/>
          <path d="M56.55,86a3.25,3.25,0,0,1,.13.46c0,.05,0,.12-.06.18s-.15-.06-.19-.11A.54.54,0,0,1,56.55,86Z"/>
          <path d="M49.68,29.48a.57.57,0,0,1,.31.71C49.72,30,49.83,29.69,49.68,29.48Z"/>
          <path d="M57.91,92l0-.62s0,0,.06,0a.46.46,0,0,1,.14.47C58.14,91.91,58.1,91.93,57.91,92Z"/>
          <path d="M62.93,47.92S63,48,63,48l-.49.74A1.16,1.16,0,0,1,62.93,47.92Z"/>
          <path d="M61.57,47.34c0,.11,0,.2,0,.23a.78.78,0,0,0-.14.51c0,.05-.06.1-.12.13C61.39,47.93,61.23,47.6,61.57,47.34Z"/>
          <path d="M49.75,42.16c-.13.15-.27.08-.39.05a.29.29,0,0,1-.23-.29Z"/>
          <path d="M58.68,96.19c.12.33.09.39-.18.39C58.46,96.29,58.46,96.29,58.68,96.19Z"/>
          <path d="M60.82,44.25c-.13-.19-.09-.29.23-.59A.69.69,0,0,1,60.82,44.25Z"/>
          <path d="M49.5,28.82c-.06.09-.13.14-.2.05a.53.53,0,0,1-.06-.52Z"/>
          <path d="M61.23,23.08c-.14-.31.19-.39.21-.61h.08c0,.06.06.13,0,.16S61.35,22.93,61.23,23.08Z"/>
          <path d="M70.72,24.81a.87.87,0,0,1,.57-.49l0,0a3.92,3.92,0,0,0-.32.25c-.09.08-.17.17-.25.25Z"/>
          <path d="M48.79,45.58c-.17.23-.24.24-.58.14C48.37,45.52,48.57,45.59,48.79,45.58Z"/>
          <path d="M61.19,24a.61.61,0,0,1,0-.54C61.3,23.56,61.31,23.65,61.19,24Z"/>
          <path d="M61.32,28l.06.55C61.17,28.43,61.17,28.36,61.32,28Z"/>
          <path d="M46.51,24.49c.27,0,.28,0,.37.25C46.69,24.78,46.63,24.63,46.51,24.49Z"/>
          <path d="M63.17,47.73c-.07-.17.06-.28.11-.42C63.37,47.52,63.37,47.54,63.17,47.73Z"/>
          <path d="M67.41,31a1.22,1.22,0,0,1,0,.27s-.07.07-.08.06-.09-.06-.08-.09a1.83,1.83,0,0,1,.06-.25Z"/>
          <path d="M25.91,23.65H25c.08-.18.26-.16.4-.18A.43.43,0,0,1,25.91,23.65Z"/>
          <path d="M24.72,23.7l-.6-.07a.5.5,0,0,1,.56-.06s0,.09,0,.14Z"/>
        </g>
      </g>
    </g>
  </g>
</svg>
