<svg xmlns="http://www.w3.org/2000/svg" viewBox="0 0 117.76 117.76">
  <defs>
    <style>
      .cls-1 {
        fill: #1671f4;
      }

      .cls-2 {
        fill: #fff;
      }
    </style>
  </defs>
  <title>house-arryn</title>
  <g id="Layer_2" data-name="Layer 2">
    <g id="Layer_1-2" data-name="Layer 1">
      <g>
        <rect class="cls-1" width="117.76" height="117.76"/>
        <g>
          <path class="cls-2" d="M101.18,58.9A42.3,42.3,0,1,1,58.93,16.58,42.31,42.31,0,0,1,101.18,58.9ZM59,97.1A38.1,38.1,0,1,0,20.9,59,38.09,38.09,0,0,0,59,97.1Z"/>
          <path class="cls-2" d="M63.83,51.72c.84-.12,1.64-.23,2.43-.37a46.12,46.12,0,0,0,6.86-1.5c4.47-1.47,8.93-3,13.41-4.45a3.15,3.15,0,0,1,1.18-.16,1.14,1.14,0,0,1,1.14,1.23l0,.35.58.1c.83.17,1.12.65.82,1.46a1.5,1.5,0,0,0-.06,1,1.58,1.58,0,0,1-1.22,2,87.45,87.45,0,0,0-12.66,5.15,85.13,85.13,0,0,0-8.56,4.63l-.29.19a4.08,4.08,0,0,1,.3,1.32,3.88,3.88,0,0,1-.57,1.21c.1.17.24.4.37.65a1.39,1.39,0,0,1,0,1.21,7.92,7.92,0,0,0-.28.82.94.94,0,0,0,.59,1.22,7.31,7.31,0,0,0,.78.29c.61.21.7.37.48,1,.58.22,1.17.41,1.74.65a3.31,3.31,0,0,1,1.56,1A2.46,2.46,0,0,1,71,71.3c-.9.12-1.82.18-2.73.27a1.87,1.87,0,0,0-.34.08v.13c.17,0,.34,0,.51,0A34.12,34.12,0,0,1,76.26,73a2.89,2.89,0,0,1,.91.46,44.18,44.18,0,0,1-7.77.69v.17c1.74.16,3.5.27,5.24.47a18.63,18.63,0,0,1,5.12,1v.17a3,3,0,0,1-.66.25c-1.34.19-2.67.39-4,.51s-2.88.15-4.32.23a.61.61,0,0,0-.39.13c4.75.55,9.53.74,14.22,1.69v.21a9.38,9.38,0,0,1-1.37.32c-2.24.19-4.48.46-6.72.49-2.79,0-5.59-.06-8.37-.26a28.48,28.48,0,0,1-9-1.9A7.25,7.25,0,0,1,56.64,76a1.93,1.93,0,0,1-.18-2.88c.37-.48.76-1,1.1-1.46a6.66,6.66,0,0,0,.86-4.53,10.47,10.47,0,0,0-.66-3c-.58.24-1.13.5-1.7.68a7.87,7.87,0,0,1-3,.15,11.58,11.58,0,0,0-2.28,0c-1.82.24-2.49,1.07-2.58,3.12a10,10,0,0,1-1-1,4.63,4.63,0,0,1-.75-3.61,9.31,9.31,0,0,1,5.07-6.88,22.13,22.13,0,0,1,2.26-1.05c.22-.09.3-.18.29-.41a7.81,7.81,0,0,0-2.56-5.52A3.88,3.88,0,0,0,49,48.63c-.39,0-.78,0-1.16-.09A1.23,1.23,0,0,1,46.66,47a8.13,8.13,0,0,1,.61-1.8,32.92,32.92,0,0,1,3.55-5.43,45.5,45.5,0,0,1,7.88-7.81c2-1.66,4.16-3.21,6.25-4.79a9.13,9.13,0,0,1,1-.6,1.68,1.68,0,0,1-.46,1.28c-.85.94-1.71,1.87-2.61,2.75-2,1.93-4,3.82-5.94,5.74a2.23,2.23,0,0,0-.19.24l.05.09a1.52,1.52,0,0,0,.32-.12L64,31.71l.4-.25.11.07c-.13.31-.25.63-.4.93a12.08,12.08,0,0,1-2.73,3.27c-1.18,1.11-2.34,2.23-3.51,3.34l-.27.27.08.13c.13-.06.26-.11.38-.18l4.48-2.74a11.12,11.12,0,0,1,1.1-.53l.11.1a2.64,2.64,0,0,1-.27.79,22.09,22.09,0,0,1-1.86,2.33c-.8.81-1.71,1.51-2.56,2.26a2.13,2.13,0,0,0-.29.31l.07.07,2.61-1.16.13.11a1.51,1.51,0,0,1-.1.53,12.25,12.25,0,0,1-.91,1.42c-.33.43-.74.79-1.11,1.19.86.49.89.86.18,2,.74.49,1.56.94,1.23,2.09,1,.18,1.65.63,1.61,1.71C63.77,50.21,64,50.5,63.83,51.72Z"/>
          <path class="cls-2" d="M53.61,27.08l-.56.36a30.79,30.79,0,0,0-9.7,9.41,28.13,28.13,0,0,0-4.07,10.87,34.31,34.31,0,0,0-.22,9.22,35.8,35.8,0,0,0,7.15,18,31.87,31.87,0,0,0,13.6,10.52,29.24,29.24,0,0,0,13.31,2,6.6,6.6,0,0,1,1.18,0,28.59,28.59,0,0,1-8,3.11,32.34,32.34,0,0,1-8.6.84A31.94,31.94,0,0,1,49.24,90a32.4,32.4,0,0,1,4.37-62.89Z"/>
        </g>
      </g>
    </g>
  </g>
</svg>
