<svg xmlns="http://www.w3.org/2000/svg" viewBox="0 0 119.6 117.57">
  <defs>
    <style>
      .cls-1 {
        fill: #a41d20;
      }

      .cls-2 {
        fill: #20334f;
      }

      .cls-3 {
        fill: #ede8ca;
      }
    </style>
  </defs>
  <title>house-tully</title>
  <g id="Layer_2" data-name="Layer 2">
    <g id="Layer_1-2" data-name="Layer 1">
      <g>
        <polygon class="cls-1" points="119.6 75.13 98.03 81.68 60.08 72.4 22.39 82.5 0 75.13 0 0 119.6 0 119.6 75.13"/>
        <polygon class="cls-2" points="119.6 71.03 98.03 81.14 60.08 73.76 22.39 81.95 0 72.67 0 117.57 119.6 117.57 119.6 71.03"/>
        <path class="cls-3" d="M119.48,78.68c-.78.28-1.58.53-2.36.83-2.38.92-4.73,1.92-7.14,2.77A32.37,32.37,0,0,1,96.11,84,40.66,40.66,0,0,1,88,82.45c-2.51-.76-5-1.47-7.55-2.22-1.31-.39-2.6-.83-3.9-1.21Q72.93,78,69.28,76.93a31.33,31.33,0,0,0-6.06-1.09,27.26,27.26,0,0,0-8,.48c-1.31.3-2.64.55-3.93.91-1.55.42-3.07.94-4.59,1.43l-5.82,1.91c-1.62.54-3.25,1.09-4.87,1.65a38.94,38.94,0,0,1-9.63,2.28,42.19,42.19,0,0,1-5.39.14,31.54,31.54,0,0,1-6.38-1,39.58,39.58,0,0,1-6.25-2.19c-1.67-.74-3.33-1.52-5-2.24-.88-.39-1.8-.7-2.7-1a3.14,3.14,0,0,0-.46-.08V70.93c1.34.48,2.7.9,4,1.46,2.14.94,4.22,2,6.36,3a28.7,28.7,0,0,0,6.41,2,27.85,27.85,0,0,0,6.44.42,30.74,30.74,0,0,0,7.37-1.25c2.12-.64,4.24-1.26,6.35-1.93,1.69-.53,3.36-1.15,5-1.67,2.35-.74,4.71-1.47,7.09-2.11,1.78-.47,3.59-.83,5.41-1.14a37.25,37.25,0,0,1,7.68-.42,38.94,38.94,0,0,1,8,1.12q2.52.62,5,1.29c.71.19,1.4.45,2.1.68,1.9.64,3.78,1.3,5.69,1.91,1.61.51,3.22,1,4.86,1.42s3.39.67,5.1.94a36,36,0,0,0,7.69.34,25.45,25.45,0,0,0,3.37-.43,38.27,38.27,0,0,0,3.81-.89A37.48,37.48,0,0,0,113.94,73c1.69-.83,3.45-1.54,5.17-2.29a1.61,1.61,0,0,1,.37-.07Z"/>
        <path class="cls-3" d="M.18,85.33a53.85,53.85,0,0,1,7.9,3.36,33.77,33.77,0,0,0,8.26,3,26.32,26.32,0,0,0,8.67.43,44.19,44.19,0,0,0,8.41-1.93c2.6-.86,5.21-1.67,7.82-2.5,1.66-.53,3.3-1.14,5-1.6,2.32-.64,4.66-1.24,7-1.73a35.66,35.66,0,0,1,7.57-.74,40.2,40.2,0,0,1,8.82,1c2.06.5,4.11,1,6.14,1.58,1.62.47,3.2,1.07,4.8,1.6s3.25,1.12,4.9,1.58a49,49,0,0,0,8.24,1.72,43.53,43.53,0,0,0,8.54.11,23.51,23.51,0,0,0,7-1.62c2-.82,3.88-1.8,5.83-2.68,1.46-.65,3-1.25,4.42-1.88v8l-.67.24c-3,1.16-6,2.34-9,3.46a24.38,24.38,0,0,1-3.55,1c-1.5.31-3,.51-4.54.67a32.12,32.12,0,0,1-6.72-.1,49.73,49.73,0,0,1-8.27-1.78c-2.63-.76-5.24-1.58-7.86-2.37s-5.29-1.64-8-2.37c-1.73-.48-3.51-.83-5.27-1.2a24.37,24.37,0,0,0-7.33-.32,39.59,39.59,0,0,0-8.68,1.84L39.43,95.54c-2.49.81-5,1.68-7.5,2.37a31,31,0,0,1-5.38,1,34.24,34.24,0,0,1-10-.41,36.24,36.24,0,0,1-6.86-2.09c-2-.84-4-1.78-6-2.64-1.14-.49-2.33-.88-3.5-1.32Z"/>
        <g>
          <path d="M108.12,55.34a11.85,11.85,0,0,1-.82,4.2,14,14,0,0,1-1.83,3.09c-.69.91-1.34,1.86-2,2.76-.54.69-1.12,1.35-1.69,2,0,0-.16.12-.22.1a.31.31,0,0,1-.13-.21,7.14,7.14,0,0,0-1.91-3.87A13.36,13.36,0,0,1,97,59.35a18.61,18.61,0,0,1-1.26-4.56,23.84,23.84,0,0,1-.06-2.93,9.93,9.93,0,0,0-.46-4,4.91,4.91,0,0,0-1.62-2c-.62-.48-1.31-.89-2-1.32,0,0-.11,0-.26,0l.56,1.12c.33.65.68,1.29,1,1.94.13.28.06.49-.31.49-.7,0-1.4.06-2.09,0-1.18,0-2.36-.13-3.54-.21a8.66,8.66,0,0,1-2-.25,2.61,2.61,0,0,1-1-.91c-.94-1.17-1.88-2.34-2.76-3.57a19,19,0,0,1-1.13-2.09,2.44,2.44,0,0,1-.14-.28,1.57,1.57,0,0,0-1.73-.92c-1.37.1-2.73.24-4.09.29-.89,0-1.78,0-2.67-.05H69.61c-.21.7-.34,1.34-.58,2a24.41,24.41,0,0,1-1.17,2.55c-.58,1.07-1.25,2.09-1.91,3.12-.06.09-.33.12-.46.08-.93-.34-1.85-.7-2.76-1.06-1.36-.53-2.71-1-4.06-1.59a5.11,5.11,0,0,1-.76-.41,1.14,1.14,0,0,0-1.35,0c-.75.54-1.51,1.07-2.27,1.58s-1.37.9-2.06,1.34c-1.25.8-2.48,1.63-3.75,2.39a4.09,4.09,0,0,0-1.82,2.67c-.37,1.34-.8,2.66-1.23,4a2.51,2.51,0,0,1-.42.7.42.42,0,0,1-.34.11c-1.24-.33-2.49-.65-3.72-1s-2.7-.87-4.08-1.22a5.36,5.36,0,0,0-3.71.36c-1.24.6-2.44,1.28-3.7,1.83a25.2,25.2,0,0,1-3,1.07c-1.53.46-3.08.83-4.6,1.3a3.39,3.39,0,0,0-1,.77L17.1,63.78l-2.55,2.14a5.41,5.41,0,0,1-.75.61.76.76,0,0,1-.59,0c-.68-.27-1.34-.57-2-.88S10.46,65,11,64.4c.1-.13.22-.25.41-.45l-1-.14a1.9,1.9,0,0,1,.21-.35c.75-.76,1.52-1.49,2.25-2.26.44-.46.83-1,1.31-1.54l-1.2.16a9.87,9.87,0,0,1-3.55-.21,5.59,5.59,0,0,1-2.18-1,3,3,0,0,1-1-2.91c.06-.62.15-1.23.25-1.83a.42.42,0,0,1,.22-.29,2.81,2.81,0,0,0,1.68-1.32c.76-1.12,1.38-2.34,2.07-3.51.55-1,1.12-1.88,1.68-2.82a16.49,16.49,0,0,1,1.25-2c.75-.9,1.62-1.69,2.41-2.54s1.46-1.54,2.12-2.37a18.21,18.21,0,0,1,2.75-2.87c1-.8,2-1.59,3-2.34,1.48-1.08,3-2.14,4.5-3.15A5.55,5.55,0,0,0,30,28.32a22,22,0,0,1,1.49-2.57c.91-1.38,1.85-2.76,2.84-4.1.69-.93,1.46-1.81,2.22-2.69s1.79-2,2.7-2.93c.4-.43.39-.37.9-.12.73.35,1.49.67,2.26.95,1.84.67,3.69,1.33,5.55,2A7.34,7.34,0,0,1,50.24,20c.77.61,1.63,1.1,2.53,1.7-.27.19-.52.39-.79.55-1.24.72-2.49,1.42-3.73,2.13l-1.53.87-.5.27,0,.1c.45-.09.89-.2,1.34-.27a20.94,20.94,0,0,1,2.47-.34c2-.1,4-.16,6.05-.17s4.16,0,6.23.1a22,22,0,0,1,3.77.64c1.85.44,3.68,1,5.51,1.47,1.57.44,3.13.94,4.7,1.35a15.33,15.33,0,0,0,4.27.41l2,0,5.07-.07a12.08,12.08,0,0,1,1.34.1c.08,0,.18.14.2.24.2,1,.37,1.94.55,2.92,0,.17,0,.32-.19.39a7.08,7.08,0,0,0-.77.28l-1.41.52v.13c.36.19.72.4,1.09.58,1.17.59,2.35,1.17,3.54,1.75a14.13,14.13,0,0,1,3.53,2.77c1.07,1,2.15,2.07,3.3,3A6,6,0,0,0,102,42.63q1.09.16,2.19.24c1.45.1,2.9.13,4.34.26a12.11,12.11,0,0,1,3.6.89,10.49,10.49,0,0,1,3.29,2.14A23.32,23.32,0,0,1,117,47.85c.51.61.94,1.29,1.4,1.95.14.19.07.24-.14.36a14.4,14.4,0,0,0-1.93,1.24c-.82.65-1.56,1.4-2.35,2.08a6.53,6.53,0,0,1-3.09,1.26Zm5.91-3,3.52-2.74-2.49-2.91a.5.5,0,0,0-.28-.11c-1.39-.21-2.78-.43-4.17-.61-1.13-.15-2.25-.27-3.38-.33-1.43-.09-2.87-.11-4.3-.13-.15,0-.3.17-.44.26.1.11.2.27.33.31,1.4.42,2.79.9,4.22,1.21,2.33.52,4.69.91,7,1.38.72.15,1.42.38,2.13.57l0,.11c-.34-.06-.68-.09-1-.16-2.19-.46-4.37-.93-6.55-1.37a13.77,13.77,0,0,0-3.82-.49,3.81,3.81,0,0,1-2-.33,1.49,1.49,0,0,0-.45-.15c-.2,0-.4,0-.61,0a.54.54,0,0,0,.27.26A80.24,80.24,0,0,0,113.61,52c.16.06.28.23.42.35l-.26-.1L106,49.45c-.79-.28-1.58-.58-2.45-.9a7.07,7.07,0,0,0,1.92,2.19c1.38,1,2.86,1.92,4.24,2.95a1.5,1.5,0,0,0,1.73.11l.07,0ZM31,29.88c0-.07.13-.15.13-.23a2.41,2.41,0,0,1,.69-1.47l1.48-2a80,80,0,0,1,5.45-6.47c.72-.78,1.46-1.54,2.2-2.31l-.57-.24-.2.48a1,1,0,0,0,0-.24c0-.12-.08-.25-.13-.37a1.93,1.93,0,0,0-.28.22,11.67,11.67,0,0,1-.89.84,16.37,16.37,0,0,0-3.62,3.67c-1.16,1.65-2.26,3.34-3.34,5-.62,1-1.15,2-1.74,3l.84.08c-.34.15-.69.31-1,.44-.52.19-.52.18-.37.72.05.2.11.43-.26.34-.09,0-.21.06-.3,0a2.06,2.06,0,0,1-.42-.17l.62-.45-.07-.09a9.15,9.15,0,0,0-2.43,1.82l.26.53a2.78,2.78,0,0,0-.48.4.33.33,0,0,1-.53.08l-.23-.18-4.56,3.73c.17.12.4.23.39.28a1.83,1.83,0,0,1-.31.68c0,.05-.37,0-.45-.12-.22-.3-.39-.28-.63,0-.93.92-1.88,1.81-2.8,2.74-.61.61-1.17,1.27-1.8,2,.83-.25,1.57-.46,2.3-.69,1.16-.37,2.32-.73,3.46-1.15a.71.71,0,0,1,.73,0c.41.26.84.48,1.25.74a.57.57,0,0,0,.68,0c1.84-1,3.65-2.1,5.52-3.07,3.35-1.74,6.74-3.41,10.11-5.11.22-.11.41-.22.2-.52.13,0,.23-.08.33-.1.57-.08,1.14-.18,1.71-.25,2.26-.29,4.52-.62,6.78-.84,1.94-.18,3.9-.22,5.85-.34.62,0,1.24-.15,1.87-.22l.43-.05v.05l-.53.22H58v-.12L56.84,31c.22,0,.35-.09.49-.11.74-.06,1.47-.14,2.21-.18a21.8,21.8,0,0,1,4.84.29c1.65.26,3.28.62,4.92.92,1.29.23,2.59.41,3.89.64s2.36.45,3.55.67c.61.11,1.23.14,1.82.3a10.62,10.62,0,0,1,1.6.67c2.43,1.18,4.86,2.38,7.3,3.55.29.14.66.15.9.34a66.27,66.27,0,0,0,6.18,4.24Q97,43.9,99.49,45.51c.67.43,1.3.91,2,1.39a7.34,7.34,0,0,0,.69-3.77,2.63,2.63,0,0,1-.49,0,13.75,13.75,0,0,1-2-.46,11.14,11.14,0,0,1-3.54-2.47,13.08,13.08,0,0,1-1.5-1.57,2.36,2.36,0,0,0-.9-.85A24.05,24.05,0,0,1,90,35.32a12.28,12.28,0,0,0-3.73-2.1.74.74,0,0,1-.56-.76c1.26.36,2.31-.2,3.42-.64a1.16,1.16,0,0,0-1.35-.52,8.81,8.81,0,0,0-2.77.6.59.59,0,0,1-.19,0,10.28,10.28,0,0,1-1.11,0,5.29,5.29,0,0,1-.79-.24l.14-.13a18.8,18.8,0,0,1,4.79-.44,1,1,0,0,0,1-.46c-.67-.08-1.28-.18-1.9-.22-1.09-.07-2.18-.11-3.28-.15-.12,0-.33,0-.35.07-.08.29-.32.27-.51.28-.57,0-1.14,0-1.7,0a2.46,2.46,0,0,1-.6-.2l.21-.12a7.19,7.19,0,0,1,3.5-.35c1,.05,2,.17,3,.19a2.68,2.68,0,0,0,1.43-.28,1.15,1.15,0,0,0-1.08-.46c-1.14,0-2.29,0-3.43,0a24.9,24.9,0,0,0-4.23.05,4.23,4.23,0,0,1-2.33-.22,2.83,2.83,0,0,0-.54-.23c-.72-.14-1.46-.19-2.16-.38-1.59-.43-3.14-1-4.72-1.37s-3.12-.75-4.69-1c-1.36-.24-2.74-.36-4.12-.49a29.5,29.5,0,0,0-3.12-.17q-3.51,0-7,.13c-1.17,0-2.34.17-3.51.28L45,26.25l-1.41.17a4.38,4.38,0,0,1,1.07-1c1.58-.9,3.17-1.76,4.76-2.64l2.2-1.22-1.33-.72c-.76.47-1.57,1-2.37,1.48l-4.47,2.85a1.2,1.2,0,0,0-.34.37A3.6,3.6,0,0,1,41.67,27a1.47,1.47,0,0,1-1.15.17,8.51,8.51,0,0,1,2.33-2.23c2.16-1.48,4.59-2.5,6.66-4.12.26-.2.28-.3,0-.48a1.26,1.26,0,0,0-1.9.08c-.6.51-1.21,1-1.83,1.51a39.12,39.12,0,0,0-4.31,3.72,7.25,7.25,0,0,1-2.1,1.72,7.87,7.87,0,0,1-.81.3,10.18,10.18,0,0,1,2.55-2.79c1.55-1.2,3.17-2.33,4.73-3.51.75-.56,1.45-1.18,2.24-1.83a5.12,5.12,0,0,0-1-.37,1,1,0,0,0-.68.14c-.75.56-1.45,1.18-2.19,1.75a19.59,19.59,0,0,0-4.39,4.42,9.79,9.79,0,0,1-1.55,1.67,2.18,2.18,0,0,1-1.76.57c.06-.07.1-.15.16-.22a41.48,41.48,0,0,1,4.9-4.84c1.22-1.06,2.49-2.07,3.73-3.11a6.75,6.75,0,0,0,.68-.73c-.07-.05-.07-.07-.08-.07-.6-.05-1.2-.11-1.8-.15-.08,0-.19.08-.26.15-.5.5-1,1-1.48,1.53-1.08,1.29-2.13,2.61-3.19,3.92a18.26,18.26,0,0,1-4.9,4.53c0-.11,0-.2,0-.32-.66.11-.9,1-1.73.83a4.73,4.73,0,0,1,.5-.9c.57-.67,1.21-1.29,1.77-2C36,25,37.1,23.62,38.21,22.25s2.49-3,3.74-4.55l-.08-.07c-.33-.35-.32-.34-.64,0l-3.58,3.92A50.78,50.78,0,0,0,33,27.28a1.37,1.37,0,0,0-.13.51c0,.22,0,.51-.11.68A3.84,3.84,0,0,1,31,29.88ZM47.27,49.41l0,.14a4,4,0,0,0,.48-.19c.16-.09.29-.23.45-.33,2.79-1.82,5.59-3.65,8.4-5.46a.6.6,0,0,1,.45-.08c1.64.51,3.28,1,4.92,1.57l3.81,1.21.35-.81c-1.19-.33-2.35-.66-3.51-1-1.33-.36-2.66-.71-4-1-.69-.17-1.39-.27-2.08-.43a1.27,1.27,0,0,1-.84-.62,3.18,3.18,0,0,1,.44,0c.83.16,1.67.26,2.47.49,2,.58,4,1.21,5.94,1.82.62.19,1.25.35,1.84.51l.86-1.65c-.56-.11-1.08-.24-1.61-.31-2.11-.28-4.23-.51-6.34-.81-.82-.12-1.63-.38-2.48-.58a1.16,1.16,0,0,1,1.24-.26c.39.09.8.15,1.2.21,1.57.26,3.14.5,4.71.78,1.14.2,2.28.46,3.4.69l.46-.68c.18-.3.11-.45-.23-.46-1-.06-2-.1-3-.17-1.8-.12-3.6-.25-5.4-.4-.49,0-1-.19-1.56-.3.58-.7,1.3-.48,2-.6l-.83-.15v-.1a3.52,3.52,0,0,1,.45-.18A11.53,11.53,0,0,1,62.94,40c1.27,0,2.53.06,3.8.07.68,0,1.36-.52,2.08,0,.1-.59.57-1,.38-1.68a69.37,69.37,0,0,1-9.37,1.2,1.39,1.39,0,0,1,1.38-.76c1,0,1.95,0,2.92,0a19.42,19.42,0,0,0,5.3-.78,3,3,0,0,1,.45,0c-.16.5-.29.92-.44,1.42,1.4-.08,2.74-.13,4.08-.22a29.13,29.13,0,0,1,6.33.1.5.5,0,0,1,.44.36A8,8,0,0,0,81,41.14c1.25,1.83,2.53,3.64,3.8,5.45a.43.43,0,0,0,.24.15c.42.08.83.15,1.25.21l.94.13a4.25,4.25,0,0,0-.63-.64c-1.11-1.12-2.21-2.26-3.31-3.39a8.22,8.22,0,0,1-1.71-2.26,2,2,0,0,1-.23-1.23c.86-.19,1.33.5,2,.8,0-.09-.09-.13-.1-.19s-.07-.28-.11-.43a2.4,2.4,0,0,1,.4.06,4.06,4.06,0,0,1,1.67,1.37c.45.55.85,1.15,1.34,1.65A14.77,14.77,0,0,0,90,45.22c.38.22.77.42,1.15.63a10.52,10.52,0,0,0-.76-1.5,1,1,0,0,0-.3-.24c-1.37-.88-2.76-1.73-4.11-2.63a1.43,1.43,0,0,1-.72-1.35c.49.31.93.55,1.31.85.77.61,1.49,1.26,2.25,1.87a7,7,0,0,0,.89.5c0-.16-.13-.23-.15-.32a3.08,3.08,0,0,1,0-.53c.15.08.29.15.43.24a3.91,3.91,0,0,0,.49.34c.52.22,1.07.37,1.58.62a10.34,10.34,0,0,1,3.86,3.48,2,2,0,0,1,.55,1.65c-.09.42.07.51.51.4.7-.16,1.4-.34,2.1-.48.3-.06.56-.08.66-.44a.4.4,0,0,1,.35-.19c.38,0,.5-.19.59-.49a4,4,0,0,1,.23-.54l-.19-.15c-1.1-.76-2.19-1.55-3.32-2.27-2-1.28-4-2.51-6-3.76-1.62-1-3.22-2-4.86-3-1.46-.84-3-1.56-4.45-2.38a14.49,14.49,0,0,0-5.26-1.88c-1.16-.14-2.32-.29-3.47-.52-2.9-.57-5.77-1.23-8.68-1.78a14.39,14.39,0,0,0-3.15-.19c-1.23.06-2.45.33-3.69.42-2.26.17-4.53.28-6.79.42-.75.05-1.5.1-2.25.18-1.11.11-2.23.21-3.33.38s-2.18.45-3.27.67c-.36.08-.72.13-1.08.19a2.27,2.27,0,0,0-.61.13c-1.46.78-2.9,1.61-4.36,2.38-2.59,1.36-5.18,2.68-7.77,4-.5.26-1,.57-1.44.84l1.63.29a3.37,3.37,0,0,0,1.31.15,1,1,0,0,1,1.18.45,10.72,10.72,0,0,1,1.95,3.76c.23.94.44,1.89.64,2.84a.92.92,0,0,1,0,.52A37.82,37.82,0,0,1,30.59,54c-.26.4-.51.81-.78,1.22l.38.14a1.23,1.23,0,0,0-.92,1.26l6.36-2.47,0-.14-1.39-.29,0-.07.23-.08-.9-.54.05-.11a5,5,0,0,1,2.09.37c1,.31,1.94.66,2.93.9,1.75.41,3.57.42,5.32.91.71.21,1,0,1.19-.53-1.63-.21-3.27-.4-4.89-.64-1.37-.21-2.74-.45-4.1-.74a14.82,14.82,0,0,1-1.86-.65c.49-.31.57-.32,1-.21s1,.31,1.55.45a2.33,2.33,0,0,0,.38,0L35.58,52v-.13c.13-.05.26-.15.39-.14a4.13,4.13,0,0,1,.61.13l.78.09,0-.13a2.6,2.6,0,0,1-.56-.17,2.13,2.13,0,0,1-.39-.35c.18-.07.37-.22.54-.2a7.66,7.66,0,0,1,.87.25c.25.07.51.25.82,0l-.72-.2L37.23,51A2.41,2.41,0,0,1,39,50.33a1,1,0,0,0,.45,0,28.37,28.37,0,0,1,4.85-.8c.84-.09,1.67-.2,2.5-.33a.36.36,0,0,0,.25-.23c.13-.34.2-.71.34-1.05a3.88,3.88,0,0,1,.36-.57c.1.67-.46,1.22-.16,1.88ZM24.39,56.17c.46-.53.94-1,1.33-1.56.59-.81,1.08-1.7,1.67-2.51a7.73,7.73,0,0,1,1.32-1.9c.94-.77.86-2,.63-3.09a4.43,4.43,0,0,0-2.25-3c-1.65-.93-3.36-1.75-5-2.61a.8.8,0,0,0-.46,0c-.52.12-1,.25-1.56.4-1.48.43-2.94,1-4.45,1.27a2.25,2.25,0,0,0-1.65,1.24c-.43.73-.88,1.44-1.34,2.14-.29.44-.69.81-.94,1.27-.76,1.43-1.44,2.92-2.22,4.35-.44.82-.76,1.8-1.91,2a.61.61,0,0,0-.36.46c0,.29.33.22.55.22a11.23,11.23,0,0,0,4.48-1.09A1.71,1.71,0,0,1,13,53.6a13.56,13.56,0,0,1,1.67.29q1.72.38,3.45.78c.11,0,.26.17.26.25a2.82,2.82,0,0,0,1,2.13c.23.24.36.45.25.7a2.27,2.27,0,0,0-.55.34c-1.9,2.19-3.79,4.4-5.67,6.6,0,0-.12.08-.16.12l-.46-.92-1,1c.65.15,1.16.3,1.69.37a1,1,0,0,0,.64-.16,58.44,58.44,0,0,0,7.06-5.77,1.74,1.74,0,0,1,.67-.39c2.07-.7,4.15-1.4,6.23-2.06.47-.15.62-.45.72-1a1.83,1.83,0,0,1-1.7.36c-.51-.06-1-.13-1.52-.21-.23,0-.33.07-.42.26a1.53,1.53,0,0,1-.84.94c-.2-.33,0-.52.18-.75S24.72,56.26,24.39,56.17ZM99.6,48.83A3.31,3.31,0,0,0,99.68,51a19,19,0,0,1,.9,4.78,13.57,13.57,0,0,0,.74,3.74c.36,1,.72,2,1,3.07.17.56.23,1.15.35,1.73-.13,0-.17,0-.18-.06-.49-1.48-1-2.95-1.45-4.44-.32-1-.6-2.09-.86-3.15-.46-1.9-.87-3.81-1.32-5.71a6.35,6.35,0,0,0-.51-1.31c-.14-.26-.38-.23-.44.06a2.42,2.42,0,0,0,0,.89c.08.36.28.69.33,1.05.15,1,.29,2.11.37,3.17s0,1.93,0,2.89A7.45,7.45,0,0,0,99,60.55a14.06,14.06,0,0,0,1.82,3c.49.69.91,1.42,1.37,2.15.71-1.1,1.44-2.19,2.14-3.3a.6.6,0,0,0,0-.44q-1.83-5.16-3.69-10.3C100.32,50.74,100,49.84,99.6,48.83ZM29.25,52.14l.06.11c.43.11.86.23,1.3.31a.44.44,0,0,0,.39-.1,18.08,18.08,0,0,0,1.14-1.75,4.69,4.69,0,0,0,.61-2.14,6.7,6.7,0,0,0-.85-3.13c-.53-1.08-1-2.18-1.54-3.26,0-.08-.11-.17-.18-.18-1.08-.27-2.16-.56-3.25-.78a1.49,1.49,0,0,0-1.84,1.16c3.07,1.33,5.18,3.33,4.69,7a1,1,0,0,0,1.37-.87c.09-.4.14-.8.21-1.24.6.69.25,1.43.2,2.13h.11l.82,0a.79.79,0,0,1-.58.67c-.3.13-.63.19-.92.33a2.7,2.7,0,0,0-.52.44l.08.12,1-.08,0,.11c-.1.12-.17.3-.3.36-.29.14-.62.22-.92.33S29.62,52,29.25,52.14ZM104.64,62l.19,0c.67-1.2,1.33-2.41,2-3.61a.53.53,0,0,0-.07-.61,9.87,9.87,0,0,1-.77-1.24c-.79-1.53-1.51-3.08-2.33-4.6a10.05,10.05,0,0,0-1.4-2c-.4-.46-1-.77-1.13-1.42a.21.21,0,0,0-.09-.13l-.4-.17c0,.12-.11.26-.07.35.19.48.4,1,.64,1.43s.38.63.57.94a2.7,2.7,0,0,1,.16,1.49,11.25,11.25,0,0,0,.88,3.7c.44,1.28.87,2.56,1.3,3.83.15.44.29.87.41,1.31A5.69,5.69,0,0,1,104.64,62ZM9.47,57.32l.72-.85,1,1.12c.15-.17.29-.4.35-.38.34.09.25-.19.31-.32a1.71,1.71,0,0,0,0-.4l.1,0L13,57.81l1-.93c.06,0,.12.14.19.21.67.71.7.71,1.39,0,.35-.35.48-.35.85,0l.37.31c.17.15.31.15.52,0,.4-.29.83-.54,1.26-.82-.18-.39-.42-.86-.63-1.34a.63.63,0,0,0-.57-.41,10.13,10.13,0,0,1-1.08-.18,13.55,13.55,0,0,0-4.49-.2c-.56.09-1.11.27-1.67.41V55l7.79,1.16c-.07.25-.1.37-.12.47-.17-.11-.32-.29-.48-.3-1.34-.13-2.68-.21-4-.34-1.13-.1-2.25-.25-3.38-.34C9,55.6,8,55.57,7,55.51c.08.3.16.52.22.74l.19.75c.12,0,.23,0,.28-.09A2.79,2.79,0,0,0,8,56.48c.29-.42.4-.44.67,0a14.59,14.59,0,0,1,.72,1.34,2.3,2.3,0,0,0-2-.32,18,18,0,0,0,1.76.87,7.47,7.47,0,0,0,3.31.76,3.68,3.68,0,0,0,1.77-.52,2.57,2.57,0,0,0-.41-.11c-.85-.11-1.7-.19-2.54-.33A3.27,3.27,0,0,1,9.47,57.32ZM114.16,46l0-.11a.52.52,0,0,0-.1-.11,7.43,7.43,0,0,0-4-1.75c-2.37-.32-4.75-.55-7.13-.8-.54-.06-.61,0-.53.58,0,.3.5.89.71.91l3.49.41c1.28.16,2.55.35,3.84.5S112.94,45.91,114.16,46Zm-10.83,3.83c1.22,2.51,2.45,5,3.69,7.61a2.26,2.26,0,0,0,.17-1.61,4.23,4.23,0,0,1-.14-1.74,3.31,3.31,0,0,0,2.69,0ZM34.94,27.37c3.19-2.74,5.72-6.11,8.74-9.06l-.63-.22a.58.58,0,0,0-.76.18c-.42.49-.89.94-1.32,1.42A82.8,82.8,0,0,0,34.94,27.37ZM98.51,59.89a1.93,1.93,0,0,0,0-.24c-.29-2.16-.56-4.33-.87-6.49-.15-1.06-.39-2.1-.59-3.14,0-.23-.12-.38-.42-.28C96.39,53.27,96.4,56.77,98.51,59.89ZM60.24,40.75v.12c2.62.63,5.33.6,7.94,1,.21-.55.4-1,.6-1.58H68.4c-.8.08-1.59.19-2.39.22-1.25,0-2.51,0-3.76,0C61.58,40.58,60.91,40.69,60.24,40.75Zm22.07-.11a.47.47,0,0,0,.07.12l5.31,6.32a.48.48,0,0,0,.27.12c.37,0,.75.07,1.13.07a7,7,0,0,0,.8-.06l0-.13A69.55,69.55,0,0,1,82.31,40.64ZM17.87,57.55c-.45.09-.94.05-1.07.65,0,.08-.15.13-.23.2A10.89,10.89,0,0,0,15,59.69c-.89,1-1.69,2.1-2.49,3.11C14.3,62.22,17.4,59.22,17.87,57.55Zm28.61-6.7a17.7,17.7,0,0,0-7,.64v.11L46.1,52Zm-1.27,3.44c.09-.21.17-.37.23-.54a3,3,0,0,0,.11-.4,2.2,2.2,0,0,0-.43-.09c-.58,0-1.17,0-1.74,0-1.32-.15-2.63-.36-4-.51a12.83,12.83,0,0,0-1.52,0v.11C40.24,53.78,42.78,53.75,45.21,54.29Zm46.47-6.86a1.31,1.31,0,0,0-.9-1.28A12.52,12.52,0,0,1,88.67,45c-1.33-1-2.58-2.08-3.86-3.14L83.68,41l-.06.07c.39.42.76.88,1.19,1.26,1.59,1.39,3.2,2.75,4.8,4.12.44.37.77.93,1.49.83C91.26,47.22,91.44,47.35,91.68,47.43Zm-53.21,4.7v.08c.94.13,1.89.29,2.83.4,1.31.15,2.62.26,3.93.39.57.06.82-.22.72-.87ZM36.8,54.29v0l.21.09c2.2.56,4.39,1.12,6.59,1.66a1.52,1.52,0,0,0,.67,0c.12,0,.2-.24.3-.36a1,1,0,0,0-.29-.17l-5.19-.93C38.32,54.49,37.56,54.4,36.8,54.29Zm10-4.87a51,51,0,0,0-5.87,1h5.66C46.67,50.13,46.74,49.81,46.82,49.42ZM29.43,54.64a2.24,2.24,0,0,1-1.73.52,7.75,7.75,0,0,0-1.18,0,3.5,3.5,0,0,0-.76.23l0,.11a.58.58,0,0,0,.14,0l3-.1C29.16,55.43,29.45,55,29.43,54.64Zm0-1.88c-.77-.42-1.77-.47-1.74.23C28.71,53.09,29,53.05,29.43,52.76Zm-2.69,1.47.9-.1.93-.1C27.62,53.55,27,53.63,26.74,54.23Zm3.78-1-2.05.22a9.65,9.65,0,0,0,1.37.25C30.16,53.76,30.32,53.56,30.52,53.24Zm-2.16-1.35L30,51.43A1.13,1.13,0,0,0,28.36,51.89ZM28,54.39v.1c1.23.11,1.49.08,1.71-.24Zm1.37-4c.38-.11.84,0,1.12-.4h-.81C29.63,50.08,29.52,50.22,29.41,50.35Z"/>
          <path class="cls-3" d="M47.27,49.41l.36-.19c-.3-.66.26-1.21.16-1.88a3.88,3.88,0,0,0-.36.57c-.14.34-.21.71-.34,1.05a.36.36,0,0,1-.25.23c-.83.13-1.66.24-2.5.33a28.37,28.37,0,0,0-4.85.8,1,1,0,0,1-.45,0,2.41,2.41,0,0,0-1.81.63l.71.23.72.2c-.31.22-.57,0-.82,0a7.66,7.66,0,0,0-.87-.25c-.17,0-.36.13-.54.2a2.13,2.13,0,0,0,.39.35,2.6,2.6,0,0,0,.56.17l0,.13-.78-.09a4.13,4.13,0,0,0-.61-.13c-.13,0-.26.09-.39.14V52l1.58.72a2.33,2.33,0,0,1-.38,0c-.52-.14-1-.3-1.55-.45s-.5-.1-1,.21a14.82,14.82,0,0,0,1.86.65c1.36.29,2.73.53,4.1.74,1.62.24,3.26.43,4.89.64-.18.52-.48.74-1.19.53-1.75-.49-3.57-.5-5.32-.91-1-.24-2-.59-2.93-.9a5,5,0,0,0-2.09-.37l-.05.11.9.54-.23.08,0,.07L35.6,54l0,.14-6.36,2.47a1.23,1.23,0,0,1,.92-1.26l-.38-.14c.27-.41.52-.82.78-1.22A37.82,37.82,0,0,0,33.5,48.8a.92.92,0,0,0,0-.52c-.2-1-.41-1.9-.64-2.84A10.72,10.72,0,0,0,31,41.68a1,1,0,0,0-1.18-.45,3.37,3.37,0,0,1-1.31-.15l-1.63-.29c.46-.27.94-.58,1.44-.84,2.59-1.35,5.18-2.67,7.77-4,1.46-.77,2.9-1.6,4.36-2.38a2.27,2.27,0,0,1,.61-.13c.36-.06.72-.11,1.08-.19,1.09-.22,2.17-.49,3.27-.67s2.22-.27,3.33-.38c.75-.08,1.5-.13,2.25-.18,2.26-.14,4.53-.25,6.79-.42,1.24-.09,2.46-.36,3.69-.42a14.39,14.39,0,0,1,3.15.19c2.91.55,5.78,1.21,8.68,1.78,1.15.23,2.31.38,3.47.52A14.49,14.49,0,0,1,82,35.52c1.47.82,3,1.54,4.45,2.38,1.64,1,3.24,2,4.86,3,2,1.25,4,2.48,6,3.76,1.13.72,2.22,1.51,3.32,2.27l.19.15a4,4,0,0,0-.23.54c-.09.3-.21.52-.59.49a.4.4,0,0,0-.35.19c-.1.36-.36.38-.66.44-.7.14-1.4.32-2.1.48-.44.11-.6,0-.51-.4a2,2,0,0,0-.55-1.65A10.34,10.34,0,0,0,92,43.7c-.51-.25-1.06-.4-1.58-.62a3.91,3.91,0,0,1-.49-.34c-.14-.09-.28-.16-.43-.24a3.08,3.08,0,0,0,0,.53c0,.09.13.16.15.32a7,7,0,0,1-.89-.5c-.76-.61-1.48-1.26-2.25-1.87-.38-.3-.82-.54-1.31-.85a1.43,1.43,0,0,0,.72,1.35c1.35.9,2.74,1.75,4.11,2.63a1,1,0,0,1,.3.24,10.52,10.52,0,0,1,.76,1.5c-.38-.21-.77-.41-1.15-.63a14.77,14.77,0,0,1-3.46-2.4c-.49-.5-.89-1.1-1.34-1.65a4.06,4.06,0,0,0-1.67-1.37,2.4,2.4,0,0,0-.4-.06c0,.15.06.29.11.43s.07.1.1.19c-.63-.3-1.1-1-2-.8a2,2,0,0,0,.23,1.23,8.22,8.22,0,0,0,1.71,2.26c1.1,1.13,2.2,2.27,3.31,3.39a4.25,4.25,0,0,1,.63.64L86.27,47c-.42-.06-.83-.13-1.25-.21a.43.43,0,0,1-.24-.15C83.51,44.78,82.23,43,81,41.14a8,8,0,0,1-.69-1.41.5.5,0,0,0-.44-.36,29.13,29.13,0,0,0-6.33-.1c-1.34.09-2.68.14-4.08.22.15-.5.28-.92.44-1.42a3,3,0,0,0-.45,0,19.42,19.42,0,0,1-5.3.78c-1,0-1.95,0-2.92,0a1.39,1.39,0,0,0-1.38.76,69.37,69.37,0,0,0,9.37-1.2c.19.66-.28,1.09-.38,1.68-.72-.56-1.4,0-2.08,0-1.27,0-2.53,0-3.8-.07a11.53,11.53,0,0,0-3.61.22,3.52,3.52,0,0,0-.45.18v.1l.83.15c-.7.12-1.42-.1-2,.6.58.11,1.07.25,1.56.3,1.8.15,3.6.28,5.4.4,1,.07,2,.11,3,.17.34,0,.41.16.23.46l-.46.68c-1.12-.23-2.26-.49-3.4-.69-1.57-.28-3.14-.52-4.71-.78-.4-.06-.81-.12-1.2-.21a1.16,1.16,0,0,0-1.24.26c.85.2,1.66.46,2.48.58,2.11.3,4.23.53,6.34.81.53.07,1,.2,1.61.31l-.86,1.65c-.59-.16-1.22-.32-1.84-.51-2-.61-4-1.24-5.94-1.82-.8-.23-1.64-.33-2.47-.49a3.18,3.18,0,0,0-.44,0,1.27,1.27,0,0,0,.84.62c.69.16,1.39.26,2.08.43,1.34.33,2.67.68,4,1,1.16.31,2.32.64,3.51,1l-.35.81L62,45.06c-1.64-.53-3.28-1.06-4.92-1.57a.6.6,0,0,0-.45.08C53.83,45.38,51,47.21,48.24,49c-.16.1-.29.24-.45.33a4,4,0,0,1-.48.19Z"/>
          <path class="cls-3" d="M30.94,29.89a3.9,3.9,0,0,0,1.85-1.42c.12-.17.07-.46.11-.68a1.37,1.37,0,0,1,.13-.51,50.78,50.78,0,0,1,4.62-5.71l3.58-3.92c.32-.36.31-.37.64,0l.08.07c-1.25,1.52-2.5,3-3.74,4.55S36,25,34.88,26.38c-.56.67-1.2,1.29-1.77,2a4.73,4.73,0,0,0-.5.9c.83.17,1.07-.72,1.73-.83,0,.12,0,.21,0,.32a18.26,18.26,0,0,0,4.9-4.53c1.06-1.31,2.11-2.63,3.19-3.92.46-.54,1-1,1.48-1.53.07-.07.18-.16.26-.15.6,0,1.2.1,1.8.15,0,0,0,0,.08.07a6.75,6.75,0,0,1-.68.73c-1.24,1-2.51,2.05-3.73,3.11a41.48,41.48,0,0,0-4.9,4.84c-.06.07-.1.15-.16.22a2.18,2.18,0,0,0,1.76-.57,9.79,9.79,0,0,0,1.55-1.67,19.59,19.59,0,0,1,4.39-4.42c.74-.57,1.44-1.19,2.19-1.75a1,1,0,0,1,.68-.14,5.12,5.12,0,0,1,1,.37c-.79.65-1.49,1.27-2.24,1.83-1.56,1.18-3.18,2.31-4.73,3.51a10.18,10.18,0,0,0-2.55,2.79,7.87,7.87,0,0,0,.81-.3,7.25,7.25,0,0,0,2.1-1.72,39.12,39.12,0,0,1,4.31-3.72c.62-.49,1.23-1,1.83-1.51a1.26,1.26,0,0,1,1.9-.08c.25.18.23.28,0,.48-2.07,1.62-4.5,2.64-6.66,4.12a8.51,8.51,0,0,0-2.33,2.23A1.47,1.47,0,0,0,41.67,27a3.6,3.6,0,0,0,1.45-1.42,1.2,1.2,0,0,1,.34-.37l4.47-2.85c.8-.51,1.61-1,2.37-1.48l1.33.72-2.2,1.22c-1.59.88-3.18,1.74-4.76,2.64a4.38,4.38,0,0,0-1.07,1L45,26.25,47.72,26c1.17-.11,2.34-.24,3.51-.28q3.52-.12,7-.13a29.5,29.5,0,0,1,3.12.17c1.38.13,2.76.25,4.12.49,1.57.27,3.14.62,4.69,1s3.13.94,4.72,1.37c.7.19,1.44.24,2.16.38a2.83,2.83,0,0,1,.54.23,4.23,4.23,0,0,0,2.33.22,24.9,24.9,0,0,1,4.23-.05c1.14.05,2.29,0,3.43,0a1.15,1.15,0,0,1,1.08.46,2.68,2.68,0,0,1-1.43.28c-1,0-2-.14-3-.19a7.19,7.19,0,0,0-3.5.35l-.21.12a2.46,2.46,0,0,0,.6.2c.56,0,1.13,0,1.7,0,.19,0,.43,0,.51-.28,0,0,.23-.08.35-.07,1.1,0,2.19.08,3.28.15.62,0,1.23.14,1.9.22a1,1,0,0,1-1,.46,18.8,18.8,0,0,0-4.79.44l-.14.13a5.29,5.29,0,0,0,.79.24,10.28,10.28,0,0,0,1.11,0,.59.59,0,0,0,.19,0,8.81,8.81,0,0,1,2.77-.6,1.16,1.16,0,0,1,1.35.52c-1.11.44-2.16,1-3.42.64a.74.74,0,0,0,.56.76A12.28,12.28,0,0,1,90,35.32a24.05,24.05,0,0,0,3.73,2.42,2.36,2.36,0,0,1,.9.85,13.08,13.08,0,0,0,1.5,1.57,11.14,11.14,0,0,0,3.54,2.47,13.75,13.75,0,0,0,2,.46,2.63,2.63,0,0,0,.49,0,7.34,7.34,0,0,1-.69,3.77c-.67-.48-1.3-1-2-1.39Q97,43.89,94.54,42.32a66.27,66.27,0,0,1-6.18-4.24c-.24-.19-.61-.2-.9-.34-2.44-1.17-4.87-2.37-7.3-3.55a10.62,10.62,0,0,0-1.6-.67c-.59-.16-1.21-.19-1.82-.3-1.19-.22-2.37-.46-3.55-.67s-2.6-.41-3.89-.64c-1.64-.3-3.27-.66-4.92-.92a21.8,21.8,0,0,0-4.84-.29c-.74,0-1.47.12-2.21.18-.14,0-.27.06-.49.11l1.14.16v.12H56.24l.53-.22V31l-.43.05c-.63.07-1.25.18-1.87.22-2,.12-3.91.16-5.85.34-2.26.22-4.52.55-6.78.84-.57.07-1.14.17-1.71.25-.1,0-.2.06-.33.1.21.3,0,.41-.2.52-3.37,1.7-6.76,3.37-10.11,5.11-1.87,1-3.68,2-5.52,3.07a.57.57,0,0,1-.68,0c-.41-.26-.84-.48-1.25-.74a.71.71,0,0,0-.73,0c-1.14.42-2.3.78-3.46,1.15-.73.23-1.47.44-2.3.69.63-.69,1.19-1.35,1.8-2,.92-.93,1.87-1.82,2.8-2.74.24-.24.41-.26.63,0,.08.1.41.17.45.12a1.83,1.83,0,0,0,.31-.68s-.22-.16-.39-.28l4.56-3.73.23.18a.33.33,0,0,0,.53-.08,2.78,2.78,0,0,1,.48-.4l-.26-.53a9.15,9.15,0,0,1,2.43-1.82l.07.09-.62.45a2.06,2.06,0,0,0,.42.17c.09,0,.21-.07.3,0,.37.09.31-.14.26-.34-.15-.54-.15-.53.37-.72.35-.13.7-.29,1-.44Zm-3,6.39-.77.91.65.42-.55.93.83.37c.16-.27.32-.53.49-.79L28,37.86l.86-1Zm26.61-8.52c1.06-.56,1.13-.62,1.32-1.05-.39-.42-.72-.47-1.13-.14a1.31,1.31,0,0,0-.48.6C54.25,27.33,54.48,27.56,54.58,27.76Zm-31.95,10c.28-.59,1-.68,1.29-1.44-.45.29-.52,0-.63-.35L22,37.18Zm31.6-9.15a5.52,5.52,0,0,0-.36-.42c-.1-.09-.28-.23-.32-.2a8,8,0,0,0-.84.7.23.23,0,0,0,0,.2c.11.21.24.4.37.6ZM24.6,40.79c.25-.27.48-.5.68-.74s.2-.33.16-.4a.78.78,0,0,0-.44-.27,1,1,0,0,0-.89.72C24.08,40.47,24.38,40.65,24.6,40.79Zm1-1.62c.31-.25.6-.46.87-.71s.16-.38-.08-.51a.88.88,0,0,0-1.09.39C25.18,38.62,25.27,38.89,25.65,39.17Zm2.24-3.93c-.4-.48-.83-.6-1.12-.32a.51.51,0,0,0,0,.81C27.12,36,27.36,35.93,27.89,35.24Zm.9-1.93L27.92,33l-.53,1,1.08.24C28.59,33.92,28.68,33.65,28.79,33.31Zm-3.88,2.33.1,0,.51-.55c.33-.39.28-.6-.22-.83-.26.36-.84.44-.87,1Zm18.51-5.08a2.28,2.28,0,0,0-.37,0,3.71,3.71,0,0,0-.9.22c-.08,0,0,.38,0,.58v.14l.65-.11C43.44,31.27,43.44,31.27,43.42,30.56Zm18-1.88h-1c-.39,0-.43.31-.35.56s.3.23.47.27a4.14,4.14,0,0,0,.71,0C61.35,29.31,61.4,29.06,61.47,28.68ZM29,35.9a4.73,4.73,0,0,0,1-.2c.13-.07.2-.39.2-.59s-.22-.18-.39-.16a4.89,4.89,0,0,1-.55,0c-.33,0-.48.07-.29.43C29.09,35.54,29,35.7,29,35.9Zm-5.71,3.42c-.16-.09-.38-.23-.61-.35,0,0-.11.05-.14.1-.21.3-.41.6-.65,1l.77.35ZM40,31.71l-1,.19c-.16,0-.42,0-.32.25s.32.55.51.56C39.79,32.75,40.06,32.39,40,31.71Zm-8.63,4.53L30,36.35l.13.9C30.71,37.08,31.35,37.13,31.39,36.24Zm1.23-4.35.44.76c.4-.24.9-.34.9-.88,0-.15-.23-.29-.31-.39Zm26.21-4.24-.79.52c.12.29.19.63.61.65a.86.86,0,0,0,.72-.68ZM19.68,39.37c0,.49-.39.64-.73.8s-.32.25-.22.49a.34.34,0,0,0,.52.18,8.44,8.44,0,0,0,.83-.61Zm6.07-3.27a6.4,6.4,0,0,0-.9.51.57.57,0,0,0-.19.47c.05.26.27.28.5.16L26,36.9Zm7.91-1.33c.25-.33.49-.65.72-1-.69-.56-1.06-.36-1.23.66Zm13.51-5.68-.87-.46c-.11.06-.31.11-.39.23s-.14.45-.09.48a7.38,7.38,0,0,0,.91.42ZM30.32,32.76c.11.28.22.55.34.83.34-.13.74-.17.89-.38s0-.58,0-.77Zm8-1.93c-.53-.45-.87-.42-1.7.11a1.68,1.68,0,0,0,.16.39c0,.08.21.19.26.16C37.5,31.3,37.9,31.07,38.36,30.83ZM22.1,38.6c-.56.17-1,.31-1.44.47-.06,0-.11.22-.07.29s.23.32.29.3a3.92,3.92,0,0,0,1-.42C22,39.16,22,38.89,22.1,38.6Zm10.16-4.16L31,35l.47.54,1-.24Zm22.12-4.83.19.75,1.25-.23c-.09-.26-.15-.65-.23-.65A6.57,6.57,0,0,0,54.38,29.61Zm-3-.17a.44.44,0,0,1,0-.2c.2-.42-.13-.47-.37-.48a4,4,0,0,0-.88.15,1.79,1.79,0,0,1,0,.3c0,.44,0,.5.45.4C50.88,29.54,51.13,29.5,51.42,29.44ZM32.06,31.13c0-.17,0-.53-.13-.58s-.45.05-.68.1l-.43.11,0,.39c0,.4.11.43.46.28S31.77,31.25,32.06,31.13Zm12.25-1.68a1.49,1.49,0,0,0,.19-.36.56.56,0,0,0,0-.29,4.46,4.46,0,0,0-1.1.07c-.09,0-.09.4-.13.66Zm.57,1.11c.12.21.19.51.37.59a2.09,2.09,0,0,0,.8.06c0-.26,0-.48.07-.72A1.19,1.19,0,0,0,44.88,30.56Zm3.73-.87a4.51,4.51,0,0,0-.73.36.67.67,0,0,0-.25.46c0,.16.21.3.33.45C48.64,30.63,48.82,30.3,48.61,29.69Zm-24.32,8c-.36-.22-.65-.26-.9,0s-.33.42-.28.54.36.34.56.51ZM49.52,27.44a2.79,2.79,0,0,0,.24.49c.06.08.2.17.27.14.3-.12.58-.27.86-.41,0-.19-.06-.35-.11-.61Zm-14,5.73a1.17,1.17,0,0,0,1.07-.32c.08-.09.15-.31.1-.36a.52.52,0,0,0-.39-.14,6.22,6.22,0,0,0-.91.26Zm0-2.31c.07-.2.16-.41.24-.62-.51-.31-1-.17-1.14.31-.1.28,0,.43.32.4Zm1.91-1.42h1.15l-.06-.68C37.52,28.67,37.28,28.82,37.43,29.44Zm3.26-.27-.91.67a3.74,3.74,0,0,0,.53.37.4.4,0,0,0,.34,0,2.57,2.57,0,0,0,.39-.43Zm5.06-1.92c-.81-.09-1.16,0-.83.69C45.63,28,45.74,27.89,45.75,27.25Z"/>
          <path class="cls-3" d="M24.39,56.17c.33.09.08.26,0,.38s-.38.42-.18.75a1.53,1.53,0,0,0,.84-.94c.09-.19.19-.29.42-.26.5.08,1,.15,1.52.21A1.83,1.83,0,0,0,28.7,56c-.1.51-.25.81-.72,1-2.08.66-4.16,1.36-6.23,2.06a1.74,1.74,0,0,0-.67.39A58.44,58.44,0,0,1,14,65.13a1,1,0,0,1-.64.16c-.53-.07-1-.22-1.69-.37l1-1,.46.92s.11-.07.16-.12c1.88-2.2,3.77-4.41,5.67-6.6a2.27,2.27,0,0,1,.55-.34c.11-.25,0-.46-.25-.7a2.82,2.82,0,0,1-1-2.13c0-.08-.15-.23-.26-.25q-1.73-.41-3.45-.78A13.56,13.56,0,0,0,13,53.6a1.71,1.71,0,0,0-.79.15,11.23,11.23,0,0,1-4.48,1.09c-.22,0-.52.07-.55-.22a.61.61,0,0,1,.36-.46C8.67,54,9,53,9.43,52.16c.78-1.43,1.46-2.92,2.22-4.35.25-.46.65-.83.94-1.27.46-.7.91-1.41,1.34-2.14a2.25,2.25,0,0,1,1.65-1.24c1.51-.28,3-.84,4.45-1.27.52-.15,1-.28,1.56-.4a.8.8,0,0,1,.46,0c1.68.86,3.39,1.68,5,2.61a4.43,4.43,0,0,1,2.25,3c.23,1.1.31,2.32-.63,3.09a7.73,7.73,0,0,0-1.32,1.9c-.59.81-1.08,1.7-1.67,2.51C25.33,55.16,24.85,55.64,24.39,56.17Zm-3-.13.06-.09c-.31-.65-.62-1.3-.9-2a1.36,1.36,0,0,0-.71-.76,5,5,0,0,0-1-.37c-1.15-.21-2.31-.37-3.46-.56a4.55,4.55,0,0,1-2.18-.75,3.05,3.05,0,0,1-.41-.46l.1-.09.9.54V50.6a12.89,12.89,0,0,0,1.25.66,8.91,8.91,0,0,0,3.13.32.29.29,0,0,0,.18,0c.44-.37.89-.74,1.32-1.12a.48.48,0,0,0,.12-.33c0-.76,0-1.53.07-2.28a.64.64,0,0,0-.22-.61c-.32-.3-.62-.62-.95-1,.54-.33,1,.29,1.6-.15-.33-.11-.58-.29-.82-.27-1,.06-2,.18-3,.27l-1.93.16c.32-.81.6-1.5.87-2.19L15.28,44a5.92,5.92,0,0,0-.55.94c-.4,1-.73,2-1.15,2.95-.57,1.32-1.25,2.58-1.79,3.91a2.34,2.34,0,0,1-2.07,1.58,1.35,1.35,0,0,0-1.08.71c.64-.15,1.2-.23,1.73-.41,1-.35,2-.76,2.94-1.13a1,1,0,0,1,.52,0c.63.15,1.26.35,1.9.49,1.2.27,2.42.5,3.62.78a1.58,1.58,0,0,1,1.21,1,2.58,2.58,0,0,0,.36.7A4.91,4.91,0,0,0,21.43,56Zm4.09-9-.16,0a3.39,3.39,0,0,1,0,.64,2.76,2.76,0,0,1-.22.6c-.35-.34-.16-.94-.76-1a1.67,1.67,0,0,1,.16,1.58,8.3,8.3,0,0,0-.22,1,.77.77,0,0,0,.33.87C25.16,49.44,26.11,48.4,25.52,47Zm-2.09,8.49.06.15a1.93,1.93,0,0,0,.66-.25c.33-.3.58-.69.9-1s.94-.83,1.41-1.25A9.17,9.17,0,0,0,23.43,55.51Z"/>
          <path class="cls-3" d="M114,52.33c-.14-.12-.26-.29-.42-.35a80.24,80.24,0,0,1-11.56-4.85.54.54,0,0,1-.27-.26c.21,0,.41,0,.61,0a1.49,1.49,0,0,1,.45.15,3.81,3.81,0,0,0,2,.33,13.77,13.77,0,0,1,3.82.49c2.18.44,4.36.91,6.55,1.37.34.07.68.1,1,.16l0-.11c-.71-.19-1.41-.42-2.13-.57-2.34-.47-4.7-.86-7-1.38-1.43-.31-2.82-.79-4.22-1.21-.13,0-.23-.2-.33-.31.14-.09.29-.26.44-.26,1.43,0,2.87,0,4.3.13,1.13.06,2.25.18,3.38.33,1.39.18,2.78.4,4.17.61a.5.5,0,0,1,.28.11l2.49,2.91L114,52.33Z"/>
          <path class="cls-3" d="M99.6,48.83c.38,1,.72,1.91,1,2.82q1.86,5.15,3.69,10.3a.6.6,0,0,1,0,.44c-.7,1.11-1.43,2.2-2.14,3.3-.46-.73-.88-1.46-1.37-2.15a14.06,14.06,0,0,1-1.82-3,7.45,7.45,0,0,1-.29-2.89c0-1,0-1.93,0-2.89s-.22-2.12-.37-3.17c0-.36-.25-.69-.33-1.05a2.42,2.42,0,0,1,0-.89c.06-.29.3-.32.44-.06a6.35,6.35,0,0,1,.51,1.31c.45,1.9.86,3.81,1.32,5.71.26,1.06.54,2.11.86,3.15.46,1.49,1,3,1.45,4.44,0,0,0,.06.18.06-.12-.58-.18-1.17-.35-1.73-.3-1-.66-2-1-3.07a13.57,13.57,0,0,1-.74-3.74,19,19,0,0,0-.9-4.78A3.31,3.31,0,0,1,99.6,48.83Z"/>
          <path class="cls-3" d="M29.25,52.14c.37-.13.74-.27,1.11-.39s.63-.19.92-.33c.13-.06.2-.24.3-.36l0-.11-1,.08-.08-.12a2.7,2.7,0,0,1,.52-.44c.29-.14.62-.2.92-.33a.79.79,0,0,0,.58-.67l-.82,0h-.11c.05-.7.4-1.44-.2-2.13-.07.44-.12.84-.21,1.24a1,1,0,0,1-1.37.87c.49-3.69-1.62-5.69-4.69-7a1.49,1.49,0,0,1,1.84-1.16c1.09.22,2.17.51,3.25.78.07,0,.14.1.18.18.51,1.08,1,2.18,1.54,3.26a6.7,6.7,0,0,1,.85,3.13,4.69,4.69,0,0,1-.61,2.14A18.08,18.08,0,0,1,31,52.46a.44.44,0,0,1-.39.1c-.44-.08-.87-.2-1.3-.31Z"/>
          <path class="cls-3" d="M104.64,62a5.69,5.69,0,0,0-.12-.72c-.12-.44-.26-.87-.41-1.31-.43-1.27-.86-2.55-1.3-3.83a11.25,11.25,0,0,1-.88-3.7,2.7,2.7,0,0,0-.16-1.49c-.19-.31-.41-.62-.57-.94s-.45-1-.64-1.43c0-.09,0-.23.07-.35l.4.17a.21.21,0,0,1,.09.13c.17.65.73,1,1.13,1.42a10.05,10.05,0,0,1,1.4,2c.82,1.52,1.54,3.07,2.33,4.6a9.87,9.87,0,0,0,.77,1.24.53.53,0,0,1,.07.61c-.66,1.2-1.32,2.41-2,3.61Z"/>
          <path class="cls-3" d="M9.47,57.32a3.27,3.27,0,0,0,1.85.84c.84.14,1.69.22,2.54.33a2.57,2.57,0,0,1,.41.11,3.68,3.68,0,0,1-1.77.52,7.47,7.47,0,0,1-3.31-.76,18,18,0,0,1-1.76-.87,2.3,2.3,0,0,1,2,.32,14.59,14.59,0,0,0-.72-1.34c-.27-.43-.38-.41-.67,0a2.79,2.79,0,0,1-.34.43c0,.05-.16.05-.28.09l-.19-.75c-.06-.22-.14-.44-.22-.74,1,.06,2,.09,2.95.17,1.13.09,2.25.24,3.38.34,1.33.13,2.67.21,4,.34.16,0,.31.19.48.3,0-.1.05-.22.12-.47L10.13,55v-.17c.56-.14,1.11-.32,1.67-.41a13.55,13.55,0,0,1,4.49.2,10.13,10.13,0,0,0,1.08.18.63.63,0,0,1,.57.41c.21.48.45.95.63,1.34-.43.28-.86.53-1.26.82-.21.15-.35.15-.52,0l-.37-.31c-.37-.33-.5-.33-.85,0-.69.69-.72.69-1.39,0-.07-.07-.13-.16-.19-.21l-1,.93L12,56.46l-.1,0a1.71,1.71,0,0,1,0,.4c-.06.13,0,.41-.31.32-.06,0-.2.21-.35.38l-1-1.12Z"/>
          <path class="cls-3" d="M114,52.33l-2.53,1.43-.07,0a1.5,1.5,0,0,1-1.73-.11c-1.38-1-2.86-1.93-4.24-2.95a7.07,7.07,0,0,1-1.92-2.19c.87.32,1.66.62,2.45.9l7.78,2.78.26.1Z"/>
          <path class="cls-3" d="M31,29.88l-.84-.08c.59-1,1.12-2.06,1.74-3,1.08-1.7,2.18-3.39,3.34-5a16.37,16.37,0,0,1,3.62-3.67,11.67,11.67,0,0,0,.89-.84A1.93,1.93,0,0,1,40,17c.05.12.09.25.13.37a1,1,0,0,1,0,.24l.2-.48.57.24c-.74.77-1.48,1.53-2.2,2.31a80,80,0,0,0-5.45,6.47l-1.48,2a2.41,2.41,0,0,0-.69,1.47c0,.08-.09.16-.13.24Z"/>
          <path class="cls-3" d="M114.16,46c-1.22-.12-2.43-.23-3.64-.37s-2.56-.34-3.84-.5l-3.49-.41c-.21,0-.66-.61-.71-.91-.08-.54,0-.64.53-.58,2.38.25,4.76.48,7.13.8a7.43,7.43,0,0,1,4,1.75.52.52,0,0,1,.1.11Z"/>
          <path class="cls-3" d="M103.33,49.86l6.41,4.3a3.31,3.31,0,0,1-2.69,0,4.23,4.23,0,0,0,.14,1.74,2.26,2.26,0,0,1-.17,1.61C105.78,54.9,104.55,52.37,103.33,49.86Z"/>
          <path class="cls-3" d="M34.94,27.37a82.8,82.8,0,0,1,6-7.68c.43-.48.9-.93,1.32-1.42a.58.58,0,0,1,.76-.18l.63.22C40.66,21.26,38.13,24.63,34.94,27.37Z"/>
          <path class="cls-3" d="M98.51,59.89c-2.11-3.12-2.12-6.62-1.89-10.15.3-.1.38,0,.42.28.2,1,.44,2.08.59,3.14.31,2.16.58,4.33.87,6.49A1.93,1.93,0,0,1,98.51,59.89Z"/>
          <path class="cls-3" d="M60.24,40.75c.67-.06,1.34-.17,2-.18,1.25,0,2.51,0,3.76,0,.8,0,1.59-.14,2.39-.22h.38c-.2.54-.39,1-.6,1.58-2.61-.44-5.32-.41-7.94-1Z"/>
          <path class="cls-3" d="M82.31,40.64a69.55,69.55,0,0,0,7.6,6.44l0,.13a7,7,0,0,1-.8.06c-.38,0-.76,0-1.13-.07a.48.48,0,0,1-.27-.12l-5.31-6.32A.47.47,0,0,1,82.31,40.64Z"/>
          <path class="cls-3" d="M17.87,57.55c-.47,1.67-3.57,4.67-5.36,5.25.8-1,1.6-2.1,2.49-3.11a10.89,10.89,0,0,1,1.57-1.29c.08-.07.21-.12.23-.2C16.93,57.6,17.42,57.64,17.87,57.55Z"/>
          <path class="cls-3" d="M46.48,50.85,46.1,52l-6.62-.35v-.11A17.7,17.7,0,0,1,46.48,50.85Z"/>
          <path class="cls-3" d="M45.21,54.29c-2.43-.54-5-.51-7.31-1.46v-.11a12.83,12.83,0,0,1,1.52,0c1.32.15,2.63.36,4,.51.57.06,1.16,0,1.74,0a2.2,2.2,0,0,1,.43.09,3,3,0,0,1-.11.4C45.38,53.92,45.3,54.08,45.21,54.29Z"/>
          <path class="cls-3" d="M91.68,47.43c-.24-.08-.42-.21-.58-.18-.72.1-1-.46-1.49-.83-1.6-1.37-3.21-2.73-4.8-4.12-.43-.38-.8-.84-1.19-1.26l.06-.07,1.13.92C86.09,43,87.34,44,88.67,45a12.52,12.52,0,0,0,2.11,1.12A1.31,1.31,0,0,1,91.68,47.43Z"/>
          <path class="cls-3" d="M38.47,52.13h7.47c.1.65-.15.93-.72.87-1.31-.13-2.62-.24-3.93-.39-.94-.11-1.89-.27-2.83-.4Z"/>
          <path class="cls-3" d="M36.8,54.29c.76.11,1.52.2,2.28.33l5.19.93a1,1,0,0,1,.29.17c-.1.12-.18.32-.3.36a1.52,1.52,0,0,1-.67,0c-2.2-.54-4.39-1.1-6.59-1.66l-.21-.09Z"/>
          <path class="cls-3" d="M46.82,49.42c-.08.39-.15.71-.21,1H41A51,51,0,0,1,46.82,49.42Z"/>
          <path class="cls-3" d="M29.43,54.64c0,.33-.27.79-.49.8l-3,.1a.58.58,0,0,1-.14,0l0-.11a3.5,3.5,0,0,1,.76-.23,7.75,7.75,0,0,1,1.18,0A2.24,2.24,0,0,0,29.43,54.64Z"/>
          <path class="cls-3" d="M29.43,52.76c-.4.29-.72.33-1.74.23C27.66,52.29,28.66,52.34,29.43,52.76Z"/>
          <path class="cls-3" d="M26.74,54.23c.21-.6.88-.68,1.83-.2l-.93.1Z"/>
          <path class="cls-3" d="M30.52,53.24c-.2.32-.36.52-.68.47a9.65,9.65,0,0,1-1.37-.25Z"/>
          <path class="cls-3" d="M28.36,51.89A1.13,1.13,0,0,1,30,51.43Z"/>
          <path class="cls-3" d="M28,54.39l1.72-.14c-.22.32-.48.35-1.71.24Z"/>
          <path class="cls-3" d="M29.41,50.35c.11-.13.22-.27.31-.4h.81C30.25,50.36,29.79,50.24,29.41,50.35Z"/>
          <path d="M28,36.28l.87.59-.86,1,.64.26c-.17.26-.33.52-.49.79l-.83-.37.55-.93-.65-.42Z"/>
          <path d="M54.58,27.76c-.1-.2-.33-.43-.29-.59a1.31,1.31,0,0,1,.48-.6c.41-.33.74-.28,1.13.14C55.71,27.14,55.64,27.2,54.58,27.76Z"/>
          <path d="M22.63,37.74,22,37.18,23.29,36c.11.34.18.64.63.35C23.67,37.06,22.91,37.15,22.63,37.74Z"/>
          <path d="M54.23,28.59l-1.15.88c-.13-.2-.26-.39-.37-.6a.23.23,0,0,1,0-.2,8,8,0,0,1,.84-.7s.22.11.32.2A5.52,5.52,0,0,1,54.23,28.59Z"/>
          <path d="M24.6,40.79c-.22-.14-.52-.32-.49-.69a1,1,0,0,1,.89-.72.78.78,0,0,1,.44.27c0,.07-.07.29-.16.4S24.85,40.52,24.6,40.79Z"/>
          <path d="M25.65,39.17c-.38-.28-.47-.55-.3-.83A.88.88,0,0,1,26.44,38c.24.13.29.32.08.51S26,38.92,25.65,39.17Z"/>
          <path d="M27.89,35.24c-.53.69-.77.79-1.12.49a.51.51,0,0,1,0-.81C27.06,34.64,27.49,34.76,27.89,35.24Z"/>
          <path d="M28.79,33.31c-.11.34-.2.61-.32.94L27.39,34l.53-1Z"/>
          <path d="M24.91,35.64l-.48-.42c0-.56.61-.64.87-1,.5.23.55.44.22.83L25,35.6Z"/>
          <path d="M43.42,30.56c0,.71,0,.71-.63.83l-.65.11v-.14c0-.2-.07-.54,0-.58a3.71,3.71,0,0,1,.9-.22A2.28,2.28,0,0,1,43.42,30.56Z"/>
          <path d="M61.47,28.68c-.07.38-.12.63-.16.84a4.14,4.14,0,0,1-.71,0c-.17,0-.43-.14-.47-.27s0-.55.35-.56Z"/>
          <path d="M29,35.9c0-.2.05-.36,0-.47-.19-.36,0-.44.29-.43a4.89,4.89,0,0,0,.55,0c.17,0,.39-.1.39.16s-.07.52-.2.59A4.73,4.73,0,0,1,29,35.9Z"/>
          <path d="M23.33,39.32l-.63,1.06L21.93,40c.24-.36.44-.66.65-1,0,0,.12-.11.14-.1C23,39.09,23.17,39.23,23.33,39.32Z"/>
          <path d="M40,31.71c0,.68-.23,1-.8,1-.19,0-.41-.33-.51-.56s.16-.22.32-.25Z"/>
          <path d="M31.39,36.24c0,.89-.68.84-1.25,1l-.13-.9Z"/>
          <path d="M32.62,31.89l1-.51c.08.1.31.24.31.39,0,.54-.5.64-.9.88Z"/>
          <path d="M58.83,27.65l.54.49a.86.86,0,0,1-.72.68c-.42,0-.49-.36-.61-.65Z"/>
          <path d="M19.68,39.37l.4.86a8.44,8.44,0,0,1-.83.61.34.34,0,0,1-.52-.18c-.1-.24,0-.38.22-.49S19.64,39.86,19.68,39.37Z"/>
          <path d="M25.75,36.1l.22.8-.81.34c-.23.12-.45.1-.5-.16a.57.57,0,0,1,.19-.47A6.4,6.4,0,0,1,25.75,36.1Z"/>
          <path d="M33.66,34.77l-.51-.31c.17-1,.54-1.22,1.23-.66C34.15,34.12,33.91,34.44,33.66,34.77Z"/>
          <path d="M47.17,29.09l-.44.67a7.38,7.38,0,0,1-.91-.42s0-.35.09-.48.28-.17.39-.23Z"/>
          <path d="M30.32,32.76l1.23-.32c0,.19.13.58,0,.77s-.55.25-.89.38C30.54,33.31,30.43,33,30.32,32.76Z"/>
          <path d="M38.36,30.83c-.46.24-.86.47-1.28.66,0,0-.21-.08-.26-.16a1.68,1.68,0,0,1-.16-.39C37.49,30.41,37.83,30.38,38.36,30.83Z"/>
          <path d="M22.1,38.6c-.09.29-.09.56-.21.64a3.92,3.92,0,0,1-1,.42c-.06,0-.23-.18-.29-.3s0-.27.07-.29C21.09,38.91,21.54,38.77,22.1,38.6Z"/>
          <path d="M32.26,34.44l.28.87-1,.24L31,35Z"/>
          <path d="M54.38,29.61a6.57,6.57,0,0,1,1.21-.13c.08,0,.14.39.23.65l-1.25.23Z"/>
          <path d="M51.42,29.44c-.29.06-.54.1-.78.17-.41.1-.49,0-.45-.4a1.79,1.79,0,0,0,0-.3,4,4,0,0,1,.88-.15c.24,0,.57.06.37.48A.44.44,0,0,0,51.42,29.44Z"/>
          <path d="M32.06,31.13c-.29.12-.53.2-.75.3s-.42.12-.46-.28l0-.39.43-.11c.23,0,.5-.17.68-.1S32,31,32.06,31.13Z"/>
          <path d="M44.31,29.45l-1.07.08c0-.26,0-.64.13-.66a4.46,4.46,0,0,1,1.1-.07.56.56,0,0,1,0,.29A1.49,1.49,0,0,1,44.31,29.45Z"/>
          <path d="M44.88,30.56a1.19,1.19,0,0,1,1.24-.07c0,.24,0,.46-.07.72a2.09,2.09,0,0,1-.8-.06C45.07,31.07,45,30.77,44.88,30.56Z"/>
          <path d="M48.61,29.69c.21.61,0,.94-.65,1.27-.12-.15-.31-.29-.33-.45a.67.67,0,0,1,.25-.46A4.51,4.51,0,0,1,48.61,29.69Z"/>
          <path d="M24.29,37.69l-.62,1c-.2-.17-.46-.3-.56-.51s.14-.4.28-.54S23.93,37.47,24.29,37.69Z"/>
          <path d="M49.52,27.44l1.26-.39c0,.26.07.42.11.61-.28.14-.56.29-.86.41-.07,0-.21-.06-.27-.14A2.79,2.79,0,0,1,49.52,27.44Z"/>
          <path d="M35.48,33.17l-.13-.56a6.22,6.22,0,0,1,.91-.26.52.52,0,0,1,.39.14c.05,0,0,.27-.1.36A1.17,1.17,0,0,1,35.48,33.17Z"/>
          <path d="M35.52,30.86l-.58.09c-.31,0-.42-.12-.32-.4.17-.48.63-.62,1.14-.31C35.68,30.45,35.59,30.66,35.52,30.86Z"/>
          <path d="M37.43,29.44c-.15-.62.09-.77,1.09-.68l.06.68Z"/>
          <path d="M40.69,29.17l.35.61a2.57,2.57,0,0,1-.39.43.4.4,0,0,1-.34,0,3.74,3.74,0,0,1-.53-.37Z"/>
          <path d="M45.75,27.25c0,.64-.12.73-.83.69C44.59,27.25,44.94,27.16,45.75,27.25Z"/>
          <path d="M21.43,56a4.91,4.91,0,0,1-.51-.51,2.58,2.58,0,0,1-.36-.7,1.58,1.58,0,0,0-1.21-1c-1.2-.28-2.42-.51-3.62-.78-.64-.14-1.27-.34-1.9-.49a1,1,0,0,0-.52,0c-1,.37-2,.78-2.94,1.13-.53.18-1.09.26-1.73.41a1.35,1.35,0,0,1,1.08-.71,2.34,2.34,0,0,0,2.07-1.58c.54-1.33,1.22-2.59,1.79-3.91.42-1,.75-2,1.15-2.95a5.92,5.92,0,0,1,.55-.94l.15.07c-.27.69-.55,1.38-.87,2.19l1.93-.16c1-.09,2-.21,3-.27.24,0,.49.16.82.27-.57.44-1.06-.18-1.6.15.33.34.63.66.95,1a.64.64,0,0,1,.22.61c-.06.75,0,1.52-.07,2.28a.48.48,0,0,1-.12.33c-.43.38-.88.75-1.32,1.12a.29.29,0,0,1-.18,0A8.91,8.91,0,0,1,15,51.26a12.89,12.89,0,0,1-1.25-.66v.94l-.9-.54-.1.09a3.05,3.05,0,0,0,.41.46,4.55,4.55,0,0,0,2.18.75c1.15.19,2.31.35,3.46.56a5,5,0,0,1,1,.37,1.36,1.36,0,0,1,.71.76c.28.66.59,1.31.9,2Zm-2.33-7c0-1.27-.5-2-1.44-2.18a6.1,6.1,0,0,0-2.65.21.37.37,0,0,0-.15.13,4.51,4.51,0,0,0-1,2,1.17,1.17,0,0,0,.28,1.1,3.48,3.48,0,0,0,2.08,1,1.85,1.85,0,0,0,2.14-.94c.07-.12.19-.22.26-.34ZM13,52.17l.08-.12-.76-.46-.44,1Z"/>
          <path d="M25.52,47c.59,1.38-.36,2.42-.88,3.59a.77.77,0,0,1-.33-.87,8.3,8.3,0,0,1,.22-1,1.67,1.67,0,0,0-.16-1.58c.6.09.41.69.76,1a2.76,2.76,0,0,0,.22-.6,3.39,3.39,0,0,0,0-.64Z"/>
          <path d="M23.43,55.51a9.17,9.17,0,0,1,3-2.35c-.47.42-1,.81-1.41,1.25s-.57.7-.9,1a1.93,1.93,0,0,1-.66.25Z"/>
          <path class="cls-3" d="M19.1,49.05l-.52.94c-.07.12-.19.22-.26.34a1.85,1.85,0,0,1-2.14.94,3.48,3.48,0,0,1-2.08-1,1.17,1.17,0,0,1-.28-1.1,4.51,4.51,0,0,1,1-2,.37.37,0,0,1,.15-.13,6.1,6.1,0,0,1,2.65-.21C18.6,47.08,19.1,47.78,19.1,49.05ZM16,49.2c.4.28.76.54,1.13.78.08.05.25.07.3,0,.57-.54.82-1.29.14-1.88a1.81,1.81,0,0,0-1.67-.38A1.3,1.3,0,0,0,15,49.16c.06.68.54,1.11,1.41,1.2-.08-.17-.12-.37-.2-.4C15.7,49.81,15.83,49.55,16,49.2Z"/>
          <path class="cls-3" d="M13,52.17l-1.12.4.44-1,.76.46Z"/>
          <path d="M16,49.2c-.19.35-.32.61.17.76.08,0,.12.23.2.4-.87-.09-1.35-.52-1.41-1.2a1.3,1.3,0,0,1,.94-1.42,1.81,1.81,0,0,1,1.67.38c.68.59.43,1.34-.14,1.88-.05,0-.22,0-.3,0C16.78,49.74,16.42,49.48,16,49.2Z"/>
        </g>
      </g>
    </g>
  </g>
</svg>
