<svg xmlns="http://www.w3.org/2000/svg" viewBox="0 0 117.68 117.68">
  <defs>
    <style>
      .cls-1 {
        fill: #f4eae4;
      }

      .cls-2 {
        fill: #b9d3b8;
      }

      .cls-3 {
        fill: #c4c4c4;
      }

      .cls-4 {
        fill: #f7eae2;
      }

      .cls-5 {
        fill: #fff;
      }
    </style>
  </defs>
  <title>house-stark</title>
  <g id="Layer_2" data-name="Layer 2">
    <g id="Layer_1-2" data-name="Layer 1">
      <g>
        <rect class="cls-1" width="117.68" height="117.68"/>
        <rect class="cls-2" y="77.02" width="117.68" height="40.65"/>
        <g>
          <path d="M106.26,38.31s0,0,0,0a4.54,4.54,0,0,1-.79,1.83c-.18.27-.38.54-.59.8a2.22,2.22,0,0,0-.52,1.09,8.34,8.34,0,0,1-.2.83,2.26,2.26,0,0,1-.56,1,7.71,7.71,0,0,1-1.4,1.21l-.35.22a1.1,1.1,0,0,0-.53.59,1,1,0,0,1-.19.27,4.22,4.22,0,0,1-1.24,1.1c-.29.15-.56.32-.86.49a.86.86,0,0,0,0,.15,7,7,0,0,1-2.34,3.45,3.05,3.05,0,0,1-2.14.69A1.8,1.8,0,0,1,94,52c-.2-.08-.23-.25-.11-.43a.76.76,0,0,1,.11-.14,3.7,3.7,0,0,0,.84-1.34l.39-1c0-.13,0-.14-.17-.3l-.13.11a2.89,2.89,0,0,1-.91.69,6.43,6.43,0,0,1-2.26.68h-.37c-.19,0-.24-.09-.23-.27s0-.66.07-1l0-.48a.37.37,0,0,0-.14-.29,1.44,1.44,0,0,0-.52-.27c-.68-.22-.56-.24-1.13.2a2,2,0,0,0-.36.41,3,3,0,0,1-.76.76l-.12.08c-.38.21-.52.17-.67-.24s-.29-.87-.44-1.3l-.24-.78c0-.05,0-.09-.08-.15l-.19.11c-.09.06-.17.14-.27.2a4.19,4.19,0,0,0-1,.92,3.24,3.24,0,0,1-.38.36,1.52,1.52,0,0,1-.34.22.61.61,0,0,1-.64,0,3.54,3.54,0,0,1-.42-.35,6.69,6.69,0,0,1-1.09-1.5l-.18-.33a1.36,1.36,0,0,0-.78.24,2.33,2.33,0,0,0-.66.63c-.12.15-.22.3-.33.45a.31.31,0,0,1-.45.12.51.51,0,0,1-.16-.09,4,4,0,0,1-1.14-1.21c-.16-.29-.3-.59-.45-.89,0-.08-.09-.17-.13-.23l-.62-.06a5,5,0,0,0-.4.4,1.2,1.2,0,0,0-.31.74,4.15,4.15,0,0,0,0,1.22.9.9,0,0,0,.24.45,5.9,5.9,0,0,1,.49.51.84.84,0,0,0,.55.28,1.9,1.9,0,0,0,1.79-.57l.1-.13a1.61,1.61,0,0,1,.23.12,1.31,1.31,0,0,1,.46.83,3,3,0,0,1,0,1c0,.11,0,.23,0,.34s0,.21,0,.31a.16.16,0,0,0,.19,0c.23-.09.46-.16.69-.27a1.29,1.29,0,0,0,.84-1,.19.19,0,0,1,.21.08,3.56,3.56,0,0,1,.41.53,4.91,4.91,0,0,1,.65,2.81s0,.07,0,.12l.18,0a12.34,12.34,0,0,0,1.69-.66,4.16,4.16,0,0,0,.42-.23,1.09,1.09,0,0,0,.52-.56,2,2,0,0,1,1,1.18,3.73,3.73,0,0,1,.08,1.53,2.4,2.4,0,0,0,.88-.51,1.11,1.11,0,0,0,.37-.86,4,4,0,0,1,1.71,2.17,1.17,1.17,0,0,0,.2-.05c.25-.14.5-.27.74-.42a2.59,2.59,0,0,0,.78-.73,2.62,2.62,0,0,1,.9-.82,1.72,1.72,0,0,1,1.22-.18.29.29,0,0,1,.25.27,4.18,4.18,0,0,1,0,1,5.5,5.5,0,0,1-1.37,3A7.47,7.47,0,0,1,92,58.43l-.33.24-.09.69A5.23,5.23,0,0,1,90,62.55a10.53,10.53,0,0,1-3.31,2.22,1.59,1.59,0,0,0-1,1.26c0,.26-.06.53-.09.81-.07,0-.11,0-.14-.08a2.79,2.79,0,0,1-.52-1.3,4.58,4.58,0,0,1,.2-2c.06-.17.11-.35.18-.55a4.84,4.84,0,0,0-2-.09,3.11,3.11,0,0,0-1.78.92,1.41,1.41,0,0,1,0-.22A9.89,9.89,0,0,0,82,61.83a4.32,4.32,0,0,0,0-1.52,3.21,3.21,0,0,0-.15-.53,1.41,1.41,0,0,0-.79-.8,9.46,9.46,0,0,0-2.78-.75,5.45,5.45,0,0,0-2.64.45,8.06,8.06,0,0,0-1.85,1.15A11.83,11.83,0,0,0,70,65.76a14.58,14.58,0,0,0-.62,4.2,1.62,1.62,0,0,1,0,.22l0,0c-.1,0-.13-.06-.17-.11a9.89,9.89,0,0,1-1.24-2c-.2-.42-.35-.85-.53-1.27a1.67,1.67,0,0,0-.08-.2.59.59,0,0,0-.31.21,7,7,0,0,0-1.24,1.57,9.5,9.5,0,0,0-1.19,3.25A11.35,11.35,0,0,0,64.32,74a5.9,5.9,0,0,0,.26,1.68c0,.1,0,.2.06.29a.92.92,0,0,1,0,.09.55.55,0,0,1-.17-.13,5.3,5.3,0,0,1-.39-.54A18.47,18.47,0,0,1,62.34,72c0-.1-.07-.2-.12-.33a1.11,1.11,0,0,0-.16.11,12.49,12.49,0,0,0-3,4.83,7.3,7.3,0,0,0-.35,2.12,12.71,12.71,0,0,0,.06,1.85A6.22,6.22,0,0,0,59.19,82l.06.17c0,.09.08.18,0,.24a.29.29,0,0,1-.32,0,1.14,1.14,0,0,1-.16-.15c-.14-.17-.28-.35-.41-.53a18,18,0,0,1-1.73-2.89l-.13-.25a.76.76,0,0,0-.13.07A10.81,10.81,0,0,0,54.07,82a6.18,6.18,0,0,0-.44,1.79c-.11,1.12-.15,2.25-.22,3.37,0,.31,0,.62-.09.92,0,.1,0,.22-.14.25s-.2-.07-.26-.16a3.19,3.19,0,0,1-.3-.42l-.53-.94c-.2-.36-.42-.72-.63-1.09s-.23-.46-.34-.7l-.18-.39a1.6,1.6,0,0,0-.19.11,7.62,7.62,0,0,0-2.89,4.69c-.15.8-.21,1.62-.31,2.43a12.13,12.13,0,0,0-.07,2s0,.06,0,.12a.63.63,0,0,1-.12-.1,14.09,14.09,0,0,1-3.16-5.77,13.67,13.67,0,0,1-.31-1.79,21,21,0,0,1-.15-2.51,15.51,15.51,0,0,1,.12-1.93,2.26,2.26,0,0,0,0-.27c-.05,0-.09,0-.12,0a3.62,3.62,0,0,1-1.94.35c-.54,0-1.08-.1-1.63-.16l-.92-.09A1.74,1.74,0,0,0,38.1,82c-.29.19-.6.35-.9.52a.9.9,0,0,1-.47.14.37.37,0,0,1,0-.18c0-.09.08-.18.12-.27l.26-.49a3,3,0,0,0,.31-1.54c0-.79-.08-1.58-.09-2.38a8.23,8.23,0,0,1,.1-1.21,4,4,0,0,1,.47-1.39c0-.08-.09,0-.12,0a.57.57,0,0,0-.13.08,4.49,4.49,0,0,1-1.75.76,4.18,4.18,0,0,1-1.11.1c-.69,0-1.38-.07-2.07-.09a9,9,0,0,0-1,0,2.25,2.25,0,0,0-1.16.45l-.36.26a2.14,2.14,0,0,1-.4.2c-.21.08-.33,0-.31-.25a1.07,1.07,0,0,1,.1-.39,4.12,4.12,0,0,1,.33-.62,5.13,5.13,0,0,0,.85-2.54c0-.46.05-.93.07-1.4l.06-1.67c0-.2,0-.39.07-.61l-.27.07a4.7,4.7,0,0,1-1.12.2c-.79,0-1.58.08-2.37.15a12,12,0,0,0-1.32.2,2.34,2.34,0,0,0-.75.31,2.57,2.57,0,0,1-.52.27c-.19.07-.33,0-.3-.24a2.09,2.09,0,0,1,.11-.43c.09-.28.19-.56.28-.84a3.3,3.3,0,0,0,.13-1.68,10.23,10.23,0,0,1,0-3.22c0-.19.09-.38.14-.57l.06-.26h-.35c-.34,0-.69,0-1,0a20,20,0,0,0-2.19,0,4.84,4.84,0,0,0-1.78.5c-.19.09-.4.19-.6.27a1,1,0,0,1-.58.06c-.2-.05-.26-.2-.13-.35a.75.75,0,0,1,.19-.17,1.31,1.31,0,0,0,.58-.75,4.16,4.16,0,0,0,.2-1,7.78,7.78,0,0,0,0-1.67,2.38,2.38,0,0,1,.08-1c.08-.29.2-.58.3-.87,0-.09.06-.18.11-.3a3,3,0,0,0-2,.63c-.33,0-.33,0-.51-.21,0-.13.13-.17.22-.22a5,5,0,0,0,1.09-1,1.14,1.14,0,0,0,.24-.35l-.36-.11a16.64,16.64,0,0,1-4.18-1.68,11.22,11.22,0,0,1-1.69-1.2,5.2,5.2,0,0,1-1-1c0-.06-.08-.13-.18-.09v-.15a1.32,1.32,0,0,1,.59-.08l2.07,0a6.06,6.06,0,0,0,2.07-.37,16.14,16.14,0,0,0,4-2.07.69.69,0,0,0,.11-.12L20,50.18A10.77,10.77,0,0,1,18.09,49l-.53-.4a1.64,1.64,0,0,0-.7-.34,1.15,1.15,0,0,1-.63-.36,2.54,2.54,0,0,1-.53-.8s-.07-.1,0-.16l.19.12a2.6,2.6,0,0,0,1.58.44l1.67-.11c.67-.06,1.35-.14,2-.18a5.42,5.42,0,0,0,1.73-.38l1-.39,2.59-1,.26-.13-.15-.09c-.24-.12-.49-.22-.74-.35a19.54,19.54,0,0,1-3-2,3.25,3.25,0,0,1-.75-.86c0-.07-.08-.14,0-.2l.13,0a1.38,1.38,0,0,1,.28.19,1.39,1.39,0,0,0,1,.37h.18a27,27,0,0,0,4.67-.14,16.37,16.37,0,0,0,3.18-.68,9.51,9.51,0,0,0,2.34-1.12,1.53,1.53,0,0,0,.19-.18l-.35-.11q-1-.28-1.89-.66a11.06,11.06,0,0,1-1.78-.91,6,6,0,0,1-.71-.54,2.52,2.52,0,0,1-.33-.39.26.26,0,0,1,0-.31.23.23,0,0,1,.31,0,1.52,1.52,0,0,1,.33.18,2.29,2.29,0,0,0,.88.37,10.51,10.51,0,0,0,2.69.19,17.83,17.83,0,0,0,1.92-.19,15,15,0,0,0,3.22-.83,9.19,9.19,0,0,0,2.25-1.2l.18-.18L40,35.34a11.82,11.82,0,0,1-2.6-1.77l-.7-.66a1.18,1.18,0,0,1-.13-.18.18.18,0,0,1,.16-.26.71.71,0,0,1,.29.05,4.22,4.22,0,0,0,.87.19c.65.11,1.31.23,2,.32.83.12,1.67.2,2.51.26A13.33,13.33,0,0,0,46,33.11a12.57,12.57,0,0,0,2.75-.87c.07,0,.16-.05.19-.14l0,0-.28-.17A9,9,0,0,1,46,29.44c-.22-.3-.44-.59-.65-.9a1.55,1.55,0,0,1-.19-.36.16.16,0,0,1,.19-.2,1.64,1.64,0,0,1,.3.14c.33.2.64.42,1,.6a11.21,11.21,0,0,0,3,1,14.29,14.29,0,0,0,2.85.21,35.14,35.14,0,0,0,4.35-.38,1.72,1.72,0,0,0,.5-.11.67.67,0,0,0-.23-.31,29.35,29.35,0,0,1-2-2.4,6.33,6.33,0,0,1-1-2.08,2,2,0,0,1-.11-.95H54c.11.18.23.36.33.54a3,3,0,0,0,.82,1,9.25,9.25,0,0,0,.88.62,8.88,8.88,0,0,0,1.7.82,19.71,19.71,0,0,0,5.64,1.19,21.38,21.38,0,0,0,3.3,0,15.18,15.18,0,0,0,2.59-.41,7.55,7.55,0,0,0,1.83-.71l.22-.13c.34.1.64.21,1,.29.86.24,1.73.42,2.6.58.51.1,1,.17,1.54.27a19.79,19.79,0,0,1,2.28.65,14.65,14.65,0,0,0,2,.61l.58.14,4,1a6.47,6.47,0,0,0,1.57.28l.11,0a.36.36,0,0,1,.29.2,1,1,0,0,0,.19.27c.78.88,1.58,1.73,2.42,2.56a2.27,2.27,0,0,0,1.16.62l.18,0a23.2,23.2,0,0,0,2.87.36,12.42,12.42,0,0,1,1.83.27,25.74,25.74,0,0,1,3.42,1.11l2.24.88a2.42,2.42,0,0,0,.75.18l1.41.09c.46,0,.91.05,1.37.09.23,0,.46.07.7.1a.6.6,0,0,1,.45.32Zm-3.6,2.5a.67.67,0,0,1-.24-.31,4,4,0,0,0-.55-.79,7.74,7.74,0,0,0-1.21-1.15,10.5,10.5,0,0,0-6.36-2.24,15.31,15.31,0,0,0-3.5.32,23,23,0,0,0-5.17,1.67A22.18,22.18,0,0,0,83,39.74c-.06,0-.15,0-.12.18H83c.22,0,.44,0,.67,0a2.2,2.2,0,0,1,.36,0,.11.11,0,0,1,.12.12.12.12,0,0,1-.15.12,3.24,3.24,0,0,1-.44,0,2.7,2.7,0,0,0-1.35.13c-.77.24-1.52.53-2.26.84a40.48,40.48,0,0,0-4,1.94,8.47,8.47,0,0,0-1.49,1A7.66,7.66,0,0,0,72,47.67a5.64,5.64,0,0,1-.71,1.51,2.25,2.25,0,0,1-.55.64s-.08.07-.14,0a.32.32,0,0,1,0-.09c.08-.14.16-.28.25-.41a7,7,0,0,0,1-2.27,4.91,4.91,0,0,1,.24-.74,10.39,10.39,0,0,1,1.18-2,7.33,7.33,0,0,1,3.09-2.53,28.54,28.54,0,0,1,3.76-1.34,2.53,2.53,0,0,0,1.05-.52c.16-.14.35-.24.52-.4l-.26-.11c-.3-.11-.6-.22-.9-.35A4,4,0,0,1,79,38,13.25,13.25,0,0,0,76.93,36a8.57,8.57,0,0,0-.81-.52,1.39,1.39,0,0,0-.75-.18H74.19a.42.42,0,0,1-.35-.2.67.67,0,0,1,.39-.08l2.29-.19c.9-.07,1.8-.15,2.7-.18,2.14-.07,4.28-.12,6.42-.17l.3,0a.21.21,0,0,0,.18-.1,1,1,0,0,0,.14-.75A1.46,1.46,0,0,0,86,33.1a2.57,2.57,0,0,0-.63-.51A4.3,4.3,0,0,0,82.66,32c-.57,0-1.13.11-1.7.18a22.87,22.87,0,0,0-2.69.54,4.7,4.7,0,0,1-1,.17,2.56,2.56,0,0,1-1.53-.36s-.1,0-.08-.12.06,0,.09,0a4.18,4.18,0,0,1,.51.1,2.07,2.07,0,0,0,1.13,0,11.1,11.1,0,0,0,2-.71c.45-.2.9-.39,1.37-.57s.74-.26,1.12-.39c.07,0,.16,0,.22-.13a1.28,1.28,0,0,0-.23-.15c-.26-.1-.52-.21-.8-.29a13.74,13.74,0,0,0-2.93-.44c-.9-.05-1.8-.06-2.7-.1-.38,0-.77,0-1.15-.07a5,5,0,0,1-1.47-.36,2.35,2.35,0,0,1-.69-.43s-.1-.07,0-.15a6.16,6.16,0,0,0,1.91.21c.48,0,1-.06,1.44-.1.15,0,.3,0,.44-.06h0a.22.22,0,0,1,0-.06l-.16-.06-.53-.14c-1.27-.29-2.55-.51-3.83-.74a.75.75,0,0,0-.39.06,27,27,0,0,1-3.76,1,19.85,19.85,0,0,1-2.87.32A15,15,0,0,1,61,28.77a20,20,0,0,1-3.24-.94c-.08,0-.15-.1-.25,0a.64.64,0,0,0,0,.17,3.78,3.78,0,0,0,.64.9A6.38,6.38,0,0,0,59.8,30l.29.17-.25.08a8.74,8.74,0,0,1-1.77.21c-.86,0-1.73.06-2.59.09a16.29,16.29,0,0,0-1.85.16c-.24,0-.49.06-.74.07a27,27,0,0,1-3.92-.2,1.43,1.43,0,0,0-.21,0,1.34,1.34,0,0,0,.44.34,9.75,9.75,0,0,0,1.91.89,3.86,3.86,0,0,0,.93.24,1.94,1.94,0,0,1,.33.07.57.57,0,0,1,.18.12.09.09,0,0,1,0,.16.48.48,0,0,1-.22.12c-.12,0-.24,0-.36.07l-4.65,1a27.12,27.12,0,0,1-3.1.53l-2.81.24s-.13,0-.15.06a14.75,14.75,0,0,0,6.25,1.79L48.84,35a2.39,2.39,0,0,0,.54-.56.14.14,0,0,1,.2,0,.71.71,0,0,1,.15.12c-.21.28-.08.58-.1.88l-.29.22a4,4,0,0,0-1.21,1.44,22.43,22.43,0,0,1-1.14,2,2.26,2.26,0,0,0-.11.22s0,0,0,0a.68.68,0,0,0,.2.07,22.84,22.84,0,0,1,2.58.7,4,4,0,0,0,1.09.2,9.27,9.27,0,0,0,2.1-.18,4.39,4.39,0,0,0,1.66-.61,1,1,0,0,1,.3-.14,1.35,1.35,0,0,1,.29,0s.11,0,.12.06a.25.25,0,0,1,0,.17,1.27,1.27,0,0,1-.25.21,3.06,3.06,0,0,0-1,1.18,3.39,3.39,0,0,0-.32,2.23c.08.49.17,1,.23,1.47a2.52,2.52,0,0,1-.3,1.82s0,0,0,.08c.23-.11.47-.21.7-.33a1.11,1.11,0,0,1,.57-.13l1.15,0a13.48,13.48,0,0,0,2.29,0A3.16,3.16,0,0,0,60,45.38a7.21,7.21,0,0,1,.72-.51,4.66,4.66,0,0,1,.5-.25s.12-.06.17.07a.67.67,0,0,0-.11.07,4.38,4.38,0,0,0-1.45,3.91c0,.33.08.66.13,1a3.53,3.53,0,0,1-.42,2.54s0,.06,0,.11a8.56,8.56,0,0,1,2.28-.42c.63,0,1.26-.09,1.88-.16a5.42,5.42,0,0,0,1.68-.44A2.6,2.6,0,0,0,66.75,50c0-.05,0-.13.12-.11a2,2,0,0,1,0,1.75c-.12.23-.25.45-.38.68A3.93,3.93,0,0,0,66,53.72a9.84,9.84,0,0,0,0,1.63,8.18,8.18,0,0,1-.46,3.36s0,.1,0,.17l.12-.05A5.3,5.3,0,0,1,68.1,58a3.21,3.21,0,0,0,.62-.1,6.93,6.93,0,0,0,2.74-1.43,3.65,3.65,0,0,0,1.09-1.43c.08-.21.17-.42.25-.62s0-.12.13-.1a.38.38,0,0,1,0,.1,3.58,3.58,0,0,1-.59,2.18,4.27,4.27,0,0,1-1.09,1.15,6.69,6.69,0,0,1-2,1l-.33.1c-.11.27-.22.53-.32.79a11.34,11.34,0,0,0-.75,4,7.68,7.68,0,0,0,.34,2.23s0,.09,0,.13,0,.11.12.09l.1-.25c.13-.35.25-.7.39-1a16.2,16.2,0,0,1,2-3.7,10.46,10.46,0,0,1,4-3.24,7.57,7.57,0,0,1,2.76-.68,6.59,6.59,0,0,1,3.75,1,3.93,3.93,0,0,1,2,3.26c0,.06,0,.13,0,.19.2,0,.37,0,.54,0a3.53,3.53,0,0,1,.56.05l.66.11a1.09,1.09,0,0,0,.44,0A1.66,1.66,0,0,0,87,60.43c0-.07,0-.15,0-.21h0a1.57,1.57,0,0,1,.36,1.38,2.15,2.15,0,0,1-.47,1c-.2.24-.44.47-.66.7l-.12.16.3,0a4.63,4.63,0,0,0,2.08-.94,6.84,6.84,0,0,0,2-2.5,3.32,3.32,0,0,0,.24-.62,1.83,1.83,0,0,0,.06-.84.42.42,0,0,0-.27-.33c-.4-.15-.8-.33-1.21-.47a1.65,1.65,0,0,1-.7-.46l-.57-.59a.57.57,0,0,0-.49-.2,1.77,1.77,0,0,1-1.12-.31c-.92-.57-1.84-1.12-2.75-1.69l-5.12-3.22a4.67,4.67,0,0,1-1.08-1c-.44-.55-.87-1.11-1.26-1.7l-.21-.28a1.56,1.56,0,0,0-.07.17,6.85,6.85,0,0,0-.07.78,1.61,1.61,0,0,0,.24,1,1.27,1.27,0,0,1,.18.6c0,.08,0,.17,0,.24a1.46,1.46,0,0,1,.28.14,1.31,1.31,0,0,1,.23.24.25.25,0,0,1,0,.17.15.15,0,0,1-.2,0,.52.52,0,0,1-.11-.1L76,51c-.13-.12-.26-.22-.4-.33a.92.92,0,0,1-.34-.67,1.9,1.9,0,0,0-.12-.62,4.5,4.5,0,0,1-.22-.82s0-.13-.11-.15-.21.25-.33.37a2.26,2.26,0,0,0-.6,1.05l-.09.28a18.28,18.28,0,0,0-.53,2.73,1.58,1.58,0,0,1-.06.26.39.39,0,0,1-.22-.34c0-.12,0-.24,0-.37s0-.57,0-.85a1.47,1.47,0,0,0-.52-1.15l-.08-.08c0-.18.08-.33.1-.51l.23,0,.64-.81c1.15-1.44,2.42-2.78,3.66-4.14l.31-.32a9.43,9.43,0,0,1,3.17-2.08,19,19,0,0,1,4.83-1.11.54.54,0,0,1,.18,0,.29.29,0,0,1,.23.26c0,.08-.1.14-.24.14a8.18,8.18,0,0,0-1.57.34l.08,0a9.3,9.3,0,0,1,2.08.51,21.43,21.43,0,0,1,3,1.32c.92.46,1.82,1,2.73,1.42a13.51,13.51,0,0,0,4,1.33,8.58,8.58,0,0,0,2.58.12,2.12,2.12,0,0,0,1.62-1c.13-.19.23-.38.34-.57s.14-.27.22-.39a1.29,1.29,0,0,1,.27-.3,17.1,17.1,0,0,0,1.82-1.69,1.74,1.74,0,0,0,.36-.56,3.37,3.37,0,0,0,.25-1,1,1,0,0,1,0-.25.16.16,0,0,1,.2-.13l.11,0,.1-.11c.36-.53.71-1,1.06-1.57a3.3,3.3,0,0,0,.27-.53,1.66,1.66,0,0,0,.12-.31.26.26,0,0,0-.2-.37l-.32-.07a16.07,16.07,0,0,0-2.86,0s-.1,0-.11.08l.3.35.3.38c.09.13.14.29.27.38l.33-.09a4,4,0,0,1,.59-.09.79.79,0,0,1,1,.48l-.5.1a1.62,1.62,0,0,0-.41.17.22.22,0,0,0-.07.32,1,1,0,0,0,.18.18l.18.12a.43.43,0,0,1-.36.3c-.11,0-.22,0-.34,0A.66.66,0,0,0,102.66,40.81Zm-55.92,32-.18.11a5.51,5.51,0,0,1-3.06,1.2c-.47,0-.94.05-1.41.05a5.21,5.21,0,0,0-1.18.08,1.86,1.86,0,0,0-1.2.73,8.52,8.52,0,0,0-1.17,2.26,2.79,2.79,0,0,0-.14,1,6.94,6.94,0,0,0,.08.77c0,.27.1.53.14.8a1.34,1.34,0,0,1-.13.94.75.75,0,0,0,0,.15L40,81a13.84,13.84,0,0,0,2.23,0,3,3,0,0,0,1.23-.37,9.56,9.56,0,0,0,1.68-1.21,6.28,6.28,0,0,0,.56-.59,2.21,2.21,0,0,0,.45-.89,5.07,5.07,0,0,0,.15-1.17c0-.58,0-1.16,0-1.74A4.39,4.39,0,0,1,46.7,73,1.47,1.47,0,0,0,46.74,72.79ZM46.47,65l-.17,0a8,8,0,0,1-2.23.32,5.31,5.31,0,0,0-1.32.17,4.7,4.7,0,0,0-2.51,1.74A3.68,3.68,0,0,0,39.48,70c0,.41.08.82.1,1.22a8,8,0,0,1-.06,2.07c0,.06,0,.11,0,.2l.55-.23a5.78,5.78,0,0,1,2.06-.37,11.39,11.39,0,0,0,2.18-.18,4.17,4.17,0,0,0,1.32-.47,2.24,2.24,0,0,0,.78-.72.81.81,0,0,0,.15-.52c0-.21,0-.42,0-.63-.07-.57-.17-1.13-.24-1.69s-.12-1.11-.15-1.66a4.2,4.2,0,0,1,.12-1.32C46.28,65.49,46.37,65.26,46.47,65Zm3-8.76c-.4.16-.77.3-1.13.46a1.12,1.12,0,0,1-.57.08c-.36,0-.72-.06-1.08-.07a6,6,0,0,0-1.4.13A6,6,0,0,0,43.06,58a3.64,3.64,0,0,0-.86,1,3.17,3.17,0,0,0-.48,2.2c0,.26.08.51.1.77a7.55,7.55,0,0,1,.09,1.26,2.55,2.55,0,0,1-.33,1.23c0,.05-.09.09,0,.17l.27-.09a6.54,6.54,0,0,1,2.4-.35,6.2,6.2,0,0,0,1.22-.06,3.94,3.94,0,0,0,1.94-.78,3,3,0,0,0,1.15-2c.06-.59.15-1.18.2-1.77a12.74,12.74,0,0,1,.43-2.44C49.26,56.87,49.37,56.56,49.48,56.21ZM47.79,71.64l.38-.21a10.68,10.68,0,0,1,1.93-.85,6.51,6.51,0,0,1,1.45-.27,2,2,0,0,0,1.7-1.08.86.86,0,0,1,.1-.16,1.85,1.85,0,0,0,.29-.91c0-.44.06-.88.08-1.33,0-.71,0-1.43.07-2.15a6.49,6.49,0,0,1,.33-1.85c0-.06.06-.11,0-.17a5,5,0,0,1-1.77.29c-.46,0-.91,0-1.37.08a4.75,4.75,0,0,0-1.33.3,2,2,0,0,0-.64.36,6,6,0,0,0-1.35,1.8,3.91,3.91,0,0,0-.4,1.72,6.11,6.11,0,0,0,.13,1.28c.11.5.23,1,.36,1.48A3.59,3.59,0,0,1,47.79,71.64ZM31.62,75h.15c.48,0,1-.06,1.44-.07A8.48,8.48,0,0,1,34.8,75a1.55,1.55,0,0,0,.77-.07,3.93,3.93,0,0,0,1-.5,10.2,10.2,0,0,0,1.53-1.34,1.08,1.08,0,0,0,.31-.61,7.53,7.53,0,0,0,.11-1.77c0-.72,0-1.44,0-2.15a3.26,3.26,0,0,1,.21-1.16c0-.06,0-.11.06-.19h-.17a3.83,3.83,0,0,1-1.47.12c-.3,0-.61,0-.92,0a4.14,4.14,0,0,0-2.88,1.09,4.72,4.72,0,0,1-.41.37A2,2,0,0,0,32.11,70,3.89,3.89,0,0,0,32,71c0,.75,0,1.49,0,2.23a8.9,8.9,0,0,1-.15,1.14A6.16,6.16,0,0,1,31.62,75Zm15.93,3.07a3.53,3.53,0,0,1,1.05-.43,10.31,10.31,0,0,1,1.46-.23,6.53,6.53,0,0,0,3.23-1.09c.47-.33.93-.69,1.4-1a2.17,2.17,0,0,0,.56-.68,3.74,3.74,0,0,0,.48-1.73,13.35,13.35,0,0,1,.35-2.82,2.4,2.4,0,0,0,0-.24l-.09,0a11.45,11.45,0,0,0-1.64.27,1.12,1.12,0,0,0-.51.28,4.38,4.38,0,0,1-2.59,1.23,7,7,0,0,0-1.45.29,3.7,3.7,0,0,0-1.1.52,1.14,1.14,0,0,0-.29.29,7.31,7.31,0,0,0-.86,2,2,2,0,0,0-.07.91,7.27,7.27,0,0,1,.06,2C47.57,77.72,47.56,77.87,47.55,78.08ZM43.93,56.27l.2,0a10.83,10.83,0,0,1,2.54-.3,3.15,3.15,0,0,0,.8-.11,6.86,6.86,0,0,0,3-1.67A2,2,0,0,0,51.06,53a7,7,0,0,0,.07-1.44c0-.45,0-.89,0-1.34a3.26,3.26,0,0,1,.47-1.69,1.55,1.55,0,0,0,0-.15h-.16a4.29,4.29,0,0,1-1.18.15c-.42,0-.84,0-1.26,0a3.79,3.79,0,0,0-1.73.3l-.38.16a5.79,5.79,0,0,0-1.39.84,3.47,3.47,0,0,0-1.17,1.85,3.84,3.84,0,0,0-.16,1.06c0,.46,0,.92,0,1.37A3.62,3.62,0,0,1,43.93,56.27ZM65.34,52.5s-.07,0-.1,0l-1.45,0a.76.76,0,0,0-.25.06,1.31,1.31,0,0,1-.44.07c-.37,0-.74,0-1.11,0a3.17,3.17,0,0,0-1.57.35,8.38,8.38,0,0,0-1.55.93,3,3,0,0,0-1,1.52,6.26,6.26,0,0,0-.21,1.21c0,.41,0,.83-.08,1.25a3.42,3.42,0,0,1-.4,1.53s0,0,0,.08l.32-.08a8.31,8.31,0,0,1,2.76-.26A6.16,6.16,0,0,0,62.13,59a6.65,6.65,0,0,0,2.29-1c.38-.26.38-.27.46-.71,0-.08,0-.17.05-.25A7.71,7.71,0,0,0,65,55.51a9.86,9.86,0,0,1,.15-2.1C65.21,53.11,65.28,52.81,65.34,52.5ZM43.67,50.69l-.32.19a4,4,0,0,1-2,.65q-.78.06-1.56.06a1.08,1.08,0,0,0-.36,0,5.27,5.27,0,0,0-1.58.73,3.5,3.5,0,0,0-1.34,1.73,6.46,6.46,0,0,0-.36,1.85c0,.48,0,1-.07,1.44a3.94,3.94,0,0,1-.4,1.61s0,.08,0,.17l.21-.08a5.07,5.07,0,0,1,1-.29l1.24-.22A12.12,12.12,0,0,0,40,58.12a5.77,5.77,0,0,0,2.7-1.88,1.77,1.77,0,0,0,.39-.83c0-.16.05-.32.06-.48,0-.47,0-.94.07-1.41A7.51,7.51,0,0,1,43.46,52c.09-.38.15-.75.23-1.13C43.7,50.79,43.68,50.75,43.67,50.69ZM58.78,47l-.56.07a6.56,6.56,0,0,1-1.77,0,4.69,4.69,0,0,0-1.4-.05,1.4,1.4,0,0,0-1.18.53,6.06,6.06,0,0,0-1.29,1.52A3.37,3.37,0,0,0,52.09,51c0,.17,0,.34,0,.52a6.43,6.43,0,0,1-.63,2.83s-.06.08,0,.13l.26-.1A9.33,9.33,0,0,1,55,53.72l1,0a2.52,2.52,0,0,0,1.75-.59,3.41,3.41,0,0,0,1.11-1.63,4.81,4.81,0,0,0,.08-2.81l-.09-.36a2.35,2.35,0,0,1-.06-1A2.16,2.16,0,0,0,58.78,47ZM49.49,62.12h.14a8.69,8.69,0,0,1,3.08-.33,4,4,0,0,0,.6,0,2.24,2.24,0,0,0,1.52-.67,5.68,5.68,0,0,0,.61-.69,9.57,9.57,0,0,0,1-1.88,1,1,0,0,0,.07-.25,6.71,6.71,0,0,0,.13-.76c0-.45.06-.89.08-1.34a5.73,5.73,0,0,1,.3-1.78s0,0,0-.07l-.17.07a4.64,4.64,0,0,1-1.88.33,12.13,12.13,0,0,0-1.48,0,2.28,2.28,0,0,0-1.68.6A4.48,4.48,0,0,0,50,58a5.16,5.16,0,0,0-.18,1.24c0,.43,0,.87,0,1.3a4.9,4.9,0,0,1-.06.77C49.66,61.59,49.57,61.84,49.49,62.12ZM33.33,67a2.13,2.13,0,0,0,.25,0,17,17,0,0,1,3.62-.51,4.44,4.44,0,0,0,2.55-.88,1.79,1.79,0,0,0,.25-.22,3.67,3.67,0,0,0,.88-2.16,9.84,9.84,0,0,0-.11-1.88,4.93,4.93,0,0,1,0-2.06s0-.06,0-.09h0a13.77,13.77,0,0,1-3.11.65,4,4,0,0,0-1.8.7,3.53,3.53,0,0,0-1.61,2.3c0,.06,0,.12,0,.19-.09.68-.19,1.36-.29,2a4.34,4.34,0,0,1-.57,1.89Zm26.58-6.81-.56.06a7.56,7.56,0,0,0-2.23.67A4,4,0,0,0,55,63.6a8.19,8.19,0,0,0-.11,2.47c0,.39.06.77.08,1.15a2.8,2.8,0,0,1-.21,1.34s0,0,0,.07h0a3.06,3.06,0,0,1,1.64-.16c.33,0,.67.06,1,.08a4.83,4.83,0,0,0,1.14-.09,6.51,6.51,0,0,0,2.52-1.12,5.49,5.49,0,0,0,.81-.71.67.67,0,0,0,.15-.33c.06-.4.14-.8.2-1.21a.74.74,0,0,0,0-.15H62a6.89,6.89,0,0,0-1.38.43,3.29,3.29,0,0,0-1.19.8,1,1,0,0,1-.46.3.16.16,0,0,1-.22-.19,1.77,1.77,0,0,1,.18-.45,6.75,6.75,0,0,0,.78-3.72,5,5,0,0,1,.06-1.4C59.83,60.55,59.87,60.37,59.91,60.14ZM38,50.22l.08.07a9.93,9.93,0,0,0,2,.34l1.08,0a1.46,1.46,0,0,0,.65-.1,11.8,11.8,0,0,0,2.49-1.36,6.72,6.72,0,0,0,1.05-.94.79.79,0,0,0,.14-.25,1.34,1.34,0,0,1,.31-.67.9.9,0,0,0,.19-.62,12.44,12.44,0,0,1,.23-2.65c0-.08.08-.16,0-.26a6.57,6.57,0,0,1-1.88.27,9.17,9.17,0,0,1-1.94-.28,8.69,8.69,0,0,0-1.94,1.36c-.21.2-.41.42-.6.64a3.59,3.59,0,0,0-.71,1.42,12.22,12.22,0,0,1-1.06,2.87A.73.73,0,0,0,38,50.22ZM33.13,62.59,32,62.8a9.42,9.42,0,0,1-1.59.08,14.68,14.68,0,0,0-2,.14,4.41,4.41,0,0,0-1.18.33A2,2,0,0,0,26,64.92l-.06.37a13.74,13.74,0,0,0,0,2c0,.3,0,.6,0,.89a4.5,4.5,0,0,1-.08.51c0,.06,0,.11,0,.19H26a26,26,0,0,1,3.18-.09,3.45,3.45,0,0,0,.85-.08,3.32,3.32,0,0,0,2.43-2,3.48,3.48,0,0,0,.29-1c.1-.78.19-1.57.29-2.35C33,63.15,33.09,62.89,33.13,62.59ZM29.69,56c-.33.35-.65.66-1,1a8.43,8.43,0,0,0-.68.87,3.06,3.06,0,0,0-.49,1.23,4.67,4.67,0,0,0,0,1.18A3.09,3.09,0,0,1,27.28,62s0,.06,0,.12l.2,0,1-.16a8.48,8.48,0,0,1,1.67,0,4.19,4.19,0,0,0,1.68-.22,9.32,9.32,0,0,0,2.6-1.39s0-.06,0-.11l-.31,0a.54.54,0,0,1-.31,0v0l.24-.24A3.16,3.16,0,0,0,35,58c0-.55.06-1.11.09-1.66a1.2,1.2,0,0,0,0-.2c-.4.07-.78.15-1.16.2a6.93,6.93,0,0,1-2.72-.13A6.88,6.88,0,0,0,29.69,56ZM50,78.78a8,8,0,0,0-1.12.28,7.8,7.8,0,0,0-2.62,1.28,3.14,3.14,0,0,0-.72.78A4.21,4.21,0,0,0,45,82.19a6.25,6.25,0,0,0-.18,2.75,21.88,21.88,0,0,0,.89,3.74c.13.43.31.84.48,1.25a.63.63,0,0,0,.2.29l0-.06a1.74,1.74,0,0,0,.05-.22A14,14,0,0,1,48,86.08a9.12,9.12,0,0,1,2.35-2.78,1.14,1.14,0,0,0,.11-.11A11.07,11.07,0,0,1,50,78.78ZM52.82,41.4l-.16,0a12,12,0,0,1-2.92-.45.4.4,0,0,0-.35.07,5.45,5.45,0,0,0-1.47,1.23,3.35,3.35,0,0,0-.75,1.52c-.05.3-.1.6-.13.91s0,.84-.08,1.26a3.64,3.64,0,0,1-.66,2,.23.23,0,0,0,0,.1h0l.11,0a7.92,7.92,0,0,1,2.87-.25,3.1,3.1,0,0,0,1,0,5.05,5.05,0,0,0,2.28-1.1.66.66,0,0,0,.23-.36,5.77,5.77,0,0,0,.13-2.07c-.07-.53-.12-1.08-.16-1.62a2.84,2.84,0,0,1,.08-1A.84.84,0,0,0,52.82,41.4ZM29.7,55l.42.08a6,6,0,0,1,1.33.31,2.5,2.5,0,0,0,1.35.11A8.69,8.69,0,0,0,35,54.77a.51.51,0,0,0,.31-.42,3.16,3.16,0,0,1,.68-1.5c.13-.16.25-.34.38-.5s.43-.47.65-.71a.63.63,0,0,0,.07-.12H37a2.81,2.81,0,0,0-.86.18.48.48,0,0,1-.33.05.43.43,0,0,1-.16-.14.18.18,0,0,1,.06-.23,2,2,0,0,1,.32-.18,2.53,2.53,0,0,0,.9-.69,3.19,3.19,0,0,0,.72-1.76s0-.07,0-.12a1.33,1.33,0,0,0-.4,0,4.78,4.78,0,0,1-2.46-.14c-.17-.06-.35-.1-.53-.15a.41.41,0,0,0-.29,0,6,6,0,0,0-1.72,1,2,2,0,0,0-.74,1.21c-.07.36-.15.72-.23,1.08a12.32,12.32,0,0,1-.44,1.61,4.39,4.39,0,0,1-1,1.59A1,1,0,0,0,29.7,55Zm-6.31-3.07-.2.07a3,3,0,0,0-1.46,1.27A8.4,8.4,0,0,0,21,54.88l-.45,1.21a3.52,3.52,0,0,1-.56,1,.71.71,0,0,0-.07.15l.28,0a11.23,11.23,0,0,1,2.64.33,3.3,3.3,0,0,0,.77.08,7.86,7.86,0,0,0,3.56-.87,4.63,4.63,0,0,0,1-.66s.1-.07.08-.17a2.44,2.44,0,0,0-.54,0,1,1,0,0,1-.25,0,.23.23,0,0,1-.13-.11.18.18,0,0,1,0-.13l.29-.23A9.15,9.15,0,0,0,29,54.35a4,4,0,0,0,.63-1,.44.44,0,0,0,0-.16l-.05,0A7.94,7.94,0,0,1,27.27,53l-1.86-.36a2.48,2.48,0,0,0-2.31.69l-.16.16-.1,0A2,2,0,0,1,23.39,51.93Zm16.5-10.87h-.34a16,16,0,0,1-2.29-.13.68.68,0,0,0-.4,0c-.23.11-.48.19-.71.32a3.77,3.77,0,0,0-1.74,1.85,7.32,7.32,0,0,0-.36,1.09c-.08.34-.15.68-.23,1a3.37,3.37,0,0,1-.94,1.66.94.94,0,0,0-.12.14l.16.06a23.72,23.72,0,0,1,2.47.67,2.94,2.94,0,0,0,2.3-.23.61.61,0,0,0,.32-.38,5.88,5.88,0,0,1,.77-1.52,6.5,6.5,0,0,1,2-1.9l.34-.22a.91.91,0,0,0-.2-.08,6.31,6.31,0,0,0-2.21,0H38.6c-.07,0-.12-.06-.1-.12a.41.41,0,0,1,.1-.23,1.49,1.49,0,0,1,.34-.28,1.52,1.52,0,0,0,.52-.52,4.1,4.1,0,0,0,.44-1.06S39.89,41.12,39.89,41.06ZM47,37l0,0-.14,0a18.48,18.48,0,0,1-2.58-.25.54.54,0,0,0-.36.06,4.72,4.72,0,0,0-2.32,2.3A7.34,7.34,0,0,0,41,40.9l-.09.55a1.94,1.94,0,0,1-.41,1.11l.22,0a10.27,10.27,0,0,1,2.2.47,2.5,2.5,0,0,0,.77.14,6.58,6.58,0,0,0,2.83-.61,1,1,0,0,0,.48-.44,4.47,4.47,0,0,1,1.32-1.48,1.31,1.31,0,0,0,.16-.13.66.66,0,0,0-.15-.07,8.57,8.57,0,0,0-2-.22,2.31,2.31,0,0,0-1.15.23.41.41,0,0,1-.45-.05c-.13-.08-.13-.21,0-.29s.06,0,.1,0a1.23,1.23,0,0,0,.72-.54q.27-.37.51-.78c.31-.54.61-1.1.91-1.65ZM60.8,64.1c.12.07.21,0,.31,0a11.21,11.21,0,0,1,2.37-.35,3,3,0,0,0,.73-.11,4.76,4.76,0,0,0,2.72-1.88.74.74,0,0,0,.13-.3,12,12,0,0,1,.7-2.18c0-.05.07-.11,0-.18a5.18,5.18,0,0,0-1.92.7,3.32,3.32,0,0,0-.46.38,1.28,1.28,0,0,0-.41.73,1.77,1.77,0,0,1-.06.17.42.42,0,0,1-.32-.24,1.14,1.14,0,0,1-.17-.56c0-.23,0-.45,0-.67v-.35a7.68,7.68,0,0,1-2.94.88,3.21,3.21,0,0,0-.67,1.94c0,.58,0,1.16,0,1.74C60.78,63.92,60.8,64,60.8,64.1ZM26.62,58.32h-.07l-.11,0a7.17,7.17,0,0,1-3.47.22l-1.25-.19a.53.53,0,0,0-.47.13,2.21,2.21,0,0,0-.7,1.12,5,5,0,0,0-.15,1,12.22,12.22,0,0,1-.2,1.81,1.19,1.19,0,0,0,0,.19,5.3,5.3,0,0,1,.62-.13,12.13,12.13,0,0,1,2.48-.11l.63,0a2.72,2.72,0,0,0,2.2-1.1,1.6,1.6,0,0,0,.36-1c0-.3,0-.59,0-.89S26.59,58.7,26.62,58.32ZM57.44,69.64l-.09.42c-.15.91-.26,1.83-.32,2.76a17.25,17.25,0,0,0,.1,3.59A9.1,9.1,0,0,0,57.52,78a1.28,1.28,0,0,0,.12.21c.06-.26.11-.46.16-.66a18,18,0,0,1,1.72-4.53,10.31,10.31,0,0,1,2.27-2.9l.1-.07a15.72,15.72,0,0,0-.06-1.87h0l-.1,0a7.47,7.47,0,0,1-2.9,1.16ZM32.17,46.05h-.39a2.52,2.52,0,0,0-1.43.54,2.35,2.35,0,0,1-.37.24c-.4.21-.8.43-1.22.62a2.21,2.21,0,0,0-.66.47c-.14.16-.28.31-.41.48a14.4,14.4,0,0,0-1.32,2,4.81,4.81,0,0,1-.63.87c-.16.18-.34.35-.51.53s-.11.07-.06.14a8.77,8.77,0,0,1,.89,0c.48,0,1,.14,1.42.22l1.24.24a1.78,1.78,0,0,0,1.17-.17c0-.17.05-.34.07-.51a3.81,3.81,0,0,1,.52-1.54,5.9,5.9,0,0,1,.5-.73c.29-.38.61-.75.92-1.12l.14-.19s-.06,0-.08,0a2,2,0,0,0-.87.12,1.83,1.83,0,0,1-.39.09.25.25,0,0,1-.19-.07c-.06-.07,0-.14.06-.19l.09-.07a5.77,5.77,0,0,0,1.41-1.7S32.12,46.14,32.17,46.05ZM92.51,47a.83.83,0,0,0-.69-.66.61.61,0,0,0-.18-.05A2.09,2.09,0,0,1,90.8,46c-1-.54-2.08-1.08-3.13-1.6s-1.89-.92-2.84-1.36a3.08,3.08,0,0,0-.84-.28,5.68,5.68,0,0,0-3.08.37s-.1,0-.09.13l.25.11a2.11,2.11,0,0,1,1.39,1.73,1.07,1.07,0,0,0,.07.19l.73-.24a4.18,4.18,0,0,1,1.65-.11,3.1,3.1,0,0,1,1.62.77l.32.28.17,0a2.15,2.15,0,0,1,1.68.23,3.89,3.89,0,0,1,.82.63l.25.26.37-.12a1.41,1.41,0,0,1,1.42.28.31.31,0,0,0,.38.06Zm-73.1,9.14c.07-.16.12-.29.17-.43l.3-.84a9.87,9.87,0,0,1,.84-1.73,5.29,5.29,0,0,1,1.85-1.79l.22-.14a7.76,7.76,0,0,0-1.33-.37,8.48,8.48,0,0,1-2.19,1.49c-.48.23-1,.44-1.46.63a20.14,20.14,0,0,1-3.5,1c-.05,0-.12,0-.14.11a2.66,2.66,0,0,0,.56.55,5.84,5.84,0,0,0,1.06.61,14.09,14.09,0,0,0,3.37,1A1,1,0,0,0,19.41,56.11Zm13-10.58a11.11,11.11,0,0,0,.63-1.71,7,7,0,0,1,.76-1.8s.07-.08,0-.14l-.23.07A28.08,28.08,0,0,1,29.79,43a20.7,20.7,0,0,1-2.93.43l-1.66.07c-.06,0-.13,0-.15.06s0,0,0,.06l.29.17A13.49,13.49,0,0,0,28,45a11.88,11.88,0,0,0,4,.6Zm-7.61,5a2.58,2.58,0,0,0,.42-.55,15,15,0,0,1,3-3.36s.11,0,.07-.15l-.18,0-1.21.2a14.11,14.11,0,0,0-3.48,1,4.43,4.43,0,0,1-.8.27,15.17,15.17,0,0,1-2.13.3l-1.4.1c-.11,0-.22,0-.31.07A16.14,16.14,0,0,0,24.84,50.53Zm31,25.17a1.37,1.37,0,0,0-.17.21,4.2,4.2,0,0,1-.72.74,9.46,9.46,0,0,1-3.26,1.79l-.23.08a8.35,8.35,0,0,0,.84,5.6c.14-.31.18-.64.29-1s.2-.64.32-1,.23-.62.37-.93.27-.61.42-.9.33-.61.5-.91.36-.57.55-.84.4-.53.61-.79l.66-.74C56,76.66,55.9,76.22,55.83,75.7Zm7.89-11a.69.69,0,0,0-.06.13A9.77,9.77,0,0,0,63,69.75a6.5,6.5,0,0,0,.42,1.57c0,.05,0,.12.11.1.12-.52.22-1,.36-1.55A9.86,9.86,0,0,1,65,67.21a5.67,5.67,0,0,1,1.83-1.91l.1-.09c0-.57-.06-1.12-.1-1.68a0,0,0,0,0,0,0l-.07,0A6.83,6.83,0,0,1,63.72,64.75ZM33.49,39.1a10.34,10.34,0,0,0,3.45.89,14.13,14.13,0,0,0,3.25,0,6.73,6.73,0,0,1,2.2-3.55c-.93.46-1.87.88-2.83,1.25a22.3,22.3,0,0,1-3,.93A24.11,24.11,0,0,1,33.49,39.1Zm44-3.76,0,.09.12.08c.92.8,1.81,1.61,2.69,2.45a3.73,3.73,0,0,0,2.13.94.63.63,0,0,0,.42-.09c.54-.32,1.09-.63,1.64-.94l.21-.13-.9-.43c-1.31-.61-2.62-1.21-4-1.71a3,3,0,0,0-.83-.18l-.74-.06A5.93,5.93,0,0,0,77.51,35.34ZM93,35.43l-1.18-.09-2.07-.15a.56.56,0,0,1-.47-.25l-.39-.5-1-1.35c-.28-.39-.57-.77-.86-1.16a2.2,2.2,0,0,0-.26-.27c-.11-.1-.17-.1-.34-.06,0,0,0,0,0,0l.11.11A2.24,2.24,0,0,1,87.25,33a3.82,3.82,0,0,1,0,1.26l0,.33a.73.73,0,0,0,.24.63,1.1,1.1,0,0,0,.65.33l.3,0a.7.7,0,0,1,.2.08.18.18,0,0,1,0,.31.85.85,0,0,1-.24.09,1.64,1.64,0,0,1-.66,0,3.37,3.37,0,0,1-1.16-.56l-.24-.12c0,.11,0,.2-.05.28A4,4,0,0,1,86,37s0,.09,0,.14A21.67,21.67,0,0,1,93,35.43Zm.82,18.44a1.37,1.37,0,0,0-.27.06,1.5,1.5,0,0,0-.63.51,4.82,4.82,0,0,1-1.48,1.33,2.84,2.84,0,0,1-1.23.47l-.07,0a.26.26,0,0,0-.22.23.73.73,0,0,0,.36.82,2.4,2.4,0,0,0,1,.31.51.51,0,0,0,.34-.1,5.74,5.74,0,0,0,2.06-2.84A2.71,2.71,0,0,0,93.82,53.87Zm-13.7-7a2.64,2.64,0,0,1,.93-.92l.45-.27.21-.14c0-.12-.07-.23-.1-.33s-.08-.19-.12-.27a1.39,1.39,0,0,0-1.55-.83,3.35,3.35,0,0,0-.37.09A2.13,2.13,0,0,0,80.12,46.86ZM96.39,48l-.07.32A10.61,10.61,0,0,1,96,49.82a1.66,1.66,0,0,1-.42.68,2.44,2.44,0,0,0-.32.4.72.72,0,0,0-.1.24.15.15,0,0,0,.16.19,1.6,1.6,0,0,0,.42-.14,3.51,3.51,0,0,0,1.44-1.34,5.21,5.21,0,0,0,.59-1.47q0-.14.06-.3a3.89,3.89,0,0,0-.68,0ZM85.74,46.28a1,1,0,0,0-.45-.4,2.89,2.89,0,0,0-1.81-.19l-.18.05c-.22.09-.27.17-.21.4a1.26,1.26,0,0,0,.13.34,4.2,4.2,0,0,0,1.27,1.32A5.52,5.52,0,0,0,85.74,46.28Zm8.71,1.41a.83.83,0,0,0-.51-.27,3.64,3.64,0,0,0-1.79.16.53.53,0,0,0-.16.09,2.38,2.38,0,0,1,.26,1.19c0,.14,0,.28,0,.41a1.92,1.92,0,0,0,0,.22h.23a2.09,2.09,0,0,0,1.1-.57A3.72,3.72,0,0,0,94.45,47.69ZM81.61,35.52l1.53.63,1.5.66a1.36,1.36,0,0,0,.44-1.38A11.9,11.9,0,0,0,81.61,35.52Zm2.81,18.41a1.92,1.92,0,0,0,2,.83,1.53,1.53,0,0,0,.18-1.3c-.06-.18-.1-.22-.29-.2a3.46,3.46,0,0,0-1.19.24A2.32,2.32,0,0,0,84.42,53.93ZM82.54,51.2a2.92,2.92,0,0,1-.9.27,7.55,7.55,0,0,0-.94.12,2.13,2.13,0,0,0,2.16,1A1.47,1.47,0,0,0,82.54,51.2Zm5.38,4.53a1.2,1.2,0,0,0,.94.61c.27,0,.36,0,.48-.24a1.84,1.84,0,0,0,.09-.25,2.07,2.07,0,0,0,0-1c0-.16-.09-.32-.27-.35a.41.41,0,0,0-.38.2Zm-9.49-6a1.64,1.64,0,0,0,.84,1,1,1,0,0,0,.25.07.2.2,0,0,0,.23-.07,1.45,1.45,0,0,0,.35-.81.64.64,0,0,0-.12-.48Zm9.34-3.05a3.05,3.05,0,0,0,.37,1.15l.07.09a.32.32,0,0,0,.4.09,1.71,1.71,0,0,0,.64-.52A2.18,2.18,0,0,0,87.77,46.72Z"/>
          <path class="cls-3" d="M102.66,40.81a.66.66,0,0,1,.44-.11c.12,0,.23,0,.34,0a.43.43,0,0,0,.36-.3l-.18-.12a1,1,0,0,1-.18-.18.22.22,0,0,1,.07-.32,1.62,1.62,0,0,1,.41-.17l.5-.1a.79.79,0,0,0-1-.48,4,4,0,0,0-.59.09l-.33.09c-.13-.09-.18-.25-.27-.38l-.3-.38-.3-.35c0-.09.07-.08.11-.08a16.07,16.07,0,0,1,2.86,0l.32.07a.26.26,0,0,1,.2.37,1.66,1.66,0,0,1-.12.31,3.3,3.3,0,0,1-.27.53c-.35.53-.7,1-1.06,1.57l-.1.11-.11,0a.16.16,0,0,0-.2.13,1,1,0,0,0,0,.25,3.37,3.37,0,0,1-.25,1,1.74,1.74,0,0,1-.36.56,17.1,17.1,0,0,1-1.82,1.69,1.29,1.29,0,0,0-.27.3c-.08.12-.14.26-.22.39s-.21.38-.34.57a2.12,2.12,0,0,1-1.62,1,8.58,8.58,0,0,1-2.58-.12,13.51,13.51,0,0,1-4-1.33c-.91-.47-1.81-1-2.73-1.42a21.43,21.43,0,0,0-3-1.32A9.3,9.3,0,0,0,84,42.15l-.08,0a8.18,8.18,0,0,1,1.57-.34c.14,0,.23-.06.24-.14a.29.29,0,0,0-.23-.26.54.54,0,0,0-.18,0,19,19,0,0,0-4.83,1.11,9.43,9.43,0,0,0-3.17,2.08l-.31.32c-1.24,1.36-2.51,2.7-3.66,4.14l-.64.81-.23,0c0,.18-.13.33-.1.51l.08.08A1.47,1.47,0,0,1,73,51.56c0,.28,0,.57,0,.85s0,.25,0,.37a.39.39,0,0,0,.22.34,1.58,1.58,0,0,0,.06-.26,18.28,18.28,0,0,1,.53-2.73l.09-.28a2.26,2.26,0,0,1,.6-1.05c.12-.12.23-.25.33-.37s.1.1.11.15a4.5,4.5,0,0,0,.22.82,1.9,1.9,0,0,1,.12.62.92.92,0,0,0,.34.67c.14.11.27.21.4.33l.56.54a.52.52,0,0,0,.11.1.15.15,0,0,0,.2,0,.25.25,0,0,0,0-.17,1.31,1.31,0,0,0-.23-.24,1.46,1.46,0,0,0-.28-.14c0-.07,0-.16,0-.24a1.27,1.27,0,0,0-.18-.6,1.61,1.61,0,0,1-.24-1,6.85,6.85,0,0,1,.07-.78,1.56,1.56,0,0,1,.07-.17l.21.28c.39.59.82,1.15,1.26,1.7a4.67,4.67,0,0,0,1.08,1l5.12,3.22c.91.57,1.83,1.12,2.75,1.69a1.77,1.77,0,0,0,1.12.31.57.57,0,0,1,.49.2l.57.59a1.65,1.65,0,0,0,.7.46c.41.14.81.32,1.21.47a.42.42,0,0,1,.27.33,1.83,1.83,0,0,1-.06.84,3.32,3.32,0,0,1-.24.62,6.84,6.84,0,0,1-2,2.5,4.63,4.63,0,0,1-2.08.94l-.3,0,.12-.16c.22-.23.46-.46.66-.7a2.15,2.15,0,0,0,.47-1,1.57,1.57,0,0,0-.36-1.38h0c0,.06,0,.14,0,.21a1.66,1.66,0,0,1-1.3,1.35,1.09,1.09,0,0,1-.44,0l-.66-.11a3.53,3.53,0,0,0-.56-.05c-.17,0-.34,0-.54,0,0-.06,0-.13,0-.19a3.93,3.93,0,0,0-2-3.26,6.59,6.59,0,0,0-3.75-1,7.57,7.57,0,0,0-2.76.68,10.46,10.46,0,0,0-4,3.24,16.2,16.2,0,0,0-2,3.7c-.14.34-.26.69-.39,1l-.1.25c-.1,0-.1-.05-.12-.09s0-.09,0-.13a7.68,7.68,0,0,1-.34-2.23,11.34,11.34,0,0,1,.75-4c.1-.26.21-.52.32-.79l.33-.1a6.69,6.69,0,0,0,2-1,4.27,4.27,0,0,0,1.09-1.15A3.58,3.58,0,0,0,73,54.45a.38.38,0,0,0,0-.1c-.08,0-.1,0-.13.1s-.17.41-.25.62a3.65,3.65,0,0,1-1.09,1.43,6.93,6.93,0,0,1-2.74,1.43,3.21,3.21,0,0,1-.62.1,5.3,5.3,0,0,0-2.44.8l-.12.05c0-.07,0-.13,0-.17A8.18,8.18,0,0,0,66,55.35a9.84,9.84,0,0,1,0-1.63,3.93,3.93,0,0,1,.44-1.37c.13-.23.26-.45.38-.68a2,2,0,0,0,0-1.75c-.09,0-.1.06-.12.11a2.6,2.6,0,0,1-1.35,1.26,5.42,5.42,0,0,1-1.68.44c-.62.07-1.25.11-1.88.16a8.56,8.56,0,0,0-2.28.42c0-.05,0-.09,0-.11A3.53,3.53,0,0,0,60,49.66c-.05-.33-.09-.66-.13-1a4.38,4.38,0,0,1,1.45-3.91.67.67,0,0,1,.11-.07c-.05-.13-.12-.09-.17-.07a4.66,4.66,0,0,0-.5.25,7.21,7.21,0,0,0-.72.51,3.16,3.16,0,0,1-1.76.72,13.48,13.48,0,0,1-2.29,0l-1.15,0a1.11,1.11,0,0,0-.57.13c-.23.12-.47.22-.7.33,0,0,0-.07,0-.08a2.52,2.52,0,0,0,.3-1.82c-.06-.49-.15-1-.23-1.47A3.39,3.39,0,0,1,53.92,41a3.06,3.06,0,0,1,1-1.18,1.27,1.27,0,0,0,.25-.21.25.25,0,0,0,0-.17s-.08-.06-.12-.06a1.35,1.35,0,0,0-.29,0,1,1,0,0,0-.3.14,4.39,4.39,0,0,1-1.66.61,9.27,9.27,0,0,1-2.1.18,4,4,0,0,1-1.09-.2,22.84,22.84,0,0,0-2.58-.7.68.68,0,0,1-.2-.07s0,0,0,0a2.26,2.26,0,0,1,.11-.22,22.43,22.43,0,0,0,1.14-2,4,4,0,0,1,1.21-1.44l.29-.22c0-.3-.11-.6.1-.88a.71.71,0,0,0-.15-.12.14.14,0,0,0-.2,0,2.39,2.39,0,0,1-.54.56l-1.33,1.22a14.75,14.75,0,0,1-6.25-1.79c0-.09.1-.06.15-.06l2.81-.24a27.12,27.12,0,0,0,3.1-.53l4.65-1c.12,0,.24,0,.36-.07a.48.48,0,0,0,.22-.12.09.09,0,0,0,0-.16.57.57,0,0,0-.18-.12,1.94,1.94,0,0,0-.33-.07,3.86,3.86,0,0,1-.93-.24A9.75,9.75,0,0,1,49.2,31a1.34,1.34,0,0,1-.44-.34,1.43,1.43,0,0,1,.21,0,27,27,0,0,0,3.92.2c.25,0,.5,0,.74-.07a16.29,16.29,0,0,1,1.85-.16c.86,0,1.73-.05,2.59-.09a8.74,8.74,0,0,0,1.77-.21l.25-.08L59.8,30a6.38,6.38,0,0,1-1.61-1.17,3.78,3.78,0,0,1-.64-.9.64.64,0,0,1,0-.17c.1-.07.17,0,.25,0a20,20,0,0,0,3.24.94,15,15,0,0,0,3.35.32,19.85,19.85,0,0,0,2.87-.32,27,27,0,0,0,3.76-1,.75.75,0,0,1,.39-.06c1.28.23,2.56.45,3.83.74l.53.14.16.06a.22.22,0,0,0,0,.06h0c-.14,0-.29.05-.44.06-.48,0-1,.08-1.44.1a6.16,6.16,0,0,1-1.91-.21c0,.08,0,.12,0,.15a2.35,2.35,0,0,0,.69.43,5,5,0,0,0,1.47.36c.38,0,.77.05,1.15.07.9,0,1.8.05,2.7.1a13.74,13.74,0,0,1,2.93.44c.28.08.54.19.8.29a1.28,1.28,0,0,1,.23.15c-.06.1-.15.1-.22.13-.38.13-.76.25-1.12.39s-.92.37-1.37.57a11.1,11.1,0,0,1-2,.71,2.07,2.07,0,0,1-1.13,0,4.18,4.18,0,0,0-.51-.1s-.06,0-.09,0,0,.09.08.12a2.56,2.56,0,0,0,1.53.36,4.7,4.7,0,0,0,1-.17A22.87,22.87,0,0,1,81,32.14c.57-.07,1.13-.13,1.7-.18a4.3,4.3,0,0,1,2.66.63,2.57,2.57,0,0,1,.63.51,1.46,1.46,0,0,1,.31.54,1,1,0,0,1-.14.75.21.21,0,0,1-.18.1l-.3,0c-2.14.05-4.28.1-6.42.17-.9,0-1.8.11-2.7.18l-2.29.19a.67.67,0,0,0-.39.08.42.42,0,0,0,.35.2h1.18a1.39,1.39,0,0,1,.75.18,8.57,8.57,0,0,1,.81.52A13.25,13.25,0,0,1,79,38a4,4,0,0,0,1.51,1.1c.3.13.6.24.9.35l.26.11c-.17.16-.36.26-.52.4a2.53,2.53,0,0,1-1.05.52,28.54,28.54,0,0,0-3.76,1.34,7.33,7.33,0,0,0-3.09,2.53,10.39,10.39,0,0,0-1.18,2,4.91,4.91,0,0,0-.24.74,7,7,0,0,1-1,2.27c-.09.13-.17.27-.25.41a.32.32,0,0,0,0,.09c.06.06.1,0,.14,0a2.25,2.25,0,0,0,.55-.64A5.64,5.64,0,0,0,72,47.67a7.66,7.66,0,0,1,2.42-3.57,8.47,8.47,0,0,1,1.49-1,40.48,40.48,0,0,1,4-1.94c.74-.31,1.49-.6,2.26-.84a2.7,2.7,0,0,1,1.35-.13,3.24,3.24,0,0,0,.44,0,.12.12,0,0,0,.15-.12.11.11,0,0,0-.12-.12,2.2,2.2,0,0,0-.36,0c-.23,0-.45,0-.67,0h-.17c0-.13.06-.15.12-.18a22.18,22.18,0,0,1,2.68-1.43,23,23,0,0,1,5.17-1.67,15.31,15.31,0,0,1,3.5-.32,10.5,10.5,0,0,1,6.36,2.24,7.74,7.74,0,0,1,1.21,1.15,4,4,0,0,1,.55.79A.67.67,0,0,0,102.66,40.81Zm-17.25-.58a2.67,2.67,0,0,0,.4,0,14.45,14.45,0,0,1,2.37-.07A6.78,6.78,0,0,1,92,41.53a18.6,18.6,0,0,1,1.55,1.38c.37.37.75.73,1.13,1.08a5.87,5.87,0,0,0,2.37,1.33,5.55,5.55,0,0,0,1.72.25,2.19,2.19,0,0,0,1-.22s.11-.06.06-.15h-.25c-.39,0-.77,0-1.15,0a6.87,6.87,0,0,1-.78-.08A1.31,1.31,0,0,1,97,44.8c-.17-.17-.35-.32-.51-.49-.43-.45-.84-.9-1.28-1.34s-1-1-1.54-1.51a9.12,9.12,0,0,0-1.34-1.05,4.31,4.31,0,0,0-1.43-.6,6.83,6.83,0,0,0-1.35-.17A12.47,12.47,0,0,0,87,39.8c-.45.08-.89.19-1.33.3-.09,0-.2,0-.24.14l0,0ZM56.75,32.52a.31.31,0,0,1-.2.28,1.53,1.53,0,0,1-.37.16,4.49,4.49,0,0,1-1.09.22l-1.66.16c-.52.06-1,.14-1.57.24a4.87,4.87,0,0,0-.74.23,1.19,1.19,0,0,0-.38,1.66,2.66,2.66,0,0,0,.35.32,5.32,5.32,0,0,0,.61.35,7.84,7.84,0,0,1,1.37.81,22.79,22.79,0,0,1,3.09,2.72A17.51,17.51,0,0,0,58.85,42a10.4,10.4,0,0,0,1.88,1,5.54,5.54,0,0,0,1.69.39,9.19,9.19,0,0,0,2.4-.18l1.59-.36a7.9,7.9,0,0,1,1.69-.22,2.83,2.83,0,0,1,2,.82c.1.09.19.19.3.28a.57.57,0,0,0,.18.12.18.18,0,0,0,.13,0,.07.07,0,0,0,0-.09,1.87,1.87,0,0,0-.24-.38,6.76,6.76,0,0,0-1.86-1.45,1.35,1.35,0,0,0-.81-.19c-.61.05-1.21.1-1.81.17-1.13.15-2.26.3-3.39.39a3.94,3.94,0,0,1-1.14-.08,6.54,6.54,0,0,1-2.16-1,11.46,11.46,0,0,1-2.63-2.33,10.83,10.83,0,0,0-4.27-3.05c-.23-.1-.46-.18-.68-.29a1.87,1.87,0,0,1-.39-.22.54.54,0,0,1-.23-.32.46.46,0,0,1,.29-.6,4.47,4.47,0,0,1,.8-.14l2.6-.15a7,7,0,0,0,2.3-.51c.42-.17.83-.37,1.25-.56.74-.32,1.47-.66,2.21-1a6.59,6.59,0,0,1,1.64-.42,8.14,8.14,0,0,1,2.26,0,7.48,7.48,0,0,1,2.69.88,4.53,4.53,0,0,1,1.4,1.21c.38.5.78,1,1.18,1.47a4.93,4.93,0,0,0,.39.4,1.18,1.18,0,0,0,.18,0c-.07-.12-.11-.19-.16-.26s-.23-.29-.34-.43a.73.73,0,0,1-.14-.26,3.07,3.07,0,0,0-.45-1,10.23,10.23,0,0,0-1.63-2,3.32,3.32,0,0,0-.78-.57,2.83,2.83,0,0,1-.45-.32,2.06,2.06,0,0,1-.33-.4.58.58,0,0,1,0-.63.52.52,0,0,0,.07-.21.24.24,0,0,0-.31-.26.65.65,0,0,0-.44.32,1.18,1.18,0,0,0-.17.4c-.06.24-.07.49-.11.73,0,.07,0,.15-.07.22L64.8,31a3.42,3.42,0,0,0-1.28-.44,5.5,5.5,0,0,0-1.81.05,11.73,11.73,0,0,0-2.53.7,4.7,4.7,0,0,1-1.89.31A6.56,6.56,0,0,1,56,31.5a.45.45,0,0,0-.34,0A3.72,3.72,0,0,0,56.75,32.52Zm14.62,4.7-.09,0-.29,0a5.5,5.5,0,0,1-2-.84,3.8,3.8,0,0,1-1.66-2.45c0-.06,0-.13-.08-.2a1.23,1.23,0,0,0-.7.6,3.35,3.35,0,0,0-.39,1.07c0,.13,0,.26-.08.41l-.16,0a9.87,9.87,0,0,1-1.73-.84,4.24,4.24,0,0,1-.84-.68,1.69,1.69,0,0,1-.42-.69.93.93,0,0,1-.07-.2.9.9,0,0,0-.63.7,1.49,1.49,0,0,0,0,.63c0,.22.08.43.13.65,0,.06,0,.12,0,.18l-.25,0c-.49-.14-1-.27-1.45-.43a7.71,7.71,0,0,1-1-.45,2.09,2.09,0,0,1-.8-.65s-.05,0-.1-.07a1.67,1.67,0,0,0,.21.94,3.64,3.64,0,0,1,.25.57,1.06,1.06,0,0,1,0,.2h-.28l-.3,0-.26,0L58,35.48l-.25-.07-.25-.07-.28-.09L57,35.14,56.72,35c-.07,0-.13-.1-.25-.07a2.06,2.06,0,0,0,1.36,1.29,3.81,3.81,0,0,0,1.5.12c.2,0,.4,0,.59-.06a1.87,1.87,0,0,1,.88.08l1,.35.2,0a2.09,2.09,0,0,0-.13-.23,3.73,3.73,0,0,0-1.05-.64l.27,0a4.43,4.43,0,0,1,1.35.21,7,7,0,0,1,1.83.89s.1.11.19.06a1,1,0,0,0-.37-.53,3.21,3.21,0,0,1-.8-1.1s-.08-.1,0-.16a4.24,4.24,0,0,0,1.26.67c.48.2,1,.42,1.41.65a2.36,2.36,0,0,1,.75.54,2,2,0,0,0,.74.47.65.65,0,0,0,.17,0c-.06-.12-.11-.2-.15-.29-.21-.42-.42-.84-.62-1.27,0-.05-.07-.1,0-.17l.13,0a2,2,0,0,1,.85.53c.2.21.4.43.58.66a1.47,1.47,0,0,0,.66.47l.42.14a9.52,9.52,0,0,0,1.68.29,4.44,4.44,0,0,1,1.39.35c.17.07.34.15.52.21a.29.29,0,0,0,.3,0,.6.6,0,0,0-.16-.19c-.27-.19-.54-.39-.83-.56a1.64,1.64,0,0,1-.6-.54l-.36-.56s0-.11-.07-.17a1,1,0,0,1,.49.05,4.69,4.69,0,0,1,1.65.64,2.22,2.22,0,0,1,.94,2.36,1.16,1.16,0,0,1,0,.18.89.89,0,0,1-.45.52l-.18.07s-.08,0-.06.11a2.07,2.07,0,0,0,1.86-.25,1.34,1.34,0,0,0,.48-.69,1.63,1.63,0,0,0-.19-1.39,3,3,0,0,0-.81-.85,5.66,5.66,0,0,0-1.68-.85,4.6,4.6,0,0,0-2.05-.24s-.07,0-.1,0,0-.27-.19-.32a.39.39,0,0,0-.09.43,3.43,3.43,0,0,0,.19.48ZM70.78,41a1,1,0,0,0,0-.13c-.09-.12-.17-.24-.27-.35a5.69,5.69,0,0,0-1.8-1.28,5.09,5.09,0,0,0-2.46-.39,12,12,0,0,0-2.78.45,1.84,1.84,0,0,1-.25,0l-.25-.29a8.8,8.8,0,0,0-1-1,3.9,3.9,0,0,0-.81-.53,1.45,1.45,0,0,0-.68-.16,3,3,0,0,0-.94.16,3.23,3.23,0,0,0-.49.25c-.19-.16-.37-.33-.57-.48a1.44,1.44,0,0,0-.42-.23.41.41,0,0,0-.59.32.82.82,0,0,0,.08.65.48.48,0,0,0,.48.28v-.12s0-.1,0-.15a.15.15,0,0,1,.21-.13,1.58,1.58,0,0,1,.36.2,3.9,3.9,0,0,1,.7.76s.06.11.13.09a2.89,2.89,0,0,1,.11-.51.63.63,0,0,1,.59-.43,1.23,1.23,0,0,1,.33,0,1.86,1.86,0,0,1,.67.31,4.12,4.12,0,0,1,.79.77,7.46,7.46,0,0,1,.75,1.11c0,.07.1.13.15.2l.26-.08a15.56,15.56,0,0,1,2.85-.68,5.79,5.79,0,0,1,2,0,7.07,7.07,0,0,1,1.82.7l.78.44A.35.35,0,0,0,70.78,41Zm4.58,10.43a.44.44,0,0,0,0,.43,2.48,2.48,0,0,0,.2.44.73.73,0,0,1,.13.52.37.37,0,0,0,.25.41l.3.14,1,.46c.28.13.56.27.82.42a10.69,10.69,0,0,0,1.69.85,7,7,0,0,1,1.19.6c.33.19.65.4,1,.6s.53.34.8.48a9.89,9.89,0,0,1,1.21.72c.7.49,1.4,1,2.09,1.47a1,1,0,0,0,.65.21l1.23,0H88a.13.13,0,0,0,.08-.2.33.33,0,0,0-.24-.16h-.3a1.86,1.86,0,0,1-.62-.08A3.8,3.8,0,0,1,85.52,58c-.2-.17-.42-.34-.62-.53a7.19,7.19,0,0,0-2.67-1.62,6.69,6.69,0,0,1-1.7-.88c-.3-.21-.61-.39-.9-.6a10.41,10.41,0,0,0-1.87-1.05,5,5,0,0,1-.87-.49.71.71,0,0,0-.37-.15.49.49,0,0,1-.41-.32,4.15,4.15,0,0,0-.35-.57,1.71,1.71,0,0,0-.22-.25A.42.42,0,0,0,75.36,51.44Zm25.93-8.31a1.13,1.13,0,0,0-.32-.87,2.06,2.06,0,0,1-.35-.43c-.17-.26-.34-.51-.5-.78a3.43,3.43,0,0,0-.73-.88,9.72,9.72,0,0,0-2.94-1.82A4.8,4.8,0,0,0,94.86,38a16.26,16.26,0,0,0-3.94.31,9.27,9.27,0,0,0-1,.29c-.06,0-.13,0-.12.14h.36a42.2,42.2,0,0,1,5,.14,5.32,5.32,0,0,1,2.33.77,11,11,0,0,1,2,1.57,5.32,5.32,0,0,1,1.23,1.66A.66.66,0,0,1,101.29,43.13ZM67.88,43l-.07.17a3,3,0,0,1-2.11,2,4.54,4.54,0,0,1-1.21.18.75.75,0,0,0-.32,0,1.31,1.31,0,0,0,.18.17,2.06,2.06,0,0,0,1.14.39,4.33,4.33,0,0,0,2.28-.53,1.82,1.82,0,0,0,.38-.29,1,1,0,0,0,.35-.93A1.84,1.84,0,0,0,67.88,43Z"/>
          <path class="cls-3" d="M46.74,72.79a1.47,1.47,0,0,1,0,.17A4.39,4.39,0,0,0,46.28,75c0,.58,0,1.16,0,1.74a5.07,5.07,0,0,1-.15,1.17,2.21,2.21,0,0,1-.45.89,6.28,6.28,0,0,1-.56.59,9.56,9.56,0,0,1-1.68,1.21,3,3,0,0,1-1.23.37A13.84,13.84,0,0,1,40,81l-1.54-.1a.75.75,0,0,1,0-.15,1.34,1.34,0,0,0,.13-.94c0-.27-.1-.53-.14-.8a6.94,6.94,0,0,1-.08-.77,2.79,2.79,0,0,1,.14-1A8.52,8.52,0,0,1,39.71,75a1.86,1.86,0,0,1,1.2-.73,5.21,5.21,0,0,1,1.18-.08c.47,0,.94,0,1.41-.05a5.51,5.51,0,0,0,3.06-1.2Z"/>
          <path class="cls-3" d="M46.47,65c-.1.29-.19.52-.25.76a4.2,4.2,0,0,0-.12,1.32c0,.55.09,1.11.15,1.66s.17,1.12.24,1.69c0,.21,0,.42,0,.63a.81.81,0,0,1-.15.52,2.24,2.24,0,0,1-.78.72,4.17,4.17,0,0,1-1.32.47,11.39,11.39,0,0,1-2.18.18,5.78,5.78,0,0,0-2.06.37l-.55.23c0-.09,0-.14,0-.2a8,8,0,0,0,.06-2.07c0-.4-.06-.81-.1-1.22a3.68,3.68,0,0,1,.76-2.79,4.7,4.7,0,0,1,2.51-1.74,5.31,5.31,0,0,1,1.32-.17A8,8,0,0,0,46.3,65Z"/>
          <path class="cls-3" d="M49.48,56.21c-.11.35-.22.66-.32,1a12.74,12.74,0,0,0-.43,2.44c0,.59-.14,1.18-.2,1.77a3,3,0,0,1-1.15,2,3.94,3.94,0,0,1-1.94.78,6.2,6.2,0,0,1-1.22.06,6.54,6.54,0,0,0-2.4.35l-.27.09c-.06-.08,0-.12,0-.17a2.55,2.55,0,0,0,.33-1.23A7.55,7.55,0,0,0,41.82,62c0-.26-.06-.51-.1-.77A3.17,3.17,0,0,1,42.2,59a3.64,3.64,0,0,1,.86-1,6,6,0,0,1,2.24-1.18,6,6,0,0,1,1.4-.13c.36,0,.72,0,1.08.07a1.12,1.12,0,0,0,.57-.08C48.71,56.51,49.08,56.37,49.48,56.21Z"/>
          <path class="cls-3" d="M47.79,71.64A3.59,3.59,0,0,0,47.73,70c-.13-.49-.25-1-.36-1.48a6.11,6.11,0,0,1-.13-1.28,3.91,3.91,0,0,1,.4-1.72A6,6,0,0,1,49,63.69a2,2,0,0,1,.64-.36A4.75,4.75,0,0,1,51,63c.46,0,.91-.06,1.37-.08a5,5,0,0,0,1.77-.29c.08.06,0,.11,0,.17a6.49,6.49,0,0,0-.33,1.85c0,.72,0,1.44-.07,2.15,0,.45,0,.89-.08,1.33a1.85,1.85,0,0,1-.29.91.86.86,0,0,0-.1.16,2,2,0,0,1-1.7,1.08,6.51,6.51,0,0,0-1.45.27,10.68,10.68,0,0,0-1.93.85Z"/>
          <path class="cls-3" d="M31.62,75a6.16,6.16,0,0,0,.2-.61A8.9,8.9,0,0,0,32,73.26c0-.74,0-1.48,0-2.23a3.89,3.89,0,0,1,.11-1,2,2,0,0,1,.74-1.21,4.72,4.72,0,0,0,.41-.37,4.14,4.14,0,0,1,2.88-1.09c.31,0,.62,0,.92,0a3.83,3.83,0,0,0,1.47-.12h.17c0,.08,0,.13-.06.19a3.26,3.26,0,0,0-.21,1.16c0,.71,0,1.43,0,2.15a7.53,7.53,0,0,1-.11,1.77,1.08,1.08,0,0,1-.31.61,10.2,10.2,0,0,1-1.53,1.34,3.93,3.93,0,0,1-1,.5,1.55,1.55,0,0,1-.77.07A8.48,8.48,0,0,0,33.21,75c-.48,0-1,0-1.44.07Z"/>
          <path class="cls-3" d="M47.55,78.08c0-.21,0-.36,0-.51a7.27,7.27,0,0,0-.06-2,2,2,0,0,1,.07-.91,7.31,7.31,0,0,1,.86-2,1.14,1.14,0,0,1,.29-.29,3.7,3.7,0,0,1,1.1-.52,7,7,0,0,1,1.45-.29,4.38,4.38,0,0,0,2.59-1.23,1.12,1.12,0,0,1,.51-.28A11.45,11.45,0,0,1,56,69.79l.09,0a2.4,2.4,0,0,1,0,.24,13.35,13.35,0,0,0-.35,2.82,3.74,3.74,0,0,1-.48,1.73,2.17,2.17,0,0,1-.56.68c-.47.35-.93.71-1.4,1a6.53,6.53,0,0,1-3.23,1.09,10.31,10.31,0,0,0-1.46.23A3.53,3.53,0,0,0,47.55,78.08Z"/>
          <path class="cls-3" d="M43.93,56.27a3.62,3.62,0,0,0,.33-2.15c0-.45,0-.91,0-1.37a3.84,3.84,0,0,1,.16-1.06,3.47,3.47,0,0,1,1.17-1.85A5.79,5.79,0,0,1,46.93,49l.38-.16a3.79,3.79,0,0,1,1.73-.3c.42,0,.84,0,1.26,0a4.29,4.29,0,0,0,1.18-.15h.16a1.55,1.55,0,0,1,0,.15,3.26,3.26,0,0,0-.47,1.69c0,.45,0,.89,0,1.34A7,7,0,0,1,51.06,53a2,2,0,0,1-.62,1.15,6.86,6.86,0,0,1-3,1.67,3.15,3.15,0,0,1-.8.11,10.83,10.83,0,0,0-2.54.3Z"/>
          <path class="cls-3" d="M65.34,52.5c-.06.31-.13.61-.19.91a9.86,9.86,0,0,0-.15,2.1A7.71,7.71,0,0,1,64.93,57c0,.08,0,.17-.05.25-.08.44-.08.45-.46.71a6.65,6.65,0,0,1-2.29,1,6.16,6.16,0,0,1-1.87.17,8.31,8.31,0,0,0-2.76.26l-.32.08s0-.06,0-.08a3.42,3.42,0,0,0,.4-1.53c0-.42,0-.84.08-1.25a6.26,6.26,0,0,1,.21-1.21,3,3,0,0,1,1-1.52A8.38,8.38,0,0,1,60.42,53,3.17,3.17,0,0,1,62,52.65c.37,0,.74,0,1.11,0a1.31,1.31,0,0,0,.44-.07.76.76,0,0,1,.25-.06l1.45,0S65.3,52.49,65.34,52.5Z"/>
          <path class="cls-3" d="M43.67,50.69c0,.06,0,.1,0,.13-.08.38-.14.75-.23,1.13a7.51,7.51,0,0,0-.21,1.57c0,.47,0,.94-.07,1.41,0,.16,0,.32-.06.48a1.77,1.77,0,0,1-.39.83A5.77,5.77,0,0,1,40,58.12a12.12,12.12,0,0,1-1.87.45l-1.24.22a5.07,5.07,0,0,0-1,.29l-.21.08c0-.09,0-.13,0-.17a3.94,3.94,0,0,0,.4-1.61c0-.48,0-1,.07-1.44a6.46,6.46,0,0,1,.36-1.85,3.5,3.5,0,0,1,1.34-1.73,5.27,5.27,0,0,1,1.58-.73,1.08,1.08,0,0,1,.36,0q.78,0,1.56-.06a4,4,0,0,0,2-.65Z"/>
          <path class="cls-3" d="M58.78,47a2.16,2.16,0,0,1,0,.3,2.35,2.35,0,0,0,.06,1l.09.36a4.81,4.81,0,0,1-.08,2.81,3.41,3.41,0,0,1-1.11,1.63,2.52,2.52,0,0,1-1.75.59l-1,0a9.33,9.33,0,0,0-3.25.66l-.26.1c-.08,0,0-.09,0-.13a6.43,6.43,0,0,0,.63-2.83c0-.18,0-.35,0-.52a3.37,3.37,0,0,1,.49-1.91,6.06,6.06,0,0,1,1.29-1.52A1.4,1.4,0,0,1,55.05,47a4.69,4.69,0,0,1,1.4.05,6.56,6.56,0,0,0,1.77,0Z"/>
          <path class="cls-3" d="M49.49,62.12c.08-.28.17-.53.22-.78a4.9,4.9,0,0,0,.06-.77c0-.43,0-.87,0-1.3A5.16,5.16,0,0,1,50,58a4.48,4.48,0,0,1,1.86-2.64,2.28,2.28,0,0,1,1.68-.6,12.13,12.13,0,0,1,1.48,0,4.64,4.64,0,0,0,1.88-.33l.17-.07s0,.06,0,.07a5.73,5.73,0,0,0-.3,1.78c0,.45,0,.89-.08,1.34a6.71,6.71,0,0,1-.13.76,1,1,0,0,1-.07.25,9.57,9.57,0,0,1-1,1.88,5.68,5.68,0,0,1-.61.69,2.24,2.24,0,0,1-1.52.67,4,4,0,0,1-.6,0,8.69,8.69,0,0,0-3.08.33Z"/>
          <path class="cls-3" d="M33.33,67v-.06A4.34,4.34,0,0,0,33.9,65c.1-.69.2-1.37.29-2,0-.07,0-.13,0-.19a3.53,3.53,0,0,1,1.61-2.3,4,4,0,0,1,1.8-.7,13.77,13.77,0,0,0,3.11-.65h0s0,.06,0,.09a4.93,4.93,0,0,0,0,2.06,9.84,9.84,0,0,1,.11,1.88A3.67,3.67,0,0,1,40,65.31a1.79,1.79,0,0,1-.25.22,4.44,4.44,0,0,1-2.55.88,17,17,0,0,0-3.62.51A2.13,2.13,0,0,1,33.33,67Z"/>
          <path class="cls-3" d="M59.91,60.14c0,.23-.08.41-.11.59a5,5,0,0,0-.06,1.4A6.75,6.75,0,0,1,59,65.85a1.77,1.77,0,0,0-.18.45.16.16,0,0,0,.22.19,1,1,0,0,0,.46-.3,3.29,3.29,0,0,1,1.19-.8A6.89,6.89,0,0,1,62,65h.2a.74.74,0,0,1,0,.15c-.06.41-.14.81-.2,1.21a.67.67,0,0,1-.15.33,5.49,5.49,0,0,1-.81.71,6.51,6.51,0,0,1-2.52,1.12,4.83,4.83,0,0,1-1.14.09c-.33,0-.67,0-1-.08a3.06,3.06,0,0,0-1.64.16h0s0,0,0-.07a2.8,2.8,0,0,0,.21-1.34c0-.38-.06-.76-.08-1.15A8.19,8.19,0,0,1,55,63.6a4,4,0,0,1,2.15-2.73,7.56,7.56,0,0,1,2.23-.67Z"/>
          <path class="cls-3" d="M38,50.22a.73.73,0,0,1,.05-.12,12.22,12.22,0,0,0,1.06-2.87,3.59,3.59,0,0,1,.71-1.42c.19-.22.39-.44.6-.64a8.69,8.69,0,0,1,1.94-1.36,9.17,9.17,0,0,0,1.94.28,6.57,6.57,0,0,0,1.88-.27c.08.1,0,.18,0,.26A12.44,12.44,0,0,0,46,46.73a.9.9,0,0,1-.19.62,1.34,1.34,0,0,0-.31.67.79.79,0,0,1-.14.25,6.72,6.72,0,0,1-1.05.94,11.8,11.8,0,0,1-2.49,1.36,1.46,1.46,0,0,1-.65.1l-1.08,0a9.93,9.93,0,0,1-2-.34Z"/>
          <path class="cls-3" d="M33.13,62.59c0,.3-.09.56-.12.83-.1.78-.19,1.57-.29,2.35a3.48,3.48,0,0,1-.29,1,3.32,3.32,0,0,1-2.43,2,3.45,3.45,0,0,1-.85.08,26,26,0,0,0-3.18.09h-.21c0-.08,0-.13,0-.19a4.5,4.5,0,0,0,.08-.51c0-.29,0-.59,0-.89a13.74,13.74,0,0,1,0-2l.06-.37a2,2,0,0,1,1.26-1.57A4.41,4.41,0,0,1,28.45,63a14.68,14.68,0,0,1,2-.14A9.42,9.42,0,0,0,32,62.8Z"/>
          <path class="cls-3" d="M29.69,56a6.88,6.88,0,0,1,1.5.22,6.93,6.93,0,0,0,2.72.13c.38,0,.76-.13,1.16-.2a1.2,1.2,0,0,1,0,.2c0,.55-.05,1.11-.09,1.66A3.16,3.16,0,0,1,34.09,60l-.24.24v0a.54.54,0,0,0,.31,0l.31,0c0,.05,0,.1,0,.11a9.32,9.32,0,0,1-2.6,1.39,4.19,4.19,0,0,1-1.68.22,8.48,8.48,0,0,0-1.67,0l-1,.16-.2,0c0-.06,0-.1,0-.12a3.09,3.09,0,0,0,.25-1.67,4.67,4.67,0,0,1,0-1.18,3.06,3.06,0,0,1,.49-1.23,8.43,8.43,0,0,1,.68-.87C29,56.68,29.36,56.37,29.69,56Z"/>
          <path class="cls-3" d="M50,78.78a11.07,11.07,0,0,0,.46,4.41,1.14,1.14,0,0,1-.11.11A9.12,9.12,0,0,0,48,86.08a14,14,0,0,0-1.48,3.86,1.74,1.74,0,0,1-.05.22l0,.06a.63.63,0,0,1-.2-.29c-.17-.41-.35-.82-.48-1.25a21.88,21.88,0,0,1-.89-3.74A6.25,6.25,0,0,1,45,82.19a4.21,4.21,0,0,1,.51-1.07,3.14,3.14,0,0,1,.72-.78,7.8,7.8,0,0,1,2.62-1.28A8,8,0,0,1,50,78.78Z"/>
          <path class="cls-3" d="M52.82,41.4a.84.84,0,0,1,0,.18,2.84,2.84,0,0,0-.08,1c0,.54.09,1.09.16,1.62a5.77,5.77,0,0,1-.13,2.07.66.66,0,0,1-.23.36,5.05,5.05,0,0,1-2.28,1.1,3.1,3.1,0,0,1-1,0A7.92,7.92,0,0,0,46.4,48l-.11,0h0a.23.23,0,0,1,0-.1,3.64,3.64,0,0,0,.66-2c0-.42,0-.84.08-1.26s.08-.61.13-.91a3.35,3.35,0,0,1,.75-1.52A5.45,5.45,0,0,1,49.39,41a.4.4,0,0,1,.35-.07,12,12,0,0,0,2.92.45Z"/>
          <path class="cls-3" d="M29.7,55a1,1,0,0,1,.1-.14,4.39,4.39,0,0,0,1-1.59,12.32,12.32,0,0,0,.44-1.61c.08-.36.16-.72.23-1.08a2,2,0,0,1,.74-1.21,6,6,0,0,1,1.72-1,.41.41,0,0,1,.29,0c.18.05.36.09.53.15a4.78,4.78,0,0,0,2.46.14,1.33,1.33,0,0,1,.4,0c0,.05,0,.09,0,.12a3.19,3.19,0,0,1-.72,1.76,2.53,2.53,0,0,1-.9.69,2,2,0,0,0-.32.18.18.18,0,0,0-.06.23.43.43,0,0,0,.16.14.48.48,0,0,0,.33-.05,2.81,2.81,0,0,1,.86-.18h.14a.63.63,0,0,1-.07.12c-.22.24-.44.47-.65.71s-.25.34-.38.5a3.16,3.16,0,0,0-.68,1.5.51.51,0,0,1-.31.42,8.69,8.69,0,0,1-2.21.73,2.5,2.5,0,0,1-1.35-.11,6,6,0,0,0-1.33-.31Z"/>
          <path class="cls-3" d="M23.39,51.93a2,2,0,0,0-.55,1.6l.1,0,.16-.16a2.48,2.48,0,0,1,2.31-.69l1.86.36a7.94,7.94,0,0,0,2.28.19l.05,0a.44.44,0,0,1,0,.16,4,4,0,0,1-.63,1,9.15,9.15,0,0,1-1.26,1.15l-.29.23a.18.18,0,0,0,0,.13.23.23,0,0,0,.13.11,1,1,0,0,0,.25,0,2.44,2.44,0,0,1,.54,0c0,.1,0,.13-.08.17a4.63,4.63,0,0,1-1,.66,7.86,7.86,0,0,1-3.56.87,3.3,3.3,0,0,1-.77-.08,11.23,11.23,0,0,0-2.64-.33l-.28,0a.71.71,0,0,1,.07-.15,3.52,3.52,0,0,0,.56-1L21,54.88a8.4,8.4,0,0,1,.74-1.61A3,3,0,0,1,23.19,52Z"/>
          <path class="cls-3" d="M39.89,41.06c0,.06,0,.1,0,.13a4.1,4.1,0,0,1-.44,1.06,1.52,1.52,0,0,1-.52.52,1.49,1.49,0,0,0-.34.28.41.41,0,0,0-.1.23c0,.06,0,.11.1.12h.15a6.31,6.31,0,0,1,2.21,0,.91.91,0,0,1,.2.08l-.34.22a6.5,6.5,0,0,0-2,1.9A5.88,5.88,0,0,0,38,47.16a.61.61,0,0,1-.32.38,2.94,2.94,0,0,1-2.3.23,23.72,23.72,0,0,0-2.47-.67L32.76,47a.94.94,0,0,1,.12-.14,3.37,3.37,0,0,0,.94-1.66c.08-.33.15-.67.23-1a7.32,7.32,0,0,1,.36-1.09,3.77,3.77,0,0,1,1.74-1.85c.23-.13.48-.21.71-.32a.68.68,0,0,1,.4,0,16,16,0,0,0,2.29.13Z"/>
          <path class="cls-3" d="M47,37l-.05.12c-.3.55-.6,1.11-.91,1.65q-.24.41-.51.78a1.23,1.23,0,0,1-.72.54s-.07,0-.1,0-.14.21,0,.29a.41.41,0,0,0,.45.05,2.31,2.31,0,0,1,1.15-.23,8.57,8.57,0,0,1,2,.22.66.66,0,0,1,.15.07,1.31,1.31,0,0,1-.16.13A4.47,4.47,0,0,0,47,42.16a1,1,0,0,1-.48.44,6.58,6.58,0,0,1-2.83.61,2.5,2.5,0,0,1-.77-.14,10.27,10.27,0,0,0-2.2-.47l-.22,0a1.94,1.94,0,0,0,.41-1.11L41,40.9a7.34,7.34,0,0,1,.57-1.83,4.72,4.72,0,0,1,2.32-2.3.54.54,0,0,1,.36-.06,18.48,18.48,0,0,0,2.58.25l.14,0Z"/>
          <path class="cls-3" d="M60.8,64.1c0-.08,0-.18,0-.28,0-.58,0-1.16,0-1.74a3.21,3.21,0,0,1,.67-1.94,7.68,7.68,0,0,0,2.94-.88v.35c0,.22,0,.44,0,.67a1.14,1.14,0,0,0,.17.56.42.42,0,0,0,.32.24,1.77,1.77,0,0,0,.06-.17,1.28,1.28,0,0,1,.41-.73,3.32,3.32,0,0,1,.46-.38,5.18,5.18,0,0,1,1.92-.7c.08.07,0,.13,0,.18a12,12,0,0,0-.7,2.18.74.74,0,0,1-.13.3,4.76,4.76,0,0,1-2.72,1.88,3,3,0,0,1-.73.11,11.21,11.21,0,0,0-2.37.35C61,64.12,60.92,64.17,60.8,64.1Z"/>
          <path class="cls-3" d="M26.62,58.32c0,.38-.06.73-.09,1.09s0,.59,0,.89a1.6,1.6,0,0,1-.36,1,2.72,2.72,0,0,1-2.2,1.1l-.63,0a12.13,12.13,0,0,0-2.48.11,5.3,5.3,0,0,0-.62.13,1.19,1.19,0,0,1,0-.19,12.22,12.22,0,0,0,.2-1.81,5,5,0,0,1,.15-1,2.21,2.21,0,0,1,.7-1.12.53.53,0,0,1,.47-.13l1.25.19a7.17,7.17,0,0,0,3.47-.22l.11,0Z"/>
          <path class="cls-3" d="M57.44,69.64l1.35-.23a7.47,7.47,0,0,0,2.9-1.16l.1,0h0a15.72,15.72,0,0,1,.06,1.87l-.1.07a10.31,10.31,0,0,0-2.27,2.9,18,18,0,0,0-1.72,4.53c0,.2-.1.4-.16.66a1.28,1.28,0,0,1-.12-.21,9.1,9.1,0,0,1-.39-1.62,17.25,17.25,0,0,1-.1-3.59c.06-.93.17-1.85.32-2.76Z"/>
          <path class="cls-3" d="M32.17,46.05c-.05.09-.07.15-.1.2A5.77,5.77,0,0,1,30.66,48l-.09.07c-.05,0-.12.12-.06.19a.25.25,0,0,0,.19.07,1.83,1.83,0,0,0,.39-.09,2,2,0,0,1,.87-.12s0,0,.08,0l-.14.19c-.31.37-.63.74-.92,1.12a5.9,5.9,0,0,0-.5.73A3.81,3.81,0,0,0,30,51.7c0,.17-.05.34-.07.51a1.78,1.78,0,0,1-1.17.17l-1.24-.24c-.47-.08-.94-.17-1.42-.22a8.77,8.77,0,0,0-.89,0c-.05-.07,0-.1.06-.14s.35-.35.51-.53a4.81,4.81,0,0,0,.63-.87,14.4,14.4,0,0,1,1.32-2c.13-.17.27-.32.41-.48a2.21,2.21,0,0,1,.66-.47c.42-.19.82-.41,1.22-.62a2.35,2.35,0,0,0,.37-.24,2.52,2.52,0,0,1,1.43-.54Z"/>
          <path class="cls-4" d="M92.51,47l-.57.31a.31.31,0,0,1-.38-.06,1.41,1.41,0,0,0-1.42-.28l-.37.12-.25-.26a3.89,3.89,0,0,0-.82-.63A2.15,2.15,0,0,0,87,45.94l-.17,0-.32-.28a3.1,3.1,0,0,0-1.62-.77,4.18,4.18,0,0,0-1.65.11l-.73.24a1.07,1.07,0,0,1-.07-.19,2.11,2.11,0,0,0-1.39-1.73l-.25-.11c0-.1,0-.11.09-.13A5.68,5.68,0,0,1,84,42.74a3.08,3.08,0,0,1,.84.28c1,.44,1.9.89,2.84,1.36s2.09,1.06,3.13,1.6a2.09,2.09,0,0,0,.84.28.61.61,0,0,1,.18.05A.83.83,0,0,1,92.51,47Z"/>
          <path class="cls-3" d="M19.41,56.11a1,1,0,0,1-.25,0,14.09,14.09,0,0,1-3.37-1,5.84,5.84,0,0,1-1.06-.61,2.66,2.66,0,0,1-.56-.55c0-.12.09-.1.14-.11a20.14,20.14,0,0,0,3.5-1c.49-.19,1-.4,1.46-.63a8.48,8.48,0,0,0,2.19-1.49,7.76,7.76,0,0,1,1.33.37l-.22.14a5.29,5.29,0,0,0-1.85,1.79,9.87,9.87,0,0,0-.84,1.73l-.3.84C19.53,55.82,19.48,56,19.41,56.11Z"/>
          <path class="cls-3" d="M32.45,45.53l-.46,0a11.88,11.88,0,0,1-4-.6,13.49,13.49,0,0,1-2.64-1.16l-.29-.17s0,0,0-.06.09-.06.15-.06l1.66-.07A20.7,20.7,0,0,0,29.79,43,28.08,28.08,0,0,0,33.61,42l.23-.07c.07.06,0,.1,0,.14a7,7,0,0,0-.76,1.8A11.11,11.11,0,0,1,32.45,45.53Z"/>
          <path class="cls-3" d="M24.84,50.53a16.14,16.14,0,0,1-6-2.11c.09-.08.2-.06.31-.07l1.4-.1a15.17,15.17,0,0,0,2.13-.3,4.43,4.43,0,0,0,.8-.27,14.11,14.11,0,0,1,3.48-1l1.21-.2.18,0c0,.1,0,.12-.07.15a15,15,0,0,0-3,3.36A2.58,2.58,0,0,1,24.84,50.53Z"/>
          <path class="cls-3" d="M55.83,75.7c.07.52.12,1,.18,1.41l-.66.74c-.21.26-.41.52-.61.79s-.37.55-.55.84-.34.6-.5.91-.29.6-.42.9-.26.62-.37.93-.21.63-.32,1-.15.64-.29,1a8.35,8.35,0,0,1-.84-5.6l.23-.08a9.46,9.46,0,0,0,3.26-1.79,4.2,4.2,0,0,0,.72-.74A1.37,1.37,0,0,1,55.83,75.7Z"/>
          <path class="cls-3" d="M63.72,64.75a6.83,6.83,0,0,0,3-1.28l.07,0a0,0,0,0,1,0,0c0,.56.07,1.11.1,1.68l-.1.09A5.67,5.67,0,0,0,65,67.21a9.86,9.86,0,0,0-1.11,2.66c-.14.51-.24,1-.36,1.55-.07,0-.09,0-.11-.1A6.5,6.5,0,0,1,63,69.75a9.77,9.77,0,0,1,.66-4.87A.69.69,0,0,1,63.72,64.75Z"/>
          <path class="cls-3" d="M33.49,39.1a24.11,24.11,0,0,0,3.06-.51,22.3,22.3,0,0,0,3-.93c1-.37,1.9-.79,2.83-1.25A6.73,6.73,0,0,0,40.19,40a14.13,14.13,0,0,1-3.25,0A10.34,10.34,0,0,1,33.49,39.1Z"/>
          <path class="cls-3" d="M77.51,35.34a5.93,5.93,0,0,1,.73,0l.74.06a3,3,0,0,1,.83.18c1.35.5,2.66,1.1,4,1.71l.9.43-.21.13c-.55.31-1.1.62-1.64.94a.63.63,0,0,1-.42.09A3.73,3.73,0,0,1,80.28,38c-.88-.84-1.77-1.65-2.69-2.45l-.12-.08Z"/>
          <path class="cls-3" d="M93,35.43a21.67,21.67,0,0,0-7,1.72c-.08,0-.05-.1,0-.14a4,4,0,0,0,.34-1.36c0-.08,0-.17.05-.28l.24.12a3.37,3.37,0,0,0,1.16.56,1.64,1.64,0,0,0,.66,0,.85.85,0,0,0,.24-.09.18.18,0,0,0,0-.31.7.7,0,0,0-.2-.08l-.3,0a1.1,1.1,0,0,1-.65-.33.73.73,0,0,1-.24-.63l0-.33a3.82,3.82,0,0,0,0-1.26,2.24,2.24,0,0,0-.68-1.28l-.11-.11s0,0,0,0c.17,0,.23,0,.34.06a2.2,2.2,0,0,1,.26.27c.29.39.58.77.86,1.16l1,1.35.39.5a.56.56,0,0,0,.47.25l2.07.15Z"/>
          <path class="cls-5" d="M93.82,53.87a2.71,2.71,0,0,1-.16.81,5.74,5.74,0,0,1-2.06,2.84.51.51,0,0,1-.34.1,2.4,2.4,0,0,1-1-.31.73.73,0,0,1-.36-.82.26.26,0,0,1,.22-.23l.07,0a2.84,2.84,0,0,0,1.23-.47,4.82,4.82,0,0,0,1.48-1.33,1.5,1.5,0,0,1,.63-.51A1.37,1.37,0,0,1,93.82,53.87Z"/>
          <path class="cls-5" d="M80.12,46.86a2.13,2.13,0,0,1-.55-2.67,3.35,3.35,0,0,1,.37-.09,1.39,1.39,0,0,1,1.55.83q.06.12.12.27c0,.1.06.21.1.33l-.21.14-.45.27A2.64,2.64,0,0,0,80.12,46.86Z"/>
          <path class="cls-5" d="M96.39,48l.73,0a3.89,3.89,0,0,1,.68,0q0,.16-.06.3a5.21,5.21,0,0,1-.59,1.47,3.51,3.51,0,0,1-1.44,1.34,1.6,1.6,0,0,1-.42.14.15.15,0,0,1-.16-.19.72.72,0,0,1,.1-.24,2.44,2.44,0,0,1,.32-.4,1.66,1.66,0,0,0,.42-.68,10.61,10.61,0,0,0,.35-1.48Z"/>
          <path class="cls-5" d="M85.74,46.28a5.52,5.52,0,0,1-1.25,1.52,4.2,4.2,0,0,1-1.27-1.32,1.26,1.26,0,0,1-.13-.34c-.06-.23,0-.31.21-.4l.18-.05a2.89,2.89,0,0,1,1.81.19A1,1,0,0,1,85.74,46.28Z"/>
          <path class="cls-5" d="M94.45,47.69a3.72,3.72,0,0,1-.85,1.22,2.09,2.09,0,0,1-1.1.57h-.23a1.92,1.92,0,0,1,0-.22c0-.13,0-.27,0-.41A2.38,2.38,0,0,0,92,47.67a.53.53,0,0,1,.16-.09,3.64,3.64,0,0,1,1.79-.16A.83.83,0,0,1,94.45,47.69Z"/>
          <path class="cls-5" d="M81.61,35.52a11.9,11.9,0,0,1,3.47-.09,1.36,1.36,0,0,1-.44,1.38l-1.5-.66Z"/>
          <path class="cls-5" d="M84.42,53.93a2.32,2.32,0,0,1,.7-.43,3.46,3.46,0,0,1,1.19-.24c.19,0,.23,0,.29.2a1.53,1.53,0,0,1-.18,1.3A1.92,1.92,0,0,1,84.42,53.93Z"/>
          <path class="cls-5" d="M82.54,51.2a1.47,1.47,0,0,1,.32,1.43,2.13,2.13,0,0,1-2.16-1,7.55,7.55,0,0,1,.94-.12A2.92,2.92,0,0,0,82.54,51.2Z"/>
          <path class="cls-5" d="M87.92,55.73l.85-1a.41.41,0,0,1,.38-.2c.18,0,.24.19.27.35a2.07,2.07,0,0,1,0,1,1.84,1.84,0,0,1-.09.25c-.12.23-.21.28-.48.24A1.2,1.2,0,0,1,87.92,55.73Z"/>
          <path class="cls-5" d="M78.43,49.77,80,49.44a.64.64,0,0,1,.12.48,1.45,1.45,0,0,1-.35.81.2.2,0,0,1-.23.07,1,1,0,0,1-.25-.07A1.64,1.64,0,0,1,78.43,49.77Z"/>
          <path class="cls-5" d="M87.77,46.72a2.18,2.18,0,0,1,1.48.81,1.71,1.71,0,0,1-.64.52.32.32,0,0,1-.4-.09l-.07-.09A3.05,3.05,0,0,1,87.77,46.72Z"/>
          <path d="M56.75,32.52a3.72,3.72,0,0,1-1-1,.45.45,0,0,1,.34,0,6.56,6.56,0,0,0,1.25.14,4.7,4.7,0,0,0,1.89-.31,11.73,11.73,0,0,1,2.53-.7,5.5,5.5,0,0,1,1.81-.05A3.42,3.42,0,0,1,64.8,31l.18.1c.1-.07.07-.15.07-.22,0-.24,0-.49.11-.73a1.18,1.18,0,0,1,.17-.4.65.65,0,0,1,.44-.32.24.24,0,0,1,.31.26.52.52,0,0,1-.07.21.58.58,0,0,0,0,.63,2.06,2.06,0,0,0,.33.4,2.83,2.83,0,0,0,.45.32,3.32,3.32,0,0,1,.78.57,10.23,10.23,0,0,1,1.63,2,3.07,3.07,0,0,1,.45,1,.73.73,0,0,0,.14.26c.11.14.23.28.34.43s.09.14.16.26a1.18,1.18,0,0,1-.18,0,4.93,4.93,0,0,1-.39-.4c-.4-.48-.8-1-1.18-1.47a4.53,4.53,0,0,0-1.4-1.21,7.48,7.48,0,0,0-2.69-.88,8.14,8.14,0,0,0-2.26,0,6.59,6.59,0,0,0-1.64.42c-.74.31-1.47.65-2.21,1-.42.19-.83.39-1.25.56a7,7,0,0,1-2.3.51l-2.6.15a4.47,4.47,0,0,0-.8.14.46.46,0,0,0-.29.6.54.54,0,0,0,.23.32,1.87,1.87,0,0,0,.39.22c.22.11.45.19.68.29a10.83,10.83,0,0,1,4.27,3.05,11.46,11.46,0,0,0,2.63,2.33,6.54,6.54,0,0,0,2.16,1,3.94,3.94,0,0,0,1.14.08c1.13-.09,2.26-.24,3.39-.39.6-.07,1.2-.12,1.81-.17a1.35,1.35,0,0,1,.81.19,6.76,6.76,0,0,1,1.86,1.45,1.87,1.87,0,0,1,.24.38.07.07,0,0,1,0,.09.18.18,0,0,1-.13,0,.57.57,0,0,1-.18-.12c-.11-.09-.2-.19-.3-.28a2.83,2.83,0,0,0-2-.82,7.9,7.9,0,0,0-1.69.22l-1.59.36a9.19,9.19,0,0,1-2.4.18A5.54,5.54,0,0,1,60.73,43a10.4,10.4,0,0,1-1.88-1,17.51,17.51,0,0,1-2.69-2.32A22.79,22.79,0,0,0,53.07,37a7.84,7.84,0,0,0-1.37-.81,5.32,5.32,0,0,1-.61-.35,2.66,2.66,0,0,1-.35-.32,1.19,1.19,0,0,1,.38-1.66,4.87,4.87,0,0,1,.74-.23c.52-.1,1-.18,1.57-.24l1.66-.16A4.49,4.49,0,0,0,56.18,33a1.53,1.53,0,0,0,.37-.16A.31.31,0,0,0,56.75,32.52Z"/>
          <path d="M71.37,37.22l-.24-.5a3.43,3.43,0,0,1-.19-.48.39.39,0,0,1,.09-.43c.17,0,.09.23.19.32s.07,0,.1,0a4.6,4.6,0,0,1,2.05.24,5.66,5.66,0,0,1,1.68.85,3,3,0,0,1,.81.85,1.63,1.63,0,0,1,.19,1.39,1.34,1.34,0,0,1-.48.69,2.07,2.07,0,0,1-1.86.25c0-.07,0-.09.06-.11l.18-.07a.89.89,0,0,0,.45-.52,1.16,1.16,0,0,0,0-.18,2.22,2.22,0,0,0-.94-2.36,4.69,4.69,0,0,0-1.65-.64,1,1,0,0,0-.49-.05c0,.06,0,.12.07.17l.36.56a1.64,1.64,0,0,0,.6.54c.29.17.56.37.83.56a.6.6,0,0,1,.16.19.29.29,0,0,1-.3,0c-.18-.06-.35-.14-.52-.21a4.44,4.44,0,0,0-1.39-.35,9.52,9.52,0,0,1-1.68-.29l-.42-.14a1.47,1.47,0,0,1-.66-.47c-.18-.23-.38-.45-.58-.66a2,2,0,0,0-.85-.53l-.13,0c-.07.07,0,.12,0,.17.2.43.41.85.62,1.27,0,.09.09.17.15.29a.65.65,0,0,1-.17,0,2,2,0,0,1-.74-.47,2.36,2.36,0,0,0-.75-.54c-.46-.23-.93-.45-1.41-.65a4.24,4.24,0,0,1-1.26-.67c-.1.06,0,.11,0,.16a3.21,3.21,0,0,0,.8,1.1,1,1,0,0,1,.37.53c-.09,0-.14,0-.19-.06A7,7,0,0,0,62.42,36a4.43,4.43,0,0,0-1.35-.21l-.27,0a3.73,3.73,0,0,1,1.05.64,2.09,2.09,0,0,1,.13.23l-.2,0-1-.35a1.87,1.87,0,0,0-.88-.08c-.19,0-.39,0-.59.06a3.81,3.81,0,0,1-1.5-.12,2.06,2.06,0,0,1-1.36-1.29c.12,0,.18,0,.25.07l.26.13.24.11.28.09.25.07.25.07.29.05.26,0,.3,0h.28a1.06,1.06,0,0,0,0-.2,3.64,3.64,0,0,0-.25-.57,1.67,1.67,0,0,1-.21-.94s.08,0,.1.07a2.09,2.09,0,0,0,.8.65,7.71,7.71,0,0,0,1,.45c.47.16,1,.29,1.45.43l.25,0c.07-.06,0-.12,0-.18-.05-.22-.09-.43-.13-.65a1.49,1.49,0,0,1,0-.63.9.9,0,0,1,.63-.7.93.93,0,0,0,.07.2,1.69,1.69,0,0,0,.42.69,4.24,4.24,0,0,0,.84.68,9.87,9.87,0,0,0,1.73.84l.16,0c0-.15.06-.28.08-.41a3.35,3.35,0,0,1,.39-1.07,1.23,1.23,0,0,1,.7-.6c0,.07.06.14.08.2a3.8,3.8,0,0,0,1.66,2.45,5.5,5.5,0,0,0,2,.84l.29,0Z"/>
          <path d="M70.78,41a.35.35,0,0,1-.29-.08l-.78-.44a7.07,7.07,0,0,0-1.82-.7,5.79,5.79,0,0,0-2,0,15.56,15.56,0,0,0-2.85.68l-.26.08c0-.07-.11-.13-.15-.2a7.46,7.46,0,0,0-.75-1.11,4.12,4.12,0,0,0-.79-.77,1.86,1.86,0,0,0-.67-.31,1.23,1.23,0,0,0-.33,0,.63.63,0,0,0-.59.43,2.89,2.89,0,0,0-.11.51c-.07,0-.1-.05-.13-.09a3.9,3.9,0,0,0-.7-.76,1.58,1.58,0,0,0-.36-.2.15.15,0,0,0-.21.13s0,.1,0,.15v.12a.48.48,0,0,1-.48-.28.82.82,0,0,1-.08-.65.41.41,0,0,1,.59-.32,1.44,1.44,0,0,1,.42.23c.2.15.38.32.57.48a3.23,3.23,0,0,1,.49-.25,3,3,0,0,1,.94-.16,1.45,1.45,0,0,1,.68.16,3.9,3.9,0,0,1,.81.53,8.8,8.8,0,0,1,1,1l.25.29a1.84,1.84,0,0,0,.25,0,12,12,0,0,1,2.78-.45,5.09,5.09,0,0,1,2.46.39,5.69,5.69,0,0,1,1.8,1.28c.1.11.18.23.27.35A1,1,0,0,1,70.78,41Z"/>
          <path d="M85.42,40.24c0-.11.15-.12.24-.14.44-.11.88-.22,1.33-.3a12.47,12.47,0,0,1,2.52-.16,6.83,6.83,0,0,1,1.35.17,4.31,4.31,0,0,1,1.43.6,9.12,9.12,0,0,1,1.34,1.05c.53.49,1,1,1.54,1.51s.85.89,1.28,1.34c.16.17.34.32.51.49a1.31,1.31,0,0,0,.69.33,6.87,6.87,0,0,0,.78.08c.38,0,.76,0,1.15,0h.25c0,.09,0,.12-.06.15a2.19,2.19,0,0,1-1,.22,5.55,5.55,0,0,1-1.72-.25A5.87,5.87,0,0,1,94.71,44c-.38-.35-.76-.71-1.13-1.08A18.6,18.6,0,0,0,92,41.53a6.78,6.78,0,0,0-3.85-1.38,14.45,14.45,0,0,0-2.37.07,2.67,2.67,0,0,1-.4,0Z"/>
          <path d="M75.36,51.44a.42.42,0,0,1,.18.07,1.71,1.71,0,0,1,.22.25,4.15,4.15,0,0,1,.35.57.49.49,0,0,0,.41.32.71.71,0,0,1,.37.15,5,5,0,0,0,.87.49,10.41,10.41,0,0,1,1.87,1.05c.29.21.6.39.9.6a6.69,6.69,0,0,0,1.7.88,7.19,7.19,0,0,1,2.67,1.62c.2.19.42.36.62.53a3.8,3.8,0,0,0,1.44.74,1.86,1.86,0,0,0,.62.08h.3a.33.33,0,0,1,.24.16.13.13,0,0,1-.08.2h-.11l-1.23,0a1,1,0,0,1-.65-.21c-.69-.5-1.39-1-2.09-1.47a9.89,9.89,0,0,0-1.21-.72c-.27-.14-.53-.31-.8-.48s-.64-.41-1-.6a7,7,0,0,0-1.19-.6,10.69,10.69,0,0,1-1.69-.85c-.26-.15-.54-.29-.82-.42l-1-.46-.3-.14a.37.37,0,0,1-.25-.41.73.73,0,0,0-.13-.52,2.48,2.48,0,0,1-.2-.44A.44.44,0,0,1,75.36,51.44Z"/>
          <path d="M101.29,43.13a.66.66,0,0,0-.6-.23,5.32,5.32,0,0,0-1.23-1.66,11,11,0,0,0-2-1.57,5.32,5.32,0,0,0-2.33-.77,42.2,42.2,0,0,0-5-.14h-.36c0-.11.06-.13.12-.14a9.27,9.27,0,0,1,1-.29A16.26,16.26,0,0,1,94.86,38a4.8,4.8,0,0,1,1.59.33,9.72,9.72,0,0,1,2.94,1.82,3.43,3.43,0,0,1,.73.88c.16.27.33.52.5.78a2.06,2.06,0,0,0,.35.43A1.13,1.13,0,0,1,101.29,43.13Z"/>
          <path d="M67.88,43a1.84,1.84,0,0,1,.62,1.14,1,1,0,0,1-.35.93,1.82,1.82,0,0,1-.38.29,4.33,4.33,0,0,1-2.28.53,2.06,2.06,0,0,1-1.14-.39,1.31,1.31,0,0,1-.18-.17.75.75,0,0,1,.32,0,4.54,4.54,0,0,0,1.21-.18,3,3,0,0,0,2.11-2Z"/>
          <path d="M85.41,40.23l0,.05,0,0Z"/>
        </g>
      </g>
    </g>
  </g>
</svg>
