<svg xmlns="http://www.w3.org/2000/svg" viewBox="0 0 118 118">
  <defs>
    <style>
      .cls-1 {
        fill: #ffce00;
      }

      .cls-2 {
        fill: #ffde55;
      }
    </style>
  </defs>
  <title>house-baratheon</title>
  <g id="Layer_2" data-name="Layer 2">
    <g id="Layer_1-2" data-name="Layer 1">
      <g>
        <rect class="cls-1" width="118" height="118"/>
        <g>
          <path d="M33.86,55.64c-.28.2-.53.37-.76.56a66,66,0,0,0-5.65,5.44.63.63,0,0,0-.15.75c.21.51.1.73-.42,1a.44.44,0,0,0-.19.19,1.65,1.65,0,0,1-1.49,1,12.91,12.91,0,0,1-2.33-.1A.92.92,0,0,1,22.15,63a7,7,0,0,1,1.13-1.61c1-1,2-2,3-3,1.74-1.63,3.5-3.24,5.25-4.85A4.63,4.63,0,0,1,34,52.28a1.91,1.91,0,0,1,2.16,1,19,19,0,0,1,.89,1.81,4.82,4.82,0,0,0,1.68,1.71l.37-2.12-.07,0-.79.83-.06,0,1.11-1.87c.38-.63.75-1.25,1.09-1.92L40,52l-.1-.07,1.72-2.61-.68.28,0-.06c.73-.4,1.46-.82,2.19-1.21a.78.78,0,0,0,.44-.57c.29-1.25.6-2.49.91-3.73l-.12,0a3.51,3.51,0,0,1-.41-.88.81.81,0,0,1,.49-.86.79.79,0,0,1,.92.13.89.89,0,0,1,.26,1,1.29,1.29,0,0,0,0,1.07c.05.23.12.45.19.71.11-.08.2-.13.28-.2l4.85-4a1,1,0,0,1,.46-.17l2.35-.37a2.11,2.11,0,0,0,1.52-1c.59-.95,1.19-1.9,1.76-2.87a.79.79,0,0,1,.8-.45h.62a1.43,1.43,0,0,1,1.25.5,2.84,2.84,0,0,0,1.23.56c.18.06.29,0,.3.29A17.4,17.4,0,0,1,57.4,49.17a18.63,18.63,0,0,1-2,2,3.11,3.11,0,0,0-.5.52L58,51.43c0-.13,0-.23,0-.34a.9.9,0,0,1,1-.86,1,1,0,0,1,.88,1.11.86.86,0,0,1-1,.75.77.77,0,0,0-.72.18c-1.06.76-2.11,1.5-3.18,2.24a.41.41,0,0,0-.19.48A5.86,5.86,0,0,0,56,57.74a15.58,15.58,0,0,0,3.66,3.4,75,75,0,0,1,8.62,6.55,39.8,39.8,0,0,1,5.4,5.91,9.75,9.75,0,0,1,2,4.26c.12.79.13,1.6.26,2.4a13,13,0,0,0,.48,1.83,3.7,3.7,0,0,0,1.18,1.37c.12.11.27.37.23.43a.65.65,0,0,1-.48.26,23.57,23.57,0,0,1-2.5-.27,1.43,1.43,0,0,1-1.26-1.45c0-1,0-2,.05-3,0-.31.15-.64-.13-1.05a4.09,4.09,0,0,0-.13.48A6.3,6.3,0,0,1,72,82.6a15.1,15.1,0,0,0-2.62,6.65,3.37,3.37,0,0,0,.44,2.19,9.68,9.68,0,0,0,2.09,2.79,1.88,1.88,0,0,1,.56,2c-.3,1.38-.68,2.75-.89,4.14-.28,1.8-.42,3.61-.6,5.42a11.1,11.1,0,0,0-.07,1.28,3.19,3.19,0,0,0,.13.75.88.88,0,0,1-.12,1,.82.82,0,0,1-.93.1,1.71,1.71,0,0,0-.18-.07l-.7,1.34a1.59,1.59,0,0,1-1.76.89c-.33,0-.66,0-1-.11a.94.94,0,0,1-.84-1.37,5.22,5.22,0,0,1,2-2.67A1.08,1.08,0,0,0,68,106q.28-4.39.62-8.77a1.82,1.82,0,0,0-.42-1.33l-2.84-3.54a14.61,14.61,0,0,1-3.07-6.72,9.11,9.11,0,0,1-.11-1q-.28-4.23-.55-8.44c0-.38,0-.76,0-1.14s-.13-.46-.47-.37c0,.45,0,.89,0,1.34,0,.28,0,.56,0,.84a.66.66,0,0,1-1,.61c-.68-.36-1.33-.76-2-1.09a31.64,31.64,0,0,0-3.22-1.4,21.23,21.23,0,0,1-7.44-4.42.82.82,0,0,0-.38-.21c0,.56.09,1.12.14,1.71a22.73,22.73,0,0,1-4.35-3.84l-.07.06.68,1-.09.06-2.18-2.44v1.33c-.59-.58-.82-2-.55-3.55.31.18.61.33.89.51,1,.65,2,1.32,3,2,.77.51,1.08.5,1.74-.15A3.22,3.22,0,0,0,47,65.79a17.85,17.85,0,0,0,.58-2.29.75.75,0,0,0-.28-.78c-.1.64-.2,1.23-.3,1.83a3.51,3.51,0,0,1-.68,1.6,1.24,1.24,0,0,1-1.79.42c-.51-.28-1-.64-1.49-.94-2.13-1.31-4.26-2.62-6.4-3.9a5.23,5.23,0,0,0-1.14-.49c-.45-.16-.52-.13-.58.34-.08.77-.18,1.55-.19,2.33,0,1.21.07,2.42.08,3.62a1.21,1.21,0,0,0,.61,1.09,1,1,0,0,1,.22.19.58.58,0,0,1-.1.9.49.49,0,0,0-.26.49c0,.3.09.42.37.5A.76.76,0,0,1,36.13,72a10.9,10.9,0,0,1-1.58,1.8c-.7.62-1.42.36-1.66-.55-.12-.5-.15-1-.24-1.52a.65.65,0,0,0-.14-.35A1.34,1.34,0,0,1,32,70.2c0-2.69-.07-5.37-.1-8.06,0-.86,0-1.73.06-2.6a2.27,2.27,0,0,1,2.85-2.11,4.66,4.66,0,0,1,1.29.57c1.83,1.17,3.65,2.37,5.47,3.56l.43.27c.1-.35.31-.67.27-1a3.45,3.45,0,0,1,1.53-3.17l.2-.17s0,0,0-.06a.82.82,0,0,0-.79.22,4,4,0,0,0-1.33,1.84c-.08.23-.14.47-.22.7a.65.65,0,0,1-1,.39c-.75-.46-1.48-.94-2.23-1.41-1-.6-2-1.21-2.93-1.8A3.71,3.71,0,0,1,34.09,56,3,3,0,0,0,33.86,55.64ZM45.11,44.07c-.31-.07-.42,0-.48.32q-.26,1.15-.57,2.31a.36.36,0,0,0,.2.49c3.66,2.14,7.3,4.3,11,6.45a.36.36,0,0,0,.48,0c.74-.54,1.5-1.06,2.24-1.59a2.78,2.78,0,0,0,.27-.21.7.7,0,0,0-.41-.08L54.62,52c-.44,0-.47,0-.49-.44,0-.73-.07-1.47-.1-2.2,0-.4-.19-.53-.59-.42-.95.25-1.91.5-2.86.77-.24.06-.33,0-.36-.24-.09-.7-.2-1.4-.28-2.1,0-.46,0-.9-.64-1a.65.65,0,0,0-.53,0c-.74.37-1.5.72-2.24,1.08-.44.21-.5.18-.62-.3C45.64,46.11,45.38,45.1,45.11,44.07Zm10.08,9.85L44,47.31c-.28.72-.28.72.33,1.08L54,54.09c.61.35.61.35,1.15-.11C55.16,54,55.16,54,55.19,53.92ZM49.9,44.87a.66.66,0,0,0-.75.67.72.72,0,0,0,.75.73.69.69,0,0,0,.65-.7A.67.67,0,0,0,49.9,44.87Zm5.16,3.39a.68.68,0,0,0-.67-.68.6.6,0,0,0-.6.61.64.64,0,1,0,1.27.07Zm3.26,2.93a.63.63,0,0,0,1.26,0,.69.69,0,0,0-.66-.69A.62.62,0,0,0,58.32,51.19ZM44.76,42.52a.63.63,0,0,0-.59.63.6.6,0,0,0,.64.61.49.49,0,0,0,.51-.5A.66.66,0,0,0,44.76,42.52Z"/>
          <path d="M63.3,26.5A12.31,12.31,0,0,0,60.47,20a1.42,1.42,0,0,1-.18-.49,1.61,1.61,0,0,1,.49.19c.33.26.63.57.95.86A7.54,7.54,0,0,1,64,24.11c.22.76.45,1.52.69,2.34l1.64.08a.45.45,0,0,0,.27-.14l.74-.67A3.73,3.73,0,0,0,68.45,22a13.57,13.57,0,0,0-2.61-5.78c-.12-.18-.41-.37-.17-.59s.44.09.59.24a13,13,0,0,1,3.19,4.82A10.25,10.25,0,0,1,70,24.55c0,.74,0,1.48,0,2.25l2.44.27c0-.47,0-.91,0-1.34a4.42,4.42,0,0,1,.69-2.18,10.77,10.77,0,0,1,.6-1c.08-.12.29-.14.44-.21,0,.15.14.31.11.45-.16.86-.39,1.71-.53,2.57a10.45,10.45,0,0,0,0,1.68.34.34,0,0,0,.16.27c1,.24,2.05.45,3.12.68.27-1.49.5-2.95-.33-4.34-.28-.47-.57-.94-.88-1.39a1.61,1.61,0,0,0-.4-.38c-.58-.45-1.18-.89-1.77-1.36-.09-.07-.13-.23-.19-.35.14,0,.3-.07.42,0,.78.28,1.55.59,2.33.88a1.54,1.54,0,0,0,1.37-.12,1.3,1.3,0,0,0,.54-1.81,17.78,17.78,0,0,0-2.64-3.41c-.24-.27-.49-.54-.71-.83a.93.93,0,0,1-.1-.38c.14,0,.32,0,.42,0,.79.55,1.57,1.12,2.37,1.66a.84.84,0,0,0,.56.11,3.07,3.07,0,0,0,1.67-.84A1.07,1.07,0,0,0,80,14.34a10.71,10.71,0,0,0-1.31-3.44,8.77,8.77,0,0,0-1.57-1.53,3.73,3.73,0,0,1-.3-.26.88.88,0,0,1-.07-.29,1.55,1.55,0,0,1,.29,0,.28.28,0,0,1,.13.07c1.11.85,2.25,1.67,3.33,2.57a6.44,6.44,0,0,1,2.24,4.39,21.28,21.28,0,0,1-.24,6.85,10,10,0,0,1-2,4.25c-.35.45-.72.89-1.09,1.35.22.16.35.07.51-.11a37.81,37.81,0,0,0,3.36-4.79c.48-.78,1-1.54,1.49-2.31.12-.19.25-.4.52-.25s.14.38,0,.58c-.54,1.08-1.09,2.16-1.61,3.25a4.6,4.6,0,0,0-.23,2.27c0,.28.22.46.57.51a3.51,3.51,0,0,0,3.69-2.51,5.61,5.61,0,0,0-.37-4.18,19.07,19.07,0,0,1-.84-1.91c0-.13,0-.32.08-.48a1.47,1.47,0,0,1,.38.25c.47.62.9,1.29,1.4,1.88a2.2,2.2,0,0,0,3,.12,1.89,1.89,0,0,0,.47-1.36,4,4,0,0,0-1.24-3c-.85-.88-1.79-1.66-2.68-2.49-.08-.07-.18-.13-.21-.21a.44.44,0,0,1,0-.32c0-.06.19-.08.29-.07a.69.69,0,0,1,.25.14l2.45,1.54a1.4,1.4,0,0,0,1.64-.1,2.25,2.25,0,0,0,.85-2.14,5.4,5.4,0,0,0-.77-2.23c-.68-1-1.31-2-2-3a1.28,1.28,0,0,1-.15-.25A.25.25,0,0,1,90.36,7s.12,0,.16,0a1.39,1.39,0,0,1,.21.21c.81.93,1.58,1.9,2.42,2.8a10.55,10.55,0,0,1,2.77,6.24,10.76,10.76,0,0,1-3.65,9.7,16.33,16.33,0,0,1-4.11,2.65,13.76,13.76,0,0,1-7.43,1.15q-1.26-.15-2.52-.24a.89.89,0,0,0-.47.12c-.44.24-.87.5-1.29.76A8.88,8.88,0,0,1,71,31.49c-3.13-.25-6.26-.44-9.39-.63a7.43,7.43,0,0,0-1.49.12,2.37,2.37,0,0,0-1.44,1,4.67,4.67,0,0,1,2.12,1.49,2.91,2.91,0,0,0,1,.53c.69.25,1.4.45,2.1.65.32.09.57.24.59.61a.63.63,0,0,1-.47.65c-.62.27-1.21.59-1.83.85a2.14,2.14,0,0,1-2.75-.85.55.55,0,0,0-.33-.23c-.58-.05-1.17-.08-1.76-.08-.11,0-.26.14-.34.26-.6.9-1.21,1.8-1.77,2.73a3.31,3.31,0,0,1-2.8,1.66,24.52,24.52,0,0,0-3.09.33c-1.16.23-2.29.6-3.43.92l-.56.16a.69.69,0,0,1-.69-1.18l.41-.48L45,39.91c-.42.18-.84.37-1.27.51a2.69,2.69,0,0,1-.89.16,1.31,1.31,0,0,1-1.33-1.25,4.48,4.48,0,0,1,.1-1.41,1.26,1.26,0,0,1,1.24-1h0a5.26,5.26,0,0,0,3.3-1c1.67-.93,3.36-1.85,5-2.77a10.5,10.5,0,0,1,4.68-1.43,1.4,1.4,0,0,0-.65-.95c-.91-.51-1.85-1-2.74-1.54S50.59,28,49.66,27.36a6.6,6.6,0,0,1-2.18-3.27c0-.08,0-.19.06-.28s.2.08.25.15c.18.24.33.49.49.74a6.54,6.54,0,0,0,2.53,2.22c1.48.77,2.94,1.58,4.41,2.39,1,.53,1,.54,1.85,1.76,0-.3.13-.58.15-.86A.5.5,0,0,0,57,29.9c-.91-.83-1.87-1.61-2.73-2.49a15.93,15.93,0,0,1-1.76-2.24,7.56,7.56,0,0,1-1-4.37c0-.09.14-.19.22-.29.09.1.23.18.26.3a17.61,17.61,0,0,0,.39,1.78,6.8,6.8,0,0,0,.91,1.9,28.62,28.62,0,0,0,4.5,4.44A12.5,12.5,0,0,1,63.3,26.5Zm1.81,1.23c.11.63.22,1.18.29,1.74,0,.3.16.39.47.41,1.66.09,3.33.21,5,.32.52,0,1,.06,1.6.08-.07-.58-.15-1.1-.17-1.62,0-.29-.13-.36-.4-.39l-4.84-.42C66.42,27.8,65.79,27.77,65.11,27.73ZM58.56,30.3c1.56-1,3.21-.65,4.88-.61v-1.9C62,27.8,59,29.34,58.56,30.3Zm-4.48,5A1,1,0,0,0,53,34.36a1,1,0,0,0-1,1.1,1,1,0,0,0,1.07,1A1.08,1.08,0,0,0,54.08,35.29Zm22-6.12L76,29l-2.51-.54c.07.59.13,1.1.2,1.71Z"/>
          <path d="M51.28,92.48a.63.63,0,0,0-.68.37c-.43.77-.79,1-1.64.77a9.4,9.4,0,0,1-2.07-.72c-.94-.46-1-1.29-.17-1.94a6,6,0,0,1,3.57-1.34c1.7-.05,3.39-.11,5.09-.15a8.12,8.12,0,0,0,2.84-.61c.54-.21.6-.3.41-.85a5.18,5.18,0,0,0-.58-1.18A12.33,12.33,0,0,1,56,82a8.45,8.45,0,0,1,.43-4.92c.32-.7.7-.87,1.39-.51.85.44,1.69.91,2.54,1.37a1.82,1.82,0,0,1,1,1.6c.11,1.75.19,3.49.36,5.23.11,1.26.34,2.51.53,3.76a1.19,1.19,0,0,0,.29.54,1.42,1.42,0,0,1,.33,1.45,1.2,1.2,0,0,1-1.09.9c-1.56.19-3.12.37-4.69.54-1.24.14-2.47.27-3.72.37a1.23,1.23,0,0,0-.91.64.62.62,0,0,1-1.1,0A2.17,2.17,0,0,1,51.28,92.48Z"/>
          <path d="M49.66,30.84c.17-.46.33-.93.52-1.39.08-.2.25-.23.41-.08a.64.64,0,0,1,.21.32c.16,1.16.38.94,1.2,1,.43.05.85.05,1.28.1a.78.78,0,0,1,.48.92.21.21,0,0,1-.16.11,5.31,5.31,0,0,0-2.46,1.08s-.18,0-.25,0A2.3,2.3,0,0,1,49.66,30.84Z"/>
          <path class="cls-2" d="M45.11,44.07c.27,1,.53,2,.8,3.06.12.48.18.51.62.3.74-.36,1.5-.71,2.24-1.08a.65.65,0,0,1,.53,0c.59.15.59.59.64,1,.08.7.19,1.4.28,2.1,0,.25.12.3.36.24,1-.27,1.91-.52,2.86-.77.4-.11.58,0,.59.42,0,.73.07,1.47.1,2.2,0,.45,0,.48.49.44l3.17-.29a.7.7,0,0,1,.41.08,2.78,2.78,0,0,1-.27.21c-.74.53-1.5,1.05-2.24,1.59a.36.36,0,0,1-.48,0c-3.65-2.15-7.29-4.31-11-6.45a.36.36,0,0,1-.2-.49q.31-1.16.57-2.31C44.69,44.12,44.8,44,45.11,44.07Z"/>
          <path class="cls-2" d="M55.19,53.92s0,.06,0,.06c-.54.46-.54.46-1.15.11l-9.72-5.7c-.61-.36-.61-.36-.33-1.08Z"/>
          <path class="cls-2" d="M49.9,44.87a.67.67,0,0,1,.65.7.69.69,0,0,1-.65.7.72.72,0,0,1-.75-.73A.66.66,0,0,1,49.9,44.87Z"/>
          <path class="cls-2" d="M55.06,48.26a.64.64,0,1,1-1.27-.07.6.6,0,0,1,.6-.61A.68.68,0,0,1,55.06,48.26Z"/>
          <path class="cls-2" d="M58.32,51.19a.62.62,0,0,1,.6-.66.69.69,0,0,1,.66.69.63.63,0,0,1-1.26,0Z"/>
          <path class="cls-2" d="M44.76,42.52a.66.66,0,0,1,.56.74.49.49,0,0,1-.51.5.6.6,0,0,1-.64-.61A.63.63,0,0,1,44.76,42.52Z"/>
          <path d="M53.65,35.34a.61.61,0,0,1-.64.6.62.62,0,0,1-.59-.62.62.62,0,0,1,1.23,0Z"/>
        </g>
      </g>
    </g>
  </g>
</svg>
